<svg width="167" height="235" viewBox="0 0 167 235" fill="none" xmlns="http://www.w3.org/2000/svg">
<path d="M40.4963 110.874C30.0773 108.805 18.7998 103.069 8.53694 93.9379C5.14199 90.9332 4.98599 85.353 8.26387 83.0116C13.5709 79.2655 20.6339 76.573 29.2578 74.0755C31.8333 73.3341 34.7601 74.7389 36.2819 77.5095L43.345 90.3088L40.4963 110.874Z" fill="#E94E1B"/>
<path opacity="0.3" d="M42.3304 96.201C38.4281 88.7478 34.4869 81.2946 30.5846 73.8804C35.5795 80.6702 40.5744 87.4211 45.5693 94.2109C44.4767 94.8353 43.423 95.5377 42.3304 96.201Z" fill="#1D1D1B"/>
<path opacity="0.3" d="M41.6672 99.674C35.3846 91.8695 29.2969 83.9871 23.4045 75.9095C30.2725 83.1676 37.2576 90.1916 44.4768 97.0985C43.5403 97.9179 42.6037 98.8155 41.6672 99.674Z" fill="#1D1D1B"/>
<path opacity="0.3" d="M41.0034 103.069C32.1454 95.4596 24.0289 87.3821 16.3026 78.563C24.8484 86.4065 33.7453 93.4695 43.3057 100.025C42.5642 101.04 41.7838 102.054 41.0034 103.069Z" fill="#1D1D1B"/>
<path opacity="0.3" d="M40.3404 106.386C34.8382 102.796 29.5311 99.0887 24.2631 95.1475C19.2683 90.894 14.5076 86.5626 9.78589 81.997C14.8588 86.0553 20.0097 89.8795 25.3557 93.6256C30.8969 96.9815 36.4771 100.142 42.2134 103.147C41.628 104.162 40.9647 105.293 40.3404 106.386Z" fill="#1D1D1B"/>
<path opacity="0.3" d="M39.5987 109.625C33.7844 106.62 28.1261 103.498 22.5459 100.103C16.6146 96.5131 11.2686 91.9085 5.92261 87.499C11.5028 91.2452 17.1219 94.7571 22.9362 98.074C28.9456 101.001 34.994 103.654 41.1985 106.113C40.6522 107.322 40.145 108.493 39.5987 109.625Z" fill="#1D1D1B"/>
<path d="M40.8475 68.7295C24.0289 58.7788 10.0199 47.3843 0.888739 33.4533C-0.555086 31.2291 0.654631 28.2244 3.23009 27.6C11.4248 25.6099 19.4633 24.5562 27.3067 24.7123C36.7501 24.9074 45.8813 21.4735 52.5541 14.8007C57.4319 9.8839 63.3243 5.43537 70.2702 1.4551C72.7677 0.0503045 75.9285 1.72825 76.0456 4.61589C76.748 19.5614 74.2505 36.8873 67.9289 57.0228L40.8475 68.7295Z" fill="#E94E1B"/>
<path opacity="0.3" d="M39.833 65.8807C41.2768 64.632 42.6815 63.3443 44.1253 62.0956C43.8912 61.9005 43.6571 61.6664 43.462 61.4713C43.6962 61.3152 43.9303 61.12 44.2035 60.964C44.7107 62.0566 45.218 61.3932 46.2716 60.964C47.2082 60.5737 48.0277 60.1835 48.613 59.325C47.0131 58.3105 45.4522 57.2568 43.8523 56.2422C44.4376 55.4228 45.2961 55.4618 46.1936 55.774C46.1936 55.813 46.2326 55.852 46.2326 55.8911C46.2716 55.8911 46.3106 55.8521 46.3496 55.8521C47.0911 56.1252 47.8325 56.5154 48.4959 56.7496C48.1837 56.2813 47.8715 55.774 47.5593 55.3057C48.1056 55.0716 48.6129 54.8374 49.1592 54.6033C49.1983 55.1106 49.2374 55.5789 49.2374 56.0862C51.1494 55.8911 53.0225 55.6569 54.9346 55.4618C54.9346 55.3838 54.8955 55.3057 54.8955 55.2667C56.3003 55.1886 57.6661 55.1106 59.0709 55.0716C59.0319 54.7204 58.9929 54.4082 58.9538 54.057C59.5001 54.1351 60.0074 54.1741 60.5538 54.2521C60.5538 54.2912 60.5537 54.3302 60.5147 54.3692C62.3878 54.7984 64.2218 55.2667 66.0559 55.6959C67.6948 46.6428 69.1776 37.5896 70.5044 28.4974C71.4799 19.3662 72.2604 10.2741 72.8848 1.10389C71.3239 10.118 69.5678 19.0541 67.6948 27.9902C66.2119 33.8045 64.651 39.6188 63.0511 45.3941C63.9486 31.7363 64.8072 18.0785 65.7047 4.42074C63.1683 18.4297 60.6708 32.4387 58.1344 46.4087C56.9247 35.2874 55.754 24.205 54.5443 13.0837C54.2321 25.0245 53.8809 37.0043 53.5688 48.9451C51.4225 39.2286 48.73 29.7462 45.7643 20.1857C47.1301 29.7852 48.3007 39.3066 48.886 48.9061C48.6519 48.4769 48.4178 48.0476 48.1837 47.6574C48.1447 47.5793 48.0276 47.3452 48.1837 47.7354C44.7107 39.6578 41.2378 31.6192 37.8428 23.5026C39.911 32.5948 41.8621 41.765 44.5546 50.7011C39.0135 42.0772 33.4723 33.4533 27.9312 24.8294C31.2871 32.3217 34.643 39.7749 37.999 47.2672C38.8965 49.2963 39.8329 51.3645 40.7304 53.3936C32.5748 43.7551 24.068 34.4679 15.171 25.4928C22.4681 35.0142 29.414 44.7697 36.0088 54.7594C25.3557 45.16 14.0784 36.1848 2.29371 28.0682C15.7563 39.5017 28.3215 52.301 39.833 65.8807Z" fill="#1D1D1B"/>
<path d="M142.422 139.672L92.708 84.9627L89.5472 71.6952C89.0009 68.9246 91.4203 66.3882 94.2299 66.9345C120.531 71.7732 148.003 78.6021 165.563 98.8937C166.226 99.6741 166.382 100.728 166.031 101.703C161.231 113.722 154.831 130.853 142.422 139.672Z" fill="#E94E1B"/>
<path opacity="0.3" d="M162.831 95.9279C161.114 103.225 158.851 110.171 156.002 117.078C152.763 123.946 149.095 130.384 144.842 136.628C143.359 135.418 141.876 134.209 140.432 132.999C145.271 127.536 149.564 121.878 153.505 115.712C157.134 109.352 160.217 102.874 162.831 95.9279Z" fill="#1D1D1B"/>
<path opacity="0.3" d="M155.378 89.3331C152.295 104.162 147.573 118.249 139.73 131.282C138.208 130.15 136.686 128.98 135.164 127.848C144.334 116.297 150.539 103.225 155.378 89.3331Z" fill="#1D1D1B"/>
<path opacity="0.3" d="M147.885 84.2601C145.505 98.8154 141.603 112.824 134.618 125.858C133.057 124.804 131.457 123.712 129.896 122.658C138.247 110.99 143.749 97.9569 147.885 84.2601Z" fill="#1D1D1B"/>
<path opacity="0.3" d="M139.769 79.9678C138.442 94.0548 135.476 107.557 129.545 120.434C127.906 119.458 126.267 118.483 124.628 117.507C132.042 105.957 136.608 93.3134 139.769 79.9678Z" fill="#1D1D1B"/>
<path opacity="0.3" d="M132.355 76.807C131.886 83.3237 131.145 89.6453 130.091 96.084C128.57 102.562 126.657 108.727 124.433 114.971C122.716 114.112 121.038 113.254 119.321 112.395C122.365 106.659 125.565 100.845 127.516 94.6402C129.467 88.7088 131.028 82.8554 132.355 76.807Z" fill="#1D1D1B"/>
<path opacity="0.3" d="M124.121 73.9584C124.043 79.9288 123.731 85.7821 123.184 91.7525C122.287 97.762 120.921 103.576 119.36 109.469C117.604 108.727 115.848 108.025 114.092 107.283C116.473 101.976 118.619 96.7084 120.414 91.1672C121.858 85.4309 123.106 79.7727 124.121 73.9584Z" fill="#1D1D1B"/>
<path opacity="0.3" d="M116.122 71.6561C116.356 77.1973 116.59 82.7774 116.239 88.3185C115.887 93.5865 115.146 98.7374 114.287 103.927C112.453 103.342 110.658 102.796 108.824 102.21C110.541 97.4887 112.102 92.767 113.312 87.8893C114.639 82.5433 115.38 77.1192 116.122 71.6561Z" fill="#1D1D1B"/>
<path opacity="0.3" d="M107.576 69.5879C108.512 79.1874 109.488 88.6307 109.175 98.3082C107.302 97.957 105.429 97.6059 103.556 97.2547C105.703 88.1235 106.6 78.9142 107.576 69.5879Z" fill="#1D1D1B"/>
<path opacity="0.3" d="M98.3274 92.2989C99.7322 84.2213 100.435 76.2998 100.474 68.1052C102.386 76.2608 103.517 84.2603 104.025 92.6111C102.152 92.533 100.24 92.416 98.3274 92.2989Z" fill="#1D1D1B"/>
<path opacity="0.3" d="M93.1763 87.421C93.3324 83.9871 93.4885 80.5531 93.6836 77.0802C93.5665 73.6852 93.4495 70.2903 93.3324 66.8563C94.386 70.1732 95.4786 73.4901 96.5322 76.807C97.3126 80.1629 98.0931 83.5188 98.8735 86.8747C96.9615 87.0698 95.0883 87.2649 93.1763 87.421Z" fill="#1D1D1B"/>
<path d="M33.7455 176.899C30.7798 180.216 28.6725 184.157 27.0726 188.567C25.7068 192.391 28.4775 196.449 32.5358 196.332C43.462 195.981 56.1832 192.04 63.3633 188.84L59.1879 179.474L43.9693 174.285C40.3402 173.114 36.2819 174.05 33.7455 176.899Z" fill="#8A2E10"/>
<path d="M124.823 233.988C123.497 234.457 122.014 234.496 120.531 234.067L107.498 230.203L105.507 229.618L103.634 229.072C101.8 228.291 99.9662 227.433 98.1712 226.535C96.3371 225.638 94.5032 224.662 92.7472 223.648C63.5585 206.985 43.423 176.353 37.1794 124.297C35.7356 112.395 37.7258 100.298 42.7987 89.4502L42.9157 89.216C44.9839 84.7675 45.1401 79.6946 43.345 75.168L40.2622 67.2855C39.0525 64.1637 39.677 60.5737 42.0183 58.1933C47.7546 52.262 53.842 49.9596 60.2416 50.5059C63.5195 50.7791 66.3681 52.9253 67.5778 56.0081L69.2948 60.4176C71.9873 67.3246 76.9432 73.0999 83.3819 76.768C107.888 90.6989 133.564 114.19 143.749 131.477C155.534 165.192 135.242 193.796 129.584 228.369C129.389 229.54 128.921 230.594 128.296 231.452C127.438 232.623 126.189 233.52 124.823 233.988Z" fill="#A9B3C1"/>
<path opacity="0.3" d="M98.132 226.535C96.298 225.638 94.4639 224.662 92.7079 223.648C92.0445 220.916 91.7324 218.107 91.4202 215.297C90.8349 209.795 90.3276 203.707 93.6055 199.259C96.8053 194.888 102.62 193.444 108.005 192.859C117.409 191.845 126.969 192.586 136.14 195.044C127.008 194.069 117.838 194.849 108.746 195.981C90.952 198.166 94.1517 213.697 94.5419 216.897C95.0492 220.799 96.4541 223.804 98.132 226.535Z" fill="#1D1D1B"/>
<path opacity="0.3" d="M124.823 233.989C120.999 231.257 117.175 228.564 113.351 225.833C117.331 227.199 121.311 228.525 125.253 229.891C126.228 230.203 127.243 230.555 128.023 231.218C128.101 231.296 128.179 231.374 128.257 231.413C127.438 232.623 126.189 233.52 124.823 233.989Z" fill="#1D1D1B"/>
<path opacity="0.3" d="M107.497 230.203L105.507 229.618C103.673 226.808 102.541 223.296 102.307 220.682C101.995 217.404 102.659 214.048 104.454 211.277C109.527 203.356 120.726 205.541 127.984 208.585C127.477 204.995 127.009 201.405 126.735 197.815C128.179 202.419 129.389 207.063 130.599 211.707C125.994 209.99 121.233 208.624 116.277 208.546C113 208.507 108.785 209.482 106.951 212.487C103.439 218.106 104.219 224.818 107.497 230.203Z" fill="#1D1D1B"/>
<path opacity="0.3" d="M125.175 222.633C123.262 223.374 121.077 222.438 120.336 220.526C119.594 218.614 120.531 216.428 122.443 215.687C124.355 214.945 126.54 215.882 127.282 217.794C128.062 219.706 127.087 221.852 125.175 222.633Z" fill="#1D1D1B"/>
<path d="M56.4563 187.318C55.8319 187.435 55.2076 187.552 54.5052 187.669C46.6617 188.957 34.6039 189.659 24.7703 187.747C22.8973 187.396 21.4925 186.147 20.7901 184.625C19.9707 182.908 20.0097 180.762 21.1804 178.967C21.2584 178.811 21.3364 178.694 21.4534 178.577C22.8192 176.47 24.3411 174.558 25.98 172.841C27.3068 171.436 28.7507 170.187 30.3115 169.094C30.8578 168.704 31.4432 168.392 32.0285 168.158C34.8381 166.948 38.1939 167.26 40.8474 168.899L54.1931 177.133L54.5052 177.328L54.9736 179.63L55.3247 181.465L55.4418 181.933L55.793 183.689L55.9101 184.196L56.2222 185.757L56.4563 187.318Z" fill="#E94E1B"/>
<g opacity="0.3">
<path opacity="0.3" d="M56.4563 187.318C55.8319 187.435 55.2076 187.552 54.5052 187.669L20.7902 184.586L49.0812 184.235L55.871 184.157L56.1832 185.718L56.4563 187.318Z" fill="#1D1D1B"/>
<path opacity="0.3" d="M56.1443 185.718L49.0813 184.274L21.4147 178.538L49.3154 181.308L55.4029 181.894L55.754 183.65L55.832 184.157L56.1443 185.718Z" fill="#1D1D1B"/>
<path opacity="0.3" d="M55.7542 183.65L49.3155 181.309L25.9413 172.802L49.6276 178.343L54.9738 179.592L55.325 181.426L55.403 181.894L55.7542 183.65Z" fill="#1D1D1B"/>
<path opacity="0.3" d="M55.2468 181.621L49.6276 178.343L31.9896 168.119L54.1933 177.094L54.5054 177.289L54.9738 179.591L55.325 181.425L55.2468 181.621Z" fill="#1D1D1B"/>
</g>
<path opacity="0.2" d="M120.96 178.46C120.921 178.421 120.882 178.382 120.843 178.343C120.843 178.382 120.843 178.46 120.843 178.499C120.765 178.382 120.687 178.226 120.609 178.109C118.463 176.119 116.082 175.026 113.078 175.923C109.917 176.86 108.824 179.904 108.551 182.83C108.59 182.986 108.629 183.104 108.629 183.26C108.59 183.221 108.551 183.182 108.512 183.143C108.512 183.182 108.512 183.26 108.512 183.299C108.434 183.182 108.356 183.026 108.278 182.908C106.132 180.918 103.751 179.826 100.747 180.723C97.5859 181.66 96.4933 184.703 96.2201 187.63C96.2591 187.786 96.2982 187.903 96.2982 188.059C96.2592 188.02 96.2202 187.981 96.1812 187.942C96.1812 187.981 96.1812 188.059 96.1812 188.098C96.1031 187.981 96.0251 187.825 95.947 187.708C93.8008 185.757 91.4204 184.625 88.4157 185.523C85.0597 186.498 84.0452 189.854 83.8501 192.937C81.2356 189.152 83.3038 185.133 86.8548 183.104C84.7476 181.27 82.4453 180.255 79.5577 181.113C76.2017 182.089 75.1871 185.406 74.992 188.528C72.3775 184.743 74.4457 180.723 78.0357 178.655C75.9285 176.782 73.6262 175.806 70.7386 176.626C67.3827 177.601 66.3682 180.918 66.1731 184.04C63.5195 180.216 65.6267 176.197 69.2557 174.167C67.2656 170.577 69.2948 166.87 72.6897 164.958C70.5825 163.085 68.2802 162.11 65.3926 162.929C62.0366 163.905 61.0221 167.222 60.827 170.343C58.1735 166.519 60.2806 162.5 63.9097 160.471C61.9196 156.881 63.9487 153.173 67.3437 151.261C65.2365 149.388 62.9342 148.413 60.0465 149.232C56.6906 150.208 55.676 153.525 55.4809 156.646C52.8274 152.822 54.9346 148.803 58.5637 146.774C56.5735 143.184 58.6027 139.477 61.9976 137.565C59.8904 135.692 57.5881 134.716 54.7005 135.535C51.3446 136.511 50.33 139.867 50.1348 142.95C47.4813 139.125 49.5886 135.106 53.2176 133.077C51.2275 129.487 53.2567 125.78 56.6516 123.868C54.5444 121.995 52.2421 121.019 49.3545 121.839C45.9986 122.814 44.9839 126.131 44.7888 129.253C42.1353 125.429 44.2425 121.409 47.8716 119.38C45.8425 115.751 47.9106 112.044 51.3445 110.132C49.3154 106.503 51.3836 102.796 54.8176 100.845C52.7884 97.2156 54.8565 93.5085 58.2905 91.5964C56.2223 87.8893 58.4076 84.1041 61.9196 82.1921C65.7828 81.2165 70.0362 82.4652 70.9727 86.6015C74.7579 85.704 78.8943 86.9917 79.8308 91.0501C83.616 90.1525 87.7523 91.4403 88.6888 95.4986C92.474 94.6011 96.6103 95.8889 97.5469 99.9472C101.332 99.0497 105.468 100.337 106.405 104.396C110.424 103.459 114.795 104.942 115.38 109.547C113.117 107.361 110.658 106.113 107.498 107.01C104.415 107.908 103.322 110.756 103.01 113.605C106.795 112.746 110.854 114.073 111.79 118.093C115.575 117.195 119.712 118.483 120.648 122.541C124.667 121.605 129.038 123.087 129.623 127.692C127.36 125.507 124.902 124.258 121.741 125.156C118.658 126.053 117.565 128.941 117.253 131.789C121.038 130.931 125.097 132.219 126.033 136.238C130.052 135.301 134.423 136.784 135.008 141.389C132.745 139.204 130.287 137.955 127.126 138.852C124.043 139.75 122.95 142.638 122.638 145.486C126.619 144.589 130.95 146.071 131.535 150.676C129.272 148.491 126.814 147.242 123.653 148.14C120.609 149.037 119.477 151.886 119.165 154.734C122.95 153.876 127.009 155.203 127.945 159.222C131.965 158.285 136.335 159.768 136.92 164.373C134.657 162.188 132.199 160.939 129.038 161.836C125.955 162.734 124.862 165.583 124.55 168.431C128.531 167.534 132.862 169.017 133.447 173.621C131.184 171.436 128.726 170.187 125.565 171.085C122.404 172.021 121.311 175.065 121.038 177.992C120.882 178.148 120.921 178.304 120.96 178.46ZM120.024 157.349C116.941 158.246 115.848 161.134 115.536 163.983C118.424 163.319 121.428 163.944 123.145 166.012C122.989 163.319 124.745 160.822 127.36 159.339C125.214 157.505 122.911 156.529 120.024 157.349ZM89.6253 171.202C89.4693 168.509 91.2253 166.051 93.8008 164.568C91.6936 162.734 89.3913 161.719 86.5036 162.578C83.4599 163.475 82.3283 166.324 82.0161 169.173C84.9037 168.548 87.9474 169.134 89.6253 171.202ZM84.2793 157.505C84.1232 154.812 85.8793 152.354 88.4547 150.871C86.3475 149.037 84.0452 148.023 81.1576 148.881C78.0748 149.779 76.9822 152.627 76.67 155.476C79.5577 154.812 82.5623 155.398 84.2793 157.505ZM78.8942 143.769C78.7381 141.077 80.4942 138.579 83.0696 137.135C80.9624 135.301 78.6601 134.287 75.7725 135.145C72.6897 136.043 71.5971 138.891 71.285 141.74C74.1726 141.077 77.2163 141.662 78.8942 143.769ZM73.5093 130.033C73.3532 127.341 75.1091 124.843 77.6845 123.4C75.5773 121.565 73.2751 120.551 70.3874 121.409C67.3046 122.307 66.2121 125.156 65.8999 128.004C68.7875 127.341 71.8313 127.965 73.5093 130.033ZM68.1631 116.297C68.007 113.605 69.763 111.147 72.3385 109.664C70.2313 107.83 67.929 106.815 65.0414 107.674C61.9586 108.571 60.866 111.42 60.5538 114.268C63.4415 113.605 66.4461 114.229 68.1631 116.297ZM71.6361 107.049C71.4801 104.357 73.236 101.859 75.8505 100.376C73.7433 98.5033 71.441 97.5278 68.5534 98.3473C65.4706 99.2448 64.378 102.132 64.0658 104.981C66.8754 104.357 69.9192 104.942 71.6361 107.049ZM77.3724 102.835C74.2897 103.732 73.1971 106.581 72.8849 109.43C75.7335 108.766 78.7772 109.391 80.4942 111.459C80.3381 108.766 82.0941 106.308 84.6696 104.825C82.5624 102.991 80.2601 102.015 77.3724 102.835ZM86.2304 107.283C83.1477 108.181 82.0551 111.068 81.7429 113.917C84.6305 113.254 87.6353 113.878 89.3523 115.946C89.1962 113.254 90.9521 110.756 93.5666 109.274C91.4204 107.439 89.0791 106.425 86.2304 107.283ZM91.5765 121.019C88.4937 121.917 87.4011 124.804 87.0889 127.653C89.9766 126.99 92.9813 127.614 94.6983 129.682C94.5422 126.99 96.2982 124.492 98.9127 123.009C96.8055 121.175 94.4641 120.161 91.5765 121.019ZM100.435 125.468C97.3518 126.365 96.2592 129.214 95.947 132.062C98.7957 131.399 101.839 132.023 103.556 134.092C103.4 131.399 105.156 128.941 107.732 127.458C105.625 125.624 103.322 124.648 100.435 125.468ZM105.82 139.204C102.737 140.101 101.644 142.95 101.332 145.798C104.181 145.135 107.224 145.759 108.941 147.827C108.785 145.135 110.541 142.677 113.117 141.194C111.01 139.36 108.668 138.345 105.82 139.204ZM101.956 166.402C101.8 163.71 103.556 161.212 106.132 159.768C104.025 157.934 101.722 156.92 98.8347 157.778C95.7909 158.676 94.6593 161.524 94.3471 164.373C97.2348 163.71 100.278 164.295 101.956 166.402ZM105.429 157.115C105.273 154.422 107.029 151.925 109.644 150.442C107.537 148.569 105.234 147.593 102.347 148.413C99.2639 149.31 98.1713 152.198 97.8591 155.047C100.708 154.461 103.751 155.047 105.429 157.115ZM96.6104 152.666C96.4543 149.974 98.2103 147.515 100.786 146.032C98.6786 144.198 96.3763 143.184 93.4886 144.042C90.4059 144.94 89.3132 147.788 89.001 150.637C91.8496 149.974 94.8934 150.598 96.6104 152.666ZM104.259 136.745C102.151 134.872 99.8492 133.896 96.9615 134.716C93.8788 135.613 92.7862 138.501 92.474 141.35C95.3617 140.686 98.3664 141.311 100.083 143.379C99.8883 140.725 101.683 138.228 104.259 136.745ZM91.2253 138.93C91.0692 136.238 92.8252 133.779 95.4007 132.297C93.2935 130.463 90.9912 129.448 88.1035 130.306C85.0208 131.204 83.9282 134.053 83.616 136.901C86.5037 136.238 89.5083 136.862 91.2253 138.93ZM90.0156 118.561C87.9084 116.727 85.6061 115.712 82.7185 116.571C79.6357 117.468 78.5431 120.317 78.2309 123.165C81.0795 122.502 84.1232 123.126 85.8402 125.195C85.6841 122.541 87.4791 120.044 90.0156 118.561ZM77.0212 120.785C76.8651 118.093 78.6211 115.595 81.2356 114.112C79.1284 112.239 76.8261 111.264 73.9384 112.083C70.8557 112.981 69.7631 115.868 69.4509 118.717C72.2605 118.093 75.3043 118.678 77.0212 120.785ZM82.3673 134.482C82.2112 131.789 83.9671 129.292 86.5816 127.809C84.4744 125.936 82.1721 124.96 79.2845 125.78C76.2017 126.677 75.1091 129.565 74.7969 132.414C77.6456 131.828 80.6893 132.414 82.3673 134.482ZM87.7524 148.218C87.5963 145.525 89.3522 143.028 91.9667 141.545C89.8595 139.672 87.5572 138.696 84.6696 139.516C81.5868 140.413 80.4942 143.301 80.182 146.15C82.9916 145.525 86.0354 146.149 87.7524 148.218ZM93.1374 161.954C92.9814 159.261 94.7373 156.764 97.3518 155.281C95.2446 153.408 92.9423 152.432 90.0547 153.252C86.9719 154.149 85.8793 157.037 85.5671 159.885C88.3767 159.261 91.4205 159.846 93.1374 161.954ZM98.4835 175.689C98.3274 172.997 100.083 170.499 102.698 169.017C100.591 167.143 98.2883 166.168 95.4007 166.987C92.3179 167.885 91.2253 170.773 90.9131 173.621C93.7618 172.997 96.8055 173.582 98.4835 175.689ZM110.815 170.851C110.658 168.158 112.414 165.661 115.029 164.178C112.922 162.305 110.619 161.329 107.732 162.149C104.649 163.046 103.556 165.934 103.244 168.782C106.093 168.158 109.098 168.782 110.815 170.851ZM118.463 154.93C116.356 153.095 114.053 152.081 111.166 152.939C108.122 153.837 106.99 156.685 106.678 159.534C109.527 158.871 112.57 159.495 114.287 161.563C114.131 158.871 115.887 156.412 118.463 154.93ZM121.975 145.642C119.868 143.769 117.565 142.794 114.678 143.613C111.595 144.511 110.502 147.398 110.19 150.247C113.078 149.583 116.082 150.208 117.799 152.276C117.604 149.622 119.399 147.125 121.975 145.642ZM118.112 134.365C115.029 135.262 113.936 138.111 113.624 140.96C116.473 140.296 119.516 140.921 121.233 142.989C121.077 140.296 122.833 137.838 125.409 136.355C123.341 134.521 120.999 133.545 118.112 134.365ZM116.59 131.906C114.483 130.033 112.18 129.058 109.293 129.877C106.21 130.775 105.117 133.662 104.805 136.511C107.693 135.848 110.697 136.472 112.414 138.54C112.219 135.887 114.014 133.389 116.59 131.906ZM112.766 120.668C109.683 121.565 108.59 124.414 108.278 127.263C111.127 126.599 114.17 127.224 115.887 129.292C115.731 126.599 117.487 124.141 120.063 122.658C117.956 120.785 115.614 119.809 112.766 120.668ZM103.908 116.18C100.825 117.078 99.7321 119.966 99.42 122.814C102.308 122.151 105.312 122.775 107.029 124.843C106.873 122.151 108.629 119.653 111.244 118.171C109.097 116.337 106.795 115.322 103.908 116.18ZM102.347 113.722C100.239 111.888 97.9371 110.873 95.0495 111.732C91.9667 112.629 90.8741 115.478 90.562 118.327C93.4106 117.663 96.4542 118.288 98.1712 120.356C98.0151 117.702 99.7712 115.205 102.347 113.722ZM98.5224 102.445C95.4397 103.342 94.3471 106.23 94.0349 109.078C96.9225 108.415 99.9273 109.039 101.644 111.107C101.488 108.415 103.244 105.918 105.859 104.435C103.751 102.601 101.41 101.625 98.5224 102.445ZM89.7035 98.0351C86.6207 98.9326 85.5281 101.781 85.2159 104.63C88.0646 103.966 91.1082 104.591 92.8252 106.659C92.6691 103.966 94.4251 101.508 97.0006 100.025C94.8934 98.1521 92.5521 97.1766 89.7035 98.0351ZM80.8453 93.5475C77.7626 94.445 76.67 97.3327 76.3578 100.181C79.2455 99.5179 82.2502 100.142 83.9672 102.21C83.8111 99.5179 85.5671 97.0205 88.1815 95.5377C86.0353 93.7036 83.733 92.689 80.8453 93.5475ZM71.9873 89.0989C68.9046 89.9965 67.812 92.8451 67.4998 95.6937C70.3484 95.0303 73.3921 95.6547 75.1091 97.7229C74.953 95.0304 76.709 92.5329 79.2845 91.0891C77.1773 89.2551 74.875 88.2795 71.9873 89.0989ZM66.2511 93.3134C66.095 90.6208 67.8509 88.1234 70.4654 86.6406C68.3582 84.7675 66.0559 83.7919 63.1683 84.6114C60.0855 85.5089 58.9929 88.3966 58.6807 91.2452C61.5294 90.6208 64.5731 91.2452 66.2511 93.3134ZM62.7781 102.601C62.622 99.9081 64.378 97.4497 66.9534 95.9669C64.8462 94.1329 62.5439 93.1182 59.6563 93.9767C56.5735 94.8742 55.4809 97.7229 55.1688 100.571C58.0564 99.9081 61.1002 100.493 62.7781 102.601ZM59.3051 111.888C59.149 109.195 60.905 106.698 63.5195 105.215C61.4122 103.342 59.11 102.367 56.2223 103.186C53.1396 104.083 52.047 106.971 51.7348 109.82C54.5834 109.195 57.6271 109.781 59.3051 111.888ZM55.8321 121.136C55.676 118.444 57.432 115.946 60.0075 114.502C57.9003 112.668 55.598 111.654 52.7103 112.512C49.6276 113.41 48.535 116.258 48.2228 119.107C51.1104 118.444 54.1151 119.029 55.8321 121.136ZM64.6902 125.585C64.5341 122.892 66.29 120.395 68.9045 118.912C66.7973 117.039 64.495 116.063 61.6074 116.883C58.5246 117.78 57.432 120.668 57.1199 123.517C59.9295 122.892 62.9732 123.517 64.6902 125.585ZM61.2172 134.872C61.0611 132.18 62.8171 129.721 65.3926 128.238C63.2854 126.404 60.9831 125.39 58.0954 126.248C55.0127 127.146 53.9201 129.994 53.6079 132.843C56.4565 132.18 59.5002 132.765 61.2172 134.872ZM70.0753 139.321C69.9192 136.628 71.6751 134.131 74.2896 132.648C72.1824 130.775 69.8801 129.799 66.9925 130.619C63.9097 131.516 62.8171 134.404 62.505 137.252C65.3146 136.628 68.3583 137.213 70.0753 139.321ZM66.5632 148.569C66.4071 145.876 68.1631 143.379 70.7386 141.935C68.6314 140.101 66.3291 139.086 63.4415 139.945C60.3587 140.842 59.2661 143.691 58.9539 146.54C61.8416 145.915 64.8852 146.501 66.5632 148.569ZM75.4213 153.056C75.2652 150.364 77.0212 147.866 79.6357 146.384C77.5285 144.511 75.2262 143.535 72.3385 144.354C69.2558 145.252 68.1632 148.14 67.851 150.988C70.6996 150.364 73.7433 150.949 75.4213 153.056ZM71.9483 162.305C71.7922 159.612 73.5482 157.154 76.1237 155.671C74.0165 153.837 71.7142 152.822 68.8265 153.681C65.7438 154.578 64.6512 157.427 64.339 160.276C67.2267 159.612 70.2313 160.237 71.9483 162.305ZM80.8064 166.792C80.6503 164.1 82.4063 161.602 85.0207 160.119C82.9135 158.246 80.6113 157.271 77.7236 158.09C74.6408 158.988 73.5482 161.875 73.2361 164.724C76.0457 164.1 79.0894 164.685 80.8064 166.792ZM77.3334 176.041C77.1773 173.348 78.9333 170.89 81.5088 169.407C79.4016 167.573 77.0993 166.558 74.2116 167.417C71.1679 168.314 70.0363 171.163 69.7241 174.011C72.5727 173.348 75.6164 173.933 77.3334 176.041ZM86.1915 180.489C86.0354 177.797 87.7913 175.299 90.4058 173.816C88.2986 171.943 85.9963 170.968 83.1087 171.787C80.0259 172.685 78.9333 175.572 78.6212 178.421C81.4308 177.796 84.4745 178.421 86.1915 180.489ZM99.1858 178.304C97.0786 176.47 94.7763 175.455 91.8887 176.314C88.8059 177.211 87.7133 180.06 87.4012 182.908C90.2498 182.245 93.2935 182.869 95.0104 184.938C94.8543 182.245 96.6104 179.787 99.1858 178.304ZM111.517 173.465C109.41 171.631 107.107 170.616 104.22 171.475C101.137 172.372 100.044 175.221 99.7321 178.07C102.581 177.406 105.624 178.031 107.341 180.099C107.146 177.445 108.941 174.948 111.517 173.465ZM119.673 175.299C119.516 172.607 121.272 170.109 123.848 168.665C121.741 166.831 119.438 165.817 116.551 166.675C113.468 167.573 112.375 170.421 112.063 173.27C114.912 172.607 117.956 173.192 119.673 175.299Z" fill="#1D1D1B"/>
<path d="M91.8885 199.142C91.9666 198.517 92.0056 197.854 92.0447 197.151C92.591 189.191 92.1617 177.172 89.3521 167.534C88.8058 165.7 87.479 164.412 85.8791 163.866C84.0841 163.202 81.9379 163.436 80.26 164.763C80.1429 164.88 80.0258 164.958 79.9088 165.036C77.9577 166.597 76.2018 168.275 74.6019 170.07C73.3141 171.514 72.2215 173.075 71.2459 174.753C70.9337 175.338 70.6605 175.923 70.4654 176.548C69.5289 179.474 70.1143 182.752 72.0264 185.25L81.4696 197.776L81.7038 198.088L84.0451 198.322L85.8791 198.517L86.3474 198.556L88.1034 198.712L88.6107 198.751L90.1716 198.907L91.8885 199.142Z" fill="#E94E1B"/>
<g opacity="0.3">
<path opacity="0.3" d="M91.8888 199.142C91.9668 198.517 92.0059 197.854 92.0449 197.151L85.8794 163.866L88.1427 192.04L88.689 198.79L90.2498 198.946L91.8888 199.142Z" fill="#1D1D1B"/>
<path opacity="0.3" d="M90.2498 198.985L88.1427 192.078L79.9089 165.075L85.216 192.586L86.3866 198.595L88.1427 198.79L88.6889 198.829L90.2498 198.985Z" fill="#1D1D1B"/>
<path opacity="0.3" d="M88.1426 198.79L85.2159 192.586L74.6018 170.109L82.2892 193.171L84.0452 198.361L85.8792 198.556L86.3865 198.595L88.1426 198.79Z" fill="#1D1D1B"/>
<path opacity="0.3" d="M86.0745 198.439L82.2895 193.171L70.4657 176.587L81.4699 197.815L81.704 198.127L84.0454 198.361L85.8794 198.556L86.0745 198.439Z" fill="#1D1D1B"/>
</g>
<path d="M125.409 221.931C124.082 222.438 122.599 221.814 122.092 220.487C121.585 219.16 122.209 217.677 123.536 217.17C124.862 216.663 126.306 217.287 126.853 218.614C127.399 219.94 126.736 221.423 125.409 221.931Z" fill="#3C3C3B"/>
<path d="M125.799 221.306C125.253 221.501 124.667 221.267 124.433 220.721C124.238 220.174 124.472 219.589 125.018 219.355C125.565 219.16 126.15 219.394 126.384 219.94C126.579 220.487 126.306 221.072 125.799 221.306Z" fill="white"/>
<path d="M121.279 220.183L117.212 225.937L119.043 230.757L124.979 221.74L135.724 224.645L133.907 219.86L126.763 218.161L130.984 212.166L129.153 207.346L123.046 216.652L112.627 213.868L114.445 218.653L121.279 220.183Z" fill="black"/>
</svg>
