<svg width="280" height="306" viewBox="0 0 280 306" fill="none" xmlns="http://www.w3.org/2000/svg">
<path d="M248.801 159.961C248.033 158.794 247.777 157.292 246.333 155.964C246.295 159.236 245.869 161.989 245.466 164.751C244.746 169.738 244.432 174.806 239.504 177.954C238.467 178.612 238.509 180.088 238.745 181.495C239.501 186.092 239.621 190.753 239.205 195.388C238.608 202.148 237.234 208.739 234.332 214.941C232.182 219.527 229.637 223.923 226.009 227.442C218.257 234.966 209.52 241.304 200.037 246.391C192.406 250.483 184.692 254.681 175.938 256.126C169.572 257.174 163.5 256.734 158.411 252.22C157.058 251.019 156.22 251.027 155.506 252.66C153.931 256.259 152.378 259.866 150.858 263.488C149.845 265.892 148.129 266.934 145.601 266.151C142.275 265.127 139.065 263.808 136.129 261.884C133.523 260.18 130.844 258.616 127.955 257.419C125.628 256.456 123.939 256.899 123.345 259.489C122.826 261.737 121.298 263.226 119.619 264.421C116.796 266.422 113.543 267.981 110.108 266.483C107.831 265.496 105.693 263.992 103.825 262.182C98.9737 257.487 94.3574 252.632 90.3008 247.181C86.2993 241.808 83.649 235.975 82.1691 229.599L82.162 229.584C81.9761 228.769 81.8123 227.962 81.6613 227.13C86.1644 235.152 92.4476 241.022 101.525 243.469C102.485 243.727 103.512 243.807 104.505 243.829C110.773 243.974 111.91 242.537 111.143 236.364C110.737 233.121 110.725 229.806 110.831 226.534C110.919 223.88 112.262 223.07 114.664 224.23C117.019 225.368 119.358 226.564 121.343 228.428C125.81 232.609 130.164 237.003 135.105 240.562C143.603 246.685 151.903 244.992 158.835 237.388C164.851 230.787 169.183 223.057 172.376 214.704C172.631 214.033 173.073 213.42 173.448 212.797C176.402 207.925 179.844 207.29 184.328 210.75C186.903 212.736 189.297 214.857 192.454 216.14C198.766 218.706 203.712 216.367 208.257 212.4C213.628 207.717 216.661 201.661 217.978 194.681C218.367 192.647 218.171 190.695 217.859 188.689C216.561 180.407 213.785 172.462 212.231 164.234C211.966 162.84 211.899 161.365 212.995 160.752C214.304 160.026 215.637 161.12 216.596 162.098C220.309 165.875 223.989 169.686 227.627 173.536C229.771 175.812 232.403 177.186 235.33 178.114C237.134 178.684 237.749 177.898 237.551 176.209C237.197 173.216 235.795 170.538 234.223 168.13C229.334 160.67 224.029 153.481 219.117 146.038C214.806 139.499 210.81 132.763 206.662 126.116C206.401 125.697 206.146 125.251 206.565 124.899C207.205 124.369 207.864 124.818 208.253 125.262C211.086 128.475 214.396 131.223 217.161 134.523C221.088 139.211 225.192 143.761 229.294 148.305C229.987 149.068 230.979 150 232.154 149.387C233.482 148.688 232.829 147.326 232.472 146.446C230.437 141.432 227.456 136.91 224.825 132.21C223.142 129.196 221.353 126.177 219.159 123.527C214.055 117.39 210.047 110.371 204.106 104.913C202.92 103.817 202.264 102.206 200.623 101.515C200.209 101.34 200.54 100.7 200.846 100.329C208.121 106.178 214.234 113.038 219.848 120.52C223.322 125.143 227.466 129.35 231.046 133.953C236.257 140.649 241.938 147 246.44 154.223C247.532 155.968 248.797 157.729 248.801 159.961Z" fill="#C2C1C1"/>
<path d="M232.472 146.446C232.829 147.326 233.482 148.688 232.153 149.387C230.979 150 229.987 149.068 229.294 148.305C225.192 143.761 221.088 139.211 217.161 134.523C214.396 131.223 211.086 128.475 208.253 125.262C207.864 124.818 207.205 124.369 206.565 124.899C206.146 125.251 206.401 125.697 206.662 126.116C210.81 132.763 214.806 139.499 219.117 146.038C224.029 153.481 229.334 160.67 234.223 168.13C235.795 170.538 237.197 173.216 237.551 176.21C237.749 177.898 237.134 178.685 235.329 178.114C232.403 177.186 229.771 175.812 227.627 173.536C223.989 169.686 220.309 165.875 216.596 162.098C215.636 161.12 214.304 160.026 212.994 160.752C211.899 161.365 211.966 162.84 212.231 164.234C213.785 172.462 216.56 180.407 217.859 188.689C218.171 190.695 218.366 192.647 217.978 194.681C216.66 201.661 213.628 207.717 208.257 212.4C203.712 216.367 198.766 218.706 192.453 216.14C189.297 214.857 186.903 212.736 184.328 210.75C179.844 207.29 176.402 207.925 173.448 212.797C173.072 213.42 172.631 214.033 172.376 214.704C169.183 223.057 164.851 230.787 158.835 237.388C151.903 244.992 143.603 246.685 135.105 240.562C130.164 237.003 125.81 232.609 121.343 228.428C119.358 226.564 117.018 225.368 114.663 224.23C112.262 223.07 110.918 223.88 110.83 226.534C110.725 229.806 110.737 233.121 111.143 236.364C111.909 242.537 110.773 243.974 104.505 243.829C103.512 243.807 102.485 243.727 101.525 243.469C92.4474 241.022 86.1643 235.152 81.6611 227.13C78.2067 219.825 78.5488 211.898 78.3198 204.158C78.1898 199.838 78.1063 195.898 74.4882 192.924C73.1986 195.594 73.2224 199.678 74.0045 202.12C75.5825 207.058 76.2804 212.214 77.11 217.325C77.2925 218.428 76.7868 219.651 76.576 220.813C76.4008 221.794 75.7941 221.789 74.9409 221.652C71.786 221.156 70.7162 218.789 69.8853 216.194C69.6371 215.414 70.0427 214.135 68.4533 214.543C65.2656 203.058 62.8856 191.396 60.9021 179.644C62.5201 177.574 64.3245 177.76 66.116 179.32C69.0275 181.86 72.6995 182.648 76.1119 181.99C80.9532 181.062 84.0995 177.326 86.9952 173.423C90.5553 168.618 92.1481 162.771 95.7922 157.962C97.5533 155.642 99.2121 153.016 100.527 150.298C102.44 146.343 104.813 142.664 107.356 139.099C108.075 138.092 108.738 136.648 110.324 137.145C111.819 137.618 111.783 139.137 111.869 140.396C112.162 144.584 112.683 148.737 112.655 152.968C112.621 158.178 115.908 162.395 117.766 167.048C119.018 170.17 121.109 172.552 123.7 174.432C125.076 175.426 126.254 177.698 128.316 176.755C130.435 175.778 130.349 173.274 130.866 171.277C130.911 171.102 130.868 170.909 130.894 170.732C131.943 162.995 130.279 155.436 129.508 147.813C129 142.751 127.31 137.859 127.85 132.622C128.11 130.112 128.916 128.301 130.737 126.721C132.941 124.807 133.783 124.907 135.026 127.484C136.904 131.37 138.694 135.304 140.635 139.155C141.147 140.181 141.962 141.588 143.155 141.387C144.427 141.173 144.951 139.667 145.08 138.385C145.321 135.884 146.123 133.55 147.045 131.25C149.575 124.92 153.46 122.585 158.868 124.519C164.603 126.577 170.431 127.878 176.525 128.186C182.38 128.479 187.605 126.764 192.109 123.238C196.58 119.733 198.357 112.193 196.008 106.993C195.021 104.813 194.918 101.834 191.977 100.864C191.854 100.965 191.761 101.065 191.692 101.164C191.656 101.139 191.624 101.111 191.593 101.083C189.291 98.5277 186.635 96.3054 184.513 93.5905C183.932 92.8417 182.385 91.5141 185.025 91.3516C190.819 93.4311 196.141 96.3398 200.846 100.329C200.54 100.7 200.209 101.34 200.622 101.515C202.264 102.206 202.919 103.817 204.106 104.913C210.047 110.371 214.055 117.39 219.159 123.527C221.352 126.177 223.142 129.196 224.825 132.21C227.456 136.91 230.436 141.432 232.472 146.446Z" fill="#CFCFCF"/>
<path d="M117.272 87.5407C116.948 87.7069 116.629 87.8708 116.305 88.037C116.325 88.1681 116.36 88.2798 116.402 88.3817C116.504 88.3393 116.606 88.2969 116.708 88.2669C116.76 88.2482 116.807 88.2319 116.857 88.2205C117.102 88.0552 117.293 87.8543 117.392 87.5998C117.403 87.5704 117.413 87.541 117.421 87.5066C117.372 87.518 117.322 87.5293 117.272 87.5407ZM172.863 95.3015C172.853 95.2939 172.846 95.2913 172.836 95.2837C172.824 95.2958 172.809 95.3029 172.791 95.3173C172.771 95.3268 172.751 95.3363 172.734 95.3507C172.98 97.5651 171.978 98.3344 169.859 97.8587C169.058 97.6777 168.241 97.5778 167.496 98.0785C167.423 98.1313 167.353 98.1891 167.283 98.2469C167.193 98.3141 167.107 98.3914 167.022 98.4686C166.69 98.7728 166.409 99.1199 166.25 99.568L166.239 99.5974C166.52 100.996 167.805 101.246 168.796 101.855C172.88 104.357 176.952 106.883 178.672 111.748C178.854 112.26 179.2 112.834 178.766 113.296C178.322 113.776 177.724 113.468 177.236 113.236C175.748 112.521 174.316 111.707 172.926 110.811C166.139 106.438 159.458 101.917 152.651 97.5788C143.959 92.0367 134.234 90.1164 124.149 89.4295C124.081 89.4676 124.014 89.5057 123.957 89.5391C123.829 89.618 123.727 89.6973 123.646 89.7722C123.893 89.7524 124.128 89.7201 124.373 89.683C130.53 90.9312 136.832 91.4327 142.814 93.5208C151.566 96.5686 158.559 102.62 166.351 107.296C170.18 109.596 173.644 112.49 177.805 114.241C179.322 114.875 180.387 114.521 179.755 112.82C178.915 110.564 178.132 108.3 176.193 106.469C173.222 103.663 169.774 101.689 166.342 99.6339C166.888 99.3439 167.541 99.1619 167.613 98.389C168.552 97.9488 169.376 98.5396 170.252 98.6605C171.357 98.8129 172.512 98.8678 173.322 98.0009C174.259 97.0059 173.059 96.203 172.863 95.3015Z" fill="#D6D6D6"/>
<path d="M67.886 176.312C67.577 177.447 66.7841 177.501 66.0209 176.936C65.0875 176.244 64.966 175.295 65.6963 174.313C65.6283 176.829 65.9432 177.119 67.886 176.312Z" fill="#D6D6D6"/>
<path d="M94.6103 108.646C94.6024 108.669 94.5895 108.693 94.5816 108.715C94.5689 108.728 94.5536 108.747 94.5359 108.762C94.5615 108.725 94.5847 108.683 94.6103 108.646Z" fill="#D6D6D6"/>
<path d="M111.89 92.3026C112.005 92.4923 112.041 92.7618 111.975 93.123C110.914 95.208 110.868 97.4882 110.559 99.7409C109.169 109.947 108.446 120.246 106.395 130.358C106.141 131.608 105.734 132.833 105.548 134.087C105.351 135.432 104.489 136.561 103.413 136.572C102.222 136.583 101.75 135.166 101.438 133.996C100.78 131.495 100.531 128.928 100.831 126.399C102.105 115.551 105.267 105.18 109.071 94.9917C109.483 93.8926 110.203 92.9155 110.781 91.8838C110.986 91.878 111.176 91.8916 111.343 91.9343C111.281 92.049 111.227 92.1663 111.163 92.276C111.153 92.2931 111.14 92.3175 111.13 92.3345C107.39 100.063 105.14 108.28 103.238 116.599C102.181 121.234 100.96 125.886 101.605 130.712C101.839 132.426 101.421 135.169 103.536 135.25C105.378 135.321 105.29 132.58 105.611 130.956C107.707 120.335 108.62 109.549 109.968 98.8193C110.23 96.7358 110.361 94.6103 111.521 92.7466C111.536 92.7272 111.546 92.7102 111.562 92.6907C111.663 92.5571 111.777 92.4237 111.89 92.3026Z" fill="#D6D6D6"/>
<path d="M114.896 89.1585C114.707 89.2608 114.522 89.3608 114.328 89.4531C114.102 89.53 113.874 89.5897 113.644 89.632C112.822 89.7785 112.334 90.2424 111.962 90.8096C111.963 90.7603 111.967 90.7037 111.978 90.6497C112.133 89.6663 112.743 89.1383 113.79 89.2206C114.158 89.1859 114.529 89.1686 114.896 89.1585Z" fill="#D6D6D6"/>
<path d="M155.392 112.505C155.807 113.736 155.819 114.725 154.767 115.726C153.525 116.914 152.393 116.152 151.572 115.505C148.998 113.481 146.34 111.473 144.169 109.051C138.796 103.054 131.985 99.2726 124.893 95.8507C121.172 94.0611 117.165 93.1092 113.243 91.9099C113.001 91.878 112.768 91.8364 112.57 91.7536C112.665 91.6963 112.764 91.6489 112.871 91.6042C112.951 91.5663 113.03 91.5408 113.11 91.5152C116.619 91.7939 119.872 93.0861 123.073 94.3599C132.421 98.0705 140.493 103.682 147.363 111.03C148.493 112.238 149.769 113.292 151.074 114.301C152.011 115.028 153.107 115.88 154.281 114.907C155.349 114.021 154.746 112.879 154.307 111.867C151.577 105.597 146.538 101.626 140.872 98.1975C135.633 95.0241 129.748 93.5001 124.105 91.3422C123.919 91.1807 123.759 91.0247 123.639 90.862C123.576 90.7819 123.519 90.6994 123.481 90.6197C123.775 90.7118 124.072 90.8089 124.363 90.9083C133.067 93.3263 141.431 96.5341 148.295 102.61C151.353 105.319 154.033 108.476 155.392 112.505Z" fill="#D6D6D6"/>
<path d="M248.801 159.961C251.795 166.71 253.886 173.767 256.041 180.805C258.887 190.121 261.084 199.599 263.534 209.018C262.306 208.4 261.865 209.195 261.248 210.093C258.247 214.443 254.756 218.391 251.306 222.387C247.485 226.809 242.961 230.461 238.863 234.545C234.969 238.417 230.514 241.468 226.427 245.022C224.114 247.031 220.946 247.573 218.819 249.804C216.003 251.692 213.019 253.263 209.923 254.637C198.956 259.509 188.42 265.298 177.221 269.706C172.645 271.503 168.026 273.283 163.553 275.397C161.188 276.51 158.594 277.169 156.068 277.918C151.112 279.389 146.052 279.279 140.929 279.139C130.58 278.846 120.322 280.096 110.119 281.73C108.49 281.991 106.444 281.963 105.656 284.059C102.425 279.998 99.2392 275.903 95.9653 271.881C89.2756 263.666 83.094 255.081 77.9221 245.845C74.8386 240.334 73.6084 234.046 71.9048 227.996C70.655 223.542 69.1351 219.15 68.4533 214.543C70.0428 214.135 69.6371 215.414 69.8854 216.193C70.7162 218.789 71.786 221.155 74.9409 221.652C75.7941 221.789 76.4009 221.794 76.576 220.813C76.7869 219.651 77.2925 218.428 77.11 217.325C76.2805 212.214 75.5826 207.058 74.0046 202.12C73.2224 199.678 73.1986 195.594 74.4882 192.924C78.1063 195.898 78.1898 199.838 78.3199 204.158C78.5489 211.898 78.2067 219.825 81.6611 227.13C81.8121 227.962 81.976 228.769 82.1618 229.584L82.1689 229.599C83.6489 235.975 86.2992 241.808 90.3006 247.181C94.3573 252.632 98.9736 257.487 103.825 262.182C105.693 263.991 107.831 265.496 110.108 266.483C113.543 267.981 116.796 266.422 119.619 264.421C121.298 263.226 122.826 261.737 123.345 259.489C123.939 256.899 125.628 256.456 127.955 257.419C130.844 258.616 133.523 260.18 136.129 261.883C139.065 263.808 142.275 265.126 145.601 266.151C148.129 266.933 149.845 265.892 150.857 263.488C152.378 259.866 153.931 256.259 155.506 252.66C156.219 251.027 157.058 251.019 158.411 252.219C163.5 256.734 169.572 257.174 175.937 256.126C184.692 254.68 192.406 250.482 200.037 246.391C209.52 241.304 218.257 234.966 226.008 227.442C229.636 223.923 232.182 219.527 234.331 214.941C237.234 208.739 238.607 202.147 239.205 195.388C239.621 190.753 239.501 186.092 238.745 181.495C238.509 180.088 238.467 178.612 239.504 177.954C244.432 174.806 244.746 169.737 245.466 164.751C245.869 161.989 246.295 159.236 246.333 155.964C247.777 157.292 248.033 158.794 248.801 159.961Z" fill="#B8B8B8"/>
<path d="M104.869 38.9017C102.315 41.8919 101.668 45.117 102.529 49.0474C103.539 53.6639 104.645 58.2773 105.367 62.9571C105.548 64.1345 105.735 65.3884 107.039 65.9098C107.059 65.9249 107.081 65.9328 107.108 65.9382C107.154 65.9589 107.203 65.9722 107.255 65.9904C108.505 69.4181 108.454 73.0618 108.905 76.6192C109.049 77.7169 109.077 78.7779 109.944 79.446C110.102 79.5724 110.294 79.6822 110.517 79.7778C110.068 81.468 108.859 81.7376 107.282 82.2614C105.092 82.9852 102.913 84.0149 100.769 85.0158C100.582 84.9579 100.404 84.8902 100.233 84.8129C99.1056 84.3049 98.2455 83.4076 97.3139 82.6297C96.9644 82.3442 96.2953 81.8871 96.9665 81.385C97.0241 81.3393 97.0941 81.2938 97.1764 81.2485C98.1666 79.606 97.6142 78.7394 95.8023 78.4349C94.3641 78.197 93.2935 77.4608 92.8519 75.9922C92.4606 75.336 92.0341 74.7086 91.5725 74.1101C90.2821 72.4103 88.7707 70.901 87.3147 69.3409C86.5396 68.5069 85.4492 67.7802 85.8997 66.3514C86.4066 66.1715 86.8286 66.1601 87.0893 66.3231C85.3103 63.7752 83.0784 61.174 81.3545 58.2154C79.7023 55.3692 79.7431 53.2197 81.8624 50.9977C83.7648 49.0131 86.5707 48.7108 89.1493 50.3842C92.254 52.3935 93.7803 55.7329 95.826 58.6362C98.361 62.2346 99.868 66.4072 102.368 70.0468C100.313 61.9599 98.8601 53.7394 96.5323 45.7334C96.0914 44.2278 96.2357 43.0668 97.4934 42.1027C100.161 40.0715 102.575 37.6852 105.73 36.3442C106.51 37.5481 105.471 38.2009 104.869 38.9017Z" fill="#D0CFCF"/>
<path d="M110.886 86.5543C110.768 86.6531 110.552 86.5058 110.203 86.0551C111.779 83.6029 113.137 80.8579 115.65 78.9125C116.482 78.2729 117.616 77.807 117.518 76.4439C114.36 78.6651 111.993 81.585 110.005 84.8552C109.53 85.6424 108.816 86.4765 109.408 87.3365C110.167 88.4464 111.216 87.5448 111.761 87.0722C114.345 84.8371 117.547 83.8152 120.524 82.3573C121.586 81.8406 122.054 81.1175 121.621 79.9499C118.838 83.4337 114.138 83.8122 110.886 86.5543ZM124.373 89.683C124.128 89.7201 123.893 89.7525 123.646 89.7723C123.362 90.0478 123.344 90.3311 123.481 90.6198C123.775 90.7119 124.072 90.809 124.363 90.9084C123.878 90.492 123.465 90.0844 124.373 89.683ZM113.79 89.2205C114.158 89.1859 114.529 89.1685 114.896 89.1585C115.395 88.8847 115.877 88.5884 116.402 88.3818C116.36 88.2798 116.325 88.1682 116.305 88.0371C115.204 87.865 114.703 88.9821 113.79 89.2205ZM110.517 79.778C110.729 78.9018 111.299 78.3015 112.034 77.8302C114.339 79.365 115.299 77.029 116.781 76.1901C115.061 76.1045 113.884 77.9209 112.097 77.6046C112.06 77.6038 112.014 77.5955 111.972 77.5848C111.967 77.5872 111.96 77.5846 111.955 77.587C110.898 77.7782 110.381 78.567 109.946 79.4388L109.944 79.4461C109.851 79.649 109.763 79.8618 109.665 80.0793C109.378 80.6976 109.027 81.2677 108.231 81.3161C105.349 81.4837 103.327 83.6534 100.716 84.4552C100.663 84.4985 100.606 84.5442 100.55 84.5949C100.445 84.6816 100.34 84.7683 100.233 84.8131C100.156 84.8436 100.084 84.8471 100.015 84.8187C93.3029 82.144 86.3413 80.076 79.9581 76.6039C78.5064 75.8109 77.0674 74.9934 75.8647 73.8378C75.3324 73.3218 74.7378 72.7133 75.052 71.9353C75.408 71.0398 76.2845 71.3678 76.9857 71.4556C77.8984 71.5771 78.7576 71.9073 79.6325 72.1933C84.8422 73.9161 89.2098 77.1561 93.7745 80.04C94.7707 80.6712 95.7238 81.4815 96.9666 81.3852C97.0505 81.3819 97.1321 81.3736 97.2162 81.358C97.3177 81.3403 97.4292 81.3178 97.5359 81.2854C98.789 79.6949 98.0761 78.5933 96.5224 77.9586C95.2601 77.4356 94.0974 76.8652 93.2311 75.7878C92.6874 75.2222 92.1338 74.6614 91.5726 74.1103C92.0342 74.7088 92.4607 75.3361 92.852 75.9924C93.2936 77.461 94.3641 78.1972 95.8024 78.4351C97.6143 78.7396 98.1667 79.6062 97.1765 81.2487C94.3601 79.7432 91.7402 77.9186 89.0516 76.1937C85.2061 73.7309 81.2158 71.4773 76.6035 70.7157C75.7282 70.5702 74.7139 70.1063 74.173 71.2424C73.658 72.3172 74.2643 73.323 74.9342 73.9872C75.8846 74.9331 77.0611 75.6739 78.2187 76.3748C83.9575 79.8786 90.3757 81.857 96.596 84.2285C97.7932 84.6787 99.156 86.0939 100.769 85.016C102.913 84.0151 105.092 82.9854 107.282 82.2616C108.859 81.7378 110.068 81.4682 110.517 79.778ZM110.779 91.8787L110.781 91.8837C110.986 91.8779 111.176 91.8915 111.343 91.9342C111.54 91.5534 111.731 91.1577 111.962 90.8096C111.963 90.7603 111.967 90.7037 111.978 90.6496C112.133 89.6663 112.743 89.1383 113.79 89.2205C111.56 88.7179 111.511 90.6823 110.779 91.8787ZM111.89 92.3025C112.005 92.4922 112.041 92.7617 111.975 93.1229C112.4 92.7195 112.825 92.316 113.243 91.91C113.001 91.8781 112.768 91.8365 112.57 91.7537C112.315 91.8991 112.092 92.0846 111.89 92.3025Z" fill="#D8D8D8"/>
<path d="M191.977 100.864C191.854 100.965 191.761 101.064 191.692 101.164C191.656 101.139 191.624 101.111 191.593 101.083C189.291 98.5275 186.635 96.3052 184.513 93.5903C183.932 92.8415 182.385 91.5139 185.025 91.3514C182.237 89.2645 178.811 88.7876 175.602 88.0487C167.317 86.1396 158.819 85.6442 150.354 84.9744C143.343 84.4195 136.346 83.9734 129.313 84.4907C127.88 84.5981 126.585 84.4444 125.817 82.6735C125.265 81.4099 123.925 80.4662 122.356 80.2355C122.113 80.137 121.868 80.0459 121.621 79.9498C122.054 81.1173 121.586 81.8405 120.524 82.3571C117.547 83.815 114.345 84.837 111.761 87.072C111.216 87.5446 110.167 88.4462 109.407 87.3363C108.816 86.4764 109.53 85.6422 110.005 84.855C111.993 81.5849 114.36 78.665 117.518 76.4437C117.271 76.3599 117.028 76.2738 116.781 76.19C115.298 77.0288 114.339 79.3649 112.034 77.83C111.299 78.3013 110.729 78.9017 110.517 79.7778C110.068 81.468 108.859 81.7377 107.282 82.2614C105.092 82.9852 102.913 84.015 100.769 85.0158C99.1559 86.0937 97.7931 84.6785 96.5959 84.2283C90.3756 81.8568 83.9574 79.8784 78.2187 76.3747C77.061 75.6737 75.8845 74.9329 74.9341 73.987C74.2642 73.3228 73.6579 72.3171 74.1729 71.2422C74.7138 70.1062 75.7281 70.57 76.6034 70.7155C81.2157 71.4771 85.206 73.7307 89.0515 76.1935C91.7401 77.9184 94.3601 79.7431 97.1764 81.2486C98.1666 79.606 97.6142 78.7394 95.8023 78.435C94.3641 78.197 93.2935 77.4608 92.8519 75.9922C92.4606 75.336 92.0341 74.7086 91.5725 74.1102C88.7142 71.2574 85.7325 68.5305 82.9948 65.5717C79.6004 61.8996 75.7436 60.9802 71.1326 62.4824C67.5735 67.9705 66.0325 73.5675 70.4073 77.5548C71.6934 78.7318 73.1071 79.7016 74.6651 80.4869C80.3525 83.3559 86.4081 85.0855 92.6219 86.3127C93.3516 86.4602 94.2801 86.4095 94.4183 87.2654C94.8729 90.0461 97.3891 91.5112 98.5372 93.9134C99.3207 95.549 99.0479 95.99 97.8846 96.9214C94.9735 99.2634 91.9577 101.539 89.3583 104.203C82.5525 111.186 75.8172 118.214 71.044 126.916C68.4781 131.59 66.2768 136.415 64.5607 141.399C62.3121 147.961 61.1254 154.83 60.4829 161.752C59.931 167.721 59.4453 173.714 60.9021 179.643C62.5201 177.574 64.3245 177.76 66.116 179.32C69.0275 181.86 72.6995 182.648 76.1119 181.99C80.9532 181.062 84.0995 177.326 86.9952 173.423C90.5553 168.618 92.1482 162.77 95.7922 157.962C97.5533 155.642 99.2121 153.016 100.527 150.297C102.44 146.343 104.813 142.663 107.356 139.098C108.075 138.092 108.738 136.647 110.324 137.145C111.819 137.618 111.784 139.136 111.869 140.396C112.162 144.584 112.683 148.737 112.655 152.968C112.621 158.178 115.908 162.395 117.766 167.048C119.018 170.17 121.109 172.551 123.7 174.432C125.076 175.426 126.254 177.698 128.316 176.755C130.435 175.778 130.349 173.274 130.866 171.276C130.911 171.102 130.868 170.909 130.894 170.732C131.943 162.995 130.279 155.436 129.508 147.813C129 142.75 127.31 137.859 127.85 132.622C128.11 130.112 128.916 128.301 130.737 126.721C132.941 124.807 133.783 124.907 135.026 127.484C136.904 131.37 138.694 135.304 140.635 139.155C141.147 140.181 141.962 141.588 143.155 141.387C144.427 141.173 144.951 139.667 145.08 138.384C145.321 135.884 146.123 133.549 147.045 131.25C149.575 124.92 153.46 122.585 158.868 124.519C164.603 126.577 170.431 127.878 176.525 128.186C182.38 128.479 187.605 126.764 192.109 123.238C196.58 119.733 198.357 112.193 196.008 106.992C195.02 104.813 194.918 101.834 191.977 100.864ZM90.174 132.911C88.3337 140.267 89.1101 147.772 88.5093 155.192C88.3321 157.376 87.8498 159.522 86.997 161.569C86.6988 162.291 86.3357 162.927 85.4159 162.791C84.5331 162.655 84.3188 162.024 84.2219 161.204C83.2734 153.055 84.2733 145.048 85.7667 137.038C86.9114 130.903 88.9683 125.043 90.7237 119.087C90.9003 115.219 93.2161 112.178 94.5809 108.715C94.5683 108.727 94.5531 108.747 94.5356 108.761C94.5228 108.785 94.5049 108.812 94.4871 108.839C88.2575 116.854 82.4929 125.051 76.7697 133.27C74.8899 135.971 71.753 137.889 71.5543 141.633C70.2786 144.101 70.0665 146.674 70.0101 149.472C69.8418 158.445 69.6704 167.449 67.8861 176.311C67.5771 177.447 66.7842 177.5 66.021 176.936C65.0876 176.244 64.9661 175.295 65.6963 174.313C63.8956 170.268 64.1362 165.917 63.8396 161.658C63.4124 155.428 64.1722 149.305 65.8887 143.319C67.2016 138.759 69.8833 134.945 72.8448 131.321C78.7074 124.14 84.5117 116.913 90.4665 109.81C94.3816 105.136 98.515 100.65 102.544 96.0737C102.872 95.6979 103.269 95.3629 103.702 95.6575C104.145 95.9597 103.957 96.4763 103.704 96.8832C99.5984 103.443 97.272 110.805 94.3714 117.897C92.4072 122.706 91.4376 127.861 90.174 132.911ZM173.322 98.0008C172.512 98.8677 171.357 98.8129 170.252 98.6604C169.376 98.5396 168.552 97.9488 167.613 98.3889C167.541 99.1618 166.888 99.3438 166.342 99.6339C169.774 101.689 173.222 103.663 176.193 106.469C178.132 108.3 178.915 110.564 179.755 112.82C180.387 114.521 179.322 114.875 177.805 114.241C173.644 112.49 170.18 109.596 166.351 107.296C158.559 102.62 151.566 96.5685 142.814 93.5208C136.832 91.4326 130.53 90.9311 124.373 89.6829C123.465 90.0842 123.878 90.4918 124.363 90.9083C133.067 93.3263 141.431 96.5341 148.295 102.61C151.353 105.319 154.033 108.476 155.392 112.505C155.806 113.736 155.819 114.725 154.767 115.726C153.525 116.914 152.393 116.152 151.572 115.505C148.998 113.481 146.34 111.473 144.169 109.051C138.796 103.054 131.985 99.2726 124.893 95.8506C121.172 94.061 117.165 93.1091 113.243 91.9098C112.825 92.3159 112.4 92.7193 111.975 93.1228C110.914 95.2078 110.868 97.4879 110.559 99.7406C109.169 109.947 108.446 120.245 106.395 130.357C106.141 131.608 105.734 132.833 105.548 134.086C105.351 135.431 104.489 136.561 103.414 136.572C102.222 136.583 101.75 135.166 101.438 133.996C100.78 131.495 100.531 128.927 100.831 126.398C102.105 115.551 105.267 105.18 109.071 94.9915C109.483 93.8924 110.203 92.9152 110.781 91.8835L110.779 91.8786C111.511 90.6822 111.56 88.7178 113.79 89.2204C114.703 88.9819 115.204 87.8648 116.305 88.037C116.629 87.8707 116.948 87.7069 117.272 87.5406C117.322 87.5293 117.372 87.5179 117.421 87.5066C120.86 86.763 124.373 86.6251 127.867 86.5756C138.751 86.4251 149.561 87.1337 160.204 89.6367C164.795 90.7136 169.063 92.4326 172.836 95.2836C172.846 95.2912 172.853 95.2938 172.863 95.3014C173.059 96.2029 174.259 97.0058 173.322 98.0008Z" fill="#D8D8D8"/>
<path d="M172.863 95.3016C172.836 95.3084 172.813 95.3129 172.791 95.3174C172.241 95.4323 171.739 95.2375 171.299 94.9526C163.269 89.8156 154.101 88.9248 144.971 87.9361C136.738 87.0464 128.498 86.9778 120.246 87.7325C119.304 87.82 118.324 88.0054 117.392 87.5998C117.353 87.5818 117.314 87.5638 117.272 87.5408C117.322 87.5294 117.372 87.5181 117.421 87.5067C120.86 86.7632 124.373 86.6252 127.867 86.5757C138.751 86.4252 149.561 87.1338 160.204 89.6369C164.795 90.7137 169.063 92.4327 172.836 95.2838C172.846 95.2914 172.853 95.294 172.863 95.3016Z" fill="#D8D8D8"/>
<path d="M191.977 100.864C191.854 100.965 191.761 101.064 191.692 101.164C191.656 101.139 191.624 101.111 191.593 101.083C189.291 98.5276 186.635 96.3052 184.514 93.5903C183.932 92.8416 182.385 91.514 185.025 91.3514C182.962 92.0999 184.669 92.7106 185.126 93.2991C187.206 96.0033 190.182 97.8966 191.977 100.864Z" fill="#D8D8D8"/>
<path d="M125.183 45.4325C125.113 48.8958 124.501 52.3115 123.479 55.6599C121.808 61.1236 118.976 66.0342 116.429 71.0837C115.553 72.837 114.095 74.6651 116.781 76.1902C115.298 77.029 114.339 79.3651 112.034 77.8302L112.031 77.8252C112.001 77.7482 111.975 77.6688 111.955 77.587C111.323 75.6166 112.054 73.6212 111.968 71.6295C111.763 66.5209 111.228 61.3615 112.883 56.3512C113.195 55.4276 113.165 54.093 114.417 54.0165C115.803 53.9255 116.079 55.265 116.402 56.2898C117.153 58.6793 116.806 61.2001 117.278 63.594C118.218 58.9666 118.686 54.2091 119.287 49.474C119.905 44.6332 117.149 41.4816 112.583 41.3448C110.626 41.2865 109.325 42.0327 108.484 43.8977C106.429 48.439 106.949 53.2332 106.871 57.9761C106.827 60.6336 107.549 63.2691 107.108 65.9385C107.101 66.0148 107.087 66.0885 107.073 66.1622C106.035 66.5092 105.369 66.3925 105.117 65.0904C103.798 58.3077 102.023 51.6072 101.264 44.7295C100.955 41.9344 103.363 40.2285 104.663 38.1088C105.018 37.5313 105.748 37.1783 105.73 36.3444C110.043 34.9227 114.163 36.1505 118.33 37.1968C122.51 38.2434 125.262 41.2444 125.183 45.4325Z" fill="#D8D8D8"/>
<path d="M97.491 42.0978C96.8311 43.266 96.8422 44.3044 97.2806 45.689C98.575 49.7612 99.8213 53.899 100.496 58.1069C101.152 62.1837 102.465 66.0515 103.397 70.0278C103.581 70.8131 103.759 71.6254 103.073 72.5983C101.908 70.6864 100.462 69.134 99.6067 67.1296C97.4115 61.9719 94.2428 57.3869 90.9663 52.8836C88.014 48.8182 83.3026 49.0559 81.2041 53.1844C80.5338 54.4979 80.4784 55.7816 81.3436 56.7924C83.1418 58.8795 83.8679 61.6533 85.9983 63.5398C86.8829 64.3217 87.2805 65.6463 88.0312 66.9557C87.0785 66.7372 86.4892 66.6023 85.8925 66.4648C85.6322 66.4054 85.4002 66.2899 85.1941 66.1132C84.059 64.9072 83.3774 63.2292 81.6022 62.6936C80.5736 61.9558 79.5175 61.2371 79.5969 59.7468C80.7046 59.0066 80.1024 58.1637 79.7289 57.3524C79.152 56.113 78.5328 54.8876 77.9509 53.6505C76.7897 51.1691 77.3839 48.9762 79.31 47.0414C83.6756 42.6591 88.6267 40.5619 94.8271 42.4547C95.7072 42.726 96.6458 42.5423 97.491 42.0978Z" fill="#D8D8D8"/>
<path d="M262.633 216.142C250.498 228.24 237.547 239.37 223.205 248.818C222.3 249.419 221.246 249.81 220.264 250.301C219.97 250.466 219.673 250.637 219.374 250.804C217.949 252.446 215.858 252.915 214.024 253.835C199.035 260.96 184.176 268.396 169.013 275.128C154.163 281.722 138.176 284.177 122.202 286.35C117.94 286.929 113.646 287.286 109.359 287.596C105.859 287.85 105.849 287.752 105.656 284.059C106.444 281.963 108.49 281.991 110.119 281.73C120.322 280.096 130.58 278.846 140.929 279.139C146.053 279.279 151.112 279.389 156.068 277.918C158.594 277.169 161.188 276.51 163.554 275.397C168.026 273.283 172.646 271.503 177.221 269.706C188.42 265.298 198.956 259.509 209.923 254.637C213.019 253.263 216.003 251.692 218.819 249.804C220.946 247.573 224.114 247.031 226.427 245.022C230.514 241.468 234.969 238.417 238.863 234.545C242.961 230.461 247.485 226.809 251.306 222.387C254.756 218.391 258.247 214.443 261.248 210.093C261.866 209.195 262.306 208.4 263.534 209.018C265.789 212.786 265.896 212.894 262.633 216.142Z" fill="#A8A8A8"/>
<path d="M121.621 79.9499C122.054 81.1175 121.586 81.8406 120.524 82.3573C117.547 83.8152 114.345 84.8371 111.761 87.0722C111.216 87.5448 110.167 88.4464 109.408 87.3365C108.816 86.4765 109.53 85.6424 110.005 84.8552C111.993 81.585 114.36 78.6651 117.518 76.4439C120.06 76.2424 120.797 78.1508 121.621 79.9499Z" fill="#D0CFCF"/>
<path d="M85.648 65.9892C85.7261 66.1535 85.8068 66.3104 85.8949 66.47C87.8281 68.7126 89.7463 70.9624 91.7021 73.1882C92.4207 74.0063 93.2919 74.7213 92.8469 75.9949C90.7684 75.5791 90.0248 73.5522 88.8297 72.2587C86.6716 69.9154 83.9335 68.2019 82.0091 65.6438C79.1815 61.8792 75.0834 62.4051 71.1276 62.485C73.5768 60.4175 76.7436 60.5662 79.6042 59.7496C80.4694 60.5163 80.8892 61.7205 82.0212 62.2262C83.6671 63.0551 84.299 64.8726 85.648 65.9892Z" fill="#BCBCBB"/>
<path d="M173.322 98.0011C172.513 98.8679 171.357 98.8131 170.252 98.6607C169.377 98.5398 168.552 97.949 167.613 98.3892C167.41 98.437 167.215 98.4627 167.022 98.4688C165.911 98.5209 164.921 97.9539 163.935 97.5621C158.561 95.4292 152.921 94.2282 147.977 92.8978C153.717 94.8751 160.573 95.5774 166.25 99.5682C166.279 99.591 166.313 99.6114 166.343 99.6341C169.774 101.689 173.223 103.663 176.193 106.469C178.132 108.3 178.915 110.564 179.755 112.82C180.387 114.522 179.322 114.876 177.805 114.241C173.644 112.49 170.18 109.596 166.351 107.296C158.559 102.62 151.567 96.5688 142.814 93.521C136.832 91.4329 130.53 90.9314 124.373 89.6832C124.128 89.7203 123.893 89.7526 123.646 89.7724C122.472 89.8972 121.296 89.8519 120.127 89.7055C119.547 89.6398 118.971 89.5471 118.396 89.4421C118.096 89.3893 117.776 89.346 117.482 89.2663C117.013 89.1411 116.596 88.9184 116.402 88.3819C116.36 88.28 116.325 88.1683 116.305 88.0372C116.629 87.871 116.949 87.7071 117.273 87.5409C117.322 87.5295 117.372 87.5182 117.421 87.5068C120.86 86.7633 124.373 86.6254 127.867 86.5758C138.751 86.4253 149.561 87.134 160.204 89.637C164.795 90.7138 169.063 92.4329 172.836 95.2839C172.846 95.2915 172.853 95.2941 172.863 95.3017C173.06 96.2032 174.26 97.006 173.322 98.0011Z" fill="#BCBBBB"/>
<path d="M103.705 96.8832C99.5986 103.443 97.2722 110.805 94.3716 117.897C92.4074 122.706 91.4378 127.861 90.1742 132.911C88.3339 140.267 89.1103 147.772 88.5095 155.192C88.3323 157.376 87.85 159.522 86.9972 161.569C86.699 162.291 86.3359 162.927 85.4161 162.791C84.5333 162.655 84.319 162.024 84.2221 161.204C83.2736 153.055 84.2735 145.048 85.7669 137.038C86.9116 130.903 88.9685 125.043 90.7239 119.087C90.9004 115.219 93.2163 112.178 94.5811 108.715C94.5889 108.693 94.6018 108.669 94.6096 108.647C94.5842 108.683 94.5612 108.725 94.5358 108.761C94.523 108.786 94.5051 108.812 94.4873 108.839C88.2577 116.854 82.4931 125.051 76.7699 133.27C74.8901 135.971 71.7532 137.889 71.5545 141.633C70.2788 144.101 70.0667 146.674 70.0103 149.472C69.842 158.445 69.6706 167.449 67.8863 176.311C65.9434 177.119 65.6286 176.829 65.6965 174.313C63.8958 170.268 64.1363 165.918 63.8398 161.658C63.4126 155.428 64.1724 149.305 65.8889 143.319C67.2018 138.759 69.8835 134.945 72.845 131.321C78.7076 124.14 84.5119 116.913 90.4667 109.81C94.3818 105.136 98.5152 100.65 102.544 96.0737C102.873 95.698 103.269 95.363 103.702 95.6576C104.145 95.9598 103.957 96.4764 103.705 96.8832Z" fill="#BCBBBB"/>
<path d="M120.072 48.4909C119.354 54.0868 118.984 59.7562 117.541 65.2515C117.48 65.4821 117.261 65.6775 116.915 66.1836C116.536 62.7509 116.226 59.6205 115.808 56.5051C115.703 55.7312 115.457 54.5723 114.617 54.5138C113.403 54.4258 113.887 55.7275 113.629 56.4178C111.79 61.2716 112.613 66.3183 112.607 71.3019C112.601 73.4225 112.672 75.5373 112.097 77.6048C112.079 77.6808 112.057 77.7519 112.031 77.8254L112.034 77.8304C111.299 78.3017 110.729 78.902 110.517 79.7782C110.193 79.9444 109.907 80.0374 109.665 80.0795C108.444 80.2873 108.169 79.1179 108.203 78.0336C108.329 74.019 107.141 70.1462 107.073 66.1624C107.063 66.0758 107.05 65.9967 107.039 65.9102C105.981 58.5703 105.149 51.2202 107.759 44.0167C109.19 40.0772 114.487 39.4023 117.9 42.5347C119.692 44.1853 120.337 46.4297 120.072 48.4909Z" fill="#BBBBBB"/>
<path d="M155.392 112.505C155.807 113.736 155.819 114.725 154.768 115.726C153.525 116.914 152.393 116.152 151.573 115.505C148.999 113.481 146.34 111.473 144.169 109.051C138.796 103.054 131.985 99.2726 124.893 95.8507C121.172 94.061 117.165 93.1092 113.243 91.9098C113.002 91.878 112.768 91.8364 112.57 91.7536C112.183 91.6079 111.925 91.334 111.962 90.8095C111.963 90.7602 111.967 90.7035 111.978 90.6495C112.133 89.6662 112.743 89.1381 113.79 89.2204C114.158 89.1857 114.529 89.1684 114.897 89.1584C115.77 89.1337 116.631 89.1703 117.482 89.266C118.046 89.3215 118.607 89.409 119.162 89.5112C119.484 89.5718 119.808 89.6374 120.127 89.7053C121.26 89.9545 122.373 90.2674 123.481 90.6197C123.775 90.7118 124.072 90.8089 124.363 90.9083C133.067 93.3263 141.431 96.5341 148.295 102.61C151.353 105.319 154.033 108.476 155.392 112.505Z" fill="#C5C5C5"/>
<path d="M111.89 92.3026C112.005 92.4923 112.041 92.7618 111.975 93.123C110.914 95.208 110.868 97.4882 110.559 99.7409C109.169 109.947 108.446 120.246 106.395 130.358C106.141 131.608 105.734 132.833 105.548 134.087C105.351 135.432 104.489 136.561 103.413 136.572C102.222 136.583 101.75 135.166 101.438 133.996C100.78 131.495 100.531 128.928 100.831 126.399C102.105 115.551 105.267 105.18 109.071 94.9917C109.483 93.8926 110.203 92.9155 110.781 91.8838C110.986 91.878 111.176 91.8916 111.343 91.9343C111.59 91.9934 111.781 92.1106 111.89 92.3026Z" fill="#C5C5C5"/>
<path d="M100.769 85.016C99.156 86.0939 97.7932 84.6787 96.596 84.2285C90.3757 81.857 83.9575 79.8786 78.2187 76.3748C77.0611 75.6739 75.8846 74.9331 74.9342 73.9872C74.2643 73.323 73.658 72.3172 74.173 71.2424C74.7139 70.1063 75.7282 70.5702 76.6035 70.7157C81.2158 71.4773 85.2061 73.7309 89.0516 76.1937C91.7402 77.9186 94.3601 79.7432 97.1765 81.2487C97.1881 81.2859 97.2047 81.3208 97.2162 81.358C97.8161 82.9283 99.6963 83.2736 100.55 84.5949C100.631 84.7272 100.708 84.8619 100.769 85.016Z" fill="#BABABA"/>
<path d="M167.613 98.3891C167.541 99.162 166.888 99.344 166.342 99.6341C166.306 99.621 166.274 99.6056 166.242 99.5902C161.147 97.4529 155.899 95.7787 150.623 94.173C148.951 93.6616 147.003 93.8427 145.678 92.2754C153.141 93.3299 160.363 95.2255 167.283 98.247C167.396 98.2911 167.505 98.3426 167.613 98.3891Z" fill="#D8D8D8"/>
<path d="M124.363 90.9084C124.119 90.8962 123.88 90.8816 123.639 90.8621C120.56 90.6288 117.569 89.872 114.535 89.3486C114.287 89.3018 114.041 89.26 113.79 89.2205C114.703 88.982 115.204 87.865 116.305 88.0371C116.437 88.1211 116.571 88.1977 116.708 88.267C118.971 89.4434 121.604 88.79 123.957 89.5392C124.097 89.5765 124.236 89.6261 124.373 89.683C123.465 90.0843 123.878 90.492 124.363 90.9084Z" fill="#D0CFCF"/>
<path d="M112.871 91.6044C112.978 91.7002 113.102 91.8062 113.243 91.9101C112.825 92.3162 112.4 92.7196 111.975 93.1231C111.84 92.9798 111.697 92.834 111.562 92.6908C111.429 92.5525 111.296 92.4143 111.163 92.276C111.035 92.1477 110.909 92.0121 110.781 91.8838L110.779 91.8788C111.511 90.6825 111.56 88.7181 113.79 89.2207C113.167 89.529 112.633 89.8563 112.418 90.2515L112.413 90.2539C112.208 90.6321 112.295 91.0727 112.871 91.6044Z" fill="#CFCFCF"/>
<path d="M67.886 176.312C67.577 177.447 66.7841 177.501 66.0209 176.936C65.0875 176.244 64.966 175.295 65.6963 174.313C66.0823 175.356 65.7847 177.146 67.886 176.312Z" fill="#CFCFCF"/>
<path d="M85.6481 65.9891C83.9796 65.177 83.2697 63.4393 82.0212 62.2261C84.0796 62.6636 84.7041 64.4786 85.6481 65.9891Z" fill="#D0CFCF"/>
</svg>
