<svg width="165" height="179" viewBox="0 0 165 179" fill="none" xmlns="http://www.w3.org/2000/svg">
<path d="M42.6578 169.568C43.833 163.412 41.4244 156.397 36.4919 151.703C34.3395 157.964 36.6468 165.076 42.6578 169.568Z" fill="#7BA324"/>
<path d="M56.5623 167.451C53.2005 159.791 44.9165 154.586 36.4531 152.049C40.1219 159.394 47.8576 165.182 56.5623 167.451Z" fill="#7BA324"/>
<path d="M57.5063 155.841C51.5012 151.296 43.1418 150.248 36.0183 151.623C41.6926 156.427 49.9237 158.347 57.5063 155.841Z" fill="#7BA324"/>
<path d="M14.8159 147.277C20.5823 153.138 29.5946 152.674 37.0309 152.006C30.9962 146.383 22.2997 146.99 14.8159 147.277Z" fill="#7BA324"/>
<path d="M18.0864 137.514C21.797 144.219 28.7105 149.807 37.1473 151.24C33.2489 144.862 25.7395 139.745 18.0864 137.514Z" fill="#7BA324"/>
<path d="M25.7675 133.864C26.9609 139.614 31.2973 146.121 36.5337 150.795C38.0189 143.76 32.7888 137.421 25.7675 133.864Z" fill="#7BA324"/>
<path d="M41.9789 141.008C40.7809 142.808 39.1778 144.455 37.7771 146.178C36.3765 147.902 34.8031 149.552 33.2327 151.176C31.2749 153.293 29.1681 155.394 27.0643 157.468L25.3628 159.185C24.8205 159.715 25.2107 159.732 25.9048 160.267C26.1252 160.453 28.4426 162.38 28.4784 162.33L29.6703 161.121C31.5775 159.185 33.5382 157.31 35.3917 155.315C39.0421 151.561 42.5287 147.653 45.6786 143.52C45.9617 143.149 42.5449 141.34 41.9789 141.008Z" fill="#62A324"/>
<path d="M61.2173 148.331C61.5368 144.954 60.4561 141.42 58.7288 138.539C56.9747 135.627 54.4399 133.219 51.4403 131.458C51.1714 134.652 52.0346 137.974 53.7768 140.991C55.3193 143.906 57.8541 146.582 61.2173 148.331Z" fill="#7BA324"/>
<path d="M75.0658 142.419C69.8538 135.114 60.1721 132.413 51.4938 131.786C56.9116 138.065 65.7021 142.521 75.0658 142.419Z" fill="#7BA324"/>
<path d="M72.8253 130.155C65.7831 127.321 57.173 128.502 50.9279 131.454C57.7406 134.988 66.1241 134.749 72.8253 130.155Z" fill="#7BA324"/>
<path d="M29.7192 130.385C33.1298 132.784 36.9103 133.773 40.8011 133.781C44.546 133.745 48.4042 132.702 52.0272 131.604C48.3722 129.5 44.3682 129.157 40.5548 129.266C36.7355 129.427 33.2198 130.107 29.7192 130.385Z" fill="#7BA324"/>
<path d="M29.724 121.76C35.3297 126.905 43.3398 131.326 51.8992 130.865C46.2012 125.467 37.3238 122.588 29.724 121.76Z" fill="#7BA324"/>
<path d="M35.5315 117.065C38.6824 122.042 44.6845 127.151 51.1516 130.539C50.7681 126.975 48.9008 123.997 46.077 121.745C43.1668 119.456 39.4162 117.932 35.5315 117.065Z" fill="#7BA324"/>
<path d="M53.2363 119.782C51.9335 123.855 50.1333 127.79 48.1066 131.593C46.6612 133.983 45.4182 136.45 43.66 138.671L42.3041 140.534C41.875 141.13 42.2444 141.064 43.004 141.553C43.2572 141.716 45.8219 143.321 45.8874 143.275L46.856 141.906L49.2133 138.651L51.2309 135.196L53.1443 131.864L54.7419 128.389C55.9043 126.102 56.748 123.698 57.5619 121.29C57.7348 120.826 53.8768 119.989 53.2363 119.782Z" fill="#62A324"/>
<path d="M73.9385 121.87C72.9025 118.475 70.9458 115.487 68.4021 113.159C65.7392 110.817 62.525 109.085 59.0724 108.132C60.0369 111.358 61.7315 114.262 64.2901 116.727C66.8844 119.141 70.17 121.043 73.9385 121.87Z" fill="#7BA324"/>
<path d="M85.0499 112.935C77.8653 107.344 67.8404 106.888 59.251 108.421C66.5847 113.223 76.3501 115.181 85.0499 112.935Z" fill="#7BA324"/>
<path d="M79.2491 102.018C71.5391 100.828 63.9921 103.822 58.6672 108.248C62.4358 109.075 66.3058 109 69.9258 107.929C73.5756 106.861 76.8204 104.835 79.2491 102.018Z" fill="#7BA324"/>
<path d="M38.2168 112.773C42.2771 114.224 46.0846 114.168 49.7314 113.127C53.405 112.116 56.8553 110.14 59.7664 108.13C55.6106 106.99 51.7376 107.629 48.2308 108.767C44.6019 109.917 41.1962 111.495 38.2168 112.773Z" fill="#7BA324"/>
<path d="M35.4332 103.995C42.4812 107.851 51.4452 109.961 59.3942 107.416C52.4327 103.596 43.1109 102.789 35.4332 103.995Z" fill="#7BA324"/>
<path d="M39.7457 97.5738C44.2195 102.054 51.4551 105.582 58.5929 107.299C57.3394 103.96 54.5455 101.442 51.1346 99.8491C47.7566 98.2331 43.7348 97.5119 39.7457 97.5738Z" fill="#7BA324"/>
<path d="M57.6002 96.2773C57.2983 100.57 56.8445 104.872 56.0392 109.081C55.6126 111.8 54.7451 114.417 54.1397 117.117C53.9369 117.846 53.6478 118.539 53.4183 119.239C53.1917 119.912 53.5403 119.763 54.4162 120.023C54.7081 120.11 57.6841 121.009 57.6931 120.929L58.2297 119.377C59.0227 116.887 59.5536 114.313 60.2304 111.782L61.522 104.323L62.2179 96.7968C62.212 96.3124 58.2883 96.3279 57.6002 96.2773Z" fill="#62A324"/>
<path d="M78.0646 94.0377C74.6071 88.0326 67.428 84.2691 60.4181 83.5611C63.5181 89.5261 70.3574 93.8963 78.0646 94.0377Z" fill="#7BA324"/>
<path d="M86.7989 83.7075C78.6189 79.724 68.7249 80.7876 60.6596 83.8304C68.7801 87.2698 78.7365 87.2612 86.7989 83.7075Z" fill="#7BA324"/>
<path d="M78.9153 74.4098C71.1604 74.4242 64.1316 78.4436 60.0341 83.7601C67.7769 84.1205 75.0886 80.536 78.9153 74.4098Z" fill="#7BA324"/>
<path d="M41.1707 92.4134C45.4457 93.0287 49.1669 92.1305 52.504 90.3562C55.8411 88.5818 58.52 85.9542 61.0916 83.4757C52.4014 82.6862 46.6443 88.5416 41.1707 92.4134Z" fill="#7BA324"/>
<path d="M36.4265 83.6303C44.0765 86.4256 53.3061 86.7115 60.5643 82.7986C52.9172 80.2454 43.6428 80.895 36.4265 83.6303Z" fill="#7BA324"/>
<path d="M39.3063 76.0003C44.4028 80.04 52.4639 82.3979 59.7479 82.8142C55.5873 76.6226 47.1537 74.6259 39.3063 76.0003Z" fill="#7BA324"/>
<path d="M56.5599 72.0025C56.8871 74.1891 57.0952 76.3622 57.2436 78.5286C57.4517 80.7017 57.627 82.8981 57.6563 85.0511C57.7957 87.8345 57.8427 90.6345 57.711 93.4143L57.6658 95.6934C57.6448 96.4165 57.9398 96.2078 58.8395 96.2553C59.1404 96.2622 62.2507 96.5047 62.2566 96.4516L62.2897 94.8161C62.3409 92.2153 62.4845 89.5981 62.3272 86.9739C62.23 81.938 61.8052 76.8652 61.1628 71.8485C61.0944 71.384 57.2302 71.9436 56.5599 72.0025Z" fill="#62A324"/>
<path d="M76.3399 66.9991C71.7977 61.7856 64.4994 58.8149 57.3374 58.9228C61.1942 64.5967 68.7844 67.9227 76.3399 66.9991Z" fill="#7BA324"/>
<path d="M83.4743 56.1395C74.8293 53.3397 65.1136 55.2295 57.6409 59.172C66.134 61.7129 75.9687 60.3739 83.4743 56.1395Z" fill="#7BA324"/>
<path d="M74.5149 48.0912C66.8641 48.7891 60.2552 53.3662 56.9768 59.1778C64.6663 58.6724 71.433 54.3012 74.5149 48.0912Z" fill="#7BA324"/>
<path d="M39.7337 70.3248C48.4001 70.5204 53.7193 64.2665 57.96 58.7511C49.3739 58.9138 44.2929 65.4633 39.7337 70.3248Z" fill="#7BA324"/>
<path d="M33.625 61.6028C41.6744 63.7981 50.8029 62.8365 57.394 58.1499C49.4726 56.4258 40.3172 57.8949 33.625 61.6028Z" fill="#7BA324"/>
<path d="M35.4085 53.2586C41.1039 57.0701 49.2279 58.602 56.5688 58.2454C51.7228 52.5142 43.006 51.1574 35.4085 53.2586Z" fill="#7BA324"/>
<path d="M52.0844 47.6908C53.1053 52.0244 53.9743 56.3679 54.8105 60.7345C55.2508 63.5249 55.8103 66.3288 56.1612 69.1091L56.4467 71.3985C56.5449 72.135 56.7862 71.8666 57.7009 71.7814C58.0047 71.7618 61.1062 71.5464 61.0824 71.49L60.8742 69.8543C60.5947 67.2432 60.1007 64.6617 59.6693 62.0604C58.8154 57.0468 57.7737 52.0928 56.6129 47.1253C56.5385 46.7139 52.7607 47.5787 52.0844 47.6908Z" fill="#62A324"/>
<path d="M71.2838 41.144C66.3513 36.4509 58.8412 34.0206 51.6969 34.5068C56.0007 39.9622 63.7818 42.6648 71.2838 41.144Z" fill="#7BA324"/>
<path d="M77.4946 30.1805C68.7451 28.0408 59.1932 30.3521 51.9706 34.7527C60.7022 36.783 70.3197 34.694 77.4946 30.1805Z" fill="#7BA324"/>
<path d="M68.1448 22.9214C60.5446 23.9743 54.2127 28.7706 51.3335 34.7884C58.9545 33.8185 65.4026 29.0621 68.1448 22.9214Z" fill="#7BA324"/>
<path d="M35.2015 47.3234C43.7936 46.8388 48.5081 40.0601 52.293 34.3053C43.7425 34.9558 39.1918 41.8873 35.2015 47.3234Z" fill="#7BA324"/>
<path d="M28.2524 38.5606C36.4895 40.4277 45.4513 38.8023 51.6938 33.7272C43.689 32.4774 34.6408 34.3349 28.2524 38.5606Z" fill="#7BA324"/>
<path d="M29.4194 29.7975C35.3621 33.5563 43.6233 34.6737 50.8898 33.9057C45.6535 28.426 36.8769 27.3312 29.4194 29.7975Z" fill="#7BA324"/>
<path d="M45.7855 23.4962L49.3308 36.4979L51.4383 44.8503L51.9681 47.1133C52.1288 47.8301 52.3403 47.5584 53.2609 47.4201C53.538 47.3706 56.6068 46.9097 56.5829 46.8532L56.2199 45.2538L54.3089 37.5685C53.0229 32.6406 51.6774 27.7061 50.2991 22.7948C50.1711 22.3236 46.435 23.3543 45.7855 23.4962Z" fill="#62A324"/>
<path d="M137.254 127.584C137.728 126.208 138.733 124.786 139.803 123.516C140.885 122.237 142.252 121.079 143.837 120.242C143.911 121.189 143.795 122.088 143.539 122.906C143.214 123.732 142.735 124.485 142.121 125.116C140.925 126.393 139.215 127.217 137.254 127.584Z" fill="#62831A"/>
<path d="M131.291 124.929C134.456 122.203 139.081 120.191 143.804 120.439C140.903 123.709 135.791 124.682 131.291 124.929Z" fill="#62831A"/>
<path d="M132.797 120.1C136.115 118.229 140.632 118.029 144.084 120.29C142.288 121.054 140.271 121.303 138.324 121.212C137.344 121.17 136.408 121.041 135.49 120.84C134.548 120.656 133.635 120.413 132.797 120.1Z" fill="#62831A"/>
<path d="M155.848 123.499C153.809 124.291 151.645 123.857 149.563 123.075C147.553 122.265 145.412 121.171 143.51 120.306C145.421 119.308 147.534 119.345 149.704 120.048C151.936 120.709 153.884 122.129 155.848 123.499Z" fill="#62831A"/>
<path d="M155.202 115.902C152.74 119.58 148.068 120.607 143.543 119.873C146.405 117.099 150.674 115.093 155.202 115.902Z" fill="#62831A"/>
<path d="M150.491 110.994C150.327 115.132 147.268 118.157 143.936 119.725C143.938 118.707 144.189 117.716 144.477 116.819C144.764 115.921 145.194 115.083 145.754 114.313C146.884 112.787 148.509 111.572 150.491 110.994Z" fill="#62831A"/>
<path d="M141.541 113.33L143.737 116.889C144.436 118.097 144.969 119.359 145.597 120.596C146.453 122.168 146.943 123.85 147.574 125.495L148.064 126.845C148.214 127.271 148.031 127.16 147.565 127.241C147.414 127.265 145.826 127.576 145.818 127.543L145.486 126.652C144.935 125.226 144.501 123.78 143.879 122.383L141.925 118.368L139.576 114.522C139.428 114.289 141.24 113.475 141.541 113.33Z" fill="#558D20"/>
<path d="M131.625 116.827C131.632 115.317 132.02 113.667 132.689 112.061C133.285 110.505 134.176 108.964 135.383 107.7C136.17 109.493 136.018 111.414 135.316 113.003C134.624 114.604 133.324 115.894 131.625 116.827Z" fill="#62831A"/>
<path d="M125.26 115.851C127.302 112.263 130.969 109.002 135.421 107.889C133.779 111.931 129.364 114.348 125.26 115.851Z" fill="#62831A"/>
<path d="M125.135 110.639C126.411 109.248 128.019 108.201 129.862 107.639C131.695 107.065 133.634 107.122 135.626 107.672C134.213 108.94 132.414 109.746 130.581 110.202C128.749 110.659 126.933 110.733 125.135 110.639Z" fill="#62831A"/>
<path d="M147.468 107.467C145.839 108.842 143.702 109.035 141.534 108.859C140.444 108.774 139.353 108.593 138.288 108.375C137.175 108.189 136.106 108.012 135.094 107.836C136.545 106.308 138.513 105.76 140.75 105.811C142.936 105.917 145.26 106.692 147.468 107.467Z" fill="#62831A"/>
<path d="M144.533 100.205C143.402 104.507 139.418 106.848 134.99 107.398C136.772 103.887 140.097 100.721 144.533 100.205Z" fill="#62831A"/>
<path d="M138.683 96.6926C138.954 97.721 139.044 98.7354 139.011 99.7152C138.944 100.699 138.717 101.673 138.385 102.562C137.719 104.361 136.621 105.905 135.325 107.152C134.733 105.128 134.819 103.077 135.347 101.293C135.901 99.4719 137.032 97.8279 138.683 96.6926Z" fill="#62831A"/>
<path d="M131.112 101.516C132.168 102.484 133.226 103.43 134.27 104.406L137.138 107.549C138.386 108.876 139.373 110.398 140.485 111.815C140.764 112.213 141.103 112.59 141.345 113.013C141.59 113.414 141.38 113.341 140.991 113.565C140.858 113.635 139.497 114.399 139.479 114.352C139.314 114.073 139.148 113.794 138.945 113.54L136.105 109.791L133.022 106.402C132.006 105.271 130.789 104.315 129.675 103.251C129.465 103.06 130.882 101.75 131.112 101.516Z" fill="#558D20"/>
<path d="M123.068 107.716C122.591 106.24 122.448 104.518 122.551 102.748C122.691 100.953 122.969 99.2604 123.707 97.6468C124.35 98.4048 124.796 99.2958 125.033 100.21C125.283 101.117 125.371 102.034 125.292 102.909C125.143 104.691 124.332 106.333 123.068 107.716Z" fill="#62831A"/>
<path d="M116.913 108.593C117.701 104.502 120.021 100.217 123.79 97.8454C123.689 100.044 122.755 102.102 121.47 103.909C120.2 105.687 118.587 107.226 116.913 108.593Z" fill="#62831A"/>
<path d="M115.186 103.485C115.913 101.762 117.1 100.236 118.583 99.1755C120.052 98.144 121.885 97.5696 123.9 97.5561C122.038 100.847 118.447 102.825 115.186 103.485Z" fill="#62831A"/>
<path d="M134.815 94.029C133.736 95.8333 131.812 96.6257 129.751 97.0805C127.665 97.552 125.503 97.5475 123.49 97.8723C124.351 95.9611 126.014 94.8175 128.071 94.287C130.077 93.8107 132.519 93.8805 134.815 94.029Z" fill="#62831A"/>
<path d="M129.796 87.6674C130.148 92.2381 127.175 95.6553 123.243 97.4918C123.767 93.5211 125.804 89.4278 129.796 87.6674Z" fill="#62831A"/>
<path d="M123.289 85.8496C124.418 87.6672 124.872 89.8033 124.832 91.7463C124.801 93.7019 124.267 95.5484 123.474 97.1404C121.138 93.5005 120.967 89.0616 123.289 85.8496Z" fill="#62831A"/>
<path d="M117.814 92.7763C119.074 93.4298 120.389 93.9869 121.604 94.7494L125.273 96.9992C126.78 98.0332 128.229 99.1845 129.694 100.286C130.111 100.571 130.452 100.927 130.83 101.258C131.175 101.572 130.969 101.574 130.661 101.9C130.558 102.008 129.526 103.136 129.506 103.111L128.773 102.453C127.537 101.45 126.236 100.532 124.974 99.5668C122.416 97.8558 119.804 96.22 117.008 94.9235C116.772 94.7702 117.679 93.0823 117.814 92.7763Z" fill="#558D20"/>
<path d="M112.245 101.153C111.267 99.7613 110.561 98.0691 110.141 96.2613C109.695 94.4912 109.565 92.6437 109.849 90.8878C113.041 93.5586 113.807 97.7708 112.245 101.153Z" fill="#62831A"/>
<path d="M106.162 103.33C105.533 98.8874 107.054 94.2431 110.004 91.0571C110.83 95.581 108.934 100.088 106.162 103.33Z" fill="#62831A"/>
<path d="M102.556 98.2411C103.375 94.5209 106.306 91.6208 110.034 90.7627C109.58 92.6141 108.577 94.2297 107.277 95.5191C106.014 96.7836 104.393 97.7425 102.556 98.2411Z" fill="#62831A"/>
<path d="M118.99 84.3772C117.976 88.5417 113.232 89.7156 109.717 91.1726C110.083 89.0682 111.356 87.6019 113.057 86.5302C114.756 85.4794 116.955 84.9121 118.99 84.3772Z" fill="#62831A"/>
<path d="M113.237 79.5872C114.284 83.9614 112.67 88.1801 109.399 90.821C108.964 86.7165 110.233 82.3017 113.237 79.5872Z" fill="#62831A"/>
<path d="M107.565 79.3155C109.769 82.5758 110.319 86.8957 109.519 90.4267C106.43 87.315 105.924 82.9072 107.565 79.3155Z" fill="#62831A"/>
<path d="M103.425 87.0599C105.998 87.9593 108.567 88.9008 111.164 89.9013C112.829 90.5159 114.478 91.2776 116.134 91.9763C116.584 92.1607 117.017 92.3955 117.475 92.6136C117.889 92.823 117.711 92.8847 117.52 93.287C117.46 93.4253 116.87 94.8213 116.825 94.8125L115.944 94.3723C114.49 93.7131 113.017 93.1252 111.561 92.487C108.701 91.3709 105.812 90.3133 102.919 89.2978C102.644 89.1905 103.322 87.383 103.425 87.0599Z" fill="#558D20"/>
<path d="M98.7348 96.0162C96.1671 93.1778 94.928 89.1091 95.5944 85.6484C98.6368 88.3223 99.9533 92.4169 98.7348 96.0162Z" fill="#62831A"/>
<path d="M91.7738 98.0428C90.7504 93.4374 92.7562 88.9737 95.726 85.8131C96.507 90.3282 94.9412 94.9637 91.7738 98.0428Z" fill="#62831A"/>
<path d="M87.5037 92.4068C88.702 88.7821 92.1183 86.3948 95.7808 85.5025C94.817 89.1837 91.7473 91.9818 87.5037 92.4068Z" fill="#62831A"/>
<path d="M103.886 78.5967C103.232 82.8313 99.0206 84.6025 95.4515 85.9203C96.3061 81.7462 100.422 80.1172 103.886 78.5967Z" fill="#62831A"/>
<path d="M99.1811 74.4085C99.7313 78.6106 98.4693 82.9624 95.1456 85.5608C94.7887 81.4822 96.4747 77.2347 99.1811 74.4085Z" fill="#62831A"/>
<path d="M94.5141 74.279C95.8813 77.4402 96.084 81.6816 95.2743 85.2C92.2761 81.9881 92.5314 77.6325 94.5141 74.279Z" fill="#62831A"/>
<path d="M89.5817 81.4833C90.7172 82.1232 91.9844 82.5959 93.1857 83.1522C94.387 83.7084 95.6419 84.1894 96.8866 84.6577C98.4693 85.2885 100.114 85.8777 101.748 86.4542L103.082 86.9401C103.502 87.0864 103.332 87.1818 103.196 87.6055C103.159 87.7483 102.754 89.234 102.721 89.217L101.784 88.8731C100.284 88.3229 98.7806 87.8147 97.2854 87.2224C94.3987 86.1439 91.535 84.952 88.7481 83.5714C88.4977 83.4475 89.437 81.7766 89.5817 81.4833Z" fill="#558D20"/>
<path d="M83.3465 89.4503C82.0844 87.8209 81.4005 85.8008 81.2239 83.9656C81.0494 82.1093 81.393 80.3328 82.1601 78.7784C83.339 80.3271 84.0505 82.1918 84.2655 84.0989C84.5362 85.9097 84.2815 87.8215 83.3465 89.4503Z" fill="#62831A"/>
<path d="M75.1537 89.5543C75.0811 84.7166 78.5452 81.2024 82.2445 78.9561C81.885 83.3234 79.403 87.5226 75.1537 89.5543Z" fill="#62831A"/>
<path d="M72.1013 82.8801C74.333 79.8861 78.6004 78.5655 82.3895 78.6627C80.4929 81.958 76.6394 83.7025 72.1013 82.8801Z" fill="#62831A"/>
<path d="M91.5835 73.4058C90.8425 75.3727 89.4683 76.712 87.7192 77.5815C86.0215 78.3967 83.9388 78.7293 81.9444 78.9828C82.893 77.1101 84.582 76.0467 86.3347 75.253C88.1077 74.4846 89.9154 74.0446 91.5835 73.4058Z" fill="#62831A"/>
<path d="M88.7251 69.0636C87.9053 72.9016 85.7634 76.91 81.7572 78.5819C82.535 74.5963 85.5779 71.1713 88.7251 69.0636Z" fill="#62831A"/>
<path d="M84.5558 67.9918C84.7853 71.1987 83.7752 75.1067 81.9856 78.2514C80.9782 76.3717 80.8327 74.4567 81.358 72.6943C81.9101 70.8942 83.094 69.2926 84.5558 67.9918Z" fill="#62831A"/>
<path d="M77.4848 73.2992C79.4199 75.06 81.5338 76.6414 83.7056 78.1055C85.1479 78.9875 86.5244 79.9532 88.0514 80.6803L89.2787 81.3167C89.6695 81.5217 89.4814 81.5707 89.3012 81.9857C89.2411 82.124 88.6181 83.5029 88.5732 83.4941L87.6838 83.0202L85.5446 81.9055L83.4922 80.6149L81.5274 79.3628L79.6574 77.9684C78.3765 77.0749 77.2005 76.052 76.0368 75.0207C75.8052 74.8254 77.2648 73.5456 77.4848 73.2992Z" fill="#558D20"/>
<path d="M68.8563 78.9553C68.1985 77.0152 68.0898 75.0753 68.4639 73.337C68.8872 71.5653 69.7606 69.9781 70.9995 68.7302C71.6335 70.5691 71.8325 72.4088 71.4968 74.219C71.1285 76.0121 70.279 77.7004 68.8563 78.9553Z" fill="#62831A"/>
<path d="M60.8951 76.9283C62.2778 72.5142 66.6401 70.0544 71.0146 68.9155C69.3033 72.9651 65.5555 76.1238 60.8951 76.9283Z" fill="#62831A"/>
<path d="M59.8909 70.1398C62.9679 67.8254 67.357 67.654 71.22 68.6981C69.7973 69.953 68.0301 70.7761 66.0458 71.0422C64.0492 71.3167 61.9172 71.018 59.8909 70.1398Z" fill="#62831A"/>
<path d="M81.9254 66.4274C80.5779 68.0614 78.8455 68.8806 76.859 69.1677C74.8704 69.4759 72.6624 69.2481 70.6861 68.8834C72.1797 67.3852 74.135 66.8455 76.0904 66.638C78.1051 66.4099 80.161 66.4472 81.9254 66.4274Z" fill="#62831A"/>
<path d="M80.2717 61.3879C78.3758 64.8977 75.039 67.9545 70.6174 68.4411C72.4865 64.969 76.416 62.4889 80.2717 61.3879Z" fill="#62831A"/>
<path d="M76.2036 59.1138C75.6733 62.3651 73.5842 65.7514 70.9393 68.2038C70.3979 66.2436 70.8219 64.3542 71.8299 62.7933C72.8155 61.2279 74.3873 59.9701 76.2036 59.1138Z" fill="#62831A"/>
<path d="M67.7363 62.4328C69.2937 64.5272 70.9228 66.5926 72.6792 68.5329C73.772 69.8076 75.029 70.9322 76.1956 72.157C76.5285 72.4792 76.8882 72.7639 77.2233 73.0651C77.5482 73.3537 77.3419 73.3563 77.0337 73.682C76.9309 73.7905 75.8889 74.9054 75.8585 74.8673L75.1029 74.2051C73.9211 73.1274 72.8298 71.9495 71.6871 70.8258L68.6352 67.3569L65.8294 63.7217C65.6717 63.4765 67.4432 62.6114 67.7363 62.4328Z" fill="#558D20"/>
<path d="M57.7809 65.8583C57.3487 62.0652 59.3344 58.5729 62.2557 56.6569C62.8356 60.3503 61.2038 64.0725 57.7809 65.8583Z" fill="#62831A"/>
<path d="M50.4278 62.5996C52.7912 58.7738 57.5977 57.1083 62.2364 56.8463C59.7196 60.3848 55.2344 62.5954 50.4278 62.5996Z" fill="#62831A"/>
<path d="M50.8977 56.1638C54.3937 54.4459 58.8892 54.9062 62.4946 56.6718C59.1281 58.5759 54.6493 58.3975 50.8977 56.1638Z" fill="#62831A"/>
<path d="M73.8528 56.8328C72.132 58.0936 70.1593 58.4692 68.0693 58.3181C65.9793 58.167 63.9031 57.4398 61.9246 56.7638C65.5754 54.433 70.1064 56.1007 73.8528 56.8328Z" fill="#62831A"/>
<path d="M73.0797 51.3543C70.5614 54.4638 66.501 56.661 61.9375 56.3053C64.5346 53.3184 68.9251 51.5823 73.0797 51.3543Z" fill="#62831A"/>
<path d="M69.2562 48.1526C68.2997 51.3207 65.4514 54.3014 62.3101 56.1315C62.1326 52.088 65.2682 49.2063 69.2562 48.1526Z" fill="#62831A"/>
<path d="M60.1654 49.9779C60.7422 51.1518 61.3682 52.2924 62.0189 53.4163C62.6449 54.5569 63.2933 55.7019 63.9932 56.7926C64.8522 58.2253 65.7583 59.6457 66.7382 61.0162L67.5133 62.1538C67.7623 62.5133 67.5603 62.4738 67.171 62.6979C67.0379 62.7683 65.7179 63.5824 65.6977 63.557L65.1411 62.7408C64.2568 61.4425 63.3254 60.1565 62.5271 58.8C60.9031 56.2425 59.4144 53.5935 58.0422 50.9244C57.9192 50.6752 59.8441 50.0973 60.1654 49.9779Z" fill="#558D20"/>
<path d="M49.6035 51.8588C49.9217 48.223 52.2236 45.1034 55.4837 43.5645C55.6264 47.2796 53.3108 50.6431 49.6035 51.8588Z" fill="#62831A"/>
<path d="M42.7945 47.9769C45.7592 44.6437 50.7591 43.4339 55.4289 43.7568C52.4468 46.9258 47.5758 48.4394 42.7945 47.9769Z" fill="#62831A"/>
<path d="M44.1633 41.9313C47.8388 40.5807 52.3299 41.4153 55.7306 43.6125C52.1014 45.0686 47.6074 44.3728 44.1633 41.9313Z" fill="#62831A"/>
<path d="M67.1848 45.3898C63.348 47.4163 58.8822 45.4504 55.1465 43.6165C59.0658 41.7883 63.5223 43.956 67.1848 45.3898Z" fill="#62831A"/>
<path d="M67.046 39.6387C64.1493 42.5349 59.7212 44.0815 55.2018 43.1878C58.197 40.5573 62.8053 39.2604 67.046 39.6387Z" fill="#62831A"/>
<path d="M63.48 35.8334C62.1782 39.0198 59.0282 41.5986 55.6053 43.0521C55.8888 39.088 59.3638 36.4655 63.48 35.8334Z" fill="#62831A"/>
<path d="M54.1289 36.7399C55.1045 39.1493 56.1517 41.5298 57.2214 43.9147C57.9473 45.4178 58.624 46.9542 59.3868 48.4324L60.0164 49.6487C60.2161 50.0414 60.0186 49.96 59.5786 50.1205C59.4353 50.1783 57.9677 50.7598 57.9597 50.7261L57.5118 49.8561C56.7729 48.4791 56.1403 47.0692 55.4731 45.6633C54.1971 42.9487 53.0254 40.2223 51.9029 37.4626C51.8002 37.2388 53.7873 36.8339 54.1289 36.7399Z" fill="#558D20"/>
<path d="M43.3168 37.7142C43.9831 34.2536 46.5593 31.359 49.9367 30.0145C49.8058 33.7191 47.1978 36.8111 43.3168 37.7142Z" fill="#62831A"/>
<path d="M36.8893 33.5749C40.1197 30.5509 45.1854 29.5898 49.8944 30.199C46.6358 33.1639 41.6142 34.2515 36.8893 33.5749Z" fill="#62831A"/>
<path d="M38.6951 27.8398C42.4654 26.6793 46.9044 27.6859 50.1935 30.0757C46.4414 31.2827 41.9632 30.322 38.6951 27.8398Z" fill="#62831A"/>
<path d="M61.6074 32.7987C57.5788 34.4661 53.2113 32.1014 49.6016 30.0455C53.6664 28.4709 58.0107 30.949 61.6074 32.7987Z" fill="#62831A"/>
<path d="M61.8337 26.8401C58.7437 29.6128 54.1709 30.7881 49.6797 29.6212C52.8696 27.211 57.5582 26.1334 61.8337 26.8401Z" fill="#62831A"/>
<path d="M58.4063 22.6869C56.9757 25.9018 53.6266 28.3023 50.1009 29.5321C50.6436 25.6079 54.2322 23.1041 58.4063 22.6869Z" fill="#62831A"/>
<path d="M48.9516 23.1549L51.6613 30.4909L53.4787 35.1657L53.9896 36.4231C54.1546 36.8198 53.9694 36.73 53.5091 36.8652C53.368 36.9019 51.8338 37.3525 51.8259 37.3188L51.4596 36.4326L49.7748 32.1374C48.7217 29.3698 47.6933 26.5857 46.6873 23.8059C46.5888 23.5401 48.6122 23.228 48.9516 23.1549Z" fill="#558D20"/>
<path d="M91.7486 137.399C92.6484 136.489 94 135.71 95.3479 135.07C96.7089 134.427 98.2586 133.967 99.8676 133.824C99.5758 134.577 99.1465 135.234 98.6325 135.784C98.0587 136.318 97.3869 136.747 96.6497 137.038C95.1954 137.644 93.4896 137.737 91.7486 137.399Z" fill="#62831A"/>
<path d="M87.8565 133.462C91.461 132.363 95.9944 132.278 99.7679 133.965C96.1769 135.568 91.6306 134.698 87.8565 133.462Z" fill="#62831A"/>
<path d="M90.886 130.216C94.2968 129.824 98.0685 131.102 100.052 133.939C98.2983 133.959 96.555 133.512 94.9952 132.825C94.2087 132.482 93.4905 132.086 92.8142 131.64C92.1116 131.2 91.4545 130.723 90.886 130.216Z" fill="#62831A"/>
<path d="M108.485 140.142C106.522 140.106 104.913 139.086 103.5 137.824C102.156 136.561 100.811 135.039 99.5759 133.77C101.512 133.606 103.227 134.304 104.742 135.534C106.322 136.751 107.387 138.463 108.485 140.142Z" fill="#62831A"/>
<path d="M110.783 134.079C107.399 136.135 103.194 135.447 99.7639 133.447C103.138 132.214 107.378 132.02 110.783 134.079Z" fill="#62831A"/>
<path d="M108.753 128.802C107.08 131.94 103.451 133.303 100.141 133.457C100.521 132.672 101.095 131.988 101.665 131.387C102.234 130.786 102.897 130.276 103.642 129.86C105.135 129.041 106.916 128.619 108.753 128.802Z" fill="#62831A"/>
<path d="M100.56 127.767L101.033 131.207C101.155 132.36 101.122 133.502 101.175 134.655C101.291 136.138 101.067 137.591 100.971 139.059L100.87 140.256C100.834 140.632 100.726 140.488 100.314 140.403C100.182 140.373 98.7659 140.11 98.7719 140.081L98.8318 139.29C98.9116 138.016 99.0943 136.763 99.1047 135.489L98.9995 131.773L98.508 128.063C98.4736 127.837 100.26 127.783 100.56 127.767Z" fill="#558D20"/>
<path d="M91.1441 127.32C91.7117 126.158 92.6429 125.009 93.7881 123.983C94.8543 122.972 96.1571 122.066 97.6149 121.473C97.592 123.106 96.7524 124.539 95.5869 125.542C94.4251 126.557 92.8811 127.139 91.1441 127.32Z" fill="#62831A"/>
<path d="M86.2982 124.551C89.304 122.431 93.5177 121.079 97.5753 121.631C94.7278 124.228 90.2153 124.693 86.2982 124.551Z" fill="#62831A"/>
<path d="M88.1347 120.492C89.6968 119.824 91.4017 119.526 93.1191 119.677C94.833 119.815 96.3988 120.474 97.8241 121.529C96.1965 122.059 94.4237 122.11 92.7543 121.881C91.0849 121.653 89.5714 121.135 88.1347 120.492Z" fill="#62831A"/>
<path d="M107.592 125.124C105.746 125.668 103.926 125.14 102.218 124.316C101.357 123.906 100.531 123.421 99.7415 122.915C98.8991 122.419 98.0901 121.944 97.3277 121.487C99.0836 120.769 100.898 120.97 102.71 121.718C104.46 122.492 106.072 123.827 107.592 125.124Z" fill="#62831A"/>
<path d="M107.892 118.594C105.366 121.553 101.235 122.096 97.4061 121.116C100.17 118.974 104.069 117.586 107.892 118.594Z" fill="#62831A"/>
<path d="M104.411 114.031C104.25 114.911 103.946 115.721 103.555 116.466C103.134 117.204 102.586 117.883 101.984 118.463C100.769 119.639 99.2963 120.482 97.7715 121.033C98.0399 119.285 98.8737 117.73 99.969 116.522C101.1 115.293 102.637 114.384 104.411 114.031Z" fill="#62831A"/>
<path d="M96.4216 115.352C96.9258 116.432 97.4396 117.497 97.9306 118.581L99.1082 121.913C99.6358 123.332 99.8774 124.818 100.26 126.264C100.341 126.659 100.478 127.057 100.519 127.46C100.57 127.847 100.425 127.724 100.023 127.773C99.8881 127.785 98.4908 127.943 98.4933 127.901C98.4614 127.634 98.4296 127.366 98.3582 127.106L97.429 123.315L96.1669 119.725C95.7562 118.531 95.1158 117.408 94.5998 116.234C94.4996 116.02 96.1464 115.459 96.4216 115.352Z" fill="#558D20"/>
<path d="M87.5311 117.583C87.6899 116.294 88.2137 114.921 88.9562 113.589C89.7383 112.249 90.5955 111.032 91.8004 110.022C92.0444 110.81 92.0777 111.638 91.9317 112.419C91.7989 113.197 91.5297 113.932 91.1399 114.581C90.3543 115.908 89.08 116.918 87.5311 117.583Z" fill="#62831A"/>
<path d="M82.1672 116.309C84.3345 113.404 87.8266 110.835 91.794 110.201C90.893 111.864 89.3634 113.155 87.6394 114.142C85.9381 115.11 84.046 115.786 82.1672 116.309Z" fill="#62831A"/>
<path d="M82.6543 111.823C83.8905 110.725 85.43 109.925 87.0382 109.576C88.6236 109.246 90.3374 109.384 91.9918 110.013C89.2435 111.96 85.5684 112.348 82.6543 111.823Z" fill="#62831A"/>
<path d="M102.237 110.752C100.682 111.801 98.813 111.803 96.9571 111.5C95.0749 111.203 93.3069 110.514 91.5385 110.126C92.9543 108.926 94.7406 108.571 96.6217 108.814C98.4406 109.082 100.413 109.91 102.237 110.752Z" fill="#62831A"/>
<path d="M100.496 104.256C99.0835 107.892 95.3788 109.585 91.4779 109.755C93.3845 106.859 96.5738 104.348 100.496 104.256Z" fill="#62831A"/>
<path d="M95.8475 100.792C96.0947 102.551 95.6719 104.343 94.916 105.828C94.1636 107.326 93.0396 108.581 91.7976 109.557C91.24 106.01 92.7516 102.533 95.8475 100.792Z" fill="#62831A"/>
<path d="M88.7893 104.398C89.5772 105.301 90.4466 106.148 91.1567 107.121L93.323 110.019C94.1714 111.293 94.9287 112.64 95.7184 113.954C95.9535 114.306 96.1 114.688 96.2859 115.063C96.4516 115.415 96.2819 115.351 95.9085 115.505C95.784 115.556 94.52 116.098 94.5128 116.072L94.1576 115.333C93.5196 114.168 92.7965 113.047 92.1226 111.904C90.6656 109.773 89.1367 107.684 87.3313 105.799C87.1952 105.606 88.5653 104.592 88.7893 104.398Z" fill="#558D20"/>
<path d="M81.1156 109.093C80.8332 107.71 80.8847 106.181 81.2137 104.654C81.5069 103.148 82.0882 101.682 82.9742 100.418C84.5923 103.489 83.6525 106.98 81.1156 109.093Z" fill="#62831A"/>
<path d="M75.3268 108.844C76.4654 105.219 79.4381 102.12 83.0373 100.598C82.0301 104.348 78.8018 107.222 75.3268 108.844Z" fill="#62831A"/>
<path d="M74.2691 103.777C76.3235 101.168 79.8016 99.8605 83.1714 100.38C82.1107 101.664 80.6894 102.592 79.1455 103.174C77.641 103.749 75.9577 103.974 74.2691 103.777Z" fill="#62831A"/>
<path d="M92.8769 98.2944C90.4979 101.184 86.1784 100.586 82.7599 100.596C83.8424 99.0891 85.4297 98.3618 87.2207 98.0746C89.0022 97.8028 91.0125 98.062 92.8769 98.2944Z" fill="#62831A"/>
<path d="M89.9504 92.7777C89.18 96.4826 86.2893 99.224 82.63 100.224C83.8015 96.9213 86.4821 93.9189 89.9504 92.7777Z" fill="#62831A"/>
<path d="M85.4099 90.7711C86.0004 93.9835 84.8428 97.4887 82.8748 99.9581C81.5048 96.5799 82.7306 93.0206 85.4099 90.7711Z" fill="#62831A"/>
<path d="M79.1401 95.4304C80.9115 96.9394 82.6637 98.4795 84.417 100.074C85.5505 101.076 86.6168 102.186 87.7119 103.249C88.0116 103.534 88.2791 103.852 88.5728 104.166C88.8331 104.458 88.6645 104.449 88.3591 104.699C88.2584 104.787 87.2558 105.676 87.2224 105.655L86.6648 105.036C85.7203 104.067 84.7337 103.147 83.7796 102.194C81.8543 100.427 79.8836 98.6957 77.8936 96.9958C77.7085 96.8258 78.9364 95.6472 79.1401 95.4304Z" fill="#558D20"/>
<path d="M71.9701 100.85C70.9247 97.848 71.4244 94.3179 73.2573 91.8606C74.7523 94.8866 74.3064 98.4612 71.9701 100.85Z" fill="#62831A"/>
<path d="M65.5193 100.207C66.3952 96.3317 69.6974 93.5254 73.3037 92.0294C72.263 95.7585 69.257 98.8367 65.5193 100.207Z" fill="#62831A"/>
<path d="M64.1219 94.5082C66.4511 92.093 70.1352 91.3347 73.4644 91.8074C71.3061 94.3405 67.7529 95.5253 64.1219 94.5082Z" fill="#62831A"/>
<path d="M82.667 89.0509C80.5557 92.1087 76.4505 92.14 73.0394 92.0251C75.2917 89.0772 79.2663 89.1255 82.667 89.0509Z" fill="#62831A"/>
<path d="M80.3742 84.3302C79.2611 87.7447 76.6093 90.7005 72.9225 91.6508C74.1478 88.3927 77.1079 85.6518 80.3742 84.3302Z" fill="#62831A"/>
<path d="M76.6032 82.7512C76.5459 85.6221 75.1338 88.9569 73.1622 91.4133C71.9034 87.9864 73.7329 84.7087 76.6032 82.7512Z" fill="#62831A"/>
<path d="M69.8864 86.7434C70.5776 87.5967 71.4387 88.3628 72.2149 89.1724C72.9911 89.9821 73.8391 90.7506 74.6835 91.5062C75.7441 92.4941 76.8704 93.4695 77.9932 94.4319L78.9046 95.2295C79.1936 95.4753 79.019 95.495 78.7506 95.7789C78.6667 95.877 77.7823 96.8943 77.762 96.8708L77.123 96.3086C76.1006 95.4091 75.059 94.5407 74.0557 93.6102C72.0945 91.8637 70.1944 90.0372 68.4273 88.0894C68.2685 87.9145 69.6589 86.9237 69.8864 86.7434Z" fill="#558D20"/>
<path d="M61.8193 90.9108C61.3926 89.2545 61.5845 87.48 62.1227 86.0088C62.6706 84.5222 63.6128 83.2612 64.8188 82.3057C65.2074 83.8735 65.0959 85.5369 64.5623 87.0756C64.1101 88.5576 63.1904 89.9511 61.8193 90.9108Z" fill="#62831A"/>
<path d="M55.0761 88.3947C56.8166 84.6414 60.959 83.0294 64.8221 82.4695C62.9031 85.7233 59.3096 88.1747 55.0761 88.3947Z" fill="#62831A"/>
<path d="M55.061 82.2809C58.0013 80.6795 61.985 81.0135 65.0498 82.2892C62.2716 84.2292 58.469 84.3532 55.061 82.2809Z" fill="#62831A"/>
<path d="M74.5297 81.1492C73.1916 82.431 71.5686 83.0283 69.8137 83.1445C68.1211 83.2351 66.2929 82.8316 64.5664 82.395C66.0395 81.2516 67.8173 80.9669 69.547 80.9102C71.2838 80.8796 72.927 81.1132 74.5297 81.1492Z" fill="#62831A"/>
<path d="M73.806 76.8953C71.7072 79.595 68.463 82.0071 64.5624 82.0267C66.6817 79.1999 70.4463 77.5232 73.806 76.8953Z" fill="#62831A"/>
<path d="M70.7934 74.7473C69.7881 77.2929 67.5075 79.9863 64.873 81.8441C64.7478 80.0754 65.3412 78.5527 66.4268 77.3601C67.5484 76.147 69.1131 75.2871 70.7934 74.7473Z" fill="#62831A"/>
<path d="M63.0316 76.5992C63.9602 78.5702 65.1018 80.4595 66.3344 82.2767C67.1866 83.4139 67.9538 84.5947 68.9329 85.6393L69.7006 86.519C69.9441 86.8009 69.7719 86.7791 69.4701 87.042C69.3695 87.1296 68.3466 87.9954 68.3131 87.9744L67.7615 87.3272L66.4256 85.7897L65.2262 84.1441L64.0841 82.5559L63.0725 80.8881C62.3566 79.7932 61.7747 78.6318 61.2061 77.4678C61.0892 77.2438 62.7599 76.7195 63.0316 76.5992Z" fill="#558D20"/>
<path d="M53.8659 78.226C54.0492 76.5216 54.6821 74.9913 55.635 73.7693C56.6405 72.5373 57.9458 71.5902 59.424 71.0206C59.2587 72.6395 58.7371 74.1211 57.7889 75.4106C56.8204 76.6766 55.497 77.7093 53.8659 78.226Z" fill="#62831A"/>
<path d="M48.1044 74.1399C50.8782 71.1745 55.3633 70.6601 59.3671 71.1681C56.4599 73.7485 52.2177 74.9965 48.1044 74.1399Z" fill="#62831A"/>
<path d="M49.8087 68.5874C53.1879 67.7779 56.8436 69.0366 59.6165 71.0659C57.9853 71.5827 56.2329 71.6574 54.5099 71.2338C52.7738 70.8127 51.1402 69.9068 49.8087 68.5874Z" fill="#62831A"/>
<path d="M69.2223 72.7075C67.5117 73.5404 65.7891 73.6231 64.0566 73.215C62.3145 72.8224 60.5923 71.9471 59.1106 71.0396C60.8903 70.3576 62.6913 70.561 64.3688 71.0207C66.1024 71.4833 67.7711 72.1636 69.2223 72.7075Z" fill="#62831A"/>
<path d="M69.7434 68.2974C66.886 70.403 63.018 71.7026 59.2184 70.6767C62.0399 68.5916 66.1784 67.9245 69.7434 68.2974Z" fill="#62831A"/>
<path d="M67.2607 65.2547C65.617 67.5938 62.6475 69.5429 59.5706 70.5957C59.8568 68.9127 60.9067 67.5901 62.3124 66.7059C63.7014 65.8112 65.4556 65.3394 67.2607 65.2547Z" fill="#62831A"/>
<path d="M59.0969 65.1306C59.5922 67.2391 60.157 69.348 60.8725 71.4008C61.2926 72.73 61.9029 73.9956 62.4019 75.3097C62.5545 75.6637 62.7429 75.9972 62.905 76.3357C63.0636 76.6612 62.8938 76.5978 62.5204 76.7512C62.3959 76.8024 61.1284 77.3318 61.1177 77.2928L60.7457 76.5428C60.1795 75.3373 59.7246 74.0831 59.2075 72.8545L58.0005 69.2125L57.0568 65.5202C57.0189 65.2811 58.7906 65.1754 59.0969 65.1306Z" fill="#558D20"/>
<path d="M49.6746 64.6172C50.7321 61.5553 53.6564 59.4917 56.7601 58.94C55.8605 61.9718 53.1402 64.3249 49.6746 64.6172Z" fill="#62831A"/>
<path d="M44.8694 59.7742C48.2269 57.5732 52.78 57.8121 56.6737 59.08C53.2975 61.011 48.8045 61.2943 44.8694 59.7742Z" fill="#62831A"/>
<path d="M47.6484 54.9604C51.1486 54.7436 54.6564 56.5232 56.95 59.0272C53.4866 59.4286 49.8876 57.8717 47.6484 54.9604Z" fill="#62831A"/>
<path d="M66.1856 62.7507C64.3082 63.1777 62.5541 62.8421 60.8999 62.0633C59.2457 61.2845 57.8172 60.0657 56.4495 58.9175C60.3044 58.2771 63.3919 60.999 66.1856 62.7507Z" fill="#62831A"/>
<path d="M67.591 58.2813C64.3732 59.881 60.2328 60.2885 56.6305 58.568C59.8672 57.0879 64.1062 57.1405 67.591 58.2813Z" fill="#62831A"/>
<path d="M65.6532 54.6009C63.6917 56.7406 60.2518 58.1365 57.0001 58.5522C58.3593 55.378 61.9974 54.1496 65.6532 54.6009Z" fill="#62831A"/>
<path d="M57.5343 53.1274C57.5696 54.2153 57.6576 55.2932 57.7719 56.3661C57.8598 57.444 57.9645 58.5324 58.1314 59.5953C58.3015 60.9722 58.5145 62.3547 58.8066 63.722L59.0176 64.8448C59.0876 65.2009 58.9371 65.1065 58.5351 65.1559C58.3999 65.168 57.0169 65.3774 57.0097 65.3514L56.8579 64.5457C56.6172 63.2643 56.3334 61.9775 56.1848 60.6786C55.8073 58.1918 55.5745 55.6773 55.4446 53.1843C55.4366 52.9532 57.2269 53.1176 57.5343 53.1274Z" fill="#558D20"/>
<path d="M48.1907 51.2307C49.8039 48.528 52.8483 46.852 56.0889 46.6984C54.8234 49.6084 51.677 51.4681 48.1907 51.2307Z" fill="#62831A"/>
<path d="M44.0626 46.0796C47.729 44.4489 52.2708 45.1005 55.9724 46.8294C52.3529 48.3279 47.8034 47.9515 44.0626 46.0796Z" fill="#62831A"/>
<path d="M47.4326 41.8513C50.943 41.9746 54.308 44.0414 56.2735 46.8134C52.7617 46.7861 49.3428 44.8254 47.4326 41.8513Z" fill="#62831A"/>
<path d="M64.9858 51.814C61.0919 52.1608 58.1686 49.2296 55.7937 46.6316C59.6814 46.4639 62.5219 49.5477 64.9858 51.814Z" fill="#62831A"/>
<path d="M67.0119 47.3354C63.5637 48.6507 59.3644 48.44 55.9984 46.3186C59.4283 45.2395 63.6821 45.6997 67.0119 47.3354Z" fill="#62831A"/>
<path d="M65.5092 43.271C63.2583 45.3155 59.721 46.3058 56.379 46.3419C58.0859 43.375 61.9054 42.454 65.5092 43.271Z" fill="#62831A"/>
<path d="M57.5193 41.0065C57.4213 43.1735 57.3926 45.341 57.3807 47.519C57.4155 48.9081 57.3977 50.3073 57.472 51.6888L57.5347 52.8263C57.5521 53.1924 57.4207 53.067 57.0009 53.0514C56.8622 53.0505 55.4448 53.0338 55.4508 53.0053L55.4079 52.1925C55.3155 50.8965 55.3224 49.6089 55.2994 48.3133C55.2651 45.8157 55.3206 43.3421 55.4287 40.8583C55.4279 40.6532 57.2048 40.9707 57.5193 41.0065Z" fill="#558D20"/>
<path d="M48.3088 38.3314C50.1417 35.874 53.3269 34.4584 56.591 34.4919C55.1057 37.3071 51.821 38.8649 48.3088 38.3314Z" fill="#62831A"/>
<path d="M44.5891 33.1026C48.3579 31.7945 52.8611 32.6588 56.4882 34.6208C52.7183 35.8744 48.2041 35.1217 44.5891 33.1026Z" fill="#62831A"/>
<path d="M48.2004 29.2526C51.7178 29.5524 54.976 31.7354 56.7787 34.6205C53.2589 34.3622 49.9516 32.2023 48.2004 29.2526Z" fill="#62831A"/>
<path d="M65.1062 40.3373C61.1889 40.3464 58.4944 37.1389 56.3052 34.4097C60.2176 34.4836 62.8509 37.7712 65.1062 40.3373Z" fill="#62831A"/>
<path d="M67.5084 35.8144C63.9481 36.9732 59.7685 36.4303 56.5272 34.1072C60.0344 33.2596 64.2724 33.9145 67.5084 35.8144Z" fill="#62831A"/>
<path d="M66.2489 31.5257C63.882 33.5513 60.2481 34.341 56.9052 34.172C58.8093 31.318 62.6777 30.5245 66.2489 31.5257Z" fill="#62831A"/>
<path d="M58.3371 28.8903L57.8253 35.4058L57.5733 39.5865L57.5236 40.718C57.5111 41.0762 57.3929 40.9483 56.966 40.9066C56.8368 40.8903 55.4136 40.7515 55.4196 40.723L55.4496 39.9236L55.6688 36.0776C55.8367 33.6098 56.0309 31.137 56.2418 28.6747C56.2602 28.4385 58.0322 28.8391 58.3371 28.8903Z" fill="#558D20"/>
</svg>
