<svg xmlns="http://www.w3.org/2000/svg" viewBox="0 0 1141.4 223.84"><defs><style>.cls-1{fill:#56c22b;}.cls-2{fill:#dda63a;}.cls-3{fill:#c5192d;}.cls-4{fill:#4c9f38;}.cls-5{fill:#3f7e44;}.cls-6{fill:#fcc30b;}.cls-7{fill:#ff3a21;}.cls-8{fill:#ff9f24;}.cls-9{fill:#0a97d9;}.cls-10{fill:#a21942;}.cls-11{fill:#26bde2;}.cls-12{fill:#ff6924;}.cls-13{fill:#e8203a;}.cls-14{fill:#dd1367;}.cls-15{fill:#19486a;}.cls-16{fill:#bf8b2e;}.cls-17{fill:#00689d;}</style></defs><g id="EDITABLE_TEXT"><path class="cls-1" d="M106.39,294.82a63.53,63.53,0,0,1,10-12.9l-32.9-36.08A112.46,112.46,0,0,0,62.63,273Z" transform="translate(-48.87 -214.84)"/><path class="cls-2" d="M187,269.34a62.43,62.43,0,0,1,13.8,8.64l33-36a111.93,111.93,0,0,0-29.24-18.24Z" transform="translate(-48.87 -214.84)"/><path class="cls-3" d="M262.6,280.18,218.87,302a62.49,62.49,0,0,1,4.38,15.46l48.65-4.6a111,111,0,0,0-9.3-32.66" transform="translate(-48.87 -214.84)"/><path class="cls-4" d="M215.73,295.66l43.73-21.79A112.08,112.08,0,0,0,239,246.74l-33,36a63.15,63.15,0,0,1,9.7,12.91" transform="translate(-48.87 -214.84)"/><path class="cls-5" d="M97.7,326.74c0-1,0-2,.07-2.95l-48.66-4.35c-.15,2.41-.24,4.85-.24,7.3a112.22,112.22,0,0,0,3.31,27.06l47-13.48a62.65,62.65,0,0,1-1.48-13.58" transform="translate(-48.87 -214.84)"/><path class="cls-6" d="M209.61,366.73a64.4,64.4,0,0,1-11.86,11.17l25.69,41.59a112.81,112.81,0,0,0,25.15-23.36Z" transform="translate(-48.87 -214.84)"/><path class="cls-7" d="M223.93,326.74a62,62,0,0,1-1.45,13.43l47,13.49a111.13,111.13,0,0,0,3.29-26.92c0-2.3-.08-4.59-.22-6.87l-48.65,4.59c0,.77,0,1.52,0,2.28" transform="translate(-48.87 -214.84)"/><path class="cls-8" d="M112.8,367.66,73.92,397.22a112.61,112.61,0,0,0,25.39,23L125,378.67a63.21,63.21,0,0,1-12.2-11" transform="translate(-48.87 -214.84)"/><path class="cls-9" d="M98.48,316.78a62.22,62.22,0,0,1,4.67-15.68L59.43,279.32a111,111,0,0,0-9.64,33.09Z" transform="translate(-48.87 -214.84)"/><path class="cls-10" d="M217.46,423.25l-25.65-41.54a63,63,0,0,1-15,6.09l9,48.05a111.33,111.33,0,0,0,31.57-12.6" transform="translate(-48.87 -214.84)"/><path class="cls-11" d="M220.61,347A62.87,62.87,0,0,1,213.78,361l39,29.43a111.62,111.62,0,0,0,14.76-30Z" transform="translate(-48.87 -214.84)"/><path class="cls-12" d="M169.92,389.2a63.05,63.05,0,0,1-16.45.23l-9.05,48.05a112.66,112.66,0,0,0,34.54-.27Z" transform="translate(-48.87 -214.84)"/><path class="cls-13" d="M164.85,263.75a62.56,62.56,0,0,1,15.62,3L198,221.15a111.16,111.16,0,0,0-33.17-6.27Z" transform="translate(-48.87 -214.84)"/><path class="cls-14" d="M146.51,388.22A62.67,62.67,0,0,1,131,382.37l-25.71,41.56a111.41,111.41,0,0,0,32.16,12.3Z" transform="translate(-48.87 -214.84)"/><path class="cls-15" d="M141.84,266.54a62.32,62.32,0,0,1,15.95-2.84V214.84A111.43,111.43,0,0,0,124.17,221Z" transform="translate(-48.87 -214.84)"/><path class="cls-16" d="M108.52,362.05a62.57,62.57,0,0,1-7.44-14.93l-47,13.48a111.38,111.38,0,0,0,15.51,31Z" transform="translate(-48.87 -214.84)"/><path class="cls-17" d="M121.71,277.23A63.21,63.21,0,0,1,135.24,269l-17.66-45.55a112.07,112.07,0,0,0-28.8,17.63Z" transform="translate(-48.87 -214.84)"/><path d="M305.36,321.48h51.77v15.89H341.07v99.94H321.42V337.37H305.36Z" transform="translate(-48.87 -214.84)"/><path d="M402.76,386.23H384v51.08H364.49V321.48H384v49h18.79v-49h19.65V437.31H402.76Z" transform="translate(-48.87 -214.84)"/><path d="M432,321.48h46.48v15.89h-27v33.14h19.31v15.72H451.47v35.19h27v15.89H432Z" transform="translate(-48.87 -214.84)"/><path d="M533,375.47h27.68v61.84h-14V424.67c-2.57,8.71-8,14-18.63,14-16.74,0-24.43-13.32-24.43-31.27v-56c0-18.1,8.72-31.26,29.22-31.26,21.52,0,27.85,12,27.85,29.05v10.25H542.89V347.62c0-7.18-2.73-11.27-9.73-11.27s-10.08,4.94-10.08,11.95v62.19c0,7,2.9,12,9.57,12,6.32,0,9.56-3.59,9.56-11.11v-20.5H533Z" transform="translate(-48.87 -214.84)"/><path d="M570.26,321.48h19.47v99.94H613v15.89H570.26Z" transform="translate(-48.87 -214.84)"/><path d="M617.08,407.41v-56c0-18.1,8.89-31.26,29.39-31.26,20.67,0,29.56,13.16,29.56,31.26v56c0,17.95-8.89,31.27-29.56,31.27C626,438.68,617.08,425.36,617.08,407.41Zm39.47,3.08V348.3c0-7-3.07-11.95-10.08-11.95-6.83,0-9.91,4.94-9.91,11.95v62.19c0,7,3.08,12,9.91,12C653.48,422.45,656.55,417.49,656.55,410.49Z" transform="translate(-48.87 -214.84)"/><path d="M685.44,321.48h28.19c19.48,0,26,9,26,25.45v11.79c0,9.74-3.58,15.89-11.62,18.46,9.74,2.21,14.53,8.71,14.53,19.3v15.38c0,16.4-7.35,25.45-26.83,25.45H685.44Zm19.48,48.86h6.83c6.33,0,9.23-3.24,9.23-9.39V346.77c0-6.33-2.9-9.4-9.4-9.4h-6.66Zm0,14.87v36.21h8.54c6.49,0,9.57-3.25,9.57-9.39V394.6c0-6.15-2.9-9.39-9.74-9.39Z" transform="translate(-48.87 -214.84)"/><path d="M746.63,437.31l21.86-115.83H790.7l22,115.83h-20l-3.58-21.18H768.49l-3.42,21.18Zm24.43-36.73H786.6l-7.69-46.47h-.16Z" transform="translate(-48.87 -214.84)"/><path d="M819.43,321.48H838.9v99.94h23.24v15.89H819.43Z" transform="translate(-48.87 -214.84)"/><path d="M915.13,375.47h27.68v61.84h-14V424.67c-2.56,8.71-8,14-18.62,14-16.75,0-24.43-13.32-24.43-31.27v-56c0-18.1,8.71-31.26,29.21-31.26,21.53,0,27.86,12,27.86,29.05v10.25H925V347.62c0-7.18-2.73-11.27-9.74-11.27s-10.08,4.94-10.08,11.95v62.19c0,7,2.91,12,9.58,12,6.31,0,9.56-3.59,9.56-11.11v-20.5h-9.22Z" transform="translate(-48.87 -214.84)"/><path d="M952,407.41v-56c0-18.1,8.9-31.26,29.39-31.26,20.68,0,29.56,13.16,29.56,31.26v56c0,17.95-8.88,31.27-29.56,31.27C960.94,438.68,952,425.36,952,407.41Zm39.47,3.08V348.3c0-7-3.07-11.95-10.08-11.95-6.83,0-9.91,4.94-9.91,11.95v62.19c0,7,3.08,12,9.91,12C988.44,422.45,991.51,417.49,991.51,410.49Z" transform="translate(-48.87 -214.84)"/><path d="M1014.94,437.31l21.87-115.83H1059l22,115.83h-20l-3.59-21.18h-20.67l-3.42,21.18Zm24.43-36.73h15.55l-7.69-46.47h-.17Z" transform="translate(-48.87 -214.84)"/><path d="M1087.39,321.48h19.48v99.94h23.24v15.89h-42.72Z" transform="translate(-48.87 -214.84)"/><path d="M1134.4,412.37V396.82h18.11v15.89c0,6.49,2.9,10.25,9.57,10.25,6.14,0,8.88-4.1,8.88-10.25v-4.44c0-6.67-2.74-10.76-8.71-16.41l-11.45-11.44c-11.1-10.93-16.23-17.6-16.23-30.92v-3.93c0-14.35,8.37-25.46,27.33-25.46,19.48,0,27.17,9.57,27.17,26.31v9.4H1171.3V345.74c0-6.66-3.08-9.91-9.22-9.91-5.47,0-9.23,3.07-9.23,9.57v2.39c0,6.49,3.59,10.25,9.23,15.71l12.47,12.31c10.59,10.76,15.72,17.26,15.72,30.07v5.64c0,15.89-8.55,27.16-28.37,27.16S1134.4,427.57,1134.4,412.37Z" transform="translate(-48.87 -214.84)"/></g></svg>