<svg width="279" height="58" viewBox="0 0 279 58" fill="none" xmlns="http://www.w3.org/2000/svg">
<path d="M278.853 51.1582C278.853 53.4995 278.424 55.6848 277.838 57.792H0.0780612C0.0780612 57.6749 0 57.5188 0 57.4017C0 54.4361 1.13166 51.7045 3.00473 49.7144C5.11193 47.4511 8.07763 46.0073 11.4335 46.0073C14.4383 46.0073 17.1308 47.1779 19.1599 49.051C22.4768 42.2221 32.6226 37.2663 44.7195 37.2663C52.2898 37.2663 59.0797 39.2174 63.9575 42.3002C67.1573 36.1737 73.5179 31.9592 80.8931 31.9592C86.083 31.9592 90.7267 34.0274 94.1607 37.3053C101.029 27.1986 115.077 20.2136 131.388 20.2136C142.743 20.2136 153.045 23.6085 160.576 29.1106C166.82 12.1359 183.092 0 202.252 0C221.256 0 237.45 11.9799 243.772 28.7594C246.933 27.3156 250.406 26.4181 254.152 26.4181C267.302 26.4181 278.072 36.681 278.853 49.6754C278.853 50.1826 278.853 50.6899 278.853 51.1582Z" fill="#E7E7E7"/>
<path opacity="0.1" d="M278.853 51.1582C278.853 53.4995 278.424 55.6848 277.838 57.792H0.0779925C0.0779925 57.6749 -6.86646e-05 57.5188 -6.86646e-05 57.4017C-6.86646e-05 54.4361 1.13159 51.7045 3.00466 49.7144H278.775C278.853 50.1826 278.853 50.6899 278.853 51.1582Z" fill="#1D1D1B"/>
</svg>
