<svg width="149" height="44" viewBox="0 0 149 44" fill="none" xmlns="http://www.w3.org/2000/svg">
<path d="M0.306641 39.3285C0.306641 40.8504 0.618807 42.2942 1.08707 43.621H147.772C148.201 42.2552 148.513 40.8113 148.513 39.3285C148.513 37.0262 147.967 34.8409 146.991 32.9679C144.65 28.2852 139.85 25.0854 134.27 25.0854C130.602 25.0854 127.246 26.5292 124.749 28.7925C122.836 12.9885 109.491 0.696533 93.1405 0.696533C78.9755 0.696533 67.1127 9.9448 62.8593 22.7051C58.957 16.2274 51.933 11.8178 43.7774 11.8178C33.2804 11.8178 24.5004 19.115 22.1201 28.8706C19.8177 27.0365 16.9301 25.8659 13.7303 25.8659C8.61839 25.8659 4.13082 28.7535 1.82851 32.9679C0.852949 34.8409 0.306641 37.0262 0.306641 39.3285Z" fill="#E7E7E7"/>
<path opacity="0.1" d="M148.357 37.3384C148.435 38.0018 148.513 38.6651 148.513 39.3285C148.513 40.8113 148.201 42.2942 147.772 43.621H1.08707C0.618807 42.2552 0.306641 40.8113 0.306641 39.3285C0.306641 38.6651 0.384689 38.0018 0.462733 37.3384H148.357Z" fill="#1D1D1B"/>
</svg>
