<svg width="237" height="69" viewBox="0 0 237 69" fill="none" xmlns="http://www.w3.org/2000/svg">
<path d="M236.064 61.8539C236.064 64.2733 235.596 66.5366 234.855 68.6828H1.85286C1.15046 66.5366 0.68219 64.2343 0.68219 61.8539C0.68219 58.2248 1.54068 54.7519 3.10157 51.7471C6.80868 44.3329 14.457 39.26 23.3151 39.26C29.1684 39.26 34.4364 41.5233 38.4557 45.1524C41.4994 20.0221 62.6885 0.510986 88.6383 0.510986C111.154 0.510986 130.002 15.2224 136.714 35.4749C142.918 25.173 154.079 18.188 167.034 18.188C183.735 18.188 197.627 29.7386 201.412 45.2304C205.042 42.3038 209.646 40.4697 214.719 40.4697C222.875 40.4697 229.977 45.0353 233.606 51.7471C235.167 54.7128 236.064 58.1858 236.064 61.8539Z" fill="#E7E7E7"/>
<path opacity="0.1" d="M0.916329 58.6931C0.76024 59.7467 0.68219 60.7613 0.68219 61.8539C0.68219 64.2342 1.18948 66.5366 1.85286 68.6828H234.855C235.596 66.5366 236.064 64.2342 236.064 61.8539C236.064 60.7613 235.947 59.7467 235.83 58.6931H0.916329Z" fill="#1D1D1B"/>
</svg>
