<svg width="335" height="70" viewBox="0 0 335 70" fill="none" xmlns="http://www.w3.org/2000/svg">
<path d="M334.967 68.8742C334.967 69.0303 334.889 69.2254 334.889 69.3815H1.20969C0.507294 66.8061 0 64.1916 0 61.421C0 61.1088 8.9402e-07 60.7966 0.0390231 60.4845C0.50729 44.4853 13.6188 31.7251 29.6959 31.7251C34.1835 31.7251 38.3198 32.7787 42.144 34.5347C49.7533 14.3602 69.1864 0 92.0144 0C115.038 0 134.588 14.5553 142.041 34.9639C151.094 28.3301 163.464 24.2718 177.122 24.2718C196.711 24.2718 213.608 32.6616 221.841 44.8756C225.978 40.8953 231.597 38.3979 237.801 38.3979C246.698 38.3979 254.347 43.5098 258.171 50.846C264.024 47.0998 272.18 44.7975 281.272 44.7975C295.827 44.7975 308.002 50.8069 311.983 58.9236C314.441 56.6603 317.68 55.2555 321.27 55.2555C325.679 55.2555 329.582 57.3237 332.118 60.5625C333.874 62.7477 334.967 65.7134 334.967 68.8742Z" fill="#E7E7E7"/>
<path opacity="0.1" d="M334.967 68.8741C334.967 69.0302 334.889 69.2254 334.889 69.3814H1.20969C0.507294 66.806 0 64.1915 0 61.4209C0 61.1087 8.9402e-07 60.7966 0.0390231 60.4844H332.079C333.874 62.7477 334.967 65.7134 334.967 68.8741Z" fill="#1D1D1B"/>
</svg>
