<svg width="216" height="63" viewBox="0 0 216 63" fill="none" xmlns="http://www.w3.org/2000/svg">
<path d="M3.3785e-06 56.1307C3.3785e-06 58.3445 0.428473 60.4155 1.1069 62.3794H214.311C214.954 60.4155 215.382 58.3088 215.382 56.1307C215.382 52.81 214.596 49.6321 213.168 46.8827C209.776 40.0985 202.778 35.4566 194.672 35.4566C189.316 35.4566 184.496 37.5276 180.818 40.8483C178.033 17.8533 158.644 0 134.899 0C114.297 0 97.0505 13.4614 90.9089 31.9931C85.2316 22.5665 75.0195 16.1751 63.1649 16.1751C47.8825 16.1751 35.171 26.7442 31.7074 40.9197C28.3867 38.2417 24.1734 36.5635 19.5315 36.5635C12.0688 36.5635 5.57022 40.7412 2.24951 46.8827C0.821245 49.5964 3.3785e-06 52.7743 3.3785e-06 56.1307Z" fill="#E7E7E7"/>
<path opacity="0.1" d="M215.168 53.2385C215.311 54.2026 215.382 55.131 215.382 56.1307C215.382 58.3088 214.918 60.4155 214.311 62.3794H1.1069C0.428473 60.4155 3.3785e-06 58.3088 3.3785e-06 56.1307C3.3785e-06 55.131 0.107114 54.2026 0.214234 53.2385H215.168Z" fill="#1D1D1B"/>
</svg>
