<svg width="276" height="235" viewBox="0 0 276 235" fill="none" xmlns="http://www.w3.org/2000/svg">
<path d="M158.534 155.327C163.981 164.447 173.17 173.143 185.217 179.745C189.188 181.934 194.496 180.207 195.601 176.333C197.348 170.076 197.513 162.519 196.969 153.558C196.803 150.883 194.497 148.598 191.376 148.094L176.948 145.739L158.534 155.327Z" fill="#AE5335"/>
<path opacity="0.3" d="M171.739 148.673C180.07 149.846 188.414 151.056 196.708 152.242C188.635 149.817 180.599 147.379 172.526 144.954C172.305 146.193 171.997 147.421 171.739 148.673Z" fill="#1D1D1B"/>
<path opacity="0.3" d="M168.69 150.464C178.151 153.761 187.62 156.849 197.207 159.687C188.064 155.655 179.103 151.434 170.173 146.953C169.716 148.11 169.185 149.293 168.69 150.464Z" fill="#1D1D1B"/>
<path opacity="0.3" d="M165.715 152.229C175.857 158.018 186.191 162.951 197.092 167.267C186.835 161.851 177.195 155.842 167.809 149.038C167.103 150.077 166.409 151.153 165.715 152.229Z" fill="#1D1D1B"/>
<path opacity="0.3" d="M162.814 153.967C168.043 157.945 173.317 161.699 178.798 165.338C184.482 168.614 190.16 171.644 196.046 174.559C190.52 171.143 185.188 167.575 179.865 163.798C174.843 159.705 169.992 155.51 165.236 151.116C164.477 152.008 163.633 153.012 162.814 153.967Z" fill="#1D1D1B"/>
<path opacity="0.3" d="M160.012 155.753C164.794 160.221 169.635 164.503 174.706 168.619C180.079 173.001 186.212 176.49 192.16 180.045C186.758 176.047 181.563 171.933 176.487 167.57C171.712 162.892 167.182 158.086 162.783 153.067C161.827 153.988 160.894 154.859 160.012 155.753Z" fill="#1D1D1B"/>
<path d="M198.114 140.846C213.134 153.347 228.571 162.717 244.759 166.64C247.339 167.253 249.763 165.105 249.486 162.469C248.609 154.082 246.903 146.157 244.122 138.821C240.767 129.991 240.936 120.237 244.981 111.711C247.975 105.466 250.186 98.4218 251.603 90.5427C252.088 87.7186 249.446 85.3046 246.687 86.1639C232.373 90.5205 216.892 98.6905 200.048 111.406L198.114 140.846Z" fill="#AE5335"/>
<path opacity="0.3" d="M201.138 140.845C201.829 139.066 202.57 137.31 203.262 135.531C203.524 135.686 203.823 135.828 204.073 135.946C204.141 135.673 204.246 135.387 204.302 135.077C203.102 134.966 203.557 134.266 203.607 133.129C203.66 132.116 203.753 131.213 204.365 130.373C205.858 131.54 207.374 132.656 208.867 133.823C209.442 132.996 209.117 132.201 208.522 131.46C208.485 131.473 208.435 131.45 208.399 131.463C208.386 131.426 208.409 131.376 208.396 131.339C207.89 130.733 207.273 130.165 206.83 129.619C207.376 129.756 207.959 129.88 208.505 130.016C208.542 129.423 208.592 128.867 208.629 128.273C208.138 128.407 207.684 128.527 207.206 128.698C206.748 126.831 206.339 124.988 205.881 123.122C205.955 123.095 206.041 123.106 206.078 123.093C205.68 121.744 205.295 120.431 204.86 119.094C205.204 119.013 205.511 118.945 205.855 118.864C205.598 118.376 205.391 117.911 205.134 117.423C205.097 117.436 205.06 117.449 205.037 117.499C204.004 115.878 202.947 114.308 201.926 112.725C209.904 108.141 217.933 103.705 226.052 99.402C234.326 95.4172 242.628 91.6291 251.056 87.962C243.09 92.4589 235.262 97.1135 227.473 101.878C222.495 105.227 217.542 108.65 212.639 112.096C225.203 106.665 237.779 101.27 250.343 95.8389C237.999 102.932 225.642 109.988 213.334 117.068C224.216 114.473 235.048 111.855 245.93 109.26C234.787 113.563 223.621 117.917 212.478 122.22C222.351 120.979 232.187 120.332 242.188 119.915C232.688 121.852 223.326 123.946 214.087 126.618C214.57 126.694 215.053 126.771 215.499 126.86C215.586 126.871 215.846 126.902 215.426 126.886C224.201 127.446 232.939 128.018 241.724 128.49C232.465 129.595 223.172 130.836 213.851 131.301C223.835 133.624 233.818 135.948 243.802 138.272C235.618 137.627 227.471 136.968 219.286 136.323C217.074 136.159 214.811 135.971 212.599 135.807C224.416 140.253 236.02 145.147 247.462 150.514C236.043 146.838 224.521 143.571 212.897 140.713C225.517 147.524 237.757 155.133 249.36 163.509C234.069 154.667 217.794 147.128 201.138 140.845Z" fill="#1D1D1B"/>
<path d="M97.1845 68.9881L165.41 97.4466L178.968 95.9691C181.762 95.5534 183.338 92.4228 181.881 89.9597C168.492 66.8104 152.835 43.2265 127.826 33.4992C126.868 33.1364 125.823 33.3432 125.022 34.0015C115.312 42.5581 101.325 54.3383 97.1845 68.9881Z" fill="#AE5335"/>
<path opacity="0.3" d="M131.536 35.0764C125.239 39.1438 119.456 43.608 113.907 48.6104C108.525 53.9672 103.692 59.5842 99.2392 65.6871C100.877 66.6777 102.514 67.6683 104.138 68.6221C107.659 62.2299 111.548 56.2868 116.032 50.5042C120.805 44.9501 125.871 39.8713 131.536 35.0764Z" fill="#1D1D1B"/>
<path opacity="0.3" d="M140.251 39.8827C127.318 47.7654 115.635 56.9429 105.991 68.7072C107.568 69.7607 109.182 70.8011 110.759 71.8546C118.56 59.3385 128.79 49.105 140.251 39.8827Z" fill="#1D1D1B"/>
<path opacity="0.3" d="M147.545 45.2367C134.634 52.366 122.748 60.7456 112.817 71.7012C114.333 72.8177 115.9 73.9578 117.416 75.0743C125.603 63.2908 136.032 53.7318 147.545 45.2367Z" fill="#1D1D1B"/>
<path opacity="0.3" d="M154.313 51.4407C141.489 57.4203 129.767 64.7473 119.629 74.6581C121.098 75.8743 122.568 77.0906 124.037 78.3068C132.427 67.4447 142.804 58.899 154.313 51.4407Z" fill="#1D1D1B"/>
<path opacity="0.3" d="M159.78 57.3631C153.799 59.9923 148.093 62.8132 142.382 65.9676C136.792 69.5761 131.626 73.4474 126.492 77.6389C127.877 78.9679 129.249 80.2602 130.634 81.5893C135.015 76.7962 139.418 71.8299 144.607 67.9087C149.539 64.0793 154.528 60.6437 159.78 57.3631Z" fill="#1D1D1B"/>
<path opacity="0.3" d="M165.228 64.1625C159.63 66.2407 154.222 68.5001 148.781 71.0193C143.422 73.8825 138.404 77.1212 133.378 80.5699C134.666 81.9751 135.917 83.3933 137.205 84.7984C141.405 80.7743 145.646 76.9839 150.263 73.4325C155.181 70.1465 160.092 67.0705 165.228 64.1625Z" fill="#1D1D1B"/>
<path opacity="0.3" d="M170.083 70.9245C164.785 72.5645 159.45 74.2176 154.348 76.409C149.504 78.5086 144.901 80.9365 140.301 83.4878C141.468 85.0188 142.585 86.5262 143.752 88.0572C147.623 84.8545 151.547 81.7989 155.735 79.0216C160.325 75.9769 165.186 73.4573 170.083 70.9245Z" fill="#1D1D1B"/>
<path opacity="0.3" d="M174.9 78.2797C165.544 80.6207 156.321 82.8726 147.31 86.416C148.27 88.0624 149.229 89.7088 150.189 91.3552C158.07 86.2676 166.443 82.3301 174.9 78.2797Z" fill="#1D1D1B"/>
<path opacity="0.3" d="M156.613 94.6167C163.75 90.5812 170.976 87.2599 178.681 84.4716C170.357 85.4089 162.442 87.0289 154.406 89.355C155.108 91.0931 155.86 92.8549 156.613 94.6167Z" fill="#1D1D1B"/>
<path opacity="0.3" d="M162.937 97.8309C166.119 96.5308 169.301 95.2308 172.507 93.8809C175.744 92.8513 178.981 91.8216 182.255 90.7789C178.777 90.9001 175.286 90.9846 171.808 91.1059C168.385 91.4976 164.962 91.8892 161.539 92.2809C161.997 94.1475 162.442 95.9774 162.937 97.8309Z" fill="#1D1D1B"/>
<path d="M98.6086 183.855C96.4801 187.763 93.4752 191.071 89.8589 194.058C86.7153 196.629 81.9622 195.382 80.7099 191.52C77.372 181.11 76.8131 167.804 77.4163 159.966L87.6399 160.755L97.6385 173.347C99.9597 176.372 100.44 180.51 98.6086 183.855Z" fill="#8A2E10"/>
<path d="M14.2525 117.234C14.2569 118.641 14.718 120.05 15.6202 121.303L23.6353 132.283L24.8549 133.961L25.9984 135.542C27.3494 137.007 28.7739 138.447 30.222 139.836C31.6832 141.262 33.2179 142.662 34.7632 143.976C60.2589 165.875 95.8738 174.556 147.004 162.959C158.699 160.322 169.426 154.386 177.941 145.965L178.122 145.776C181.618 142.335 186.344 140.484 191.21 140.655L199.67 140.912C203.017 141.004 206.189 139.21 207.645 136.205C211.306 128.81 211.431 122.303 208.767 116.459C207.409 113.463 204.431 111.5 201.121 111.396L196.391 111.259C188.981 111.042 181.877 108.313 176.26 103.48C154.91 85.0741 124.161 68.7758 104.458 64.9866C68.7431 65.2065 48.6136 93.9241 17.947 110.863C16.9098 111.439 16.0746 112.234 15.4756 113.111C14.6611 114.312 14.235 115.79 14.2525 117.234Z" fill="#DBCDAE"/>
<path opacity="0.3" d="M30.2348 139.873C31.6961 141.299 33.2308 142.699 34.7761 144.013C37.5718 143.72 40.3231 143.071 43.0744 142.422C48.4536 141.125 54.358 139.559 57.4477 134.978C60.4901 130.497 59.8978 124.535 58.641 119.266C56.439 110.067 52.5306 101.311 47.1359 93.4982C51.1207 101.772 53.4647 110.672 55.4516 119.616C59.3679 137.111 43.6643 139.311 40.5192 140.018C36.6732 140.851 33.3712 140.536 30.2348 139.873Z" fill="#1D1D1B"/>
<path opacity="0.3" d="M14.2524 117.234C18.1094 119.919 21.9297 122.617 25.7868 125.302C23.1638 122.011 20.5777 118.707 17.9678 115.454C17.3462 114.639 16.6747 113.802 15.7878 113.289C15.688 113.242 15.5883 113.195 15.5254 113.134C14.661 114.312 14.2349 115.79 14.2524 117.234Z" fill="#1D1D1B"/>
<path opacity="0.3" d="M23.6353 132.283L24.8549 133.961C28.1172 134.745 31.8053 134.632 34.3467 133.975C37.5391 133.168 40.4774 131.416 42.4844 128.795C48.2427 121.357 42.4239 111.541 37.1198 105.727C40.6718 104.999 44.2107 104.235 47.6841 103.287C42.862 103.473 38.0817 103.892 33.3014 104.312C36.4648 108.073 39.3498 112.099 41.0874 116.741C42.2247 119.815 42.7209 124.112 40.5064 126.849C36.3926 132.044 29.8084 133.562 23.6353 132.283Z" fill="#1D1D1B"/>
<path opacity="0.3" d="M24.8308 113.09C24.7744 115.14 26.3903 116.884 28.4403 116.94C30.4903 116.997 32.2343 115.381 32.2907 113.331C32.347 111.281 30.7311 109.537 28.681 109.48C26.6179 109.387 24.9239 111.027 24.8308 113.09Z" fill="#1D1D1B"/>
<path d="M81.169 165.961C81.2684 166.589 81.3678 167.216 81.4933 167.917C82.9139 175.738 86.3009 187.331 91.4038 195.952C92.3635 197.598 94.0114 198.502 95.6808 198.653C97.5732 198.848 99.5817 198.091 100.879 196.385C101 196.259 101.084 196.147 101.155 195.997C102.682 194.003 103.972 191.928 105.039 189.807C105.917 188.086 106.608 186.307 107.113 184.469C107.297 183.824 107.395 183.168 107.419 182.538C107.615 179.485 106.194 176.429 103.759 174.48L91.5225 164.673L91.2339 164.445L88.908 164.777L87.0625 165.062L86.5821 165.109L84.8102 165.368L84.293 165.428L82.7179 165.658L81.169 165.961Z" fill="#AE5335"/>
<g opacity="0.3">
<path opacity="0.3" d="M81.1689 165.961C81.2683 166.589 81.3677 167.216 81.4933 167.917L95.7175 198.64L86.5491 171.873L84.3428 165.451L82.7677 165.681L81.1689 165.961Z" fill="#1D1D1B"/>
<path opacity="0.3" d="M82.7808 165.718L86.5123 171.886L101.205 196.021L89.2272 170.67L86.6318 165.132L84.8599 165.391L84.3559 165.488L82.7808 165.718Z" fill="#1D1D1B"/>
<path opacity="0.3" d="M84.8599 165.391L89.2272 170.67L105.088 189.831L91.9159 169.38L88.9446 164.764L87.0991 165.049L86.6318 165.132L84.8599 165.391Z" fill="#1D1D1B"/>
<path opacity="0.3" d="M86.9415 165.188L91.9158 169.38L107.468 182.561L91.559 164.66L91.2704 164.432L88.9446 164.763L87.0991 165.048L86.9415 165.188Z" fill="#1D1D1B"/>
</g>
<path opacity="0.2" d="M67.8545 102.228C67.9044 102.251 67.9543 102.275 68.0041 102.299C67.9674 102.312 67.8939 102.338 67.8571 102.351C67.9936 102.385 68.1668 102.407 68.3033 102.441C70.8985 103.794 72.727 105.669 72.8904 108.801C73.0696 112.093 70.5694 114.144 67.9043 115.384C67.7442 115.4 67.6208 115.402 67.4738 115.454C67.5237 115.478 67.5735 115.502 67.6234 115.526C67.5866 115.539 67.5132 115.565 67.4764 115.578C67.6129 115.612 67.7861 115.633 67.9225 115.667C70.5178 117.021 72.3462 118.896 72.5097 122.028C72.6888 125.32 70.1887 127.371 67.5236 128.611C67.3635 128.626 67.2401 128.629 67.0931 128.681C67.1429 128.705 67.1928 128.729 67.2427 128.752C67.2059 128.765 67.1324 128.792 67.0956 128.805C67.2321 128.839 67.4053 128.86 67.5418 128.894C70.1003 130.261 71.9655 132.123 72.129 135.255C72.3368 138.743 69.5164 140.826 66.6781 142.044C71.1214 143.236 74.2129 139.939 74.932 135.912C77.3671 137.282 79.0958 139.109 79.2567 142.118C79.4646 145.606 76.6809 147.676 73.8059 148.908C78.2492 150.1 81.3407 146.802 82.0834 142.726C84.5552 144.082 86.2472 145.923 86.4449 148.918C86.6528 152.407 83.8691 154.476 80.9941 155.708C85.4872 156.923 88.5657 153.589 89.2585 149.489C93.3083 150.159 96.1189 147.002 96.7801 143.163C99.2519 144.519 100.944 146.36 101.142 149.355C101.349 152.843 98.5657 154.913 95.6907 156.145C100.184 157.36 103.262 154.026 103.955 149.926C108.005 150.595 110.816 147.439 111.477 143.599C113.949 144.955 115.641 146.796 115.838 149.791C116.046 153.28 113.262 155.35 110.387 156.582C114.881 157.797 117.959 154.463 118.652 150.363C122.702 151.032 125.512 147.876 126.173 144.036C128.645 145.392 130.337 147.233 130.535 150.228C130.743 153.717 127.922 155.799 125.084 157.018C129.577 158.234 132.656 154.899 133.348 150.8C137.398 151.469 140.209 148.313 140.87 144.473C143.342 145.829 145.034 147.67 145.232 150.665C145.439 154.154 142.656 156.223 139.781 157.455C144.274 158.67 147.352 155.336 148.045 151.236C152.145 151.929 154.942 148.736 155.59 144.86C159.69 145.553 162.488 142.36 163.172 138.47C167.272 139.163 170.07 135.97 170.718 132.093C174.904 132.797 177.736 129.467 178.357 125.517C177.979 121.551 175.375 117.964 171.164 118.47C170.739 114.604 168.137 111.14 164 111.62C163.574 107.753 160.972 104.29 156.835 104.77C156.41 100.903 153.808 97.4394 149.671 97.9199C149.245 94.0532 146.643 90.5892 142.506 91.0697C142.039 86.9693 139.175 83.3505 134.641 84.3452C137.459 85.7434 139.461 87.6397 139.677 90.9184C139.866 94.1235 137.55 96.1092 134.971 97.3597C134.509 93.5061 131.897 90.1288 127.796 90.5962C127.371 86.7294 124.769 83.2656 120.632 83.7461C120.164 79.6457 117.3 76.0269 112.766 77.0216C115.585 78.4198 117.586 80.3161 117.802 83.5948C117.992 86.7999 115.639 88.7987 113.06 90.0492C112.598 86.1955 110.023 82.8052 105.922 83.2726C105.455 79.1722 102.59 75.5534 98.0566 76.5481C100.875 77.9463 102.877 79.8426 103.093 83.1213C103.282 86.3264 100.929 88.3252 98.3506 89.5757C97.8596 85.5251 95.0084 81.943 90.4746 82.9378C93.2929 84.3359 95.2946 86.2324 95.5105 89.511C95.6871 92.6794 93.3838 94.7018 90.8054 95.9524C90.3431 92.0987 87.7307 88.7215 83.6303 89.1888C83.163 85.0884 80.2987 81.4695 75.7648 82.4642C78.5832 83.8624 80.5849 85.7589 80.8008 89.0375C80.9905 92.2427 78.6741 94.2283 76.0956 95.4788C75.6046 91.4283 72.7535 87.8462 68.2196 88.8409C71.0379 90.2391 73.0396 92.1354 73.2555 95.4141C73.4346 98.7059 70.9344 100.757 68.2694 101.997C68.1748 102.196 68.0147 102.212 67.8545 102.228ZM88.0544 96.0216C88.2441 99.2267 85.891 101.225 83.3126 102.476C82.9678 99.5332 81.3709 96.9127 78.8462 95.9898C81.4349 95.2328 83.1977 92.7401 83.7166 89.7795C86.1648 91.1853 87.8568 93.0264 88.0544 96.0216ZM85.2125 129.307C87.8012 128.549 89.5272 126.07 90.0592 123.146C92.4943 124.515 94.2231 126.343 94.384 129.351C94.5606 132.52 92.2573 134.542 89.6788 135.793C89.2974 132.863 87.724 130.193 85.2125 129.307ZM99.9092 129.743C102.498 128.986 104.224 126.507 104.756 123.583C107.191 124.952 108.92 126.78 109.081 129.788C109.27 132.993 106.954 134.979 104.375 136.229C104.031 133.287 102.471 130.653 99.9092 129.743ZM114.656 130.204C117.244 129.447 119.007 126.954 119.502 124.043C121.937 125.412 123.666 127.24 123.827 130.249C124.017 133.454 121.7 135.439 119.122 136.69C118.777 133.747 117.204 131.077 114.656 130.204ZM129.402 130.664C131.991 129.907 133.754 127.414 134.249 124.504C136.684 125.873 138.413 127.701 138.574 130.709C138.763 133.914 136.447 135.9 133.869 137.15C133.524 134.208 131.914 131.55 129.402 130.664ZM144.136 131.088C146.724 130.331 148.45 127.851 148.982 124.927C151.417 126.296 153.146 128.124 153.307 131.133C153.497 134.338 151.18 136.323 148.602 137.574C148.257 134.631 146.66 132.011 144.136 131.088ZM151.681 124.711C154.27 123.954 156.032 121.461 156.551 118.501C159.023 119.857 160.715 121.698 160.913 124.693C161.102 127.898 158.749 129.897 156.171 131.147C155.816 128.291 154.242 125.621 151.681 124.711ZM153.725 117.893C153.914 121.098 151.598 123.083 149.019 124.334C148.688 121.428 147.078 118.771 144.553 117.848C147.142 117.091 148.868 114.611 149.4 111.687C151.835 113.056 153.527 114.898 153.725 117.893ZM146.56 111.043C146.75 114.248 144.397 116.247 141.818 117.497C141.474 114.554 139.876 111.934 137.352 111.011C139.94 110.254 141.703 107.761 142.222 104.801C144.67 106.206 146.412 108.071 146.56 111.043ZM131.827 110.619C132.016 113.824 129.663 115.823 127.085 117.073C126.74 114.131 125.143 111.51 122.618 110.587C125.207 109.83 126.97 107.338 127.489 104.377C129.924 105.746 131.666 107.611 131.827 110.619ZM124.662 103.769C124.852 106.974 122.535 108.96 119.957 110.21C119.625 107.304 118.015 104.647 115.491 103.724C118.079 102.967 119.805 100.487 120.337 97.5635C122.773 98.9326 124.464 100.774 124.662 103.769ZM109.916 103.308C110.105 106.514 107.789 108.499 105.21 109.75C104.879 106.844 103.269 104.186 100.744 103.264C103.333 102.506 105.059 100.027 105.591 97.1031C108.026 98.4722 109.768 100.337 109.916 103.308ZM85.5932 116.08C88.1819 115.323 89.9447 112.83 90.44 109.919C92.8751 111.288 94.6038 113.116 94.7647 116.125C94.9413 119.293 92.638 121.315 90.0596 122.566C89.7148 119.623 88.1415 116.953 85.5932 116.08ZM93.1752 109.69C95.7639 108.933 97.5267 106.44 98.0456 103.48C100.518 104.836 102.209 106.677 102.407 109.672C102.597 112.877 100.244 114.876 97.6652 116.126C97.2601 113.247 95.6868 110.576 93.1752 109.69ZM100.327 116.503C102.915 115.746 104.641 113.267 105.173 110.343C107.608 111.712 109.337 113.54 109.498 116.548C109.688 119.753 107.371 121.739 104.793 122.99C104.461 120.084 102.851 117.426 100.327 116.503ZM112.755 103.953C115.227 105.309 116.919 107.15 117.117 110.145C117.307 113.351 114.953 115.349 112.375 116.6C112.03 113.657 110.433 111.036 107.909 110.114C110.474 109.406 112.223 106.877 112.755 103.953ZM115.073 116.964C117.662 116.207 119.388 113.727 119.92 110.803C122.355 112.172 124.084 114 124.245 117.009C124.434 120.214 122.118 122.199 119.54 123.45C119.195 120.507 117.598 117.887 115.073 116.964ZM134.666 111.264C137.102 112.633 138.83 114.461 138.991 117.469C139.181 120.674 136.864 122.66 134.286 123.91C133.954 121.004 132.344 118.347 129.82 117.424C132.372 116.68 134.121 114.151 134.666 111.264ZM136.934 124.251C139.523 123.494 141.286 121.001 141.805 118.04C144.277 119.396 145.969 121.237 146.166 124.233C146.356 127.438 144.003 129.436 141.424 130.687C141.069 127.831 139.496 125.16 136.934 124.251ZM122.238 123.814C124.826 123.057 126.589 120.564 127.108 117.604C129.58 118.96 131.272 120.801 131.47 123.796C131.659 127.001 129.306 129 126.728 130.25C126.323 127.37 124.749 124.7 122.238 123.814ZM107.491 123.353C110.08 122.596 111.843 120.104 112.362 117.143C114.833 118.499 116.525 120.34 116.723 123.335C116.913 126.541 114.56 128.539 111.981 129.79C111.626 126.934 110.016 124.276 107.491 123.353ZM92.7446 122.893C95.3333 122.136 97.0961 119.643 97.615 116.683C100.087 118.039 101.779 119.88 101.977 122.875C102.166 126.08 99.8131 128.079 97.2347 129.329C96.8794 126.473 95.306 123.803 92.7446 122.893ZM78.0113 122.469C80.5999 121.712 82.3627 119.22 82.8816 116.259C85.3534 117.615 87.0454 119.456 87.2431 122.451C87.4328 125.657 85.0797 127.655 82.5012 128.906C82.1329 126.013 80.5595 123.342 78.0113 122.469ZM78.4287 109.23C81.0173 108.473 82.7802 105.98 83.2991 103.019C85.771 104.375 87.4629 106.216 87.6606 109.212C87.8503 112.417 85.4971 114.415 82.9187 115.666C82.5503 112.773 80.9533 110.152 78.4287 109.23ZM90.8574 96.6795C93.2925 98.0485 95.0213 99.8765 95.1822 102.885C95.3588 106.053 93.0555 108.076 90.4771 109.326C90.1454 106.42 88.5354 103.763 86.0107 102.84C88.5994 102.083 90.3254 99.6033 90.8574 96.6795ZM98.4264 90.253C100.898 91.609 102.59 93.45 102.788 96.4452C102.978 99.6503 100.624 101.649 98.0459 102.9C97.7012 99.9569 96.1043 97.3363 93.5797 96.4134C96.1447 95.7062 97.8944 93.1769 98.4264 90.253ZM110.346 90.1053C110.536 93.3105 108.219 95.2961 105.641 96.5466C105.309 93.6406 103.699 90.9833 101.175 90.0604C103.763 89.3034 105.489 86.8239 106.021 83.9C108.443 85.2323 110.149 87.1102 110.346 90.1053ZM113.173 90.7134C115.645 92.0694 117.337 93.9105 117.534 96.9056C117.724 100.111 115.371 102.11 112.792 103.36C112.448 100.417 110.851 97.7967 108.326 96.8739C110.891 96.1667 112.641 93.6373 113.173 90.7134ZM125.043 90.542C125.233 93.7472 122.916 95.7329 120.338 96.9835C120.006 94.0775 118.396 91.42 115.871 90.4972C118.46 89.7401 120.186 87.2606 120.718 84.3368C123.19 85.6927 124.895 87.5705 125.043 90.542ZM132.244 97.3791C132.434 100.584 130.081 102.583 127.502 103.834C127.158 100.891 125.561 98.2701 123.036 97.3472C125.625 96.5902 127.387 94.0977 127.906 91.1371C130.354 92.5429 132.083 94.3709 132.244 97.3791ZM135.084 98.0239C137.519 99.393 139.248 101.221 139.409 104.229C139.598 107.434 137.282 109.42 134.704 110.671C134.372 107.765 132.762 105.107 130.237 104.184C132.789 103.44 134.552 100.948 135.084 98.0239ZM146.991 97.8396C147.18 101.045 144.827 103.043 142.249 104.294C141.904 101.351 140.307 98.7305 137.782 97.8077C140.371 97.0506 142.134 94.5581 142.653 91.5975C145.088 92.9665 146.793 94.8444 146.991 97.8396ZM154.105 104.666C154.295 107.871 151.979 109.857 149.4 111.107C149.069 108.201 147.459 105.544 144.934 104.621C147.523 103.864 149.249 101.384 149.781 98.4607C152.252 99.8166 153.957 101.694 154.105 104.666ZM161.307 111.503C161.496 114.708 159.143 116.707 156.565 117.957C156.22 115.015 154.623 112.394 152.098 111.471C154.687 110.714 156.45 108.222 156.969 105.261C159.417 106.667 161.146 108.495 161.307 111.503ZM168.471 118.353C168.661 121.558 166.344 123.544 163.766 124.794C163.434 121.888 161.824 119.231 159.3 118.308C161.888 117.551 163.651 115.059 164.146 112.148C166.581 113.517 168.273 115.358 168.471 118.353ZM166.427 125.171C169.016 124.414 170.779 121.922 171.298 118.961C173.77 120.317 175.462 122.158 175.659 125.153C175.849 128.359 173.496 130.357 170.917 131.608C170.549 128.715 168.939 126.058 166.427 125.171ZM158.845 131.561C161.434 130.804 163.16 128.325 163.692 125.401C166.127 126.77 167.856 128.598 168.017 131.606C168.207 134.811 165.89 136.797 163.312 138.047C162.967 135.105 161.394 132.434 158.845 131.561ZM151.263 137.951C153.852 137.194 155.615 134.701 156.134 131.741C158.606 133.097 160.298 134.938 160.495 137.933C160.685 141.138 158.332 143.137 155.753 144.387C155.385 141.494 153.812 138.824 151.263 137.951ZM143.718 144.328C146.307 143.571 148.07 141.078 148.565 138.167C151 139.536 152.729 141.364 152.89 144.372C153.079 147.578 150.763 149.563 148.185 150.814C147.84 147.871 146.28 145.237 143.718 144.328ZM136.554 137.477C139.142 136.72 140.905 134.228 141.424 131.267C143.896 132.623 145.588 134.464 145.786 137.459C145.975 140.665 143.622 142.663 141.044 143.914C140.688 141.058 139.078 138.4 136.554 137.477ZM128.972 143.867C131.56 143.11 133.286 140.631 133.818 137.707C136.253 139.076 137.982 140.904 138.143 143.912C138.333 147.117 136.016 149.103 133.438 150.353C133.106 147.447 131.533 144.777 128.972 143.867ZM121.807 137.017C124.396 136.26 126.159 133.767 126.678 130.807C129.149 132.163 130.841 134.004 131.039 136.999C131.229 140.204 128.876 142.203 126.297 143.453C125.942 140.597 124.368 137.927 121.807 137.017ZM114.275 143.43C116.864 142.673 118.626 140.181 119.122 137.27C121.557 138.639 123.285 140.467 123.446 143.475C123.636 146.68 121.32 148.666 118.741 149.917C118.36 146.987 116.787 144.317 114.275 143.43ZM107.074 136.593C109.662 135.836 111.425 133.344 111.944 130.383C114.416 131.739 116.108 133.58 116.306 136.575C116.495 139.78 114.142 141.779 111.564 143.03C111.195 140.137 109.622 137.466 107.074 136.593ZM99.5285 142.97C102.117 142.213 103.843 139.733 104.375 136.81C106.81 138.179 108.539 140.007 108.7 143.015C108.89 146.22 106.573 148.206 103.995 149.456C103.65 146.513 102.053 143.893 99.5285 142.97ZM92.3272 136.133C94.9158 135.376 96.6786 132.883 97.1975 129.923C99.6694 131.279 101.361 133.12 101.559 136.115C101.749 139.32 99.3956 141.319 96.8172 142.569C96.4619 139.713 94.8886 137.043 92.3272 136.133ZM84.7819 142.51C87.3705 141.753 89.0966 139.273 89.6286 136.349C92.0637 137.718 93.7924 139.546 93.9534 142.554C94.1299 145.723 91.8267 147.745 89.2482 148.996C88.9166 146.09 87.3433 143.419 84.7819 142.51ZM77.6174 135.659C80.206 134.902 81.9689 132.41 82.4878 129.449C84.9596 130.805 86.6516 132.646 86.8493 135.641C87.039 138.847 84.6858 140.845 82.1074 142.096C81.7521 139.24 80.142 136.582 77.6174 135.659ZM75.3127 122.686C77.7478 124.055 79.4765 125.883 79.6374 128.891C79.8271 132.096 77.5107 134.082 74.9323 135.332C74.6007 132.426 72.9906 129.769 70.466 128.846C73.0546 128.089 74.7807 125.61 75.3127 122.686ZM75.7302 109.446C78.1653 110.815 79.894 112.643 80.0549 115.651C80.2446 118.856 77.9283 120.842 75.3498 122.093C75.0182 119.187 73.4081 116.529 70.8835 115.606C73.4485 114.899 75.1982 112.37 75.7302 109.446ZM71.2642 102.379C73.8528 101.622 75.6157 99.1298 76.1109 96.219C78.546 97.5881 80.2747 99.4161 80.4357 102.424C80.6253 105.629 78.309 107.615 75.7305 108.866C75.3989 105.96 73.8256 103.289 71.2642 102.379Z" fill="#1D1D1B"/>
<path d="M58.1348 136.556C58.6967 136.273 59.3085 136.013 59.957 135.741C67.2719 132.553 78.7371 128.922 88.7594 128.332C90.6704 128.231 92.3289 129.048 93.3807 130.372C94.6082 131.84 95.1084 133.94 94.422 135.966C94.3511 136.116 94.3168 136.252 94.2826 136.389C93.4675 138.751 92.4765 140.968 91.3229 143.078C90.3953 144.776 89.2919 146.329 88.0389 147.811C87.5923 148.302 87.1328 148.756 86.6102 149.149C84.1679 151.014 80.8837 151.563 77.8893 150.601L62.9196 145.912L62.547 145.796L61.5403 143.669L60.7407 142.007L60.5467 141.579L59.81 139.977L59.603 139.513L58.9319 138.095L58.1348 136.556Z" fill="#AE5335"/>
<g opacity="0.3">
<path opacity="0.3" d="M58.1347 136.556C58.6966 136.273 59.3084 136.013 59.9569 135.741L93.3806 130.372L66.0823 137.7L59.5399 139.452L58.8688 138.034L58.1347 136.556Z" fill="#1D1D1B"/>
<path opacity="0.3" d="M58.8323 138.047L66.0457 137.713L94.246 136.402L66.5505 140.64L60.4969 141.555L59.7236 139.967L59.5034 139.465L58.8323 138.047Z" fill="#1D1D1B"/>
<path opacity="0.3" d="M59.7234 139.967L66.5504 140.64L91.2861 143.091L66.9817 143.594L61.5035 143.682L60.7039 142.02L60.4968 141.555L59.7234 139.967Z" fill="#1D1D1B"/>
<path opacity="0.3" d="M60.7487 141.797L66.9817 143.594L86.5732 149.162L62.8829 145.925L62.5102 145.809L61.5035 143.682L60.7039 142.02L60.7487 141.797Z" fill="#1D1D1B"/>
</g>
<path d="M25.4137 112.634C25.3813 114.054 26.4673 115.241 27.8874 115.273C29.3075 115.305 30.4946 114.219 30.527 112.799C30.5593 111.379 29.4864 110.229 28.0533 110.16C26.6201 110.091 25.4461 111.214 25.4137 112.634Z" fill="#3C3C3B"/>
<path d="M25.8709 112.056C25.8706 112.637 26.2876 113.109 26.8808 113.146C27.4609 113.147 27.9337 112.73 27.9708 112.136C27.9711 111.556 27.554 111.084 26.9608 111.046C26.3807 111.046 25.9211 111.5 25.8709 112.056Z" fill="white"/>
</svg>
