<svg width="207" height="108" viewBox="0 0 207 108" fill="none" xmlns="http://www.w3.org/2000/svg">
<path d="M115.56 40.3801L151.245 54.9946L161.457 47.5406C163.101 46.3668 163.16 43.9018 161.516 42.6692C150.482 34.2762 136.279 27.8788 122.251 27.8201C120.96 27.8201 119.786 28.583 119.317 29.8156L115.56 40.3801Z" fill="#FF4714"/>
<path opacity="0.3" d="M121.606 36.2133C121.606 36.2133 122.193 34.1003 122.838 31.9287C123.66 29.9332 124.481 27.8789 124.481 27.8789C124.481 27.8789 122.956 29.5223 121.371 31.2244C120.021 32.9852 118.73 34.8048 118.73 34.8048L121.606 36.2133Z" fill="#161614"/>
<path opacity="0.3" d="M126.184 39.2653C126.184 39.2653 126.419 38.5611 126.712 37.5046C126.888 36.9764 127.064 36.3309 127.299 35.7439C127.534 35.0983 127.769 34.4526 128.004 33.807C128.59 32.5158 129.177 31.166 129.764 30.2269C130.292 29.2878 130.645 28.6421 130.645 28.6421C130.645 28.6421 130.116 29.1703 129.353 29.9333C128.532 30.6963 127.651 31.8703 126.654 32.9854C126.184 33.631 125.773 34.2179 125.362 34.8048C124.893 35.3918 124.599 35.9199 124.306 36.3895C123.719 37.3285 123.367 37.9741 123.367 37.9741L126.184 39.2653Z" fill="#161614"/>
<path opacity="0.3" d="M131.114 41.378C131.114 41.378 132.405 38.4434 133.697 35.5088C135.281 32.809 136.866 30.0505 136.866 30.0505C136.866 30.0505 134.577 32.3981 132.288 34.6871C130.351 37.2108 128.356 39.7347 128.356 39.7347L131.114 41.378Z" fill="#161614"/>
<path opacity="0.3" d="M135.339 44.6647C135.339 44.6647 135.75 43.843 136.396 42.6105C136.689 41.9649 137.1 41.2605 137.511 40.5562C137.922 39.8519 138.391 39.0303 138.861 38.2673C139.917 36.7413 140.915 35.2153 141.795 34.1588C142.676 33.0436 143.204 32.3394 143.204 32.3394C143.204 32.3394 142.5 32.9263 141.443 33.8067C140.328 34.687 139.037 35.9782 137.628 37.2695C136.982 37.9738 136.337 38.6781 135.75 39.3237C135.104 39.9694 134.635 40.615 134.165 41.1432C133.285 42.1996 132.698 42.9039 132.698 42.9039L135.339 44.6647Z" fill="#161614"/>
<path opacity="0.3" d="M140.093 46.6602C140.093 46.6602 140.563 45.8386 141.209 44.6647C141.561 44.0778 141.971 43.3148 142.382 42.6692C142.852 41.9649 143.321 41.2019 143.85 40.4389C144.965 38.9716 145.963 37.4456 146.902 36.3891C147.782 35.3327 148.369 34.6284 148.369 34.6284C148.369 34.6284 147.665 35.2153 146.55 36.037C145.435 36.8587 144.084 38.1499 142.617 39.3825C141.972 40.0281 141.267 40.7324 140.622 41.378C139.976 42.0236 139.448 42.6104 138.978 43.1387C138.039 44.1951 137.452 44.8995 137.452 44.8995L140.093 46.6602Z" fill="#161614"/>
<path opacity="0.3" d="M146.315 48.7731C146.315 48.7731 148.193 45.956 150.13 43.0801C152.302 40.4976 154.473 37.9736 154.473 37.9736C154.473 37.9736 151.715 40.028 148.897 42.0822C146.374 44.4299 143.908 46.719 143.908 46.719L146.315 48.7731Z" fill="#161614"/>
<path opacity="0.3" d="M151.832 50.7689C151.832 50.7689 152.243 50.1231 152.888 49.1841C153.534 48.1863 154.414 47.0711 155.353 45.8386C156.351 44.7235 157.349 43.491 158.171 42.728C158.992 41.9063 159.521 41.3782 159.521 41.3782C159.521 41.3782 158.875 41.7889 157.877 42.3758C156.821 42.9627 155.588 43.8433 154.297 44.7236C153.064 45.7214 151.714 46.6605 150.893 47.4822C150.012 48.2451 149.426 48.7732 149.426 48.7732L151.832 50.7689Z" fill="#161614"/>
<path d="M58.1597 38.7956L118.495 39.4411C106.698 22.4792 98.4225 11.3278 79.3476 4.8717C65.555 3.81525 55.5186 15.3187 54.3447 28.2309L58.1597 38.7956Z" fill="#FF4714"/>
<path d="M58.7468 28.8768C59.8033 19.1925 62.6793 10.5059 67.4919 2.0542C64.6161 5.98661 62.1509 10.0365 60.038 14.4385C58.1599 19.0165 56.6926 23.5358 55.6362 28.3486C56.634 28.5247 57.6904 28.7007 58.7468 28.8768Z" fill="#D53A11"/>
<path d="M64.2047 27.8202C64.9677 22.7727 66.2002 18.0773 68.0783 13.3233C70.3086 8.62792 72.9497 4.51947 76.1777 0.469727C72.4215 4.2847 68.8415 8.33447 66.3764 13.1472C64.0288 17.6665 62.3853 22.3031 61.0941 27.2332C62.0918 27.4093 63.1483 27.6441 64.2047 27.8202Z" fill="#D53A11"/>
<path d="M70.1916 27.7615C71.4829 22.4205 73.1849 17.197 76.0608 12.4429C78.702 7.98231 81.754 3.93239 85.2168 0C81.3431 3.58023 77.939 7.3953 74.7696 11.6212C71.3655 16.2578 69.0177 21.4814 67.1983 26.8224C68.196 27.1746 69.1939 27.4681 70.1916 27.7615Z" fill="#D53A11"/>
<path d="M76.296 27.9376C80.9326 19.4274 86.156 11.5626 92.1426 3.87402C85.3344 10.917 79.1717 18.2535 73.596 26.2943C74.4764 26.8812 75.3569 27.4094 76.296 27.9376Z" fill="#D53A11"/>
<path d="M83.69 28.0548C87.0941 20.7769 91.5549 14.4968 97.5415 9.15576C90.6745 13.7338 85.3335 19.6032 80.8728 26.529C81.8706 26.9985 82.8096 27.5266 83.69 28.0548Z" fill="#D53A11"/>
<path d="M91.203 29.5224C92.8464 26.6465 94.6072 23.8294 96.4854 21.0709C98.6571 18.4884 100.829 16.0232 103.235 13.6755C100.477 15.6711 97.8942 17.7252 95.3116 20.0143C92.9639 22.4793 90.7335 25.0618 88.5619 27.703C89.4423 28.3486 90.3226 28.9355 91.203 29.5224Z" fill="#D53A11"/>
<path d="M98.2469 30.8719C101.181 26.5286 104.351 22.5961 108.048 18.8984C103.588 21.8331 99.6554 25.1199 95.8405 28.8176C96.6035 29.5219 97.4252 30.1675 98.2469 30.8719Z" fill="#D53A11"/>
<path d="M105.935 32.9853C107.696 30.0506 109.691 27.7615 112.45 25.7073C108.987 26.8811 106.287 28.5246 103.529 30.931C104.292 31.6353 105.113 32.3396 105.935 32.9853Z" fill="#D53A11"/>
<path d="M69.546 97.253C68.2548 99.8354 66.318 102.066 64.029 104.061C62.0334 105.822 58.9228 105.059 58.0424 102.594C55.6947 95.9031 55.0491 87.2168 55.2839 82.1106L61.9749 82.404L68.7245 90.3862C70.2505 92.323 70.6612 95.0227 69.546 97.253Z" fill="#8C260B"/>
<path d="M172.021 67.7307C182.058 73.952 192.27 78.5887 202.893 80.3494C204.595 80.6429 206.121 79.469 205.886 78.1191C205.123 73.7759 203.891 69.6675 201.895 65.9113C199.548 61.392 199.43 56.2858 201.895 51.8252C203.715 48.5385 205.006 44.8408 205.769 40.7323C206.062 39.265 204.243 38.0325 202.482 38.502C193.209 40.9671 183.349 45.4865 172.608 52.3534L172.021 67.7307Z" fill="#FF4714"/>
<path opacity="0.3" d="M174.018 67.6717C176.718 61.7439 174.898 60.6288 174.076 53.0575C179.183 50.5337 184.289 48.1274 189.512 45.7798C194.795 43.6081 200.136 41.4951 205.594 39.4409C200.488 41.906 195.499 44.4298 190.51 47.071C187.341 48.8904 184.172 50.7099 181.061 52.588C189.16 49.5948 197.201 46.5427 205.301 43.5494C197.436 47.4231 189.513 51.2968 181.648 55.1705C188.691 53.6445 195.675 52.1185 202.718 50.5925C195.558 52.9989 188.397 55.4639 181.178 57.8703C187.576 57.0486 193.973 56.579 200.488 56.1682C194.325 57.342 188.28 58.5746 182.293 60.1006C182.587 60.1593 182.939 60.1592 183.233 60.2179C183.291 60.2179 183.467 60.2179 183.174 60.2179C188.867 60.394 194.619 60.5114 200.312 60.6288C194.267 61.3331 188.28 62.1549 182.235 62.507C188.808 63.5635 195.323 64.6198 201.897 65.6762C196.556 65.4415 191.215 65.2655 185.874 65.0307C184.406 64.972 182.939 64.9133 181.53 64.8546C189.336 66.9676 196.966 69.3151 204.538 71.8976C197.025 70.1955 189.454 68.6696 181.824 67.3784C190.158 70.7238 198.316 74.4802 206.005 78.6473C195.734 74.3041 184.935 70.665 174.018 67.6717Z" fill="#161614"/>
<path d="M137.981 72.6025C138.275 72.8373 138.627 73.1306 139.038 73.3654C143.264 76.4174 150.072 80.2911 156.352 82.0519C157.584 82.404 158.699 82.1107 159.58 81.4064C160.578 80.6434 161.165 79.352 160.988 78.0021C160.988 77.8847 160.988 77.8261 160.93 77.7087C160.754 76.0654 160.402 74.5393 159.991 73.072C159.639 71.8395 159.169 70.7243 158.582 69.6092C158.347 69.257 158.113 68.8462 157.878 68.5528C156.587 67.0268 154.532 66.205 152.537 66.4398L142.383 67.3789H142.149L141.209 68.6113L140.446 69.5504L140.27 69.7853L139.566 70.7244L139.331 71.0177L138.686 71.8395L137.981 72.6025Z" fill="#FF4714"/>
<g opacity="0.3">
<path opacity="0.3" d="M137.982 72.6027C138.275 72.8375 138.627 73.1308 139.038 73.3656L159.581 81.4065L143.206 72.9549L139.273 70.9006L138.628 71.7222L137.982 72.6027Z" fill="#161614"/>
<path opacity="0.3" d="M138.627 71.7808L143.147 72.9548L160.93 77.7088L143.91 71.1939L140.153 69.7266L139.449 70.6657L139.273 70.9592L138.627 71.7808Z" fill="#161614"/>
<path opacity="0.3" d="M139.449 70.6656L143.91 71.1939L159.992 73.0133L144.556 69.3744L141.093 68.5527L140.388 69.4919L140.154 69.7265L139.449 70.6656Z" fill="#161614"/>
<path opacity="0.3" d="M140.329 69.6095L144.555 69.3746L157.819 68.553L142.266 67.3203H142.031L141.092 68.553L140.388 69.4921L140.329 69.6095Z" fill="#161614"/>
</g>
<path d="M0.582412 54.9944C1.34541 55.64 2.04974 56.2855 2.81274 56.8724C7.97765 61.2156 12.8491 64.9132 17.6618 68.0826C18.3662 68.5522 19.1291 69.0218 19.8334 69.4914C39.8475 82.0515 59.0986 85.3381 94.2552 84.223C131.055 83.1078 122.721 70.7824 173.137 67.8478C179.476 67.4956 179.594 51.4728 173.079 52.1771C172.022 52.2944 170.966 52.3531 169.909 52.3531C143.909 52.9401 122.193 25.0026 72.8912 25.4722C55.8705 25.4722 48.4165 29.8739 40.9626 33.7476C38.1454 35.2149 35.2695 36.6236 31.924 37.6213C22.5919 40.4386 11.3818 43.0211 5.21914 47.6578C4.51484 48.1861 3.81061 48.7729 3.28238 49.4185C9.50375 52.9987 15.0795 56.9311 19.5988 61.4504C14.7273 58.3397 7.09729 56.1681 0.817231 54.2899C0.641154 54.5834 0.582412 54.8183 0.582412 54.9944Z" fill="#E1ECC3"/>
<path d="M59.8617 81.1714C59.8617 81.6409 59.8617 82.1692 59.8617 82.6974C59.8617 88.7427 60.8008 97.8398 63.3833 105C63.9115 106.35 64.968 107.289 66.2005 107.583C67.6091 107.994 69.1938 107.7 70.4264 106.644C70.5437 106.585 70.6023 106.467 70.661 106.409C72.0696 105.118 73.3022 103.768 74.4174 102.3C75.2977 101.127 76.0606 99.8941 76.7063 98.6029C76.941 98.1333 77.1172 97.6637 77.1759 97.1941C77.7628 94.9052 77.1172 92.4989 75.5325 90.6794L67.7264 81.6408L67.5503 81.4062L65.7309 81.3475L64.3224 81.2887H63.9702L62.6202 81.2301H62.2094L60.9769 81.1714H59.8617Z" fill="#FF4714"/>
<g opacity="0.3">
<path opacity="0.3" d="M59.8618 81.1711C59.8618 81.6407 59.8618 82.169 59.8618 82.6972L66.2593 107.641L63.09 86.3946L62.327 81.2885L61.0943 81.2299L59.8618 81.1711Z" fill="#161614"/>
<path opacity="0.3" d="M61.0941 81.23L63.0309 86.3362L70.6606 106.409L65.2025 85.808L64.0286 81.3473L62.6788 81.2886H62.2679L61.0941 81.23Z" fill="#161614"/>
<path opacity="0.3" d="M62.6784 81.2883L65.2022 85.8077L74.417 102.3L67.4325 85.2207L65.8479 81.4058L64.4391 81.3471H64.0282L62.6784 81.2883Z" fill="#161614"/>
<path opacity="0.3" d="M64.2636 81.4057L67.433 85.2207L77.2344 97.1938L67.7851 81.6403L67.6091 81.4642L65.8484 81.4057L64.4397 81.3469L64.2636 81.4057Z" fill="#161614"/>
</g>
<path opacity="0.2" d="M52.2315 46.3081C54.3444 45.6038 56.2812 44.43 56.0465 42.6692C55.8117 40.9084 54.1684 39.9107 51.8794 39.2064C55.4596 38.6194 57.8073 40.4976 58.2768 42.6692C60.2723 41.9649 62.0917 40.8496 61.857 39.0889C61.6222 37.3281 59.9788 36.3303 57.6899 35.626C61.2701 34.9804 63.6764 36.9173 64.0873 39.1476C67.3154 38.7955 69.487 40.615 69.9565 42.6692C71.952 41.9649 73.7716 40.7909 73.5368 39.0889C73.3021 37.3281 71.6585 36.3303 69.3695 35.626C72.9498 35.0391 75.2974 36.9172 75.767 39.0889C77.7625 38.3845 79.5821 37.2695 79.3473 35.5087C79.1125 33.7479 77.4692 32.7502 75.1802 32.0459C78.7604 31.4003 81.1668 33.337 81.5776 35.5673C84.8057 35.2151 86.9772 37.0347 87.3881 39.1476C89.3836 38.4433 91.2032 37.328 90.9684 35.5673C90.7336 33.8065 89.0901 32.8088 86.8011 32.1044C90.3814 31.4588 92.7877 33.3957 93.1986 35.626C96.4853 35.2739 98.5982 37.1521 99.0678 39.2064C102.296 38.8542 104.467 40.6735 104.937 42.7278C106.933 42.0234 108.752 40.9084 108.517 39.1476C108.283 37.3868 106.639 36.3891 104.35 35.6848C107.93 35.0392 110.337 36.976 110.748 39.2064C114.034 38.8542 116.147 40.6736 116.617 42.7865C119.904 42.4344 122.017 44.3126 122.486 46.3668C125.773 46.0147 127.886 47.8341 128.355 49.947C131.642 49.5948 133.755 51.4731 134.225 53.5273C137.57 53.1752 139.742 55.1119 140.094 57.2248C139.683 59.3964 137.511 61.2159 134.225 60.9224C133.814 63.0354 131.642 64.7962 128.355 64.5028C127.886 66.6157 125.773 68.4351 122.486 68.0829C122.075 70.1959 119.904 71.9567 116.617 71.6633C116.147 73.8936 113.8 75.7716 110.219 75.1847C112.45 74.4804 114.621 73.3066 114.387 71.4284C114.152 69.7851 112.743 68.846 110.806 68.1417C110.337 70.2546 108.224 72.0153 104.996 71.7218C104.526 73.9521 102.179 75.8303 98.5983 75.2434C100.829 74.5391 103 73.3653 102.765 71.4872C102.531 69.8438 101.122 68.9047 99.1853 68.2004C98.7157 70.3134 96.6027 72.074 93.3746 71.7806C92.9051 74.0109 90.5574 75.8891 86.9772 75.3022C89.2075 74.5979 91.3792 73.4239 91.1445 71.5458C90.9097 69.9024 89.501 68.9633 87.5642 68.259C87.0946 70.3719 84.9818 72.1328 81.7537 71.8393C81.2842 74.0696 78.9365 75.9478 75.3563 75.3609C77.5866 74.6566 79.7581 73.4827 79.5234 71.6045C79.2886 69.9611 77.8799 69.0221 75.943 68.3178C75.4735 70.4307 73.3606 72.1914 70.1326 71.8979C69.663 74.1282 67.3154 76.0064 63.7351 75.4195C65.9654 74.7152 68.137 73.5414 67.9022 71.6633C67.6675 70.0199 66.2589 69.0808 64.3221 68.3765C63.8526 70.6068 61.4462 72.4263 57.9247 71.8393C60.155 71.135 62.3265 69.9611 62.0918 68.0829C61.857 66.4395 60.4485 65.5005 58.5116 64.7962C58.0421 67.0265 55.6356 68.8459 52.114 68.259C54.3443 67.5547 56.5161 66.3809 56.2813 64.5028C56.0465 62.8007 54.5791 61.8616 52.4662 61.1573C52.3488 61.1573 52.2314 61.1572 52.114 61.0985C52.1727 61.0985 52.1728 61.0986 52.2315 61.0399C52.1728 61.0399 52.1727 61.0399 52.114 60.9812C52.2314 60.9812 52.3488 60.9224 52.4662 60.9224C54.5791 60.2181 56.5161 59.0443 56.2813 57.2835C56.0465 55.5815 54.5791 54.6423 52.4662 53.938C52.3488 53.938 52.2314 53.9382 52.114 53.8795C52.1727 53.8795 52.1728 53.8794 52.2315 53.8207C52.1728 53.8207 52.1727 53.8207 52.114 53.762C52.2314 53.762 52.3488 53.7034 52.4662 53.7034C54.5791 52.9991 56.5161 51.8251 56.2813 50.0643C56.0465 48.3622 54.5791 47.4233 52.4662 46.719C52.3488 46.719 52.2314 46.7189 52.114 46.6602C52.1727 46.6602 52.1728 46.6602 52.2315 46.6015C52.1728 46.6015 52.1727 46.6016 52.114 46.5429C51.9966 46.3081 52.1141 46.3081 52.2315 46.3081ZM64.146 39.3237C63.7939 40.9084 62.5026 42.317 60.4484 42.7865C62.5026 43.256 63.7939 44.6646 64.146 46.2493C66.1416 45.545 67.9609 44.43 67.7262 42.6692C67.5501 41.0258 66.1416 40.028 64.146 39.3237ZM70.0153 64.1506C72.0108 63.4463 73.8302 62.2724 73.5954 60.5703C73.3606 58.9269 71.9521 57.9879 70.0153 57.2835C69.6631 58.8682 68.3718 60.2768 66.3176 60.7464C68.3131 61.1572 69.6631 62.6246 70.0153 64.1506ZM81.6949 64.1506C83.6905 63.4463 85.51 62.3311 85.2753 60.5703C85.0405 58.9269 83.6318 57.9879 81.6949 57.2835C81.3428 58.8682 80.0515 60.2768 77.9973 60.7464C80.0515 61.1572 81.3428 62.6246 81.6949 64.1506ZM93.4334 64.1506C95.4289 63.4463 97.2485 62.3311 97.0137 60.5703C96.7789 58.9269 95.3702 57.9879 93.4334 57.2835C93.0812 58.8682 91.79 60.2768 89.7357 60.7464C91.7313 61.1572 93.0812 62.6246 93.4334 64.1506ZM105.172 64.1506C107.167 63.4463 108.987 62.3311 108.752 60.5703C108.517 58.9269 107.109 57.9879 105.172 57.2835C104.82 58.8682 103.528 60.2768 101.474 60.7464C103.47 61.1572 104.82 62.6246 105.172 64.1506ZM116.852 64.1506C118.847 63.4463 120.667 62.3311 120.432 60.5703C120.197 58.9269 118.788 57.9879 116.852 57.2835C116.499 58.8682 115.208 60.2768 113.154 60.7464C115.208 61.1572 116.499 62.6246 116.852 64.1506ZM122.721 60.5703C124.716 59.866 126.536 58.7509 126.301 56.9902C126.066 55.3468 124.658 54.4077 122.721 53.7034C122.369 55.2881 121.077 56.6967 119.023 57.1662C121.019 57.5771 122.369 58.9856 122.721 60.5703ZM116.852 50.1231C116.499 51.7078 115.208 53.1165 113.154 53.5273C115.208 53.9969 116.499 55.4055 116.852 56.9902C118.847 56.2858 120.667 55.1706 120.432 53.4098C120.256 51.7664 118.847 50.8274 116.852 50.1231ZM110.982 46.5429C110.63 48.1276 109.339 49.5362 107.285 50.0057C109.339 50.4753 110.63 51.8839 110.982 53.4686C112.978 52.7643 114.797 51.649 114.563 49.8882C114.387 48.1862 112.978 47.1885 110.982 46.5429ZM99.3026 46.5429C98.9504 48.1276 97.6592 49.5362 95.605 50.0057C97.6592 50.4753 98.9504 51.8839 99.3026 53.4686C101.298 52.7643 103.118 51.649 102.883 49.8882C102.648 48.1862 101.239 47.1885 99.3026 46.5429ZM93.4334 42.9038C93.0812 44.4885 91.79 45.8972 89.7357 46.3081C91.79 46.7776 93.0812 48.1862 93.4334 49.7709C95.4289 49.0666 97.2485 47.9515 97.0137 46.1908C96.8376 44.6061 95.4289 43.6081 93.4334 42.9038ZM81.6949 42.9038C81.3428 44.4885 80.0515 45.8972 77.9973 46.3081C80.0515 46.7776 81.3428 48.1862 81.6949 49.7709C83.6905 49.0666 85.51 47.9515 85.2753 46.1908C85.0992 44.6061 83.6905 43.6081 81.6949 42.9038ZM70.0153 56.9902C72.0108 56.2858 73.8302 55.1119 73.5954 53.4098C73.3606 51.7664 71.9521 50.8274 70.0153 50.1231C69.6631 51.7078 68.3718 53.1165 66.3176 53.5273C68.3131 53.9969 69.6631 55.4055 70.0153 56.9902ZM75.8257 53.4098C77.8213 52.7055 79.6408 51.5904 79.406 49.8297C79.1713 48.1863 77.7626 47.2472 75.8257 46.5429C75.4736 48.1276 74.1823 49.5362 72.1281 50.0057C74.1823 50.4166 75.4736 51.8251 75.8257 53.4098ZM81.6949 56.9902C83.6905 56.2858 85.51 55.1706 85.2753 53.4098C85.0405 51.7664 83.6318 50.8274 81.6949 50.1231C81.3428 51.7078 80.0515 53.1165 77.9973 53.5273C80.0515 53.9969 81.3428 55.4055 81.6949 56.9902ZM83.8665 49.947C85.9208 50.4165 87.212 51.8251 87.5642 53.4098C89.5597 52.7055 91.3792 51.5904 91.1445 49.8297C90.9097 48.1863 89.501 47.2472 87.5642 46.5429C87.212 48.1276 85.9208 49.5361 83.8665 49.947ZM93.4334 56.9902C95.4289 56.2858 97.2485 55.1706 97.0137 53.4098C96.7789 51.7664 95.3702 50.8274 93.4334 50.1231C93.0812 51.7078 91.79 53.1165 89.7357 53.5273C91.7313 53.9969 93.0812 55.4055 93.4334 56.9902ZM101.416 53.5273C103.47 53.9969 104.761 55.4055 105.113 56.9902C107.109 56.2858 108.928 55.1706 108.693 53.4098C108.459 51.7664 107.05 50.8274 105.113 50.1231C104.82 51.7078 103.47 53.1165 101.416 53.5273ZM110.982 60.5703C112.978 59.866 114.797 58.7509 114.563 56.9902C114.328 55.3468 112.919 54.4077 110.982 53.7034C110.63 55.2881 109.339 56.6967 107.285 57.1662C109.339 57.5771 110.63 58.9856 110.982 60.5703ZM99.3026 60.5703C101.298 59.866 103.118 58.7509 102.883 56.9902C102.648 55.3468 101.239 54.4077 99.3026 53.7034C98.9504 55.2881 97.6592 56.6967 95.605 57.1662C97.6005 57.5771 98.9504 58.9856 99.3026 60.5703ZM87.5642 60.5703C89.5597 59.866 91.3792 58.7509 91.1445 56.9902C90.9097 55.3468 89.501 54.4077 87.5642 53.7034C87.212 55.2881 85.9208 56.6967 83.8665 57.1662C85.8621 57.5771 87.212 58.9856 87.5642 60.5703ZM75.8257 60.5703C77.8213 59.866 79.6408 58.7509 79.406 56.9902C79.1713 55.3468 77.7626 54.4077 75.8257 53.7034C75.4736 55.2881 74.1823 56.6967 72.1281 57.1662C74.1823 57.5771 75.4736 58.9856 75.8257 60.5703ZM64.146 60.5703C66.1416 59.866 67.9609 58.7509 67.7262 56.9902C67.4914 55.3468 66.0829 54.4077 64.146 53.7034C63.7939 55.2881 62.5026 56.6967 60.4484 57.1662C62.4439 57.5771 63.7939 58.9856 64.146 60.5703ZM64.146 53.4098C66.1416 52.7055 67.9609 51.5904 67.7262 49.8297C67.4914 48.1863 66.0829 47.2472 64.146 46.5429C63.7939 48.1276 62.5026 49.5362 60.4484 50.0057C62.4439 50.4166 63.7939 51.8251 64.146 53.4098ZM66.2589 46.3668C68.3131 46.8364 69.6043 48.245 69.9565 49.8297C71.952 49.1254 73.7716 47.9514 73.5368 46.2493C73.3021 44.606 71.8933 43.6669 69.9565 42.9626C69.663 44.5473 68.3131 45.8973 66.2589 46.3668ZM72.1281 42.7865C74.1823 43.256 75.4736 44.6646 75.8257 46.2493C77.8213 45.545 79.6408 44.43 79.406 42.6692C79.1713 41.0258 77.7626 40.0867 75.8257 39.3824C75.4736 40.9084 74.1823 42.317 72.1281 42.7865ZM81.6949 35.7435C81.3428 37.3282 80.0515 38.7368 77.9973 39.1476C80.0515 39.6171 81.3428 41.0257 81.6949 42.6104C83.6905 41.9061 85.51 40.7911 85.2753 39.0303C85.0992 37.3869 83.6905 36.4478 81.6949 35.7435ZM83.8665 42.7865C85.9208 43.256 87.212 44.6646 87.5642 46.2493C89.5597 45.545 91.3792 44.43 91.1445 42.6692C90.9097 41.0258 89.501 40.0867 87.5642 39.3824C87.212 40.9084 85.9208 42.317 83.8665 42.7865ZM93.4334 35.7435C93.0812 37.3282 91.79 38.7368 89.7357 39.1476C91.79 39.6171 93.0812 41.0257 93.4334 42.6104C95.4289 41.9061 97.2485 40.7911 97.0137 39.0303C96.8376 37.3869 95.4289 36.4478 93.4334 35.7435ZM99.3026 39.3237C98.9504 40.9084 97.6592 42.317 95.605 42.7865C97.6592 43.256 98.9504 44.6646 99.3026 46.2493C101.298 45.545 103.118 44.43 102.883 42.6692C102.648 41.0258 101.239 40.028 99.3026 39.3237ZM101.416 46.3668C103.47 46.8364 104.761 48.245 105.113 49.8297C107.109 49.1254 108.928 48.0101 108.693 46.2493C108.459 44.606 107.05 43.6669 105.113 42.9626C104.82 44.5473 103.47 45.8973 101.416 46.3668ZM110.982 39.3237C110.63 40.9084 109.339 42.317 107.285 42.7865C109.339 43.256 110.63 44.6646 110.982 46.2493C112.978 45.545 114.797 44.43 114.563 42.6692C114.387 41.0258 112.978 40.028 110.982 39.3237ZM116.852 42.9038C116.499 44.4885 115.208 45.8972 113.154 46.3081C115.208 46.7776 116.499 48.1862 116.852 49.7709C118.847 49.0666 120.667 47.9515 120.432 46.1908C120.256 44.6061 118.847 43.6081 116.852 42.9038ZM122.721 46.5429C122.369 48.1276 121.077 49.5362 119.023 50.0057C121.077 50.4753 122.369 51.8839 122.721 53.4686C124.716 52.7643 126.536 51.649 126.301 49.8882C126.125 48.1862 124.716 47.1885 122.721 46.5429ZM128.59 50.1231C128.238 51.7078 126.947 53.1165 124.892 53.5273C126.947 53.9969 128.238 55.4055 128.59 56.9902C130.585 56.2858 132.405 55.1706 132.17 53.4098C131.935 51.7664 130.527 50.8274 128.59 50.1231ZM134.401 60.5703C136.396 59.866 138.216 58.7509 137.981 56.9902C137.746 55.3468 136.337 54.4077 134.401 53.7034C134.048 55.2881 132.757 56.6967 130.703 57.1662C132.757 57.5771 134.048 58.9856 134.401 60.5703ZM128.59 64.1506C130.585 63.4463 132.405 62.3311 132.17 60.5703C131.935 58.9269 130.527 57.9879 128.59 57.2835C128.238 58.8682 126.947 60.2768 124.892 60.7464C126.888 61.1572 128.238 62.6246 128.59 64.1506ZM122.721 67.7895C124.716 67.0852 126.536 65.97 126.301 64.2092C126.066 62.5658 124.658 61.6268 122.721 60.9224C122.369 62.5071 121.077 63.9157 119.023 64.3853C121.019 64.7961 122.369 66.2048 122.721 67.7895ZM116.852 71.3697C118.847 70.6654 120.667 69.5503 120.432 67.7895C120.197 66.1462 118.788 65.2071 116.852 64.5028C116.499 66.0875 115.208 67.496 113.154 67.9069C115.208 68.3764 116.499 69.785 116.852 71.3697ZM110.982 67.7895C112.978 67.0852 114.797 65.97 114.563 64.2092C114.328 62.5658 112.919 61.6268 110.982 60.9224C110.63 62.5071 109.339 63.9157 107.285 64.3853C109.339 64.7961 110.63 66.2048 110.982 67.7895ZM105.172 71.3697C107.167 70.6654 108.987 69.5503 108.752 67.7895C108.517 66.1462 107.109 65.2071 105.172 64.5028C104.82 66.0875 103.528 67.496 101.474 67.9069C103.47 68.3764 104.82 69.785 105.172 71.3697ZM99.3026 67.7895C101.298 67.0852 103.118 65.97 102.883 64.2092C102.648 62.5658 101.239 61.6268 99.3026 60.9224C98.9504 62.5071 97.6592 63.9157 95.605 64.3853C97.6005 64.7961 98.9504 66.2048 99.3026 67.7895ZM93.4334 71.3697C95.4289 70.6654 97.2485 69.5503 97.0137 67.7895C96.7789 66.1462 95.3702 65.2071 93.4334 64.5028C93.0812 66.0875 91.79 67.496 89.7357 67.9069C91.7313 68.3764 93.0812 69.785 93.4334 71.3697ZM87.5642 67.7895C89.5597 67.0852 91.3792 65.97 91.1445 64.2092C90.9097 62.5658 89.501 61.6268 87.5642 60.9224C87.212 62.5071 85.9208 63.9157 83.8665 64.3853C85.8621 64.7961 87.212 66.2048 87.5642 67.7895ZM81.6949 71.3697C83.6905 70.6654 85.51 69.5503 85.2753 67.7895C85.0405 66.1462 83.6318 65.2071 81.6949 64.5028C81.3428 66.0875 80.0515 67.496 77.9973 67.9069C80.0515 68.3764 81.3428 69.785 81.6949 71.3697ZM75.8257 67.7895C77.8213 67.0852 79.6408 65.97 79.406 64.2092C79.1713 62.5658 77.7626 61.6268 75.8257 60.9224C75.4736 62.5071 74.1823 63.9157 72.1281 64.3853C74.1823 64.7961 75.4736 66.2048 75.8257 67.7895ZM70.0153 71.3697C72.0108 70.6654 73.8302 69.4916 73.5954 67.7895C73.3606 66.1462 71.9521 65.2071 70.0153 64.5028C69.6631 66.0875 68.3718 67.496 66.3176 67.9069C68.3131 68.3764 69.6631 69.785 70.0153 71.3697ZM64.146 67.7895C66.1416 67.0852 67.9609 65.97 67.7262 64.2092C67.4914 62.5658 66.0829 61.6268 64.146 60.9224C63.7939 62.5071 62.5026 63.9157 60.4484 64.3853C62.4439 64.7961 63.7939 66.2048 64.146 67.7895ZM54.5792 60.7464C56.6334 61.2159 57.9247 62.6245 58.2768 64.2092C60.2723 63.5049 62.0917 62.3898 61.857 60.6291C61.6222 58.9857 60.2137 58.0466 58.2768 57.3423C57.9247 58.8683 56.6334 60.2768 54.5792 60.7464ZM54.5792 53.5273C56.6334 53.9969 57.9247 55.4055 58.2768 56.9902C60.2723 56.2858 62.0917 55.1706 61.857 53.4098C61.6222 51.7664 60.2137 50.8274 58.2768 50.1231C57.9247 51.7078 56.6334 53.1165 54.5792 53.5273ZM58.2768 49.8297C60.2723 49.1254 62.0917 48.0101 61.857 46.2493C61.6222 44.606 60.2137 43.6669 58.2768 42.9626C57.9247 44.5473 56.6334 45.956 54.5792 46.3668C56.6334 46.8364 57.9247 48.245 58.2768 49.8297Z" fill="#161614"/>
<path opacity="0.2" d="M17.6621 68.1414C18.3664 68.6109 19.1294 69.0804 19.8337 69.5499C25.7616 69.9021 31.9829 68.2587 37.7934 66.6153C40.1997 65.911 42.7236 65.1481 44.367 62.9765C46.7147 59.8071 46.1864 54.7009 44.1322 51.2381C42.078 47.7753 38.9086 45.5451 35.8566 43.4322C42.6649 50.4752 44.4844 55.8747 43.7801 58.868C42.1954 65.3241 30.9851 65.3241 26.055 66.7914C30.2221 62.9177 31.3961 55.2879 30.5744 50.7687C29.694 46.2494 25.1747 42.0821 21.3597 42.7277C24.8225 43.0799 28.6375 47.2471 29.2244 51.2969C29.9874 56.4031 27.405 62.2723 23.9422 65.4416C22.1814 67.085 20.0098 67.9066 17.6621 68.1414Z" fill="#161614"/>
<path d="M52.6427 60.1597C53.0535 59.9249 53.4642 59.7489 53.9338 59.5142C59.2161 56.9904 67.6681 54.0558 75.0047 53.4101C76.4133 53.2928 77.6458 53.8798 78.4675 54.8189C79.4066 55.8753 79.8174 57.4012 79.3479 58.9272C79.2892 59.0446 79.2892 59.162 79.2305 59.2793C78.7023 61.0401 77.998 62.6835 77.1763 64.2682C76.5306 65.5594 75.7675 66.7332 74.8872 67.8483C74.5937 68.2005 74.2416 68.5527 73.8307 68.8462C72.0699 70.2548 69.6636 70.7243 67.4332 70.1374L56.2816 67.0267L55.9881 66.968L55.1664 65.4421L54.5207 64.2094L54.3447 63.9161L53.7577 62.7421L53.5816 62.39L53.0534 61.3336L52.6427 60.1597Z" fill="#FF4714"/>
<g opacity="0.3">
<path opacity="0.3" d="M52.6429 60.1596C53.0538 59.9248 53.4644 59.7488 53.934 59.5141L78.4673 54.8188L58.4534 60.864L53.6406 62.3313L53.1124 61.2747L52.6429 60.1596Z" fill="#161614"/>
<path opacity="0.3" d="M53.1711 61.2748L58.5121 60.8641L79.2891 59.2793L58.9228 62.9769L54.4624 63.7987L53.8754 62.6248L53.6993 62.3314L53.1711 61.2748Z" fill="#161614"/>
<path opacity="0.3" d="M53.8747 62.6245L58.9221 62.9767L77.2339 64.2679L59.333 65.1483L55.2833 65.3831L54.6378 64.1506L54.4617 63.7985L53.8747 62.6245Z" fill="#161614"/>
<path opacity="0.3" d="M54.6972 63.9746L59.3339 65.1484L73.8896 68.8461L56.3406 66.9679L56.1059 66.9093L55.2841 65.3832L54.6386 64.1507L54.6972 63.9746Z" fill="#161614"/>
</g>
<path opacity="0.3" d="M12.6733 49.7124C12.6733 51.884 14.4342 53.7035 16.6646 53.7035C18.895 53.7035 20.6558 51.9427 20.6558 49.7124C20.6558 47.4821 18.895 45.7214 16.6646 45.7214C14.4342 45.7214 12.6733 47.4821 12.6733 49.7124Z" fill="#161614"/>
<path d="M13.2604 49.1842C13.2604 50.7101 14.4931 51.8841 15.9604 51.8841C17.4864 51.8841 18.6602 50.6515 18.6602 49.1842C18.6602 47.6582 17.4277 46.4844 15.9604 46.4844C14.4344 46.4844 13.2604 47.7169 13.2604 49.1842Z" fill="#343433"/>
<path d="M13.7301 48.5972C13.7301 49.1841 14.1996 49.7124 14.8453 49.7124C15.4322 49.7124 15.9604 49.2428 15.9604 48.5972C15.9604 48.0103 15.4909 47.4822 14.8453 47.4822C14.2583 47.4822 13.7301 47.9516 13.7301 48.5972Z" fill="white"/>
<path opacity="0.2" d="M0.640981 54.3489C0.582289 54.5837 0.582232 54.7599 0.582232 54.9946C1.34523 55.6403 2.04957 56.2857 2.81257 56.8726L22.2397 64.5026C21.0072 57.9879 13.2598 52.3534 5.16023 47.7168C4.45592 48.245 3.75169 48.832 3.22346 49.4776C9.44486 53.0578 15.0206 56.9901 19.5399 61.5093C14.5511 58.4573 6.97976 56.2271 0.640981 54.3489Z" fill="#161614"/>
<path opacity="0.5" d="M40.9045 33.8652L51.645 45.3687C52.5254 46.3078 54.0515 46.0144 54.4623 44.8405C56.4579 39.3822 57.749 33.689 58.4533 27.9372L69.9569 51.1206C70.896 52.9988 73.6545 52.5878 73.948 50.4749L77.5283 26.7633C84.9822 36.154 90.2645 47.1882 92.9643 58.8092C93.4338 60.6874 96.075 60.6286 96.4271 58.7505C96.7206 57.2832 96.9552 55.816 97.2487 54.4073C98.8334 46.0144 100.477 37.504 103.646 29.5806C107.696 38.5018 110.983 47.8339 113.389 57.3419C113.917 59.5135 116.911 59.807 117.85 57.6941C119.376 54.2899 120.432 50.7098 120.491 46.8948C120.55 44.7819 120.96 42.669 121.665 40.6735C122.193 39.2062 121.606 38.0909 123.191 38.1496C124.365 38.2083 125.421 38.9126 126.067 39.8517C130.468 46.7186 133.697 54.2899 135.516 62.272C135.927 64.0915 138.509 64.1502 138.979 62.3308C140.387 56.8724 141.268 51.238 141.62 45.6036C145.435 50.1815 148.722 55.229 151.363 60.6287C152.478 62.8003 155.589 62.859 156.763 60.6874C158.465 57.5181 160.167 54.5833 161.106 54.1138C162.925 54.7594 164.979 58.1636 165.39 60.0417C165.801 61.9199 165.097 63.974 167.034 63.8567C169.381 63.6806 169.557 53.7029 169.968 52.4704C143.968 53.0573 122.252 25.1201 72.9503 25.5896C55.8122 25.5896 48.3584 29.9915 40.9045 33.8652Z" fill="#161614"/>
</svg>
