<svg width="206" height="108" viewBox="0 0 206 108" fill="none" xmlns="http://www.w3.org/2000/svg">
<path d="M115.138 40.3801L150.823 54.9946L161.035 47.5406C162.678 46.3668 162.737 43.9018 161.094 42.6692C150.06 34.2762 135.856 27.8788 121.829 27.8201C120.538 27.8201 119.364 28.583 118.894 29.8156L115.138 40.3801Z" fill="#A64328"/>
<path opacity="0.3" d="M121.183 36.2133C121.183 36.2133 121.77 34.1003 122.416 31.9287C123.237 29.9332 124.059 27.8789 124.059 27.8789C124.059 27.8789 122.533 29.5223 120.949 31.2244C119.599 32.9852 118.307 34.8048 118.307 34.8048L121.183 36.2133Z" fill="#161614"/>
<path opacity="0.3" d="M125.762 39.2653C125.762 39.2653 125.997 38.5611 126.29 37.5046C126.466 36.9764 126.642 36.3309 126.877 35.7439C127.112 35.0983 127.346 34.4526 127.581 33.807C128.168 32.5158 128.755 31.166 129.342 30.2269C129.87 29.2878 130.222 28.6421 130.222 28.6421C130.222 28.6421 129.694 29.1703 128.931 29.9333C128.109 30.6963 127.229 31.8703 126.231 32.9854C125.762 33.631 125.351 34.2179 124.94 34.8048C124.47 35.3918 124.177 35.9199 123.884 36.3895C123.297 37.3285 122.945 37.9741 122.945 37.9741L125.762 39.2653Z" fill="#161614"/>
<path opacity="0.3" d="M130.692 41.378C130.692 41.378 131.983 38.4434 133.274 35.5088C134.859 32.809 136.443 30.0505 136.443 30.0505C136.443 30.0505 134.154 32.3981 131.865 34.6871C129.929 37.2108 127.933 39.7347 127.933 39.7347L130.692 41.378Z" fill="#161614"/>
<path opacity="0.3" d="M134.917 44.6647C134.917 44.6647 135.328 43.843 135.973 42.6105C136.267 41.9649 136.678 41.2605 137.088 40.5562C137.499 39.8519 137.969 39.0303 138.438 38.2673C139.495 36.7413 140.493 35.2153 141.373 34.1588C142.253 33.0436 142.782 32.3394 142.782 32.3394C142.782 32.3394 142.077 32.9263 141.021 33.8067C139.906 34.687 138.614 35.9782 137.206 37.2695C136.56 37.9738 135.914 38.6781 135.327 39.3237C134.682 39.9694 134.212 40.615 133.743 41.1432C132.862 42.1996 132.275 42.9039 132.275 42.9039L134.917 44.6647Z" fill="#161614"/>
<path opacity="0.3" d="M139.671 46.6602C139.671 46.6602 140.141 45.8386 140.786 44.6647C141.138 44.0778 141.549 43.3148 141.96 42.6692C142.43 41.9649 142.899 41.2019 143.427 40.4389C144.542 38.9716 145.54 37.4456 146.479 36.3891C147.36 35.3327 147.947 34.6284 147.947 34.6284C147.947 34.6284 147.242 35.2153 146.127 36.037C145.012 36.8587 143.662 38.1499 142.195 39.3825C141.549 40.0281 140.845 40.7324 140.199 41.378C139.554 42.0236 139.025 42.6104 138.556 43.1387C137.617 44.1951 137.03 44.8995 137.03 44.8995L139.671 46.6602Z" fill="#161614"/>
<path opacity="0.3" d="M145.893 48.7731C145.893 48.7731 147.771 45.956 149.708 43.0801C151.879 40.4976 154.051 37.9736 154.051 37.9736C154.051 37.9736 151.292 40.028 148.475 42.0822C145.951 44.4299 143.486 46.719 143.486 46.719L145.893 48.7731Z" fill="#161614"/>
<path opacity="0.3" d="M151.41 50.7689C151.41 50.7689 151.82 50.1231 152.466 49.1841C153.112 48.1863 153.992 47.0711 154.931 45.8386C155.929 44.7235 156.926 43.491 157.748 42.728C158.57 41.9063 159.098 41.3782 159.098 41.3782C159.098 41.3782 158.453 41.7889 157.455 42.3758C156.398 42.9627 155.166 43.8433 153.874 44.7236C152.642 45.7214 151.292 46.6605 150.47 47.4822C149.59 48.2451 149.003 48.7732 149.003 48.7732L151.41 50.7689Z" fill="#161614"/>
<path d="M57.7373 38.7956L118.073 39.4411C106.276 22.4792 98.0002 11.3278 78.9253 4.8717C65.1326 3.81525 55.0962 15.3187 53.9224 28.2309L57.7373 38.7956Z" fill="#A64328"/>
<path d="M58.3245 28.8768C59.3809 19.1925 62.2569 10.5059 67.0696 2.0542C64.1937 5.98661 61.7286 10.0365 59.6157 14.4385C57.7376 19.0165 56.2703 23.5358 55.2138 28.3486C56.2116 28.5247 57.268 28.7007 58.3245 28.8768Z" fill="#7B3522"/>
<path d="M63.7823 27.8202C64.5453 22.7727 65.7779 18.0773 67.656 13.3233C69.8862 8.62792 72.5274 4.51947 75.7554 0.469727C71.9991 4.2847 68.4191 8.33447 65.9541 13.1472C63.6064 17.6665 61.9629 22.3031 60.6717 27.2332C61.6695 27.4093 62.7259 27.6441 63.7823 27.8202Z" fill="#7B3522"/>
<path d="M69.7693 27.7615C71.0605 22.4205 72.7626 17.197 75.6385 12.4429C78.2796 7.98231 81.3316 3.93239 84.7944 0C80.9208 3.58023 77.5166 7.3953 74.3472 11.6212C70.9431 16.2578 68.5954 21.4814 66.7759 26.8224C67.7737 27.1746 68.7715 27.4681 69.7693 27.7615Z" fill="#7B3522"/>
<path d="M75.8736 27.9376C80.5102 19.4274 85.7337 11.5626 91.7202 3.87402C84.912 10.917 78.7494 18.2535 73.1737 26.2943C74.054 26.8812 74.9345 27.4094 75.8736 27.9376Z" fill="#7B3522"/>
<path d="M83.2676 28.0548C86.6718 20.7769 91.1325 14.4968 97.1191 9.15576C90.2521 13.7338 84.9111 19.6032 80.4505 26.529C81.4482 26.9985 82.3872 27.5266 83.2676 28.0548Z" fill="#7B3522"/>
<path d="M90.7806 29.5224C92.4241 26.6465 94.1848 23.8294 96.063 21.0709C98.2347 18.4884 100.407 16.0232 102.813 13.6755C100.054 15.6711 97.4718 17.7252 94.8893 20.0143C92.5415 22.4793 90.3112 25.0618 88.1395 27.703C89.0199 28.3486 89.9002 28.9355 90.7806 29.5224Z" fill="#7B3522"/>
<path d="M97.8245 30.8719C100.759 26.5286 103.928 22.5961 107.626 18.8984C103.165 21.8331 99.2331 25.1199 95.4181 28.8176C96.1811 29.5219 97.0028 30.1675 97.8245 30.8719Z" fill="#7B3522"/>
<path d="M105.513 32.9853C107.273 30.0506 109.269 27.7615 112.027 25.7073C108.565 26.8811 105.865 28.5246 103.106 30.931C103.869 31.6353 104.691 32.3396 105.513 32.9853Z" fill="#7B3522"/>
<path d="M69.1237 97.253C67.8325 99.8354 65.8956 102.066 63.6066 104.061C61.6111 105.822 58.5004 105.059 57.6201 102.594C55.2724 95.9031 54.6267 87.2168 54.8615 82.1106L61.5525 82.404L68.3021 90.3862C69.8281 92.323 70.2388 95.0227 69.1237 97.253Z" fill="#8C260B"/>
<path d="M171.599 67.7307C181.635 73.952 191.847 78.5887 202.471 80.3494C204.173 80.6429 205.699 79.469 205.464 78.1191C204.701 73.7759 203.468 69.6675 201.473 65.9113C199.125 61.392 199.008 56.2858 201.473 51.8252C203.292 48.5385 204.584 44.8408 205.347 40.7323C205.64 39.265 203.821 38.0325 202.06 38.502C192.787 40.9671 182.926 45.4865 172.186 52.3534L171.599 67.7307Z" fill="#A64328"/>
<path opacity="0.3" d="M173.596 67.6717C176.295 61.7439 174.476 60.6288 173.654 53.0575C178.76 50.5337 183.867 48.1274 189.09 45.7798C194.372 43.6081 199.713 41.4951 205.172 39.4409C200.066 41.906 195.077 44.4298 190.088 47.071C186.919 48.8904 183.749 50.7099 180.638 52.588C188.738 49.5948 196.779 46.5427 204.878 43.5494C197.014 47.4231 189.09 51.2968 181.225 55.1705C188.268 53.6445 195.253 52.1185 202.296 50.5925C195.135 52.9989 187.975 55.4639 180.756 57.8703C187.153 57.0486 193.551 56.579 200.065 56.1682C193.903 57.342 187.858 58.5746 181.871 60.1006C182.165 60.1593 182.517 60.1592 182.81 60.2179C182.869 60.2179 183.045 60.2179 182.751 60.2179C188.445 60.394 194.196 60.5114 199.889 60.6288C193.844 61.3331 187.858 62.1549 181.812 62.507C188.386 63.5635 194.901 64.6198 201.474 65.6762C196.133 65.4415 190.792 65.2655 185.451 65.0307C183.984 64.972 182.517 64.9133 181.108 64.8546C188.914 66.9676 196.544 69.3151 204.115 71.8976C196.603 70.1955 189.031 68.6696 181.401 67.3784C189.736 70.7238 197.894 74.4802 205.583 78.6473C195.311 74.3041 184.512 70.665 173.596 67.6717Z" fill="#161614"/>
<path d="M137.559 72.6025C137.852 72.8373 138.205 73.1306 138.615 73.3654C142.841 76.4174 149.649 80.2911 155.929 82.0519C157.162 82.404 158.277 82.1107 159.157 81.4064C160.155 80.6434 160.742 79.352 160.566 78.0021C160.566 77.8847 160.566 77.8261 160.507 77.7087C160.331 76.0654 159.979 74.5393 159.568 73.072C159.216 71.8395 158.747 70.7243 158.16 69.6092C157.925 69.257 157.69 68.8462 157.455 68.5528C156.164 67.0268 154.11 66.205 152.115 66.4398L141.961 67.3789H141.726L140.787 68.6113L140.024 69.5504L139.848 69.7853L139.144 70.7244L138.909 71.0177L138.263 71.8395L137.559 72.6025Z" fill="#A64328"/>
<g opacity="0.3">
<path opacity="0.3" d="M137.559 72.6027C137.853 72.8375 138.205 73.1308 138.616 73.3656L159.158 81.4065L142.783 72.9549L138.851 70.9006L138.205 71.7222L137.559 72.6027Z" fill="#161614"/>
<path opacity="0.3" d="M138.205 71.7808L142.724 72.9548L160.508 77.7088L143.487 71.1939L139.731 69.7266L139.027 70.6657L138.85 70.9592L138.205 71.7808Z" fill="#161614"/>
<path opacity="0.3" d="M139.027 70.6656L143.488 71.1939L159.569 73.0133L144.133 69.3744L140.67 68.5527L139.966 69.4919L139.731 69.7265L139.027 70.6656Z" fill="#161614"/>
<path opacity="0.3" d="M139.907 69.6095L144.133 69.3746L157.397 68.553L141.844 67.3203H141.609L140.67 68.553L139.965 69.4921L139.907 69.6095Z" fill="#161614"/>
</g>
<path d="M0.160049 54.9944C0.923047 55.64 1.62738 56.2855 2.39038 56.8724C7.55529 61.2156 12.4267 64.9132 17.2395 68.0826C17.9438 68.5522 18.7068 69.0218 19.4111 69.4914C39.4251 82.0515 58.6763 85.3381 93.8328 84.223C130.633 83.1078 122.299 70.7824 172.715 67.8478C179.054 67.4956 179.171 51.4728 172.656 52.1771C171.6 52.2944 170.543 52.3531 169.487 52.3531C143.486 52.9401 121.77 25.0026 72.4688 25.4722C55.4481 25.4722 47.9942 29.8739 40.5403 33.7476C37.7231 35.2149 34.8471 36.6236 31.5016 37.6213C22.1696 40.4386 10.9595 43.0211 4.79678 47.6578C4.09247 48.1861 3.38825 48.7729 2.86002 49.4185C9.08138 52.9987 14.6571 56.9311 19.1764 61.4504C14.305 58.3397 6.67493 56.1681 0.394868 54.2899C0.218791 54.5834 0.160049 54.8183 0.160049 54.9944Z" fill="#CD8B78"/>
<path d="M59.4393 81.1714C59.4393 81.6409 59.4393 82.1692 59.4393 82.6974C59.4393 88.7427 60.3785 97.8398 62.9609 105C63.4891 106.35 64.5456 107.289 65.7782 107.583C67.1868 107.994 68.7715 107.7 70.004 106.644C70.1214 106.585 70.1799 106.467 70.2386 106.409C71.6472 105.118 72.8799 103.768 73.995 102.3C74.8754 101.127 75.6383 99.8941 76.2839 98.6029C76.5187 98.1333 76.6948 97.6637 76.7535 97.1941C77.3404 94.9052 76.6948 92.4989 75.1102 90.6794L67.304 81.6408L67.128 81.4062L65.3085 81.3475L63.9 81.2887H63.5479L62.1979 81.2301H61.787L60.5545 81.1714H59.4393Z" fill="#A64328"/>
<g opacity="0.3">
<path opacity="0.3" d="M59.4395 81.1711C59.4395 81.6407 59.4395 82.169 59.4395 82.6972L65.8369 107.641L62.6677 86.3946L61.9046 81.2885L60.672 81.2299L59.4395 81.1711Z" fill="#161614"/>
<path opacity="0.3" d="M60.6717 81.23L62.6086 86.3362L70.2383 106.409L64.7801 85.808L63.6062 81.3473L62.2565 81.2886H61.8456L60.6717 81.23Z" fill="#161614"/>
<path opacity="0.3" d="M62.256 81.2883L64.7798 85.8077L73.9946 102.3L67.0101 85.2207L65.4255 81.4058L64.0167 81.3471H63.6059L62.256 81.2883Z" fill="#161614"/>
<path opacity="0.3" d="M63.8413 81.4057L67.0106 85.2207L76.812 97.1938L67.3628 81.6403L67.1867 81.4642L65.426 81.4057L64.0173 81.3469L63.8413 81.4057Z" fill="#161614"/>
</g>
<path opacity="0.2" d="M51.8092 46.3081C53.9221 45.6038 55.8589 44.43 55.6241 42.6692C55.3893 40.9084 53.746 39.9107 51.457 39.2064C55.0372 38.6194 57.3849 40.4976 57.8544 42.6692C59.85 41.9649 61.6694 40.8496 61.4346 39.0889C61.1998 37.3281 59.5565 36.3303 57.2675 35.626C60.8477 34.9804 63.2541 36.9173 63.6649 39.1476C66.893 38.7955 69.0646 40.615 69.5341 42.6692C71.5297 41.9649 73.3492 40.7909 73.1145 39.0889C72.8797 37.3281 71.2362 36.3303 68.9472 35.626C72.5274 35.0391 74.8751 36.9172 75.3446 39.0889C77.3401 38.3845 79.1597 37.2695 78.9249 35.5087C78.6902 33.7479 77.0468 32.7502 74.7578 32.0459C78.3381 31.4003 80.7444 33.337 81.1553 35.5673C84.3833 35.2151 86.5549 37.0347 86.9657 39.1476C88.9613 38.4433 90.7808 37.328 90.546 35.5673C90.3113 33.8065 88.6678 32.8088 86.3788 32.1044C89.959 31.4588 92.3654 33.3957 92.7762 35.626C96.063 35.2739 98.1759 37.1521 98.6454 39.2064C101.873 38.8542 104.045 40.6735 104.515 42.7278C106.51 42.0234 108.33 40.9084 108.095 39.1476C107.86 37.3868 106.217 36.3891 103.928 35.6848C107.508 35.0392 109.914 36.976 110.325 39.2064C113.612 38.8542 115.725 40.6736 116.195 42.7865C119.481 42.4344 121.594 44.3126 122.064 46.3668C125.35 46.0147 127.463 47.8341 127.933 49.947C131.22 49.5948 133.333 51.4731 133.802 53.5273C137.148 53.1752 139.319 55.1119 139.671 57.2248C139.261 59.3964 137.089 61.2159 133.802 60.9224C133.391 63.0354 131.22 64.7962 127.933 64.5028C127.463 66.6157 125.35 68.4351 122.064 68.0829C121.653 70.1959 119.481 71.9567 116.195 71.6633C115.725 73.8936 113.377 75.7716 109.797 75.1847C112.027 74.4804 114.199 73.3066 113.964 71.4284C113.729 69.7851 112.321 68.846 110.384 68.1417C109.914 70.2546 107.801 72.0153 104.573 71.7218C104.104 73.9521 101.756 75.8303 98.176 75.2434C100.406 74.5391 102.578 73.3653 102.343 71.4872C102.108 69.8438 100.7 68.9047 98.7629 68.2004C98.2934 70.3134 96.1803 72.074 92.9523 71.7806C92.4827 74.0109 90.1351 75.8891 86.5548 75.3022C88.7851 74.5979 90.9569 73.4239 90.7221 71.5458C90.4873 69.9024 89.0786 68.9633 87.1418 68.259C86.6723 70.3719 84.5594 72.1328 81.3313 71.8393C80.8618 74.0696 78.5141 75.9478 74.9339 75.3609C77.1642 74.6566 79.3358 73.4827 79.101 71.6045C78.8662 69.9611 77.4575 69.0221 75.5207 68.3178C75.0511 70.4307 72.9383 72.1914 69.7102 71.8979C69.2407 74.1282 66.893 76.0064 63.3128 75.4195C65.5431 74.7152 67.7146 73.5414 67.4799 71.6633C67.2451 70.0199 65.8366 69.0808 63.8997 68.3765C63.4302 70.6068 61.0238 72.4263 57.5023 71.8393C59.7326 71.135 61.9042 69.9611 61.6694 68.0829C61.4346 66.4395 60.0261 65.5005 58.0893 64.7962C57.6197 67.0265 55.2132 68.8459 51.6917 68.259C53.922 67.5547 56.0937 66.3809 55.8589 64.5028C55.6242 62.8007 54.1567 61.8616 52.0438 61.1573C51.9264 61.1573 51.809 61.1572 51.6917 61.0985C51.7504 61.0985 51.7505 61.0986 51.8092 61.0399C51.7505 61.0399 51.7504 61.0399 51.6917 60.9812C51.809 60.9812 51.9264 60.9224 52.0438 60.9224C54.1567 60.2181 56.0937 59.0443 55.8589 57.2835C55.6242 55.5815 54.1567 54.6423 52.0438 53.938C51.9264 53.938 51.809 53.9382 51.6917 53.8795C51.7504 53.8795 51.7505 53.8794 51.8092 53.8207C51.7505 53.8207 51.7504 53.8207 51.6917 53.762C51.809 53.762 51.9264 53.7034 52.0438 53.7034C54.1567 52.9991 56.0937 51.8251 55.8589 50.0643C55.6242 48.3622 54.1567 47.4233 52.0438 46.719C51.9264 46.719 51.809 46.7189 51.6917 46.6602C51.7504 46.6602 51.7505 46.6602 51.8092 46.6015C51.7505 46.6015 51.7504 46.6016 51.6917 46.5429C51.5743 46.3081 51.6918 46.3081 51.8092 46.3081ZM63.7237 39.3237C63.3715 40.9084 62.0803 42.317 60.026 42.7865C62.0803 43.256 63.3715 44.6646 63.7237 46.2493C65.7192 45.545 67.5386 44.43 67.3038 42.6692C67.1277 41.0258 65.7192 40.028 63.7237 39.3237ZM69.5929 64.1506C71.5884 63.4463 73.4078 62.2724 73.173 60.5703C72.9383 58.9269 71.5297 57.9879 69.5929 57.2835C69.2407 58.8682 67.9495 60.2768 65.8953 60.7464C67.8908 61.1572 69.2407 62.6246 69.5929 64.1506ZM81.2726 64.1506C83.2681 63.4463 85.0877 62.3311 84.8529 60.5703C84.6181 58.9269 83.2094 57.9879 81.2726 57.2835C80.9204 58.8682 79.6292 60.2768 77.5749 60.7464C79.6292 61.1572 80.9204 62.6246 81.2726 64.1506ZM93.011 64.1506C95.0066 63.4463 96.8261 62.3311 96.5913 60.5703C96.3566 58.9269 94.9479 57.9879 93.011 57.2835C92.6589 58.8682 91.3676 60.2768 89.3134 60.7464C91.3089 61.1572 92.6589 62.6246 93.011 64.1506ZM104.749 64.1506C106.745 63.4463 108.565 62.3311 108.33 60.5703C108.095 58.9269 106.686 57.9879 104.749 57.2835C104.397 58.8682 103.106 60.2768 101.052 60.7464C103.047 61.1572 104.397 62.6246 104.749 64.1506ZM116.429 64.1506C118.425 63.4463 120.244 62.3311 120.009 60.5703C119.775 58.9269 118.366 57.9879 116.429 57.2835C116.077 58.8682 114.786 60.2768 112.732 60.7464C114.786 61.1572 116.077 62.6246 116.429 64.1506ZM122.298 60.5703C124.294 59.866 126.113 58.7509 125.879 56.9902C125.644 55.3468 124.235 54.4077 122.298 53.7034C121.946 55.2881 120.655 56.6967 118.601 57.1662C120.596 57.5771 121.946 58.9856 122.298 60.5703ZM116.429 50.1231C116.077 51.7078 114.786 53.1165 112.732 53.5273C114.786 53.9969 116.077 55.4055 116.429 56.9902C118.425 56.2858 120.244 55.1706 120.009 53.4098C119.833 51.7664 118.425 50.8274 116.429 50.1231ZM110.56 46.5429C110.208 48.1276 108.917 49.5362 106.862 50.0057C108.917 50.4753 110.208 51.8839 110.56 53.4686C112.555 52.7643 114.375 51.649 114.14 49.8882C113.964 48.1862 112.555 47.1885 110.56 46.5429ZM98.8802 46.5429C98.5281 48.1276 97.2368 49.5362 95.1826 50.0057C97.2368 50.4753 98.5281 51.8839 98.8802 53.4686C100.876 52.7643 102.695 51.649 102.461 49.8882C102.226 48.1862 100.817 47.1885 98.8802 46.5429ZM93.011 42.9038C92.6589 44.4885 91.3676 45.8972 89.3134 46.3081C91.3676 46.7776 92.6589 48.1862 93.011 49.7709C95.0066 49.0666 96.8261 47.9515 96.5913 46.1908C96.4153 44.6061 95.0066 43.6081 93.011 42.9038ZM81.2726 42.9038C80.9204 44.4885 79.6292 45.8972 77.5749 46.3081C79.6292 46.7776 80.9204 48.1862 81.2726 49.7709C83.2681 49.0666 85.0877 47.9515 84.8529 46.1908C84.6768 44.6061 83.2681 43.6081 81.2726 42.9038ZM69.5929 56.9902C71.5884 56.2858 73.4078 55.1119 73.173 53.4098C72.9383 51.7664 71.5297 50.8274 69.5929 50.1231C69.2407 51.7078 67.9495 53.1165 65.8953 53.5273C67.8908 53.9969 69.2407 55.4055 69.5929 56.9902ZM75.4034 53.4098C77.3989 52.7055 79.2184 51.5904 78.9837 49.8297C78.7489 48.1863 77.3402 47.2472 75.4034 46.5429C75.0512 48.1276 73.7599 49.5362 71.7057 50.0057C73.7599 50.4166 75.0512 51.8251 75.4034 53.4098ZM81.2726 56.9902C83.2681 56.2858 85.0877 55.1706 84.8529 53.4098C84.6181 51.7664 83.2094 50.8274 81.2726 50.1231C80.9204 51.7078 79.6292 53.1165 77.5749 53.5273C79.6292 53.9969 80.9204 55.4055 81.2726 56.9902ZM83.4442 49.947C85.4984 50.4165 86.7896 51.8251 87.1418 53.4098C89.1373 52.7055 90.9569 51.5904 90.7221 49.8297C90.4873 48.1863 89.0786 47.2472 87.1418 46.5429C86.7896 48.1276 85.4984 49.5361 83.4442 49.947ZM93.011 56.9902C95.0066 56.2858 96.8261 55.1706 96.5913 53.4098C96.3566 51.7664 94.9479 50.8274 93.011 50.1231C92.6589 51.7078 91.3676 53.1165 89.3134 53.5273C91.3089 53.9969 92.6589 55.4055 93.011 56.9902ZM100.993 53.5273C103.047 53.9969 104.339 55.4055 104.691 56.9902C106.686 56.2858 108.506 55.1706 108.271 53.4098C108.036 51.7664 106.628 50.8274 104.691 50.1231C104.397 51.7078 103.047 53.1165 100.993 53.5273ZM110.56 60.5703C112.555 59.866 114.375 58.7509 114.14 56.9902C113.905 55.3468 112.497 54.4077 110.56 53.7034C110.208 55.2881 108.917 56.6967 106.862 57.1662C108.917 57.5771 110.208 58.9856 110.56 60.5703ZM98.8802 60.5703C100.876 59.866 102.695 58.7509 102.461 56.9902C102.226 55.3468 100.817 54.4077 98.8802 53.7034C98.5281 55.2881 97.2368 56.6967 95.1826 57.1662C97.1781 57.5771 98.5281 58.9856 98.8802 60.5703ZM87.1418 60.5703C89.1373 59.866 90.9569 58.7509 90.7221 56.9902C90.4873 55.3468 89.0786 54.4077 87.1418 53.7034C86.7896 55.2881 85.4984 56.6967 83.4442 57.1662C85.4397 57.5771 86.7896 58.9856 87.1418 60.5703ZM75.4034 60.5703C77.3989 59.866 79.2184 58.7509 78.9837 56.9902C78.7489 55.3468 77.3402 54.4077 75.4034 53.7034C75.0512 55.2881 73.7599 56.6967 71.7057 57.1662C73.7599 57.5771 75.0512 58.9856 75.4034 60.5703ZM63.7237 60.5703C65.7192 59.866 67.5386 58.7509 67.3038 56.9902C67.069 55.3468 65.6605 54.4077 63.7237 53.7034C63.3715 55.2881 62.0803 56.6967 60.026 57.1662C62.0216 57.5771 63.3715 58.9856 63.7237 60.5703ZM63.7237 53.4098C65.7192 52.7055 67.5386 51.5904 67.3038 49.8297C67.069 48.1863 65.6605 47.2472 63.7237 46.5429C63.3715 48.1276 62.0803 49.5362 60.026 50.0057C62.0216 50.4166 63.3715 51.8251 63.7237 53.4098ZM65.8365 46.3668C67.8907 46.8364 69.182 48.245 69.5341 49.8297C71.5297 49.1254 73.3492 47.9514 73.1145 46.2493C72.8797 44.606 71.471 43.6669 69.5341 42.9626C69.2407 44.5473 67.8907 45.8973 65.8365 46.3668ZM71.7057 42.7865C73.7599 43.256 75.0512 44.6646 75.4034 46.2493C77.3989 45.545 79.2184 44.43 78.9837 42.6692C78.7489 41.0258 77.3402 40.0867 75.4034 39.3824C75.0512 40.9084 73.7599 42.317 71.7057 42.7865ZM81.2726 35.7435C80.9204 37.3282 79.6292 38.7368 77.5749 39.1476C79.6292 39.6171 80.9204 41.0257 81.2726 42.6104C83.2681 41.9061 85.0877 40.7911 84.8529 39.0303C84.6768 37.3869 83.2681 36.4478 81.2726 35.7435ZM83.4442 42.7865C85.4984 43.256 86.7896 44.6646 87.1418 46.2493C89.1373 45.545 90.9569 44.43 90.7221 42.6692C90.4873 41.0258 89.0786 40.0867 87.1418 39.3824C86.7896 40.9084 85.4984 42.317 83.4442 42.7865ZM93.011 35.7435C92.6589 37.3282 91.3676 38.7368 89.3134 39.1476C91.3676 39.6171 92.6589 41.0257 93.011 42.6104C95.0066 41.9061 96.8261 40.7911 96.5913 39.0303C96.4153 37.3869 95.0066 36.4478 93.011 35.7435ZM98.8802 39.3237C98.5281 40.9084 97.2368 42.317 95.1826 42.7865C97.2368 43.256 98.5281 44.6646 98.8802 46.2493C100.876 45.545 102.695 44.43 102.461 42.6692C102.226 41.0258 100.817 40.028 98.8802 39.3237ZM100.993 46.3668C103.047 46.8364 104.339 48.245 104.691 49.8297C106.686 49.1254 108.506 48.0101 108.271 46.2493C108.036 44.606 106.628 43.6669 104.691 42.9626C104.397 44.5473 103.047 45.8973 100.993 46.3668ZM110.56 39.3237C110.208 40.9084 108.917 42.317 106.862 42.7865C108.917 43.256 110.208 44.6646 110.56 46.2493C112.555 45.545 114.375 44.43 114.14 42.6692C113.964 41.0258 112.555 40.028 110.56 39.3237ZM116.429 42.9038C116.077 44.4885 114.786 45.8972 112.732 46.3081C114.786 46.7776 116.077 48.1862 116.429 49.7709C118.425 49.0666 120.244 47.9515 120.009 46.1908C119.833 44.6061 118.425 43.6081 116.429 42.9038ZM122.298 46.5429C121.946 48.1276 120.655 49.5362 118.601 50.0057C120.655 50.4753 121.946 51.8839 122.298 53.4686C124.294 52.7643 126.113 51.649 125.879 49.8882C125.703 48.1862 124.294 47.1885 122.298 46.5429ZM128.168 50.1231C127.815 51.7078 126.524 53.1165 124.47 53.5273C126.524 53.9969 127.815 55.4055 128.168 56.9902C130.163 56.2858 131.983 55.1706 131.748 53.4098C131.513 51.7664 130.104 50.8274 128.168 50.1231ZM133.978 60.5703C135.974 59.866 137.793 58.7509 137.558 56.9902C137.324 55.3468 135.915 54.4077 133.978 53.7034C133.626 55.2881 132.335 56.6967 130.281 57.1662C132.335 57.5771 133.626 58.9856 133.978 60.5703ZM128.168 64.1506C130.163 63.4463 131.983 62.3311 131.748 60.5703C131.513 58.9269 130.104 57.9879 128.168 57.2835C127.815 58.8682 126.524 60.2768 124.47 60.7464C126.466 61.1572 127.815 62.6246 128.168 64.1506ZM122.298 67.7895C124.294 67.0852 126.113 65.97 125.879 64.2092C125.644 62.5658 124.235 61.6268 122.298 60.9224C121.946 62.5071 120.655 63.9157 118.601 64.3853C120.596 64.7961 121.946 66.2048 122.298 67.7895ZM116.429 71.3697C118.425 70.6654 120.244 69.5503 120.009 67.7895C119.775 66.1462 118.366 65.2071 116.429 64.5028C116.077 66.0875 114.786 67.496 112.732 67.9069C114.786 68.3764 116.077 69.785 116.429 71.3697ZM110.56 67.7895C112.555 67.0852 114.375 65.97 114.14 64.2092C113.905 62.5658 112.497 61.6268 110.56 60.9224C110.208 62.5071 108.917 63.9157 106.862 64.3853C108.917 64.7961 110.208 66.2048 110.56 67.7895ZM104.749 71.3697C106.745 70.6654 108.565 69.5503 108.33 67.7895C108.095 66.1462 106.686 65.2071 104.749 64.5028C104.397 66.0875 103.106 67.496 101.052 67.9069C103.047 68.3764 104.397 69.785 104.749 71.3697ZM98.8802 67.7895C100.876 67.0852 102.695 65.97 102.461 64.2092C102.226 62.5658 100.817 61.6268 98.8802 60.9224C98.5281 62.5071 97.2368 63.9157 95.1826 64.3853C97.1781 64.7961 98.5281 66.2048 98.8802 67.7895ZM93.011 71.3697C95.0066 70.6654 96.8261 69.5503 96.5913 67.7895C96.3566 66.1462 94.9479 65.2071 93.011 64.5028C92.6589 66.0875 91.3676 67.496 89.3134 67.9069C91.3089 68.3764 92.6589 69.785 93.011 71.3697ZM87.1418 67.7895C89.1373 67.0852 90.9569 65.97 90.7221 64.2092C90.4873 62.5658 89.0786 61.6268 87.1418 60.9224C86.7896 62.5071 85.4984 63.9157 83.4442 64.3853C85.4397 64.7961 86.7896 66.2048 87.1418 67.7895ZM81.2726 71.3697C83.2681 70.6654 85.0877 69.5503 84.8529 67.7895C84.6181 66.1462 83.2094 65.2071 81.2726 64.5028C80.9204 66.0875 79.6292 67.496 77.5749 67.9069C79.6292 68.3764 80.9204 69.785 81.2726 71.3697ZM75.4034 67.7895C77.3989 67.0852 79.2184 65.97 78.9837 64.2092C78.7489 62.5658 77.3402 61.6268 75.4034 60.9224C75.0512 62.5071 73.7599 63.9157 71.7057 64.3853C73.7599 64.7961 75.0512 66.2048 75.4034 67.7895ZM69.5929 71.3697C71.5884 70.6654 73.4078 69.4916 73.173 67.7895C72.9383 66.1462 71.5297 65.2071 69.5929 64.5028C69.2407 66.0875 67.9495 67.496 65.8953 67.9069C67.8908 68.3764 69.2407 69.785 69.5929 71.3697ZM63.7237 67.7895C65.7192 67.0852 67.5386 65.97 67.3038 64.2092C67.069 62.5658 65.6605 61.6268 63.7237 60.9224C63.3715 62.5071 62.0803 63.9157 60.026 64.3853C62.0216 64.7961 63.3715 66.2048 63.7237 67.7895ZM54.1568 60.7464C56.211 61.2159 57.5023 62.6245 57.8544 64.2092C59.85 63.5049 61.6694 62.3898 61.4346 60.6291C61.1998 58.9857 59.7913 58.0466 57.8544 57.3423C57.5023 58.8683 56.211 60.2768 54.1568 60.7464ZM54.1568 53.5273C56.211 53.9969 57.5023 55.4055 57.8544 56.9902C59.85 56.2858 61.6694 55.1706 61.4346 53.4098C61.1998 51.7664 59.7913 50.8274 57.8544 50.1231C57.5023 51.7078 56.211 53.1165 54.1568 53.5273ZM57.8544 49.8297C59.85 49.1254 61.6694 48.0101 61.4346 46.2493C61.1998 44.606 59.7913 43.6669 57.8544 42.9626C57.5023 44.5473 56.211 45.956 54.1568 46.3668C56.211 46.8364 57.5023 48.245 57.8544 49.8297Z" fill="#161614"/>
<path opacity="0.2" d="M17.2398 68.1414C17.9441 68.6109 18.707 69.0804 19.4113 69.5499C25.3392 69.9021 31.5605 68.2587 37.371 66.6153C39.7774 65.911 42.3013 65.1481 43.9446 62.9765C46.2923 59.8071 45.764 54.7009 43.7098 51.2381C41.6556 47.7753 38.4862 45.5451 35.4343 43.4322C42.2425 50.4752 44.062 55.8747 43.3577 58.868C41.773 65.3241 30.5628 65.3241 25.6326 66.7914C29.7998 62.9177 30.9737 55.2879 30.152 50.7687C29.2716 46.2494 24.7523 42.0821 20.9374 42.7277C24.4002 43.0799 28.2151 47.2471 28.802 51.2969C29.565 56.4031 26.9826 62.2723 23.5198 65.4416C21.7591 67.085 19.5874 67.9066 17.2398 68.1414Z" fill="#161614"/>
<path d="M52.2198 60.1597C52.6307 59.9249 53.0414 59.7489 53.5109 59.5142C58.7933 56.9904 67.2452 54.0558 74.5818 53.4101C75.9904 53.2928 77.223 53.8798 78.0447 54.8189C78.9837 55.8753 79.3946 57.4012 78.925 58.9272C78.8663 59.0446 78.8664 59.162 78.8077 59.2793C78.2795 61.0401 77.5751 62.6835 76.7534 64.2682C76.1078 65.5594 75.3447 66.7332 74.4643 67.8483C74.1708 68.2005 73.8187 68.5527 73.4079 68.8462C71.6471 70.2548 69.2407 70.7243 67.0104 70.1374L55.8588 67.0267L55.5652 66.968L54.7436 65.4421L54.0979 64.2094L53.9218 63.9161L53.3348 62.7421L53.1588 62.39L52.6306 61.3336L52.2198 60.1597Z" fill="#A64328"/>
<g opacity="0.3">
<path opacity="0.3" d="M52.2201 60.1596C52.6309 59.9248 53.0416 59.7488 53.5111 59.5141L78.0444 54.8188L58.0305 60.864L53.2177 62.3313L52.6895 61.2747L52.2201 60.1596Z" fill="#161614"/>
<path opacity="0.3" d="M52.7483 61.2748L58.0893 60.8641L78.8662 59.2793L58.5 62.9769L54.0395 63.7987L53.4525 62.6248L53.2765 62.3314L52.7483 61.2748Z" fill="#161614"/>
<path opacity="0.3" d="M53.4519 62.6245L58.4993 62.9767L76.811 64.2679L58.9102 65.1483L54.8604 65.3831L54.2149 64.1506L54.0388 63.7985L53.4519 62.6245Z" fill="#161614"/>
<path opacity="0.3" d="M54.2743 63.9746L58.9111 65.1484L73.4668 68.8461L55.9177 66.9679L55.6831 66.9093L54.8613 65.3832L54.2158 64.1507L54.2743 63.9746Z" fill="#161614"/>
</g>
<path opacity="0.3" d="M12.2509 49.7124C12.2509 51.884 14.0119 53.7035 16.2423 53.7035C18.4726 53.7035 20.2334 51.9427 20.2334 49.7124C20.2334 47.4821 18.4726 45.7214 16.2423 45.7214C14.0119 45.7214 12.2509 47.4821 12.2509 49.7124Z" fill="#161614"/>
<path d="M12.8381 49.1842C12.8381 50.7101 14.0707 51.8841 15.538 51.8841C17.064 51.8841 18.2378 50.6515 18.2378 49.1842C18.2378 47.6582 17.0053 46.4844 15.538 46.4844C14.012 46.4844 12.8381 47.7169 12.8381 49.1842Z" fill="#343433"/>
<path d="M13.3077 48.5972C13.3077 49.1841 13.7773 49.7124 14.4229 49.7124C15.0098 49.7124 15.5381 49.2428 15.5381 48.5972C15.5381 48.0103 15.0685 47.4822 14.4229 47.4822C13.8359 47.4822 13.3077 47.9516 13.3077 48.5972Z" fill="white"/>
<path opacity="0.2" d="M0.218618 54.3489C0.159926 54.5837 0.159868 54.7599 0.159868 54.9946C0.92287 55.6403 1.62721 56.2857 2.39021 56.8726L21.8174 64.5026C20.5848 57.9879 12.8374 52.3534 4.73787 47.7168C4.03356 48.245 3.32933 48.832 2.8011 49.4776C9.02249 53.0578 14.5983 56.9901 19.1176 61.5093C14.1287 58.4573 6.5574 56.2271 0.218618 54.3489Z" fill="#161614"/>
<path opacity="0.5" d="M40.4821 33.8652L51.2227 45.3687C52.1031 46.3078 53.6291 46.0144 54.04 44.8405C56.0355 39.3822 57.3267 33.689 58.031 27.9372L69.5346 51.1206C70.4736 52.9988 73.2321 52.5878 73.5256 50.4749L77.1059 26.7633C84.5598 36.154 89.8421 47.1882 92.5419 58.8092C93.0115 60.6874 95.6526 60.6286 96.0047 58.7505C96.2982 57.2832 96.5329 55.816 96.8263 54.4073C98.411 46.0144 100.054 37.504 103.224 29.5806C107.274 38.5018 110.56 47.8339 112.967 57.3419C113.495 59.5135 116.488 59.807 117.427 57.6941C118.953 54.2899 120.01 50.7098 120.069 46.8948C120.127 44.7819 120.538 42.669 121.242 40.6735C121.77 39.2062 121.184 38.0909 122.768 38.1496C123.942 38.2083 124.999 38.9126 125.644 39.8517C130.046 46.7186 133.274 54.2899 135.094 62.272C135.505 64.0915 138.087 64.1502 138.556 62.3308C139.965 56.8724 140.845 51.238 141.198 45.6036C145.013 50.1815 148.299 55.229 150.94 60.6287C152.056 62.8003 155.166 62.859 156.34 60.6874C158.042 57.5181 159.744 54.5833 160.683 54.1138C162.503 54.7594 164.557 58.1636 164.968 60.0417C165.379 61.9199 164.674 63.974 166.611 63.8567C168.959 63.6806 169.135 53.7029 169.546 52.4704C143.545 53.0573 121.829 25.1201 72.5279 25.5896C55.3898 25.5896 47.936 29.9915 40.4821 33.8652Z" fill="#955B4A"/>
</svg>
