<svg width="17" height="2137" viewBox="0 0 17 2137" fill="none" xmlns="http://www.w3.org/2000/svg">
<path d="M1.94385 1989.7V2101.25H2.55341V1989.8L1.94385 1989.7Z" fill="white"/>
<path d="M2.36714 2030.22C2.06284 2033.35 1.90345 2035.9 2.01937 2035.92C2.1353 2035.93 2.47582 2033.4 2.78737 2030.27C3.09167 2027.14 3.25106 2024.59 3.13514 2024.57C3.01922 2024.57 2.67869 2027.09 2.36714 2030.22Z" fill="#3C3C3B"/>
<path d="M1.00491 2030.59C0.823781 2032.44 1.35993 2034.01 2.20037 2034.09C3.04082 2034.17 3.86677 2032.74 4.0479 2030.89C4.22903 2029.04 3.69289 2027.48 2.85245 2027.4C2.01925 2027.31 1.18604 2028.75 1.00491 2030.59Z" fill="white"/>
<path d="M1.01221 2030.57C1.20058 2028.74 2.01929 2027.32 2.85974 2027.4C3.70018 2027.48 4.22908 2029.04 4.0552 2030.87L1.01221 2030.57Z" fill="#E6332A"/>
<path d="M2.00624 23.901C2.00624 20.6808 1.96272 17.6906 1.89744 15.6205C1.85392 14.2405 1.77777 13.5505 1.75601 13.5505L1.38612 14.0105L1.35348 1.12987L1.72338 0.669746C1.96272 0.209723 2.22383 2.96985 2.38701 8.03011C2.53932 12.4003 2.61548 17.9207 2.61548 23.901V1997.17L2.00624 2000.62V23.901Z" fill="white"/>
<path d="M2.34522 2111.03C1.02397 2111.03 0 2109.61 0 2107.76C0 2105.95 1.02397 2104.49 2.34522 2104.49C3.66648 2104.49 4.69045 2105.91 4.69045 2107.76C4.69045 2109.61 3.66648 2111.03 2.34522 2111.03ZM2.34522 2105.98C1.98188 2105.98 1.45339 2106.67 1.45339 2107.8C1.45339 2108.89 1.98188 2109.61 2.34522 2109.61C2.70857 2109.61 3.23708 2108.92 3.23708 2107.8C3.23708 2106.67 2.70857 2105.98 2.34522 2105.98Z" fill="#706F6F"/>
<path d="M1.61841 2092.47V2107.17C1.61841 2107.57 1.94872 2107.9 2.34509 2107.9C2.74146 2107.9 3.07177 2107.57 3.07177 2107.17V2092.47H1.61841Z" fill="#706F6F"/>
<path d="M3.66652 2104.66C3.60046 2104.66 3.56742 2104.66 3.50135 2104.66L1.09006 2104.16C0.693685 2104.07 0.46247 2103.7 0.528533 2103.31C0.594596 2102.91 0.990957 2102.68 1.38734 2102.74L3.79865 2103.24C4.19503 2103.34 4.42624 2103.7 4.36018 2104.1C4.29412 2104.43 3.99684 2104.66 3.66652 2104.66Z" fill="#706F6F"/>
<path d="M3.66652 2103.17C3.60046 2103.17 3.56742 2103.17 3.50135 2103.17L1.09006 2102.68C0.693685 2102.58 0.46247 2102.22 0.528533 2101.82C0.594596 2101.42 0.990957 2101.19 1.38734 2101.26L3.79865 2101.75C4.19503 2101.85 4.42624 2102.22 4.36018 2102.61C4.29412 2102.94 3.99684 2103.17 3.66652 2103.17Z" fill="#706F6F"/>
<path d="M3.66652 2101.69C3.60046 2101.69 3.56742 2101.69 3.50135 2101.69L1.09006 2101.19C0.693685 2101.09 0.46247 2100.73 0.528533 2100.33C0.594596 2099.94 0.990957 2099.7 1.38734 2099.77L3.79865 2100.27C4.19503 2100.37 4.42624 2100.73 4.36018 2101.13C4.29412 2101.46 3.99684 2101.69 3.66652 2101.69Z" fill="#706F6F"/>
<path d="M10.8012 2134.29C6.70527 2134.29 3.36909 2130.95 3.36909 2126.86V2109.58H1.38721V2126.86C1.38721 2132.04 5.61524 2136.3 10.9333 2136.3C11.0324 2136.3 11.0985 2136.27 11.1976 2136.27L10.9994 2134.29C10.9003 2134.29 10.8672 2134.29 10.8012 2134.29Z" fill="#706F6F"/>
<path d="M12.75 2127.19L15.888 2124.02V2121.94V2118.37L12.75 2127.19Z" fill="#706F6F"/>
<path d="M16.2185 2130.95L15.8881 2121.94L14.8311 2121.97L14.2366 2130.99C14.2366 2132.74 12.8492 2134.19 10.9995 2134.29C9.9755 2134.36 9.84336 2136.4 11.1977 2136.27C13.9723 2136.11 16.2185 2133.83 16.2185 2130.95Z" fill="#706F6F"/>
</svg>
