<svg width="281" height="281" viewBox="0 0 281 281" fill="none" xmlns="http://www.w3.org/2000/svg">
<circle cx="140.5" cy="140.5" r="139" fill="#F4D09A" stroke="black" stroke-width="3"/>
<path d="M163.89 70.4757C163.89 77.025 161.84 82.2797 157.74 86.2397C153.792 90.0474 148.478 91.9513 141.797 91.9513C135.268 91.9513 130.03 90.0474 126.082 86.2397C122.286 82.2797 120.388 77.025 120.388 70.4757C120.388 64.0787 122.362 58.9001 126.31 54.9401C130.409 50.98 135.724 49 142.253 49C148.782 49 154.02 50.98 157.968 54.9401C161.916 58.9001 163.89 64.0787 163.89 70.4757ZM159.562 207.326C159.562 211.743 160.625 214.941 162.751 216.921C165.028 218.749 168.445 219.663 173 219.663C173 224.385 171.254 228.497 167.762 232H116.288C112.796 228.497 111.05 224.385 111.05 219.663C115.605 219.663 118.87 218.749 120.843 216.921C122.969 214.941 124.032 211.667 124.032 207.097V140.843C124.032 136.578 122.969 133.532 120.843 131.704C118.87 129.876 114.922 128.963 109 128.963V118.91C112.644 116.625 118.794 114.265 127.448 111.828C136.255 109.238 143.695 107.944 149.769 107.944C153.261 107.944 155.766 108.782 157.285 110.457C158.803 111.98 159.562 114.645 159.562 118.453V207.326Z" fill="black"/>
</svg>
