<svg width="221" height="119" viewBox="0 0 221 119" fill="none" xmlns="http://www.w3.org/2000/svg">
<path d="M151.726 40.738L151.654 40.7315C149.724 40.5484 148.017 41.961 147.834 43.8903L146.284 56.7415C147.632 59.4491 149.286 61.3392 151.817 62.0455L154.884 44.5574C155.061 42.6281 153.648 40.9211 151.726 40.738Z" fill="#BEB4B4"/>
<path d="M159.724 52.7586L150.189 51.3525L152.072 38.619L160.98 37.1671L159.724 52.7586Z" fill="#634E42"/>
<path d="M130.516 79.1608L130.536 79.1412L133.714 75.7469C133.865 75.5834 133.924 75.3806 133.917 75.1779C133.904 74.9752 133.819 74.779 133.655 74.6351L133.649 74.622C133.322 74.3277 132.825 74.3539 132.531 74.6809L129.333 78.0948C129.313 78.1144 129.293 78.1406 129.28 78.1602C129.045 78.4806 129.091 78.9384 129.391 79.2066L129.398 79.2197C129.725 79.514 130.222 79.4878 130.516 79.1608Z" fill="#FFCF9F"/>
<path d="M135.742 74.6743L135.729 74.6612C135.389 74.3866 134.892 74.4323 134.617 74.7724L130.536 79.7363C130.261 80.0764 130.307 80.5735 130.647 80.8481L130.66 80.8612C131 81.1359 131.497 81.0901 131.772 80.75L135.853 75.7861C136.128 75.4526 136.082 74.9555 135.742 74.6743Z" fill="#FFCF9F"/>
<path d="M136.925 75.6488L136.912 75.6423C136.566 75.3741 136.069 75.446 135.807 75.7927L132.269 80.4165C132.001 80.7631 132.073 81.2602 132.419 81.5218L132.432 81.5283C132.779 81.7964 133.276 81.7245 133.538 81.3779L137.076 76.7541C137.337 76.4074 137.272 75.9104 136.925 75.6488Z" fill="#FFCF9F"/>
<path d="M138.005 76.5448L137.992 76.5383C137.665 76.329 137.233 76.4271 137.024 76.7541L134.761 80.3119C134.551 80.6389 134.65 81.0705 134.977 81.2798L134.99 81.2864C135.317 81.4956 135.748 81.3976 135.958 81.0706L138.22 77.5128C138.43 77.1858 138.332 76.7541 138.005 76.5448Z" fill="#FFCF9F"/>
<path d="M142.733 63.7786L137.324 70.3514C136.54 70.0702 135.683 70.1683 135.048 70.6326C134.905 70.7372 134.767 70.8615 134.65 71.0054L133.584 72.3003C133.714 72.9739 133.224 73.8372 132.491 74.7659C134.172 76.2636 135.912 77.225 137.933 77.9313L140.006 75.4134C140.464 74.8509 140.601 74.125 140.444 73.4318L146.101 66.5516L142.733 63.7786Z" fill="#F5C08C"/>
<path d="M133.852 70.6783C132.995 70.9857 131 71.5482 130.366 71.6986C129.908 71.8098 129.725 72.3722 129.888 72.817C129.888 72.8235 129.895 72.83 129.895 72.83C130.058 73.2748 130.523 73.3859 131.013 73.3009C131.51 73.2094 133.394 72.7385 133.884 72.5554L133.852 70.6783Z" fill="#FFCF9F"/>
<path d="M137.324 70.3579C136.442 69.8543 135.081 70.1813 134.048 70.5868C133.466 70.8223 133.041 71.3259 132.91 71.9341C132.91 71.9341 135.186 75.4984 138.044 73.1047C138.044 73.1047 138.044 73.0982 138.05 73.0982L144.512 65.2436L142.733 63.7786L137.324 70.3579Z" fill="#FFCF9F"/>
<path d="M141.262 74.1184L136.278 69.8412L146.376 56.4537L152.576 60.4497L141.262 74.1184Z" fill="#BEB4B4"/>
<path d="M169.501 42.6412C169.26 42.1114 168.893 41.4705 168.344 40.8492C167.553 39.9401 161.81 37.5203 160.136 36.899L154.178 51.0778L152.896 38.3313C152.144 38.534 151.425 38.7629 150.745 39.0245C150.457 39.1291 150.195 39.2599 149.953 39.4234C148.704 40.241 147.985 41.6863 148.161 43.2167L148.423 47.6378L149.358 62.9676L149.339 65.0474L145.787 68.8864L125.749 70.1879L124.669 73.4513L121.923 81.718L165.989 82.4178L166.205 65.2436C166.212 65.2305 168.906 48.7103 169.94 43.8641C169.94 43.8445 169.835 43.3475 169.501 42.6412Z" fill="#616057"/>
<path opacity="0.1" d="M169.501 42.6412L168.573 46.7287C166.663 48.4226 158.874 55.8194 161.111 59.8219L146.395 69.0434C145.395 68.4875 144.218 68.252 143.08 68.4024C141.759 68.579 140.523 69.2723 139.672 70.2991C139.358 70.6849 139.09 71.1362 139.064 71.6332C139.025 72.4442 139.627 73.1309 140.196 73.7195C140.706 74.2493 141.222 74.779 141.837 75.1845C142.452 75.5834 143.184 75.8516 143.917 75.7796C144.525 75.7208 145.068 75.4395 145.565 75.0733C146.48 75.7927 147.403 76.5121 148.318 77.2315L145.094 77.7678C137.867 77.1727 131.785 75.0799 124.669 73.4448L121.923 81.7115L165.989 82.4112L166.205 65.2371C166.212 65.224 168.906 48.7038 169.94 43.8576C169.94 43.8445 169.835 43.3475 169.501 42.6412ZM164.361 65.2894L164.165 65.9826L162.759 70.7634L162.321 72.2611L160.417 70.6588L161.477 75.1649L158.593 71.1558L159.554 75.3545L148.933 77.1269C149.574 76.4336 150.215 75.7404 150.856 75.0472C149.875 74.367 148.894 73.6868 147.913 73.0001C147.9 72.9936 147.893 72.987 147.88 72.9805C148.56 72.006 149.999 70.4756 150.051 70.4756C150.051 70.4756 165.002 62.4902 165.015 62.4183L164.446 64.9231L164.361 65.2894Z" fill="#1D1D1B"/>
<path d="M152.275 31.9024L152.752 36.6113L152.824 37.6446C151.464 42.2357 158.795 40.6792 160.149 36.899L159.973 34.8193L159.698 32.0986L159.6 31.1569L158.854 31.2353L157.409 31.3792L156.5 31.4773L152.275 31.9024Z" fill="#F2C394"/>
<path d="M163.334 37.978L162.065 41.4116L159.829 42.1571L161.418 43.7529L154.237 51.4833L153.851 51.8887L154.191 51.0712L159.809 37.566L160.162 36.7224L163.334 37.978Z" fill="#848484"/>
<path d="M150.378 44.3023L151.706 43.3998L150.123 42.0722L150.058 39.7177L150.045 39.1422L152.903 37.6838L153.008 38.6386L154.296 51.3787L154.335 51.7907L154.603 54.459L150.378 44.3023Z" fill="#848484"/>
<path d="M161.111 27.0038C161.111 27.0889 161.111 27.1739 161.104 27.2458V27.4159C161.104 27.4551 161.098 27.4943 161.098 27.5401C161.098 27.5924 161.098 27.6513 161.091 27.6971C161.071 28.2922 160.993 28.7827 160.869 29.1817C160.862 29.2013 160.856 29.234 160.849 29.2536C160.679 29.7507 160.444 30.1234 160.149 30.3981C159.868 30.6597 159.548 30.8559 159.181 31.0129C158.789 31.1895 158.351 31.3334 157.88 31.4969H157.873C157.742 31.5426 157.612 31.595 157.468 31.6407C157.468 31.6407 157.468 31.6407 157.461 31.6407C157.33 31.6865 157.2 31.7388 157.056 31.7977L157.049 31.8042C157.036 31.8042 157.023 31.8108 157.003 31.8173C156.997 31.8173 156.997 31.8173 156.997 31.8173C156.99 31.8173 156.99 31.8173 156.99 31.8173V31.8239C156.99 31.8304 156.99 31.8304 156.99 31.8369C156.833 34.7865 155.27 36.5 153.956 37.4222C152.975 38.1154 152.131 38.3705 152.131 38.3705C150.947 38.5667 150.025 37.7753 149.594 36.3038C149.548 36.1665 149.515 36.0226 149.482 35.8787L149.345 35.1462L149.083 33.7336H149.077L148.357 33.6747C148.135 33.6616 147.945 33.5635 147.815 33.4196C147.638 33.2431 147.54 32.988 147.592 32.7198C147.756 31.765 148.011 30.8952 148.384 30.1561C148.384 30.1561 148.357 30.0319 148.312 29.8161C148.227 29.4106 148.076 28.6781 147.959 27.926C147.815 27.03 147.71 26.0948 147.795 25.637C147.834 25.4015 148.07 25.1726 148.135 24.9437V24.9372C148.364 24.1851 148.73 23.4591 149.253 22.8182C149.43 22.6024 149.62 22.3996 149.836 22.21C150.679 21.4448 151.804 20.8693 153.249 20.6273C153.387 20.6077 153.524 20.588 153.661 20.5684C154.198 20.5096 154.741 20.4965 155.257 20.5292C155.571 20.5488 155.885 20.5946 156.186 20.6469C156.317 20.6731 156.461 20.7058 156.591 20.745C156.755 20.7842 156.905 20.8235 157.062 20.8758C157.442 21.0001 157.808 21.1636 158.141 21.3467C158.298 21.4317 158.449 21.5298 158.599 21.6344C158.717 21.7129 158.828 21.7979 158.939 21.8895C158.979 21.9091 159.018 21.9484 159.057 21.9876C159.155 22.0595 159.24 22.1446 159.332 22.2361C159.384 22.2754 159.43 22.3212 159.476 22.38C159.58 22.4847 159.665 22.5828 159.757 22.6939C159.783 22.7136 159.803 22.7463 159.809 22.7659C160.038 23.0471 160.228 23.3479 160.398 23.6749C160.476 23.8319 160.555 23.9954 160.627 24.1654C160.64 24.1916 160.646 24.2309 160.666 24.2636C160.725 24.4336 160.784 24.6102 160.836 24.7868C160.842 24.8064 160.849 24.826 160.856 24.8391C160.914 25.0745 160.973 25.3165 161.019 25.565C161.026 25.5977 161.026 25.6239 161.032 25.6566C161.039 25.722 161.052 25.7939 161.058 25.8593C161.084 26.1209 161.117 26.4021 161.124 26.6899C161.104 26.8207 161.104 26.9123 161.111 27.0038Z" fill="#FFCF9F"/>
<path d="M161.562 32.5891C161.575 33.1123 160.273 33.5178 160.273 33.5178C159.665 33.6747 159.116 33.9559 158.625 33.9559C158.429 33.9559 158.233 33.9102 158.05 33.7859C157.67 33.5439 157.317 32.9749 156.984 31.8435C156.984 31.837 156.977 31.8304 156.977 31.8239C156.977 31.8174 156.971 31.8108 156.971 31.8043C156.971 31.7977 156.971 31.7912 156.964 31.7847C156.905 31.5558 156.84 31.3138 156.781 31.0325C156.735 30.8494 156.663 30.6598 156.657 30.4505C156.618 29.9273 156.441 29.6068 156.206 29.4237C156.179 29.4041 156.153 29.3779 156.134 29.3714C155.964 29.2536 155.767 29.1948 155.558 29.1686C155.238 29.1294 154.911 29.1686 154.662 29.1882C154.662 29.1228 154.656 29.0574 154.656 28.992V28.9855C154.636 28.4623 154.603 28.0045 154.551 27.599C154.158 23.8189 152.752 24.2178 148.122 24.9568C148.181 24.7737 148.246 24.584 148.318 24.4009C148.39 24.2178 148.475 24.0412 148.567 23.8581C148.665 23.6815 148.763 23.5049 148.874 23.3349C148.985 23.1648 149.103 23.0013 149.234 22.8444C149.319 22.7332 149.41 22.6286 149.515 22.5305C150.385 21.6214 151.601 20.9281 153.23 20.6535C153.367 20.6338 153.504 20.6142 153.642 20.5946C154.178 20.5357 154.721 20.5227 155.238 20.5554C155.552 20.575 155.865 20.6208 156.166 20.6731C156.297 20.6992 156.441 20.7319 156.572 20.7712C156.735 20.8104 156.886 20.8497 157.043 20.902C157.422 21.0263 157.788 21.1897 158.122 21.3729C158.279 21.4579 158.429 21.556 158.58 21.6606C158.638 21.7064 158.697 21.7391 158.75 21.7849C158.946 21.9222 159.129 22.0792 159.305 22.2623C159.358 22.3016 159.404 22.3473 159.449 22.4062C159.547 22.5043 159.639 22.6089 159.731 22.7201C159.757 22.7397 159.776 22.7659 159.776 22.7855C159.796 22.7855 159.783 22.7921 159.783 22.7921C159.901 22.9294 160.005 23.0798 160.097 23.2237C160.195 23.3807 160.28 23.5311 160.372 23.7011C160.502 23.9562 160.62 24.2309 160.718 24.5252C160.757 24.6364 160.79 24.7475 160.829 24.8653C160.888 25.1007 160.947 25.3427 160.993 25.5912C160.999 25.6239 160.999 25.6501 161.006 25.6828C161.104 26.206 161.189 26.7226 161.254 27.2393C161.353 27.8802 161.418 28.5212 161.47 29.149C161.562 30.2935 161.588 31.4446 161.562 32.5891Z" fill="#BD7454"/>
<path d="M158.377 29.1555C158.514 30.5289 158.03 32.1835 156.866 31.7453C156.068 31.4445 155.754 30.7578 155.578 29.6917C155.401 28.6257 155.977 27.8932 156.775 27.6447C157.618 27.3962 158.272 28.0829 158.377 29.1555Z" fill="#FFCF9F"/>
<path d="M158.096 33.6027C157.376 36.8662 155.015 39.6131 151.935 40.3325C151.013 40.5548 150.097 39.927 149.947 38.9918L149.077 33.7401C150.352 33.4065 151.556 33.5308 152.589 34.5968L152.314 33.2496C152.19 32.6348 152.432 32.007 152.929 31.6276C153.675 31.0521 154.276 30.2673 154.656 28.9724L155.957 27.9652C156.035 29.1032 156.362 30.8755 156.984 31.8239C157.37 32.4125 157.585 33.0599 158.096 33.6027Z" fill="#FFCF9F"/>
<path d="M151.693 35.362V35.3751C151.745 35.6955 151.529 35.9964 151.209 36.0487L149.502 36.3299L149.306 35.1593L151.013 34.8781C151.333 34.8257 151.641 35.0415 151.693 35.362Z" fill="#F2C394"/>
<path d="M153.903 17.4291C150.058 17.6318 147.102 20.9149 147.305 24.767L161.241 24.028C161.032 20.1825 157.749 17.2263 153.903 17.4291Z" fill="#928A8B"/>
<path d="M161.643 22.9923L146.779 23.7768L147.002 27.9958L161.866 27.2113L161.643 22.9923Z" fill="#DCC5C5"/>
<path d="M150.221 74.3147C149.613 75.021 148.998 75.7338 148.39 76.4402C142.269 71.1558 131.674 62.4772 125.199 57.6899C125.755 56.9378 126.311 56.1856 126.867 55.4335C133.4 60.2601 144.048 68.9845 150.221 74.3147Z" fill="#3C3C3B"/>
<path d="M126.978 55.5119C126.422 56.264 125.866 57.0161 125.31 57.7682C121.085 54.6421 116.789 51.6206 112.42 48.7103C112.937 47.932 113.46 47.1538 113.976 46.3755C118.378 49.312 122.714 52.3531 126.978 55.5119Z" fill="#00A683"/>
<path d="M113.859 46.5456C113.414 47.2127 112.976 47.8732 112.531 48.5403C104.003 42.8505 95.213 37.5726 86.1942 32.7264C86.5736 32.0267 86.9529 31.3203 87.3257 30.614C96.4098 35.4929 105.265 40.81 113.859 46.5456Z" fill="#575756"/>
<path d="M87.3061 31.0456C87.051 31.523 86.796 31.9939 86.5409 32.4713C77.5156 27.6121 68.268 23.191 58.8176 19.2081C59.0269 18.7111 59.2362 18.214 59.4455 17.717C68.9416 21.713 78.2416 26.1602 87.3061 31.0456Z" fill="#575756"/>
<path d="M59.4912 18.0898C59.367 18.3906 59.2362 18.6849 59.1119 18.9858C49.655 14.9963 40.0084 11.4582 30.1918 8.37778C30.2899 8.0704 30.388 7.75648 30.4795 7.4491C40.3289 10.536 50.0081 14.0873 59.4912 18.0898Z" fill="#575756"/>
<path d="M30.6038 7.69109C30.5449 7.87421 30.4926 8.0508 30.4338 8.23392C20.6302 5.08815 10.6566 2.40674 0.545715 0.196203C0.558795 0.130803 0.571874 0.0654005 0.584954 0C10.7286 2.09282 20.7479 4.65651 30.6038 7.69109Z" fill="#575756"/>
<path d="M87.378 34.2895L87.3388 34.2568L87.2865 34.2438C75.7367 31.5296 66.1686 26.6769 59.6286 20.2023L59.5763 20.1499L59.5043 20.1434C49.7727 19.5613 38.7854 17.8217 31.127 9.31961C30.8523 9.01876 29.7798 9.00568 27.6281 9.10378C27.1049 9.1234 26.6536 9.14303 26.4705 9.12995C24.8289 9.01877 23.2005 8.84218 21.6112 8.59366C18.1712 8.05738 14.8357 7.18755 11.7031 6.01688C10.1138 5.42173 8.55076 4.74157 7.05962 3.98947C6.49064 3.7017 5.90203 3.30929 5.27419 2.89073C4.28664 2.23019 3.27293 1.55002 2.27884 1.2688C1.88644 1.15762 1.51365 1.14454 1.16049 1.19686C1.17357 1.32766 1.18011 1.45846 1.19319 1.58926C1.50711 1.54348 1.82757 1.55002 2.1742 1.64812C3.10943 1.90972 4.10352 2.57681 5.05836 3.21773C5.69275 3.64284 6.29444 4.04832 6.88304 4.34262C8.38725 5.10127 9.95686 5.78797 11.5592 6.38312C14.718 7.56687 18.0796 8.44324 21.5458 8.98607C23.1416 9.23459 24.7897 9.4177 26.4378 9.52888C26.6471 9.54196 27.0853 9.52235 27.6412 9.50273C28.6026 9.46349 30.6038 9.37847 30.8393 9.59429C38.5762 18.1814 49.6158 19.9537 59.4128 20.5423C65.9921 27.0301 75.5863 31.8959 87.1557 34.6231L111.838 57.3367L112.099 57.0489L87.378 34.2895Z" fill="white"/>
<path d="M118.749 52.1356L117.138 54.2222L118.852 55.5449L120.463 53.4583L118.749 52.1356Z" fill="#00755D"/>
<path d="M112.917 61.2606C114.964 62.8433 117.907 62.464 119.49 60.4169C121.072 58.3699 120.693 55.4269 118.646 53.8442C116.599 52.2615 113.656 52.6408 112.073 54.6878C110.491 56.7349 110.863 59.6779 112.917 61.2606Z" fill="#00A683"/>
<path d="M113.976 59.8806C115.265 60.8747 117.116 60.6327 118.11 59.3509C119.104 58.0625 118.862 56.2117 117.58 55.2176C116.292 54.2235 114.441 54.4655 113.447 55.7473C112.453 57.0357 112.688 58.8865 113.976 59.8806Z" fill="#EDEDED"/>
<path d="M115.356 58.0887C115.657 58.3176 116.082 58.2653 116.311 57.9644C116.54 57.6636 116.488 57.2385 116.187 57.0096C115.886 56.7807 115.461 56.833 115.232 57.1338C115.003 57.4281 115.062 57.8598 115.356 58.0887Z" fill="#3C3C3B"/>
<path d="M111.432 58.9455C111.942 59.3379 112.681 59.2463 113.074 58.7362C113.466 58.226 113.375 57.487 112.865 57.0946C112.354 56.7022 111.615 56.7938 111.223 57.3039C110.824 57.814 110.922 58.5465 111.432 58.9455Z" fill="#3C3C3B"/>
<path d="M111.864 58.383C112.067 58.5399 112.361 58.5007 112.511 58.2979C112.668 58.0952 112.629 57.8009 112.426 57.6505C112.224 57.4935 111.929 57.5327 111.779 57.7355C111.622 57.9382 111.661 58.226 111.864 58.383Z" fill="#F6F6F6"/>
<path d="M86.9856 35.519C86.8744 35.5451 86.7502 35.5255 86.639 35.4666C86.4036 35.3358 86.3251 35.035 86.4624 34.8061L87.3192 33.3215C87.45 33.0861 87.7508 33.0076 87.9797 33.1449C88.2151 33.2757 88.2936 33.5766 88.1563 33.8055L87.2995 35.2901C87.2341 35.4078 87.1164 35.4928 86.9856 35.519Z" fill="#EDEDED"/>
<path d="M59.2623 21.3925C59.1511 21.4186 59.0269 21.399 58.9157 21.3402C58.6803 21.2094 58.6018 20.9085 58.7391 20.6796L59.5959 19.195C59.7267 18.9596 60.0275 18.8811 60.2564 19.0184C60.4918 19.1492 60.5703 19.4501 60.433 19.679L59.5762 21.1636C59.5108 21.2878 59.3931 21.3663 59.2623 21.3925Z" fill="#EDEDED"/>
<path d="M30.9635 10.5032C30.9112 10.5163 30.8589 10.5163 30.8066 10.4967C30.6365 10.4444 30.5384 10.2678 30.5842 10.0978L31.0028 8.65896C31.0551 8.48891 31.2317 8.39081 31.4017 8.43659C31.5718 8.48891 31.6699 8.6655 31.6241 8.84208L31.2055 10.2809C31.1728 10.3921 31.0747 10.4771 30.9635 10.5032Z" fill="#EDEDED"/>
<path d="M1.30438 1.81809C1.26514 1.82463 1.21935 1.83117 1.17357 1.81809C0.996992 1.78539 0.879271 1.61535 0.918511 1.43877L1.13433 0.294263C1.16704 0.117683 1.33708 0.00650299 1.51366 0.0392031C1.69024 0.0719031 1.80796 0.241945 1.76872 0.418525L1.5529 1.56303C1.52674 1.69383 1.4221 1.79193 1.30438 1.81809Z" fill="#EDEDED"/>
<path d="M141.837 70.3253C142.216 70.0702 142.315 69.5601 142.059 69.1873L141.974 69.063C141.85 68.8799 141.667 68.7556 141.451 68.7164C141.235 68.6772 141.013 68.7164 140.837 68.8407L139.457 69.7628C139.103 69.9982 139.012 70.4757 139.247 70.8288L139.417 71.0839C139.64 71.4109 140.084 71.5025 140.411 71.2801L141.837 70.3253Z" fill="#FFCF9F"/>
<path d="M143.021 71.6855C143.204 71.5678 143.335 71.3782 143.381 71.1623C143.426 70.9465 143.381 70.7242 143.256 70.541L143.171 70.4168C142.923 70.044 142.419 69.9393 142.04 70.1879L140.281 71.3258C140.111 71.437 139.986 71.6136 139.947 71.8163C139.908 72.0191 139.947 72.2284 140.058 72.3984L140.228 72.6535C140.444 72.9805 140.882 73.0655 141.209 72.8562L143.021 71.6855Z" fill="#FFCF9F"/>
<path d="M147.475 71.1427C148.063 70.2336 147.874 69.1284 147.331 68.3828L153.112 65.2828L149.796 62.0389L144.721 66.2311L143.544 66.1199C142.648 65.9368 141.693 66.7347 141.477 66.9767L142.125 67.5064L140.81 68.8275L139.921 69.8805C141.726 71.1558 143.282 73.229 145.33 73.6868L147.475 71.1427Z" fill="#FFCF9F"/>
<path d="M145.336 73.6867C145.611 73.4709 145.643 73.0589 145.408 72.7646L145.33 72.6665C145.094 72.3722 144.689 72.3133 144.414 72.5291L143.413 73.3205C143.158 73.5232 143.126 73.9091 143.348 74.1838L143.505 74.3865C143.708 74.6416 144.067 74.7004 144.303 74.5108L145.336 73.6867Z" fill="#FFCF9F"/>
<path d="M144.139 73.0197C144.519 72.7646 144.617 72.2545 144.362 71.8817L144.277 71.7575C144.152 71.5744 143.969 71.4501 143.753 71.4109C143.538 71.3716 143.315 71.4109 143.139 71.5351L141.759 72.4573C141.405 72.6927 141.314 73.1701 141.549 73.5233L141.719 73.7784C141.824 73.9353 141.988 74.0465 142.177 74.0792C142.367 74.1185 142.557 74.0792 142.714 73.9746L144.139 73.0197Z" fill="#FFCF9F"/>
<path d="M167.454 40.4306L167.389 40.411C165.532 39.8616 163.583 40.9277 163.04 42.785L159.077 55.1065C159.888 58.0234 161.15 60.1881 163.498 61.3653L169.828 44.7732C170.371 42.9224 169.312 40.98 167.454 40.4306Z" fill="#E0DCDC"/>
<path d="M148.384 69.5861L144.518 65.2435L159.07 55.1064L163.491 61.3653L148.384 69.5861Z" fill="#E0DCDC"/>
<path opacity="0.1" d="M161.438 28.7959C161.392 28.2792 161.333 27.7625 161.261 27.2393L161.104 27.2459L154.551 27.5925L147.945 27.9391C147.991 28.2334 148.044 28.5277 148.096 28.7959H161.438Z" fill="#1D1D1B"/>
<path d="M1.40984 102.818C0.615563 102.818 0 101.964 0 100.852C0 99.7603 0.615563 98.8866 1.40984 98.8866C2.20412 98.8866 2.81968 99.7404 2.81968 100.852C2.81968 101.964 2.20412 102.818 1.40984 102.818ZM1.40984 99.7801C1.19141 99.7801 0.87371 100.197 0.87371 100.872C0.87371 101.528 1.19141 101.964 1.40984 101.964C1.62827 101.964 1.94599 101.547 1.94599 100.872C1.94599 100.197 1.62827 99.7801 1.40984 99.7801Z" fill="#706F6F"/>
<path d="M0.972931 91.6586V100.495C0.972931 100.733 1.1715 100.932 1.40978 100.932C1.64806 100.932 1.84662 100.733 1.84662 100.495V91.6586H0.972931Z" fill="#706F6F"/>
<path d="M2.20412 98.9859C2.16441 98.9859 2.14454 98.9859 2.10483 98.9859L0.655273 98.688C0.416988 98.6284 0.277992 98.41 0.317706 98.1717C0.357421 97.9334 0.595694 97.7944 0.833979 97.8341L2.28355 98.132C2.52184 98.1916 2.66083 98.41 2.62112 98.6483C2.5814 98.8468 2.40269 98.9859 2.20412 98.9859Z" fill="#706F6F"/>
<path d="M2.20412 98.0923C2.16441 98.0923 2.14454 98.0923 2.10483 98.0923L0.655273 97.7945C0.416988 97.7349 0.277992 97.5165 0.317706 97.2782C0.357421 97.0399 0.595694 96.9009 0.833979 96.9406L2.28355 97.2385C2.52184 97.298 2.66083 97.5165 2.62112 97.7548C2.5814 97.9534 2.40269 98.0923 2.20412 98.0923Z" fill="#706F6F"/>
<path d="M2.20412 97.1988C2.16441 97.1988 2.14454 97.1988 2.10483 97.1988L0.655273 96.9009C0.416988 96.8413 0.277992 96.6229 0.317706 96.3846C0.357421 96.1463 0.595694 96.0072 0.833979 96.047L2.28355 96.3449C2.52184 96.4045 2.66083 96.6229 2.62112 96.8612C2.5814 97.0597 2.40269 97.1988 2.20412 97.1988Z" fill="#706F6F"/>
<path d="M6.4932 116.798C4.03093 116.798 2.02537 114.792 2.02537 112.33V101.945H0.833954V112.33C0.833954 115.447 3.37565 118.009 6.57263 118.009C6.6322 118.009 6.67192 117.989 6.73149 117.989L6.61236 116.798C6.55278 116.798 6.53292 116.798 6.4932 116.798Z" fill="#706F6F"/>
<path d="M7.66476 112.528L9.55117 110.622V109.371V107.227L7.66476 112.528Z" fill="#706F6F"/>
<path d="M9.74978 114.792L9.5512 109.371L8.91577 109.391L8.55834 114.812C8.55834 115.864 7.72435 116.738 6.61236 116.798C5.99679 116.837 5.91735 118.069 6.73149 117.989C8.39949 117.89 9.74978 116.52 9.74978 114.792Z" fill="#706F6F"/>
<path d="M1.18668 87.188V91.9765H1.55312V87.1927L1.18668 87.188Z" fill="white"/>
<path d="M1.44112 88.9278C1.25819 89.0622 1.16237 89.1717 1.23206 89.1723C1.30175 89.1729 1.50645 89.0641 1.69374 88.9297C1.87667 88.7953 1.9725 88.6859 1.90281 88.6852C1.83312 88.6849 1.62841 88.7935 1.44112 88.9278Z" fill="#3C3C3B"/>
<path d="M0.622318 88.9437C0.51343 89.023 0.835738 89.0902 1.34098 89.0936C1.84621 89.097 2.34274 89.0358 2.45163 88.9565C2.56051 88.8772 2.23821 88.81 1.73297 88.8066C1.23209 88.8028 0.731205 88.8644 0.622318 88.9437Z" fill="white"/>
<path d="M0.62735 88.9431C0.740593 88.8644 1.23276 88.8035 1.738 88.8069C2.24324 88.8103 2.56119 88.8772 2.45666 88.9559L0.62735 88.9431Z" fill="#E6332A"/>
<path d="M1.22421 2.80278C1.22421 2.66455 1.19804 2.53619 1.1588 2.44733C1.13264 2.38808 1.08686 2.35847 1.07378 2.35847L0.851422 2.37821L0.831797 1.82529L1.05416 1.80554C1.19805 1.78579 1.35501 1.90427 1.45311 2.12149C1.54467 2.30909 1.59045 2.54606 1.59045 2.80278V87.5089L1.22421 87.657V2.80278Z" fill="white"/>
<path d="M205.824 79.2661V81.9361H204.458L200.922 89.8338C198.741 94.7017 193.885 97.8439 188.556 97.8439H109.528C98.0669 97.8439 87.353 92.2284 80.8775 82.8242C79.4891 80.8062 78.2243 78.7321 77.1057 76.6185C77.3418 76.6185 74.8235 71.7731 74.8235 71.7731C73.289 71.7618 69.4554 71.7506 69.4554 71.7506L70.9955 75.1739C72.5976 78.7377 74.5818 82.234 76.8809 85.573C84.267 96.2925 96.4705 102.689 109.528 102.689H188.556C195.796 102.689 202.389 98.4172 205.352 91.8068L210.973 79.2604H205.824V79.2661Z" fill="#633C13"/>
<path d="M208.308 79.266L206.144 84.1057L205.706 85.0782L204.154 88.5408L203.716 89.5189L203.131 90.8174C202.828 91.475 202.491 92.1158 202.114 92.7173L201.445 93.7066C200.613 94.859 199.629 95.882 198.522 96.7533C198.055 97.1299 197.572 97.4784 197.077 97.7932L197.061 97.8044C194.559 99.3783 191.625 100.261 188.55 100.261H109.528C104.852 100.261 100.282 99.3896 96.0377 97.737C96.0264 97.7257 96.0208 97.7257 96.0096 97.737C95.262 97.4447 94.5649 97.1355 93.8342 96.7982C91.2035 95.5841 88.719 94.0608 86.448 92.2564C86.0489 91.9472 85.6611 91.6268 85.2845 91.2952C83.7218 89.9686 82.2659 88.4902 80.9281 86.8995C80.6639 86.579 80.4053 86.2586 80.1524 85.927C79.7139 85.3649 79.2867 84.7803 78.882 84.1901C78.1344 83.1052 77.4261 82.0147 76.7741 80.9186C76.5717 80.5982 76.375 80.2665 76.1895 79.9461C75.054 78.0068 74.0534 76.0619 73.199 74.1732C119.905 74.1732 164.604 80.3958 193.688 79.2491V79.2603H208.308V79.266Z" fill="#8B6332"/>
<path d="M193.693 81.6774V81.6943H207.224L208.308 79.266L199.511 79.2547C199.511 79.2547 190.343 79.3559 188.595 79.3728C159.534 79.7044 117.252 74.1732 73.2047 74.1732C73.5644 74.977 73.9523 75.7865 74.3682 76.6015C120.647 76.7083 164.857 82.8129 193.693 81.6774Z" fill="#623512"/>
<path d="M206.144 84.1058L194.104 84.1958V84.1564L193.598 84.1733C179.152 84.8534 161.142 83.7461 140.287 82.4757C120.714 81.284 98.6122 79.935 76.1951 79.9518C76.3806 80.2722 76.5717 80.6039 76.7797 80.9243C98.9607 80.9243 120.832 82.2621 140.22 83.4482C156.735 84.46 171.468 85.3481 184.07 85.3481C187.274 85.3481 190.338 85.2919 193.261 85.1626L205.711 85.0727L206.144 84.1058Z" fill="#633C13"/>
<path d="M204.154 88.5409L203.716 89.519L194.014 89.7157C190.006 89.9406 185.728 90.0361 181.187 90.0361C169.416 90.0361 155.92 89.3841 140.956 88.659C122.558 87.7652 101.929 86.7647 80.9281 86.9052C80.6639 86.5848 80.4054 86.2644 80.1524 85.9327C101.44 85.7697 122.373 86.7871 141.001 87.6865C161.872 88.6983 179.894 89.5696 194.334 88.7264L194.851 88.6871V88.7264L204.154 88.5409Z" fill="#633C13"/>
<path d="M202.12 92.723L193.598 92.9872L193.587 92.9479L193.103 92.9872C179.14 93.9878 161.664 93.2964 141.434 92.4926C124.2 91.8012 104.942 91.0367 85.2901 91.3009C85.6667 91.6325 86.0545 91.9529 86.4536 92.2621C105.678 92.0372 124.509 92.7961 141.395 93.465C154.475 93.9765 166.409 94.4543 177.004 94.4543C182.659 94.4543 187.937 94.3194 192.8 93.9878L201.445 93.718L202.12 92.723Z" fill="#633C13"/>
<path d="M198.528 96.759L194.598 96.9446V96.9164L194.104 96.9558C180.152 98.1812 162.665 97.7596 142.423 97.2762C127.404 96.9052 110.838 96.5173 93.8398 96.7984C94.5649 97.1357 95.2675 97.4505 96.0152 97.7371C96.0264 97.7259 96.032 97.7259 96.0433 97.7371C112.26 97.5123 128.033 97.8945 142.406 98.243C152.839 98.4847 162.552 98.7208 171.423 98.7208C179.624 98.7208 187.111 98.5241 193.806 97.9563L197.066 97.8102L197.083 97.799L198.528 96.759Z" fill="#633C13"/>
<path d="M202.485 92.9423C208.921 95.2582 207.145 99.1087 201.057 96.8321L116.161 64.4994C115.335 64.0328 115.734 62.5545 116.819 62.7063L202.485 92.9423Z" fill="#8E6334"/>
<path d="M219.792 100.593L219.208 102.195C218.382 104.443 215.874 105.573 213.643 104.707L192.502 96.4556C191.35 96.0059 190.326 95.2864 189.495 94.3533L188.393 93.1166C187.448 92.0542 186.341 91.1492 185.11 90.4297L179.483 87.1301C179.095 86.9053 179.315 86.3095 179.753 86.3882L186.448 87.5573C187.673 87.7709 188.927 87.7934 190.158 87.6192L192.058 87.3494C193.294 87.1751 194.542 87.2931 195.711 87.6922L217.173 95.0728C219.438 95.8541 220.619 98.3443 219.792 100.593Z" fill="#815A2C"/>
</svg>
