<svg width="1234" height="1000" viewBox="0 0 1234 1000" fill="none" xmlns="http://www.w3.org/2000/svg">
<path d="M234 500C234 776.142 457.858 1000 734 1000C1010.14 1000 1234 776.142 1234 500C1234 223.858 1010.14 0 734 0C457.858 0 234 223.858 234 500Z" fill="url(#paint0_radial)"/>
<path d="M765.347 458.018L764.984 457.985C755.252 457.061 746.643 464.187 745.719 473.918L737.901 538.738C744.696 552.395 753.042 561.928 765.808 565.491L781.279 477.283C782.17 467.551 775.045 458.942 765.347 458.018Z" fill="#BEB4B4"/>
<path d="M805.69 518.649L757.594 511.556L767.095 447.33L812.024 440.007L805.69 518.649Z" fill="#634E42"/>
<path d="M658.368 651.819L658.467 651.72L674.499 634.599C675.258 633.775 675.555 632.752 675.522 631.73C675.456 630.707 675.027 629.717 674.202 628.992L674.169 628.926C672.52 627.441 670.013 627.573 668.529 629.222L652.398 646.442C652.299 646.541 652.2 646.673 652.134 646.772C650.946 648.388 651.177 650.697 652.695 652.05L652.728 652.116C654.377 653.6 656.884 653.468 658.368 651.819Z" fill="#FFCF9F"/>
<path d="M684.725 629.189L684.659 629.124C682.944 627.738 680.437 627.969 679.052 629.684L658.467 654.722C657.082 656.437 657.313 658.944 659.028 660.33L659.094 660.396C660.81 661.781 663.317 661.55 664.702 659.835L685.286 634.797C686.672 633.115 686.441 630.608 684.725 629.189Z" fill="#FFCF9F"/>
<path d="M690.696 634.105L690.63 634.072C688.882 632.719 686.375 633.082 685.055 634.83L667.209 658.153C665.856 659.901 666.219 662.408 667.968 663.727L668.034 663.76C669.782 665.113 672.289 664.75 673.608 663.002L691.455 639.68C692.774 637.931 692.444 635.424 690.696 634.105Z" fill="#FFCF9F"/>
<path d="M696.139 638.624L696.073 638.591C694.424 637.535 692.246 638.03 691.191 639.68L679.777 657.625C678.722 659.274 679.216 661.451 680.866 662.507L680.932 662.54C682.581 663.596 684.758 663.101 685.814 661.451L697.228 643.506C698.283 641.857 697.788 639.68 696.139 638.624Z" fill="#FFCF9F"/>
<path d="M719.989 574.232L692.708 607.385C688.75 605.966 684.428 606.461 681.229 608.803C680.503 609.331 679.81 609.958 679.216 610.684L673.839 617.215C674.499 620.613 672.025 624.967 668.33 629.651C676.808 637.206 685.583 642.055 695.776 645.617L706.233 632.917C708.542 630.08 709.235 626.419 708.443 622.922L736.977 588.219L719.989 574.232Z" fill="#F5C08C"/>
<path d="M675.192 609.034C670.871 610.584 660.809 613.421 657.61 614.18C655.3 614.741 654.377 617.578 655.201 619.821C655.201 619.854 655.234 619.887 655.234 619.887C656.059 622.13 658.401 622.691 660.875 622.262C663.382 621.8 672.883 619.425 675.357 618.502L675.192 609.034Z" fill="#FFCF9F"/>
<path d="M692.708 607.418C688.255 604.878 681.394 606.527 676.182 608.572C673.246 609.76 671.102 612.3 670.442 615.368C670.442 615.368 681.921 633.346 696.337 621.273C696.337 621.273 696.337 621.24 696.37 621.24L728.962 581.622L719.989 574.232L692.708 607.418Z" fill="#FFCF9F"/>
<path d="M712.567 626.386L687.43 604.812L738.363 537.287L769.635 557.442L712.567 626.386Z" fill="#BEB4B4"/>
<path d="M855.006 467.617C853.786 464.945 851.939 461.712 849.168 458.579C845.176 453.993 816.213 441.788 807.768 438.654L777.717 510.171L771.251 445.878C767.458 446.901 763.829 448.056 760.398 449.375C758.947 449.903 757.628 450.563 756.407 451.387C750.106 455.511 746.478 462.801 747.368 470.52L748.688 492.82L753.405 570.142L753.306 580.632L735.394 599.996L634.321 606.56L628.878 623.021L615.023 664.717L837.292 668.247L838.381 581.622C838.414 581.556 852.005 498.23 857.217 473.786C857.217 473.687 856.689 471.18 855.006 467.617Z" fill="#616057"/>
<path opacity="0.1" d="M855.006 467.617L850.322 488.234C840.69 496.778 801.402 534.087 812.684 554.275L738.462 600.787C733.415 597.983 727.477 596.796 721.737 597.555C715.074 598.445 708.839 601.942 704.551 607.121C702.967 609.067 701.615 611.343 701.483 613.85C701.285 617.941 704.32 621.405 707.19 624.373C709.763 627.045 712.369 629.717 715.47 631.763C718.57 633.775 722.265 635.127 725.96 634.764C729.027 634.468 731.765 633.049 734.272 631.202C738.891 634.83 743.542 638.459 748.16 642.088L731.897 644.793C695.446 641.791 664.768 631.235 628.878 622.988L615.023 664.684L837.292 668.214L838.381 581.589C838.414 581.523 852.005 498.196 857.217 473.753C857.217 473.687 856.689 471.18 855.006 467.617ZM829.078 581.853L828.089 585.349L820.996 609.463L818.786 617.017L809.187 608.935L814.531 631.664L799.983 611.442L804.833 632.62L751.261 641.56C754.494 638.063 757.726 634.567 760.959 631.07C756.011 627.639 751.063 624.208 746.115 620.745C746.049 620.712 746.016 620.679 745.95 620.646C749.381 615.731 756.638 608.012 756.902 608.012C756.902 608.012 832.311 567.734 832.377 567.371L829.507 580.005L829.078 581.853Z" fill="#1D1D1B"/>
<path d="M768.118 413.452L770.526 437.203L770.888 442.415C764.027 465.572 801.006 457.721 807.835 438.654L806.944 428.164L805.558 414.442L805.064 409.691L801.303 410.087L794.013 410.813L789.427 411.308L768.118 413.452Z" fill="#F2C394"/>
<path d="M823.899 444.097L817.5 461.415L806.218 465.176L814.234 473.225L778.014 512.216L776.067 514.261L777.783 510.138L806.119 442.019L807.9 437.763L823.899 444.097Z" fill="#848484"/>
<path d="M758.551 475.996L765.248 471.443L757.265 464.747L756.935 452.872L756.869 449.969L771.284 442.612L771.812 447.429L778.311 511.688L778.508 513.766L779.861 527.225L758.551 475.996Z" fill="#848484"/>
<path d="M812.683 388.744C812.683 389.173 812.683 389.602 812.65 389.965V390.822C812.65 391.02 812.617 391.218 812.617 391.449C812.617 391.713 812.617 392.01 812.584 392.241C812.485 395.243 812.09 397.717 811.463 399.729C811.43 399.828 811.397 399.993 811.364 400.092C810.506 402.599 809.319 404.479 807.834 405.865C806.416 407.184 804.799 408.174 802.952 408.965C800.973 409.856 798.763 410.582 796.388 411.406H796.355C795.695 411.637 795.035 411.901 794.309 412.132C794.309 412.132 794.309 412.132 794.276 412.132C793.617 412.363 792.957 412.627 792.231 412.924L792.198 412.957C792.132 412.957 792.066 412.99 791.967 413.023C791.934 413.023 791.934 413.023 791.934 413.023C791.901 413.023 791.901 413.023 791.901 413.023V413.056C791.901 413.089 791.901 413.089 791.901 413.122C791.11 427.999 783.226 436.642 776.595 441.293C771.647 444.79 767.392 446.076 767.392 446.076C761.421 447.066 756.77 443.074 754.593 435.652C754.362 434.959 754.197 434.234 754.032 433.508L753.339 429.813L752.02 422.688H751.987L748.358 422.391C747.236 422.325 746.28 421.831 745.62 421.105C744.729 420.214 744.234 418.928 744.498 417.575C745.323 412.759 746.61 408.372 748.49 404.644C748.49 404.644 748.358 404.017 748.127 402.929C747.698 400.883 746.939 397.189 746.346 393.395C745.62 388.876 745.092 384.159 745.521 381.85C745.719 380.662 746.907 379.508 747.236 378.353V378.32C748.391 374.526 750.238 370.865 752.877 367.632C753.768 366.543 754.724 365.521 755.813 364.564C760.068 360.705 765.742 357.802 773.032 356.581C773.725 356.482 774.418 356.383 775.111 356.284C777.816 355.987 780.554 355.922 783.16 356.086C784.743 356.185 786.326 356.416 787.844 356.68C788.504 356.812 789.229 356.977 789.889 357.175C790.714 357.373 791.472 357.571 792.264 357.835C794.177 358.462 796.025 359.286 797.707 360.21C798.499 360.639 799.258 361.134 800.016 361.661C800.61 362.057 801.171 362.486 801.732 362.948C801.929 363.047 802.127 363.245 802.325 363.443C802.82 363.806 803.249 364.234 803.711 364.696C803.975 364.894 804.206 365.125 804.437 365.422C804.964 365.95 805.393 366.445 805.855 367.005C805.987 367.104 806.086 367.269 806.119 367.368C807.273 368.787 808.23 370.304 809.088 371.953C809.484 372.745 809.879 373.57 810.242 374.427C810.308 374.559 810.341 374.757 810.44 374.922C810.737 375.78 811.034 376.671 811.298 377.561C811.331 377.66 811.364 377.759 811.397 377.825C811.694 379.013 811.991 380.233 812.222 381.487C812.255 381.652 812.255 381.784 812.288 381.949C812.321 382.279 812.386 382.641 812.419 382.971C812.551 384.291 812.716 385.709 812.749 387.161C812.65 387.82 812.65 388.282 812.683 388.744Z" fill="#FFCF9F"/>
<path d="M814.96 416.915C815.026 419.554 808.461 421.6 808.461 421.6C805.393 422.391 802.622 423.81 800.148 423.81C799.159 423.81 798.169 423.579 797.245 422.952C795.332 421.732 793.551 418.862 791.868 413.155C791.868 413.122 791.835 413.089 791.835 413.056C791.835 413.023 791.802 412.99 791.802 412.957C791.802 412.924 791.802 412.891 791.769 412.858C791.473 411.703 791.143 410.483 790.846 409.064C790.615 408.141 790.252 407.184 790.219 406.128C790.021 403.489 789.13 401.873 787.943 400.949C787.811 400.851 787.679 400.719 787.58 400.686C786.722 400.092 785.733 399.795 784.677 399.663C783.061 399.465 781.411 399.663 780.158 399.762C780.158 399.432 780.125 399.102 780.125 398.772V398.739C780.026 396.1 779.861 393.791 779.597 391.746C777.618 372.679 770.525 374.691 747.17 378.419C747.467 377.495 747.797 376.539 748.16 375.615C748.523 374.691 748.952 373.801 749.414 372.877C749.908 371.986 750.403 371.096 750.964 370.238C751.525 369.38 752.119 368.556 752.778 367.764C753.207 367.203 753.669 366.675 754.197 366.181C758.584 361.595 764.72 358.099 772.934 356.713C773.626 356.614 774.319 356.515 775.012 356.416C777.717 356.119 780.455 356.053 783.061 356.218C784.644 356.317 786.228 356.548 787.745 356.812C788.405 356.944 789.13 357.109 789.79 357.307C790.615 357.505 791.374 357.703 792.165 357.967C794.079 358.594 795.926 359.418 797.608 360.342C798.4 360.771 799.159 361.266 799.917 361.793C800.214 362.024 800.511 362.189 800.775 362.42C801.765 363.113 802.688 363.904 803.579 364.828C803.843 365.026 804.074 365.257 804.305 365.554C804.799 366.049 805.261 366.577 805.723 367.137C805.855 367.236 805.954 367.368 805.954 367.467C806.053 367.467 805.987 367.5 805.987 367.5C806.581 368.193 807.109 368.952 807.57 369.677C808.065 370.469 808.494 371.228 808.956 372.085C809.616 373.372 810.209 374.757 810.704 376.242C810.902 376.803 811.067 377.363 811.265 377.957C811.562 379.145 811.859 380.365 812.09 381.619C812.123 381.784 812.123 381.916 812.156 382.081C812.65 384.72 813.079 387.326 813.409 389.932C813.904 393.164 814.234 396.397 814.498 399.564C814.96 405.337 815.092 411.143 814.96 416.915Z" fill="#BD7454"/>
<path d="M798.895 399.597C799.587 406.524 797.146 414.87 791.274 412.66C787.25 411.142 785.667 407.679 784.776 402.302C783.885 396.925 786.788 393.23 790.813 391.977C795.068 390.723 798.367 394.187 798.895 399.597Z" fill="#FFCF9F"/>
<path d="M797.476 422.028C793.847 438.489 781.939 452.344 766.402 455.972C761.751 457.094 757.132 453.927 756.374 449.21L751.986 422.721C758.419 421.039 764.489 421.665 769.701 427.042L768.315 420.247C767.688 417.146 768.909 413.979 771.416 412.066C775.177 409.163 778.211 405.205 780.125 398.673L786.689 393.593C787.085 399.333 788.734 408.272 791.868 413.056C793.815 416.024 794.903 419.29 797.476 422.028Z" fill="#FFCF9F"/>
<path d="M765.181 430.902V430.968C765.445 432.584 764.357 434.101 762.74 434.365L754.131 435.784L753.141 429.879L761.751 428.461C763.367 428.197 764.918 429.285 765.181 430.902Z" fill="#F2C394"/>
<path d="M776.331 340.45C756.934 341.472 742.024 358.032 743.047 377.462L813.343 373.734C812.287 354.338 795.728 339.427 776.331 340.45Z" fill="#928A8B"/>
<path d="M815.371 368.51L740.396 372.467L741.519 393.747L816.494 389.79L815.371 368.51Z" fill="#DCC5C5"/>
<path d="M757.759 627.375C754.691 630.938 751.591 634.534 748.523 638.096C717.647 611.442 664.207 567.668 631.55 543.521C634.353 539.728 637.157 535.934 639.961 532.141C672.916 556.485 726.619 600.491 757.759 627.375Z" fill="#3C3C3B"/>
<path d="M640.522 532.536C637.718 536.33 634.914 540.123 632.11 543.917C610.8 528.149 589.128 512.909 567.092 498.229C569.698 494.304 572.337 490.378 574.943 486.453C597.144 501.264 619.014 516.603 640.522 532.536Z" fill="#00A683"/>
<path d="M574.349 487.311C572.106 490.676 569.896 494.007 567.653 497.372C524.637 468.673 480.302 442.052 434.812 417.608C436.726 414.079 438.639 410.516 440.519 406.953C486.339 431.562 531.004 458.381 574.349 487.311Z" fill="#575756"/>
<path d="M440.42 409.13C439.134 411.538 437.847 413.913 436.561 416.322C391.038 391.812 344.394 369.512 296.727 349.423C297.783 346.916 298.838 344.409 299.894 341.902C347.792 362.057 394.7 384.489 440.42 409.13Z" fill="#575756"/>
<path d="M300.125 343.782C299.498 345.3 298.838 346.784 298.211 348.302C250.511 328.179 201.855 310.333 152.341 294.796C152.836 293.246 153.33 291.662 153.792 290.112C203.471 305.682 252.293 323.594 300.125 343.782Z" fill="#575756"/>
<path d="M154.419 291.332C154.122 292.256 153.858 293.147 153.561 294.07C104.113 278.203 53.8075 264.678 2.80893 253.529C2.8749 253.199 2.94087 252.869 3.00685 252.539C54.1703 263.095 104.707 276.026 154.419 291.332Z" fill="#575756"/>
<path d="M440.783 425.492L440.585 425.327L440.321 425.261C382.066 411.571 333.805 387.095 300.818 354.437L300.554 354.173L300.191 354.14C251.105 351.204 195.687 342.43 157.058 299.546C155.673 298.029 150.263 297.963 139.41 298.458C136.771 298.557 134.495 298.655 133.571 298.59C125.291 298.029 117.078 297.138 109.062 295.885C91.7102 293.18 74.8866 288.792 59.0856 282.887C51.0696 279.886 43.1857 276.455 35.6645 272.661C32.7946 271.21 29.8257 269.231 26.659 267.119C21.6778 263.788 16.5648 260.357 11.5507 258.939C9.57145 258.378 7.69117 258.312 5.90985 258.576C5.97583 259.235 6.0088 259.895 6.07477 260.555C7.65817 260.324 9.27455 260.357 11.0229 260.852C15.7401 262.171 20.7542 265.536 25.5704 268.769C28.7701 270.913 31.805 272.958 34.7739 274.443C42.361 278.269 50.2779 281.733 58.3599 284.735C74.2928 290.705 91.2483 295.126 108.732 297.864C116.781 299.117 125.093 300.041 133.406 300.602C134.462 300.668 136.672 300.569 139.476 300.47C144.325 300.272 154.419 299.843 155.607 300.932C194.631 344.244 250.314 353.184 299.729 356.153C332.914 388.876 381.307 413.419 439.662 427.175L564.156 541.74L565.476 540.288L440.783 425.492Z" fill="white"/>
<path d="M599.014 515.506L590.892 526.031L599.536 532.702L607.659 522.178L599.014 515.506Z" fill="#00755D"/>
<path d="M569.599 561.532C579.924 569.515 594.768 567.602 602.751 557.277C610.734 546.952 608.821 532.107 598.496 524.124C588.171 516.141 573.327 518.055 565.344 528.38C557.361 538.705 559.241 553.549 569.599 561.532Z" fill="#00A683"/>
<path d="M574.943 554.572C581.442 559.586 590.777 558.365 595.791 551.9C600.805 545.401 599.585 536.066 593.119 531.052C586.621 526.037 577.285 527.258 572.271 533.724C567.257 540.222 568.444 549.557 574.943 554.572Z" fill="#EDEDED"/>
<path d="M581.903 545.533C583.421 546.688 585.565 546.424 586.719 544.906C587.874 543.389 587.61 541.245 586.092 540.09C584.575 538.936 582.431 539.199 581.276 540.717C580.122 542.201 580.419 544.379 581.903 545.533Z" fill="#3C3C3B"/>
<path d="M562.111 549.855C564.684 551.834 568.411 551.372 570.391 548.799C572.37 546.226 571.908 542.498 569.335 540.519C566.762 538.54 563.034 539.002 561.055 541.575C559.043 544.148 559.538 547.842 562.111 549.855Z" fill="#3C3C3B"/>
<path d="M564.288 547.017C565.31 547.809 566.795 547.611 567.554 546.588C568.345 545.566 568.147 544.081 567.125 543.323C566.102 542.531 564.618 542.729 563.859 543.751C563.067 544.774 563.265 546.226 564.288 547.017Z" fill="#F6F6F6"/>
<path d="M438.804 431.694C438.243 431.825 437.616 431.727 437.055 431.43C435.868 430.77 435.472 429.252 436.165 428.098L440.486 420.61C441.146 419.422 442.663 419.026 443.818 419.719C445.005 420.379 445.401 421.896 444.709 423.051L440.387 430.539C440.057 431.133 439.464 431.562 438.804 431.694Z" fill="#EDEDED"/>
<path d="M298.97 360.441C298.409 360.573 297.783 360.474 297.222 360.177C296.034 359.517 295.638 358 296.331 356.845L300.652 349.357C301.312 348.17 302.83 347.774 303.984 348.466C305.172 349.126 305.568 350.644 304.875 351.798L300.553 359.286C300.224 359.913 299.63 360.309 298.97 360.441Z" fill="#EDEDED"/>
<path d="M156.234 305.517C155.97 305.583 155.706 305.583 155.442 305.484C154.584 305.22 154.089 304.329 154.32 303.471L156.432 296.214C156.695 295.356 157.586 294.862 158.444 295.093C159.301 295.356 159.796 296.247 159.565 297.138L157.454 304.395C157.289 304.956 156.794 305.385 156.234 305.517Z" fill="#EDEDED"/>
<path d="M6.63557 261.709C6.43764 261.742 6.20672 261.775 5.9758 261.709C5.08514 261.544 4.49137 260.687 4.68929 259.796L5.77789 254.023C5.94282 253.133 6.80051 252.572 7.69117 252.737C8.58183 252.902 9.17561 253.759 8.97768 254.65L7.88909 260.423C7.75714 261.083 7.22935 261.577 6.63557 261.709Z" fill="#EDEDED"/>
<path d="M715.47 607.253C717.383 605.967 717.878 603.393 716.591 601.513L716.162 600.886C715.536 599.963 714.612 599.336 713.524 599.138C712.435 598.94 711.313 599.138 710.423 599.765L703.462 604.416C701.681 605.604 701.219 608.012 702.407 609.793L703.264 611.08C704.386 612.729 706.629 613.191 708.278 612.069L715.47 607.253Z" fill="#FFCF9F"/>
<path d="M721.44 614.114C722.364 613.52 723.024 612.564 723.255 611.475C723.486 610.387 723.255 609.265 722.628 608.341L722.199 607.715C720.946 605.834 718.406 605.306 716.492 606.56L707.619 612.3C706.761 612.861 706.134 613.751 705.936 614.774C705.738 615.797 705.936 616.852 706.497 617.71L707.355 618.996C708.443 620.646 710.654 621.075 712.303 620.019L721.44 614.114Z" fill="#FFCF9F"/>
<path d="M743.905 611.376C746.874 606.791 745.917 601.216 743.179 597.456L772.34 581.819L755.615 565.458L730.017 586.603L724.079 586.042C719.56 585.118 714.744 589.143 713.655 590.363L716.921 593.035L710.291 599.699L705.804 605.01C714.909 611.442 722.76 621.899 733.085 624.208L743.905 611.376Z" fill="#FFCF9F"/>
<path d="M733.118 624.208C734.503 623.12 734.668 621.041 733.481 619.557L733.085 619.062C731.897 617.578 729.852 617.281 728.467 618.369L723.42 622.361C722.133 623.383 721.968 625.33 723.09 626.715L723.881 627.738C724.904 629.024 726.718 629.321 727.906 628.365L733.118 624.208Z" fill="#FFCF9F"/>
<path d="M727.081 620.844C728.995 619.557 729.489 616.984 728.203 615.104L727.774 614.477C727.147 613.553 726.224 612.927 725.135 612.729C724.046 612.531 722.925 612.729 722.034 613.356L715.074 618.007C713.293 619.194 712.831 621.602 714.018 623.384L714.876 624.67C715.404 625.462 716.228 626.023 717.185 626.188C718.142 626.386 719.098 626.188 719.89 625.66L727.081 620.844Z" fill="#FFCF9F"/>
<path d="M844.681 456.467L844.351 456.368C834.983 453.598 825.153 458.975 822.415 468.343L802.424 530.491C806.515 545.204 812.881 556.123 824.724 562.06L856.656 478.371C859.394 469.036 854.05 459.238 844.681 456.467Z" fill="#E0DCDC"/>
<path d="M748.49 603.525L728.994 581.621L802.391 530.491L824.691 562.06L748.49 603.525Z" fill="#E0DCDC"/>
<path opacity="0.1" d="M814.333 397.783C814.102 395.177 813.805 392.571 813.442 389.932L812.651 389.965L779.597 391.713L746.28 393.461C746.511 394.946 746.775 396.43 747.039 397.783H814.333Z" fill="#1D1D1B"/>
<path d="M7.16751 771.145C3.16124 771.145 0.0563965 766.838 0.0563965 761.229C0.0563965 755.721 3.16124 751.314 7.16751 751.314C11.1738 751.314 14.2786 755.621 14.2786 761.229C14.2786 766.838 11.1738 771.145 7.16751 771.145ZM7.16751 755.821C6.06578 755.821 4.46331 757.924 4.46331 761.33C4.46331 764.635 6.06578 766.838 7.16751 766.838C8.26923 766.838 9.87178 764.735 9.87178 761.33C9.87178 757.924 8.26923 755.821 7.16751 755.821Z" fill="#706F6F"/>
<path d="M4.96381 714.857V759.427C4.96381 760.628 5.96536 761.63 7.16722 761.63C8.36907 761.63 9.37063 760.628 9.37063 759.427V714.857H4.96381Z" fill="#706F6F"/>
<path d="M11.1738 751.815C10.9735 751.815 10.8733 751.815 10.6729 751.815L3.36152 750.312C2.15963 750.012 1.45855 748.91 1.65887 747.708C1.85918 746.506 3.06101 745.805 4.2629 746.005L11.5744 747.508C12.7763 747.808 13.4774 748.91 13.2771 750.112C13.0767 751.113 12.1753 751.815 11.1738 751.815Z" fill="#706F6F"/>
<path d="M11.1738 747.308C10.9735 747.308 10.8733 747.308 10.6729 747.308L3.36152 745.805C2.15963 745.505 1.45855 744.403 1.65887 743.201C1.85918 741.999 3.06101 741.298 4.2629 741.499L11.5744 743.001C12.7763 743.301 13.4774 744.403 13.2771 745.605C13.0767 746.607 12.1753 747.308 11.1738 747.308Z" fill="#706F6F"/>
<path d="M11.1738 742.801C10.9735 742.801 10.8733 742.801 10.6729 742.801L3.36152 741.298C2.15963 740.998 1.45855 739.896 1.65887 738.694C1.85918 737.492 3.06101 736.791 4.2629 736.991L11.5744 738.494C12.7763 738.794 13.4774 739.896 13.2771 741.098C13.0767 742.099 12.1753 742.801 11.1738 742.801Z" fill="#706F6F"/>
<path d="M32.8076 841.655C20.3881 841.655 10.2722 831.539 10.2722 819.12V766.738H4.26282V819.12C4.26282 834.845 17.0829 847.765 33.2082 847.765C33.5087 847.765 33.709 847.665 34.0095 847.665L33.4085 841.655C33.1081 841.655 33.0079 841.655 32.8076 841.655Z" fill="#706F6F"/>
<path d="M38.7168 820.122L48.2316 810.506V804.197V793.38L38.7168 820.122Z" fill="#706F6F"/>
<path d="M49.2334 831.54L48.2318 804.197L45.0268 804.297L43.2239 831.64C43.2239 836.948 39.0174 841.355 33.4086 841.656C30.3037 841.856 29.903 848.066 34.0095 847.665C42.4227 847.164 49.2334 840.253 49.2334 831.54Z" fill="#706F6F"/>
<path d="M6.04184 692.308V716.46H7.89014V692.331L6.04184 692.308Z" fill="white"/>
<path d="M7.32533 701.083C6.40264 701.761 5.91934 702.313 6.27084 702.316C6.62234 702.319 7.65486 701.77 8.59952 701.092C9.52221 700.415 10.0055 699.862 9.65403 699.859C9.30253 699.858 8.26999 700.405 7.32533 701.083Z" fill="#3C3C3B"/>
<path d="M3.1952 701.163C2.64599 701.563 4.27167 701.902 6.82005 701.919C9.36842 701.936 11.8728 701.627 12.4221 701.227C12.9713 700.827 11.3456 700.488 8.79723 700.471C6.27083 700.452 3.74442 700.763 3.1952 701.163Z" fill="white"/>
<path d="M3.21715 701.16C3.78833 700.763 6.27079 700.456 8.81916 700.473C11.3675 700.49 12.9713 700.827 12.444 701.224L3.21715 701.16Z" fill="#E6332A"/>
<path d="M6.2313 266.676C6.2313 265.979 6.09933 265.331 5.90141 264.883C5.76946 264.584 5.53855 264.435 5.47257 264.435L4.351 264.534L4.25202 261.746L5.37361 261.646C6.09935 261.546 6.89106 262.144 7.38587 263.24C7.8477 264.186 8.07861 265.381 8.07861 266.676V693.926L6.2313 694.673V266.676Z" fill="white"/>
<path d="M1038.21 652.35V665.817H1031.32L1013.49 705.652C1002.49 730.205 977.992 746.054 951.114 746.054H552.507C494.697 746.054 440.657 717.73 407.995 670.297C400.992 660.118 394.613 649.656 388.971 638.996C390.161 638.996 377.459 614.556 377.459 614.556C369.719 614.499 350.383 614.442 350.383 614.442L358.151 631.709C366.232 649.684 376.24 667.32 387.836 684.161C425.092 738.229 486.645 770.494 552.507 770.494H951.114C987.632 770.494 1020.89 748.946 1035.83 715.604L1064.18 652.321H1038.21V652.35Z" fill="#633C13"/>
<path d="M1050.74 652.349L1039.83 676.76L1037.62 681.665L1029.79 699.13L1027.58 704.064L1024.63 710.613C1023.1 713.931 1021.4 717.163 1019.5 720.196L1016.13 725.186C1011.93 730.999 1006.97 736.159 1001.38 740.553C999.03 742.453 996.592 744.211 994.097 745.799L994.012 745.855C981.395 753.794 966.595 758.245 951.086 758.245H552.507C528.918 758.245 505.868 753.851 484.461 745.515C484.405 745.458 484.376 745.458 484.32 745.515C480.549 744.041 477.033 742.481 473.347 740.78C460.078 734.656 447.547 726.973 436.092 717.871C434.079 716.312 432.123 714.696 430.223 713.023C422.341 706.332 414.998 698.875 408.25 690.852C406.918 689.236 405.613 687.619 404.337 685.947C402.126 683.111 399.971 680.163 397.93 677.186C394.159 671.714 390.587 666.213 387.298 660.685C386.277 659.069 385.285 657.396 384.349 655.78C378.622 645.998 373.575 636.188 369.266 626.662C604.846 626.662 830.305 658.048 977 652.264V652.321H1050.74V652.349Z" fill="#8B6332"/>
<path d="M977.029 664.512V664.597H1045.27L1050.74 652.349L1006.37 652.292C1006.37 652.292 960.131 652.803 951.313 652.888C804.731 654.56 591.464 626.662 369.294 626.662C371.109 630.716 373.065 634.799 375.163 638.91C608.589 639.449 831.581 670.239 977.029 664.512Z" fill="#623512"/>
<path d="M1039.83 676.761L979.098 677.214V677.016L976.547 677.101C903.681 680.532 812.84 674.946 707.652 668.539C608.929 662.528 497.447 655.723 384.377 655.808C385.313 657.424 386.277 659.097 387.326 660.713C499.205 660.713 609.524 667.461 707.312 673.444C790.611 678.547 864.923 683.027 928.489 683.027C944.65 683.027 960.102 682.743 974.845 682.091L1037.65 681.637L1039.83 676.761Z" fill="#633C13"/>
<path d="M1029.79 699.131L1027.58 704.064L978.645 705.057C958.43 706.191 936.853 706.673 913.945 706.673C854.575 706.673 786.5 703.384 711.026 699.726C618.229 695.218 514.175 690.172 408.25 690.88C406.918 689.264 405.614 687.648 404.338 685.976C511.708 685.153 617.293 690.285 711.253 694.821C816.526 699.925 907.423 704.32 980.261 700.067L982.869 699.868V700.067L1029.79 699.131Z" fill="#633C13"/>
<path d="M1019.53 720.225L976.547 721.558L976.49 721.359L974.052 721.558C903.624 726.605 815.476 723.117 713.436 719.063C626.507 715.576 529.372 711.72 430.252 713.052C432.151 714.725 434.108 716.341 436.121 717.9C533.086 716.766 628.067 720.594 713.237 723.968C779.214 726.548 839.406 728.958 892.85 728.958C921.373 728.958 947.996 728.277 972.521 726.605L1016.13 725.244L1019.53 720.225Z" fill="#633C13"/>
<path d="M1001.41 740.583L981.593 741.518V741.376L979.098 741.575C908.728 747.756 820.523 745.629 718.426 743.191C642.668 741.32 559.113 739.363 473.376 740.781C477.033 742.482 480.577 744.07 484.348 745.516C484.405 745.459 484.433 745.459 484.49 745.516C566.287 744.382 645.844 746.31 718.341 748.068C770.963 749.287 819.956 750.478 864.696 750.478C906.062 750.478 943.828 749.485 977.596 746.622L994.04 745.884L994.125 745.828L1001.41 740.583Z" fill="#633C13"/>
<path d="M1021.37 721.331C1053.84 733.013 1044.88 752.434 1014.17 740.951L585.963 577.868C581.795 575.515 583.808 568.058 589.28 568.824L1021.37 721.331Z" fill="#8E6334"/>
<path d="M1108.67 759.919L1105.72 768C1101.55 779.341 1088.91 785.04 1077.65 780.673L971.018 739.052C965.206 736.784 960.046 733.155 955.849 728.448L950.292 722.211C945.529 716.852 939.944 712.287 933.735 708.658L905.354 692.015C903.397 690.881 904.503 687.876 906.715 688.273L940.482 694.17C946.663 695.247 952.986 695.361 959.195 694.482L968.778 693.121C975.016 692.242 981.31 692.837 987.207 694.85L1095.46 732.077C1106.88 736.018 1112.84 748.578 1108.67 759.919Z" fill="#815A2C"/>
<defs>
<radialGradient id="paint0_radial" cx="0" cy="0" r="1" gradientUnits="userSpaceOnUse" gradientTransform="translate(734 500) scale(705.015)">
<stop stop-color="#5AA9F1"/>
<stop offset="0.494792" stop-color="#4698E3"/>
<stop offset="1" stop-color="#5286B6"/>
</radialGradient>
</defs>
</svg>
