<svg id="Lager_1" data-name="Lager 1" xmlns="http://www.w3.org/2000/svg" xmlns:xlink="http://www.w3.org/1999/xlink" viewBox="0 0 973 581"><defs><style>.cls-1{fill:#ffdaa0;}.cls-2{fill:url(#Namnlös_övertoning);}</style><radialGradient id="Namnlös_övertoning" cx="996.62" cy="573.11" r="1" gradientTransform="matrix(0, 290.5, 486.5, 0, -278333.01, -289227.31)" gradientUnits="userSpaceOnUse"><stop offset="0" stop-color="#ffe4ba"/><stop offset="1" stop-color="#ffd089" stop-opacity="0.67"/></radialGradient></defs><path class="cls-1" d="M0,15A15,15,0,0,1,15,0h96.5l14,35,5-35h447l9.58,17.08A15,15,0,0,1,589,24.42V42L602,0H958a15,15,0,0,1,15,15V566a15,15,0,0,1-15,15H198.5L175,550v31H15A15,15,0,0,1,0,566Z"/><path class="cls-2" d="M0,15A15,15,0,0,1,15,0h96.5l14,35,5-35h447l9.58,17.08A15,15,0,0,1,589,24.42V42L602,0H958a15,15,0,0,1,15,15V566a15,15,0,0,1-15,15H198.5L175,550v31H15A15,15,0,0,1,0,566Z"/></svg>