<svg id="Lager_1" data-name="Lager 1" xmlns="http://www.w3.org/2000/svg" xmlns:xlink="http://www.w3.org/1999/xlink" viewBox="0 0 581 973"><defs><style>.cls-1{fill:#ffdaa0;}.cls-2{fill:url(#Namnlös_övertoning);}</style><radialGradient id="Namnlös_övertoning" cx="-280.29" cy="771.33" r="1" gradientTransform="matrix(-290.5, 0, 0, 486.5, -81134.86, -374767.92)" gradientUnits="userSpaceOnUse"><stop offset="0" stop-color="#ffe4ba"/><stop offset="1" stop-color="#ffd089" stop-opacity="0.67"/></radialGradient></defs><path class="cls-1" d="M566,0a15,15,0,0,1,15,15v96.5l-35,14,35,5v447l-17.08,9.58a15,15,0,0,1-7.34,1.92H539l42,13V958a15,15,0,0,1-15,15H15A15,15,0,0,1,0,958V198.5L31,175H0V15A15,15,0,0,1,15,0Z"/><path class="cls-2" d="M566,0a15,15,0,0,1,15,15v96.5l-35,14,35,5v447l-17.08,9.58a15,15,0,0,1-7.34,1.92H539l42,13V958a15,15,0,0,1-15,15H15A15,15,0,0,1,0,958V198.5L31,175H0V15A15,15,0,0,1,15,0Z"/></svg>