<svg width="367" height="175" viewBox="0 0 367 175" fill="none" xmlns="http://www.w3.org/2000/svg">
<path d="M252.391 67.7662L252.271 67.7553C249.062 67.4507 246.222 69.8006 245.917 73.01L243.339 94.3875C245.58 98.8915 248.333 102.036 252.543 103.211L257.645 74.1196C257.939 70.9103 255.589 68.0708 252.391 67.7662Z" fill="#BEB4B4"/>
<path d="M265.696 87.7621L249.834 85.4231L252.967 64.2413L267.785 61.8262L265.696 87.7621Z" fill="#634E42"/>
<path d="M217.11 131.681L217.142 131.649L222.429 126.002C222.68 125.73 222.778 125.393 222.767 125.056C222.745 124.719 222.604 124.392 222.332 124.153L222.321 124.131C221.777 123.642 220.95 123.685 220.46 124.229L215.14 129.908C215.108 129.941 215.075 129.984 215.053 130.017C214.662 130.55 214.738 131.311 215.238 131.757L215.249 131.779C215.793 132.269 216.62 132.225 217.11 131.681Z" fill="#FFCF9F"/>
<path d="M225.802 124.218L225.78 124.196C225.215 123.74 224.388 123.816 223.931 124.381L217.142 132.639C216.685 133.204 216.761 134.031 217.327 134.488L217.349 134.51C217.915 134.967 218.741 134.891 219.198 134.325L225.987 126.068C226.444 125.513 226.368 124.686 225.802 124.218Z" fill="#FFCF9F"/>
<path d="M227.771 125.839L227.749 125.828C227.173 125.382 226.346 125.502 225.911 126.079L220.025 133.77C219.579 134.347 219.699 135.174 220.275 135.609L220.297 135.62C220.874 136.066 221.701 135.946 222.136 135.369L228.021 127.678C228.456 127.101 228.348 126.275 227.771 125.839Z" fill="#FFCF9F"/>
<path d="M229.566 127.33L229.544 127.319C229 126.971 228.282 127.134 227.934 127.678L224.17 133.596C223.822 134.14 223.985 134.858 224.529 135.206L224.551 135.217C225.095 135.565 225.813 135.402 226.161 134.858L229.925 128.94C230.273 128.396 230.11 127.678 229.566 127.33Z" fill="#FFCF9F"/>
<path d="M237.432 106.094L228.435 117.027C227.129 116.559 225.704 116.722 224.649 117.495C224.409 117.669 224.181 117.876 223.985 118.115L222.212 120.269C222.429 121.39 221.613 122.826 220.395 124.37C223.191 126.862 226.085 128.461 229.447 129.636L232.895 125.448C233.657 124.512 233.885 123.304 233.624 122.151L243.035 110.706L237.432 106.094Z" fill="#F5C08C"/>
<path d="M222.658 117.571C221.233 118.082 217.915 119.018 216.859 119.268C216.098 119.453 215.793 120.389 216.065 121.129C216.065 121.139 216.076 121.15 216.076 121.15C216.348 121.89 217.12 122.075 217.936 121.934C218.763 121.781 221.896 120.998 222.712 120.693L222.658 117.571Z" fill="#FFCF9F"/>
<path d="M228.435 117.038C226.966 116.2 224.703 116.744 222.984 117.419C222.016 117.81 221.309 118.648 221.091 119.66C221.091 119.66 224.877 125.589 229.631 121.607C229.631 121.607 229.631 121.596 229.642 121.596L240.391 108.53L237.432 106.094L228.435 117.038Z" fill="#FFCF9F"/>
<path d="M234.984 123.294L226.694 116.179L243.492 93.9089L253.805 100.556L234.984 123.294Z" fill="#BEB4B4"/>
<path d="M281.96 70.9323C281.558 70.0511 280.948 68.9849 280.035 67.9514C278.718 66.4392 269.166 62.4139 266.381 61.3804L256.47 84.9664L254.338 63.7629C253.087 64.1002 251.89 64.4809 250.759 64.9161C250.28 65.0902 249.845 65.3077 249.442 65.5797C247.365 66.9396 246.168 69.3439 246.462 71.8896L246.897 79.244L248.452 104.745L248.42 108.204L242.512 114.59L209.179 116.755L207.384 122.184L202.814 135.935L276.118 137.099L276.477 108.531C276.488 108.509 280.97 81.0281 282.689 72.9667C282.689 72.934 282.515 72.1072 281.96 70.9323Z" fill="#616057"/>
<path opacity="0.1" d="M281.96 70.9321L280.415 77.7316C277.239 80.5493 264.282 92.8536 268.002 99.5117L243.524 114.851C241.86 113.927 239.901 113.535 238.008 113.785C235.811 114.079 233.755 115.232 232.34 116.94C231.818 117.582 231.372 118.333 231.329 119.159C231.263 120.508 232.264 121.651 233.211 122.63C234.059 123.511 234.919 124.392 235.941 125.067C236.964 125.73 238.182 126.177 239.401 126.057C240.413 125.959 241.316 125.491 242.142 124.882C243.666 126.079 245.2 127.275 246.723 128.472L241.359 129.364C229.338 128.374 219.22 124.893 207.384 122.173L202.814 135.924L276.118 137.088L276.477 108.52C276.488 108.498 280.97 81.0171 282.689 72.9557C282.689 72.9339 282.515 72.1071 281.96 70.9321ZM273.409 108.607L273.083 109.76L270.744 117.713L270.015 120.204L266.849 117.538L268.611 125.034L263.814 118.365L265.413 125.35L247.745 128.298C248.811 127.145 249.878 125.992 250.944 124.838C249.312 123.707 247.68 122.576 246.048 121.433C246.026 121.422 246.015 121.411 245.994 121.401C247.125 119.78 249.519 117.234 249.606 117.234C249.606 117.234 274.475 103.95 274.497 103.831L273.551 107.997L273.409 108.607Z" fill="#1D1D1B"/>
<path d="M253.304 53.0686L254.099 60.9016L254.218 62.6205C251.955 70.2577 264.151 67.6684 266.403 61.3803L266.109 57.9207L265.652 53.395L265.489 51.8284L264.249 51.9589L261.845 52.1983L260.332 52.3615L253.304 53.0686Z" fill="#F2C394"/>
<path d="M271.701 63.1752L269.59 68.8868L265.87 70.127L268.513 72.7815L256.568 85.6407L255.926 86.3152L256.492 84.9553L265.837 62.4898L266.425 61.0864L271.701 63.1752Z" fill="#848484"/>
<path d="M250.149 73.6953L252.358 72.1939L249.725 69.9855L249.616 66.069L249.595 65.1116L254.349 62.6855L254.523 64.2739L256.666 85.4665L256.731 86.1519L257.177 90.5906L250.149 73.6953Z" fill="#848484"/>
<path d="M268.002 44.9201C268.002 45.0616 268.002 45.203 267.991 45.3227V45.6055C267.991 45.6708 267.98 45.7361 267.98 45.8122C267.98 45.8993 267.98 45.9972 267.97 46.0733C267.937 47.0633 267.806 47.8793 267.6 48.5429C267.589 48.5755 267.578 48.6299 267.567 48.6626C267.284 49.4894 266.893 50.1095 266.403 50.5664C265.935 51.0016 265.402 51.328 264.793 51.5891C264.14 51.8828 263.411 52.1221 262.628 52.3941H262.617C262.399 52.4703 262.182 52.5573 261.942 52.6335C261.942 52.6335 261.942 52.6335 261.932 52.6335C261.714 52.7096 261.496 52.7966 261.257 52.8946L261.246 52.9054C261.224 52.9054 261.203 52.9163 261.17 52.9272C261.159 52.9272 261.159 52.9272 261.159 52.9272C261.148 52.9272 261.148 52.9272 261.148 52.9272V52.9381C261.148 52.949 261.148 52.9489 261.148 52.9598C260.887 57.8663 258.287 60.7167 256.1 62.2507C254.469 63.4038 253.065 63.8281 253.065 63.8281C251.096 64.1545 249.562 62.8381 248.844 60.3903C248.768 60.1618 248.713 59.9225 248.659 59.6832L248.431 58.4647L247.995 56.1148H247.985L246.788 56.0169C246.418 55.9951 246.102 55.8319 245.885 55.5926C245.591 55.2989 245.428 54.8746 245.515 54.4285C245.787 52.8402 246.211 51.3932 246.831 50.1639C246.831 50.1639 246.788 49.9572 246.712 49.5982C246.57 48.9237 246.32 47.7052 246.124 46.4541C245.885 44.9636 245.711 43.4079 245.852 42.6464C245.917 42.2547 246.309 41.874 246.418 41.4932V41.4823C246.799 40.2312 247.408 39.0236 248.278 37.9575C248.572 37.5984 248.887 37.2612 249.246 36.9457C250.65 35.6728 252.521 34.7155 254.925 34.3129C255.154 34.2803 255.382 34.2477 255.611 34.215C256.503 34.1171 257.406 34.0954 258.265 34.1497C258.788 34.1824 259.31 34.2585 259.81 34.3456C260.028 34.3891 260.267 34.4435 260.485 34.5088C260.757 34.574 261.007 34.6393 261.268 34.7263C261.899 34.933 262.508 35.205 263.063 35.5096C263.324 35.6511 263.574 35.8143 263.825 35.9883C264.02 36.1189 264.205 36.2603 264.39 36.4126C264.456 36.4453 264.521 36.5105 264.586 36.5758C264.749 36.6955 264.891 36.8369 265.043 36.9892C265.13 37.0545 265.206 37.1306 265.282 37.2286C265.456 37.4026 265.598 37.5658 265.75 37.7508C265.794 37.7834 265.826 37.8378 265.837 37.8704C266.218 38.3382 266.534 38.8387 266.816 39.3826C266.947 39.6437 267.077 39.9157 267.197 40.1986C267.219 40.2421 267.23 40.3074 267.262 40.3618C267.36 40.6446 267.458 40.9383 267.545 41.2321C267.556 41.2647 267.567 41.2974 267.578 41.3191C267.676 41.7108 267.774 42.1133 267.85 42.5267C267.861 42.5811 267.861 42.6246 267.872 42.679C267.883 42.7878 267.904 42.9075 267.915 43.0163C267.959 43.4514 268.013 43.9192 268.024 44.3979C267.991 44.6155 267.991 44.7678 268.002 44.9201Z" fill="#FFCF9F"/>
<path d="M268.753 54.2109C268.775 55.0812 266.61 55.7557 266.61 55.7557C265.598 56.0168 264.684 56.4846 263.868 56.4846C263.542 56.4846 263.215 56.4085 262.911 56.2018C262.28 55.7993 261.692 54.8528 261.137 52.9707C261.137 52.9598 261.127 52.9489 261.127 52.938C261.127 52.9272 261.116 52.9163 261.116 52.9054C261.116 52.8945 261.116 52.8836 261.105 52.8728C261.007 52.492 260.898 52.0894 260.8 51.6216C260.724 51.317 260.604 51.0015 260.593 50.6534C260.528 49.7831 260.234 49.25 259.843 48.9454C259.799 48.9127 259.756 48.8692 259.723 48.8583C259.44 48.6625 259.114 48.5646 258.766 48.5211C258.233 48.4558 257.689 48.5211 257.275 48.5537C257.275 48.4449 257.264 48.3361 257.264 48.2273V48.2165C257.232 47.3461 257.177 46.5846 257.09 45.9101C256.438 39.6219 254.099 40.2856 246.396 41.5149C246.494 41.2103 246.603 40.8948 246.723 40.5902C246.842 40.2855 246.984 39.9918 247.136 39.6872C247.299 39.3934 247.462 39.0997 247.647 38.8168C247.832 38.534 248.028 38.262 248.246 38.0009C248.387 37.816 248.539 37.6419 248.713 37.4787C250.16 35.9665 252.184 34.8133 254.893 34.3564C255.121 34.3238 255.35 34.2911 255.578 34.2585C256.47 34.1606 257.373 34.1388 258.233 34.1932C258.755 34.2258 259.277 34.302 259.777 34.389C259.995 34.4325 260.234 34.4869 260.452 34.5522C260.724 34.6175 260.974 34.6828 261.235 34.7698C261.866 34.9765 262.476 35.2485 263.03 35.5531C263.291 35.6945 263.542 35.8577 263.792 36.0318C263.89 36.1079 263.988 36.1623 264.075 36.2385C264.401 36.467 264.706 36.728 264.999 37.0327C265.087 37.0979 265.163 37.1741 265.239 37.272C265.402 37.4352 265.554 37.6093 265.707 37.7942C265.75 37.8269 265.783 37.8704 265.783 37.903C265.815 37.903 265.794 37.9139 265.794 37.9139C265.989 38.1424 266.164 38.3926 266.316 38.6319C266.479 38.893 266.62 39.1432 266.773 39.4261C266.99 39.8504 267.186 40.3073 267.349 40.7969C267.415 40.9818 267.469 41.1668 267.534 41.3626C267.632 41.7542 267.73 42.1568 267.806 42.5702C267.817 42.6246 267.817 42.6681 267.828 42.7225C267.991 43.5928 268.133 44.4523 268.241 45.3117C268.405 46.3779 268.513 47.444 268.6 48.4884C268.753 50.3923 268.796 52.307 268.753 54.2109Z" fill="#BD7454"/>
<path d="M263.455 48.4994C263.683 50.784 262.878 53.5364 260.942 52.8075C259.614 52.3071 259.092 51.1648 258.798 49.3915C258.505 47.6181 259.462 46.3997 260.789 45.9863C262.193 45.5729 263.281 46.7152 263.455 48.4994Z" fill="#FFCF9F"/>
<path d="M262.987 55.8971C261.79 61.3259 257.863 65.8951 252.739 67.0918C251.205 67.4617 249.682 66.4173 249.431 64.8616L247.984 56.1256C250.106 55.5708 252.108 55.7775 253.827 57.5508L253.37 55.3097C253.163 54.287 253.566 53.2426 254.392 52.6116C255.633 51.6543 256.633 50.3488 257.264 48.1947L259.429 46.5193C259.56 48.4123 260.104 51.3605 261.137 52.938C261.779 53.9171 262.138 54.9942 262.987 55.8971Z" fill="#FFCF9F"/>
<path d="M252.336 58.8237V58.8454C252.423 59.3785 252.064 59.8789 251.531 59.966L248.692 60.4338L248.365 58.4864L251.205 58.0186C251.738 57.9316 252.249 58.2906 252.336 58.8237Z" fill="#F2C394"/>
<path d="M256.013 28.9929C249.616 29.3302 244.699 34.7915 245.036 41.1993L268.22 39.97C267.871 33.5731 262.41 28.6557 256.013 28.9929Z" fill="#928A8B"/>
<path d="M268.888 38.2471L244.162 39.552L244.532 46.5701L269.259 45.2652L268.888 38.2471Z" fill="#DCC5C5"/>
<path d="M249.888 123.62C248.877 124.795 247.854 125.981 246.842 127.156C236.659 118.365 219.035 103.929 208.265 95.965C209.189 94.7139 210.114 93.4628 211.039 92.2117C221.907 100.24 239.618 114.753 249.888 123.62Z" fill="#3C3C3B"/>
<path d="M211.224 92.3422C210.299 93.5933 209.374 94.8444 208.45 96.0955C201.422 90.8953 194.274 85.8691 187.007 81.0279C187.866 79.7333 188.737 78.4387 189.596 77.144C196.918 82.0288 204.131 87.0876 211.224 92.3422Z" fill="#00A683"/>
<path d="M189.4 77.4269C188.66 78.5366 187.931 79.6354 187.192 80.7451C173.005 71.2802 158.384 62.5007 143.381 54.4393C144.012 53.2752 144.643 52.1002 145.263 50.9253C160.375 59.0412 175.105 67.8859 189.4 77.4269Z" fill="#575756"/>
<path d="M145.231 51.6434C144.807 52.4376 144.382 53.2209 143.958 54.0151C128.945 45.9318 113.562 38.5775 97.8413 31.9521C98.1894 31.1253 98.5376 30.2985 98.8857 29.4717C114.682 36.1188 130.152 43.5167 145.231 51.6434Z" fill="#575756"/>
<path d="M98.9617 30.0918C98.755 30.5922 98.5374 31.0818 98.3307 31.5822C82.5994 24.9459 66.5526 19.0603 50.223 13.9362C50.3862 13.4249 50.5494 12.9027 50.7017 12.3914C67.0857 17.5263 83.1869 23.4337 98.9617 30.0918Z" fill="#575756"/>
<path d="M50.9085 12.7939C50.8106 13.0985 50.7235 13.3922 50.6256 13.6968C34.3177 8.46398 17.727 4.00353 0.907837 0.326378C0.929595 0.217586 0.951351 0.108792 0.973109 0C17.8467 3.48133 34.5136 7.74595 50.9085 12.7939Z" fill="#575756"/>
<path d="M145.351 57.0394L145.285 56.985L145.198 56.9632C125.986 52.4484 110.069 44.376 99.1903 33.6057L99.1032 33.5186L98.9836 33.5078C82.7954 32.5395 64.5184 29.6457 51.7789 15.5027C51.3219 15.0023 49.5378 14.9805 45.9585 15.1437C45.0882 15.1764 44.3375 15.209 44.0329 15.1873C41.3022 15.0023 38.5933 14.7086 35.9497 14.2952C30.2273 13.4031 24.6789 11.9561 19.4678 10.0088C16.8241 9.01876 14.224 7.88734 11.7436 6.63623C10.7971 6.15755 9.81794 5.50479 8.77354 4.80853C7.13078 3.70973 5.44451 2.5783 3.79088 2.1105C3.13813 1.92555 2.51802 1.90379 1.93054 1.99083C1.9523 2.20841 1.96317 2.42599 1.98493 2.64357C2.50713 2.56742 3.04021 2.5783 3.61681 2.74148C5.17253 3.17665 6.82617 4.28633 8.41452 5.35248C9.4698 6.05963 10.4707 6.73414 11.4498 7.2237C13.952 8.48568 16.563 9.62799 19.2284 10.618C24.483 12.5871 30.0749 14.0449 35.8409 14.9479C38.4954 15.3613 41.237 15.6659 43.9785 15.8509C44.3266 15.8726 45.0556 15.84 45.9803 15.8074C47.5795 15.7421 50.9085 15.6007 51.3002 15.9597C64.1702 30.244 82.5343 33.1923 98.8313 34.1714C109.776 44.9635 125.735 53.0576 144.981 57.5942L186.039 95.3776L186.474 94.8989L145.351 57.0394Z" fill="white"/>
<path d="M197.535 86.7257L194.856 90.1968L197.707 92.397L200.386 88.9259L197.535 86.7257Z" fill="#00755D"/>
<path d="M187.834 101.905C191.239 104.538 196.134 103.907 198.767 100.501C201.4 97.0963 200.769 92.2007 197.364 89.5679C193.959 86.9351 189.063 87.5661 186.43 90.9713C183.797 94.3765 184.418 99.2721 187.834 101.905Z" fill="#00A683"/>
<path d="M189.596 99.6093C191.739 101.263 194.818 100.86 196.472 98.7281C198.125 96.5849 197.723 93.5061 195.59 91.8525C193.447 90.1989 190.368 90.6014 188.715 92.7337C187.061 94.8769 187.453 97.9557 189.596 99.6093Z" fill="#EDEDED"/>
<path d="M191.892 96.6285C192.392 97.0093 193.099 96.9222 193.48 96.4218C193.861 95.9214 193.774 95.2142 193.273 94.8334C192.773 94.4526 192.066 94.5397 191.685 95.0401C191.304 95.5297 191.402 96.2477 191.892 96.6285Z" fill="#3C3C3B"/>
<path d="M185.364 98.0536C186.213 98.7064 187.442 98.5541 188.095 97.7055C188.747 96.8569 188.595 95.6276 187.747 94.9748C186.898 94.3221 185.669 94.4744 185.016 95.3229C184.352 96.1715 184.515 97.39 185.364 98.0536Z" fill="#3C3C3B"/>
<path d="M186.082 97.1181C186.419 97.3792 186.909 97.3139 187.159 96.9766C187.42 96.6394 187.355 96.1498 187.018 95.8996C186.68 95.6385 186.191 95.7038 185.941 96.041C185.68 96.3783 185.745 96.857 186.082 97.1181Z" fill="#F6F6F6"/>
<path d="M144.698 59.0848C144.513 59.1283 144.306 59.0956 144.121 58.9977C143.729 58.7801 143.599 58.2797 143.827 57.8989L145.253 55.4294C145.47 55.0377 145.971 54.9071 146.351 55.1356C146.743 55.3532 146.874 55.8536 146.645 56.2344L145.22 58.704C145.111 58.8998 144.915 59.0412 144.698 59.0848Z" fill="#EDEDED"/>
<path d="M98.5809 35.5857C98.3959 35.6292 98.1892 35.5966 98.0043 35.4987C97.6127 35.2811 97.4821 34.7806 97.7106 34.3999L99.1357 31.9303C99.3533 31.5387 99.8537 31.4081 100.235 31.6366C100.626 31.8542 100.757 32.3546 100.528 32.7354L99.1031 35.2049C98.9943 35.4116 98.7985 35.5422 98.5809 35.5857Z" fill="#EDEDED"/>
<path d="M51.5068 17.4719C51.4198 17.4936 51.3328 17.4936 51.2458 17.461C50.9629 17.374 50.7997 17.0802 50.8759 16.7974L51.5721 14.404C51.6592 14.1211 51.9529 13.9579 52.2358 14.0341C52.5186 14.1211 52.6818 14.4148 52.6057 14.7086L51.9094 17.102C51.855 17.2869 51.6918 17.4284 51.5068 17.4719Z" fill="#EDEDED"/>
<path d="M2.16984 3.02425C2.10456 3.03513 2.0284 3.04601 1.95225 3.02425C1.65851 2.96986 1.46268 2.687 1.52796 2.39326L1.88697 0.489421C1.94137 0.195686 2.22423 0.0107416 2.51797 0.0651371C2.81171 0.119533 3.00753 0.402391 2.94226 0.696127L2.58324 2.59997C2.53973 2.81755 2.36566 2.98074 2.16984 3.02425Z" fill="#EDEDED"/>
<path d="M235.941 116.984C236.572 116.56 236.735 115.711 236.311 115.091L236.17 114.884C235.963 114.58 235.658 114.373 235.299 114.308C234.94 114.242 234.571 114.308 234.277 114.514L231.981 116.048C231.394 116.44 231.241 117.234 231.633 117.821L231.916 118.246C232.286 118.79 233.026 118.942 233.57 118.572L235.941 116.984Z" fill="#FFCF9F"/>
<path d="M237.91 119.246C238.215 119.051 238.433 118.735 238.509 118.376C238.585 118.017 238.509 117.647 238.302 117.343L238.161 117.136C237.747 116.516 236.91 116.342 236.279 116.755L233.352 118.648C233.069 118.833 232.863 119.127 232.797 119.464C232.732 119.801 232.797 120.149 232.982 120.432L233.265 120.857C233.624 121.4 234.353 121.542 234.897 121.194L237.91 119.246Z" fill="#FFCF9F"/>
<path d="M245.319 118.344C246.298 116.831 245.983 114.993 245.08 113.753L254.697 108.596L249.181 103.2L240.739 110.173L238.781 109.988C237.29 109.684 235.702 111.011 235.343 111.413L236.42 112.295L234.233 114.492L232.754 116.244C235.756 118.365 238.346 121.814 241.751 122.576L245.319 118.344Z" fill="#FFCF9F"/>
<path d="M241.762 122.575C242.219 122.216 242.273 121.531 241.881 121.041L241.751 120.878C241.359 120.389 240.685 120.291 240.228 120.65L238.563 121.966C238.139 122.303 238.085 122.945 238.454 123.402L238.716 123.739C239.053 124.164 239.651 124.262 240.043 123.946L241.762 122.575Z" fill="#FFCF9F"/>
<path d="M239.771 121.466C240.402 121.041 240.565 120.193 240.141 119.573L239.999 119.366C239.793 119.061 239.488 118.855 239.129 118.789C238.77 118.724 238.4 118.789 238.106 118.996L235.811 120.53C235.223 120.922 235.071 121.716 235.463 122.303L235.745 122.728C235.92 122.989 236.191 123.174 236.507 123.228C236.822 123.293 237.138 123.228 237.399 123.054L239.771 121.466Z" fill="#FFCF9F"/>
<path d="M278.555 67.2549L278.446 67.2222C275.357 66.3084 272.115 68.0817 271.212 71.1714L264.619 91.6677C265.968 96.5198 268.067 100.121 271.973 102.079L282.504 74.4787C283.407 71.3999 281.645 68.1687 278.555 67.2549Z" fill="#E0DCDC"/>
<path d="M246.831 115.754L240.402 108.53L264.608 91.6677L271.962 102.079L246.831 115.754Z" fill="#E0DCDC"/>
<path opacity="0.1" d="M268.546 47.9008C268.47 47.0413 268.372 46.1819 268.252 45.3115L267.991 45.3224L257.09 45.899L246.103 46.4756C246.179 46.9652 246.266 47.4547 246.353 47.9008H268.546Z" fill="#1D1D1B"/>
<path d="M342.381 131.856V136.298H340.109L334.228 149.435C330.6 157.533 322.521 162.76 313.656 162.76H182.197C163.131 162.76 145.309 153.419 134.537 137.775C132.227 134.418 130.124 130.968 128.263 127.452C128.656 127.452 124.467 119.392 124.467 119.392C121.914 119.373 115.537 119.355 115.537 119.355L118.099 125.049C120.764 130.977 124.064 136.794 127.889 142.348C140.175 160.179 160.476 170.82 182.197 170.82H313.656C325.7 170.82 336.668 163.714 341.596 152.718L350.946 131.847H342.381V131.856Z" fill="#633C13"/>
<path d="M346.514 131.856L342.914 139.907L342.185 141.525L339.604 147.285L338.875 148.912L337.902 151.072C337.397 152.166 336.836 153.231 336.21 154.232L335.097 155.878C333.713 157.795 332.077 159.496 330.235 160.946C329.459 161.572 328.655 162.152 327.832 162.676L327.804 162.694C323.643 165.312 318.762 166.78 313.647 166.78H182.197C174.417 166.78 166.815 165.331 159.755 162.582C159.737 162.563 159.727 162.563 159.709 162.582C158.465 162.096 157.306 161.582 156.09 161.02C151.714 159.001 147.581 156.467 143.803 153.465C143.14 152.951 142.494 152.418 141.868 151.866C139.268 149.66 136.847 147.2 134.621 144.554C134.182 144.021 133.752 143.488 133.331 142.937C132.601 142.001 131.891 141.029 131.218 140.047C129.974 138.243 128.796 136.429 127.711 134.605C127.374 134.072 127.047 133.521 126.739 132.988C124.85 129.762 123.185 126.526 121.764 123.385C199.458 123.385 273.814 133.736 322.193 131.828V131.847H346.514V131.856Z" fill="#8B6332"/>
<path d="M322.203 135.868V135.896H344.71L346.514 131.856L331.881 131.837C331.881 131.837 316.63 132.006 313.722 132.034C265.379 132.585 195.045 123.385 121.774 123.385C122.372 124.722 123.017 126.068 123.709 127.424C200.692 127.602 274.234 137.756 322.203 135.868Z" fill="#623512"/>
<path d="M342.914 139.907L322.885 140.057V139.991L322.044 140.019C298.013 141.151 268.054 139.309 233.363 137.195C200.804 135.213 164.038 132.969 126.748 132.997C127.057 133.53 127.375 134.082 127.72 134.615C164.618 134.615 201.001 136.84 233.251 138.813C260.723 140.496 285.231 141.974 306.195 141.974C311.524 141.974 316.62 141.88 321.483 141.665L342.194 141.515L342.914 139.907Z" fill="#633C13"/>
<path d="M339.604 147.285L338.875 148.912L322.736 149.239C316.069 149.613 308.953 149.772 301.398 149.772C281.818 149.772 259.367 148.687 234.476 147.481C203.872 145.994 169.555 144.33 134.621 144.564C134.182 144.031 133.752 143.498 133.331 142.946C168.741 142.675 203.563 144.367 234.551 145.863C269.269 147.547 299.247 148.996 323.269 147.593L324.129 147.528V147.593L339.604 147.285Z" fill="#633C13"/>
<path d="M336.219 154.242L322.044 154.681L322.025 154.616L321.221 154.681C297.994 156.345 268.923 155.195 235.271 153.858C206.602 152.708 174.567 151.436 141.877 151.876C142.504 152.428 143.149 152.961 143.813 153.475C175.792 153.101 207.116 154.363 235.205 155.476C256.964 156.327 276.815 157.122 294.441 157.122C303.848 157.122 312.628 156.897 320.716 156.345L335.097 155.897L336.219 154.242Z" fill="#633C13"/>
<path d="M330.244 160.955L323.708 161.264V161.217L322.885 161.283C299.677 163.321 270.588 162.62 236.916 161.816C211.932 161.198 184.376 160.553 156.099 161.021C157.306 161.582 158.475 162.105 159.718 162.582C159.737 162.564 159.746 162.564 159.765 162.582C186.741 162.208 212.979 162.844 236.888 163.424C254.243 163.826 270.401 164.219 285.156 164.219C298.798 164.219 311.253 163.891 322.39 162.947L327.813 162.704L327.841 162.685L330.244 160.955Z" fill="#633C13"/>
<path d="M336.827 154.606C347.533 158.459 344.579 164.864 334.452 161.077L193.231 107.292C191.856 106.516 192.52 104.057 194.325 104.31L336.827 154.606Z" fill="#8E6334"/>
<path d="M365.617 167.333L364.645 169.997C363.27 173.738 359.1 175.617 355.388 174.177L320.221 160.451C318.304 159.703 316.602 158.506 315.218 156.953L313.385 154.896C311.814 153.129 309.972 151.624 307.925 150.427L298.565 144.938C297.919 144.564 298.284 143.573 299.013 143.704L310.15 145.649C312.188 146.004 314.274 146.041 316.321 145.751L319.482 145.303C321.539 145.013 323.615 145.209 325.56 145.873L361.26 158.15C365.028 159.45 366.992 163.592 365.617 167.333Z" fill="#815A2C"/>
</svg>
