<svg width="1759" height="1556" viewBox="0 0 1759 1556" fill="none" xmlns="http://www.w3.org/2000/svg">
<path opacity="0.25" fill-rule="evenodd" clip-rule="evenodd" d="M877.361 0.043073C876.051 0.043073 874.801 0.0860987 873.589 0.172161C872.515 0.215192 871.46 0.301243 870.463 0.430336C868.275 0.645491 866.223 0.946671 864.328 1.33395C863.136 1.5491 861.983 1.80735 860.889 2.06553C859.658 2.36675 858.486 2.71096 857.372 3.09823C856.512 3.35642 855.672 3.61466 854.871 3.95891C853.855 4.30315 852.878 4.69039 851.94 5.1207C851.393 5.33585 850.866 5.55102 850.338 5.80921C850.178 5.88738 850.019 5.95667 849.861 6.02514L849.86 6.02564C849.67 6.10776 849.483 6.18873 849.302 6.28248C847.935 6.92795 846.626 7.57351 845.317 8.262L845.315 8.26274C845.237 8.30553 845.16 8.34831 845.063 8.39109C844.818 8.52018 844.579 8.64927 844.34 8.77835C844.1 8.90744 843.861 9.03653 843.617 9.16562L843.615 9.16649C843.049 9.46741 842.483 9.76835 841.897 10.0263C837.853 12.1778 833.73 14.2862 828.787 15.9645C828.337 16.1366 827.868 16.2657 827.399 16.3948H827.38C827.37 16.4018 827.361 16.4088 827.352 16.4156L827.351 16.4168C827.307 16.4514 827.269 16.4809 827.204 16.4809C826.071 16.8252 824.898 17.1693 823.648 17.4706C823.39 17.5416 823.126 17.5996 822.856 17.6589C822.636 17.7074 822.411 17.7568 822.182 17.8149C821.088 18.03 819.955 18.2452 818.763 18.4603C818.407 18.4996 818.046 18.5477 817.68 18.5967L817.679 18.5968C817.242 18.6552 816.797 18.7148 816.34 18.7616C815.285 18.8907 814.21 19.0197 813.077 19.1058V19.1918L813.038 19.1058C812.315 19.1488 811.573 19.1918 810.811 19.2348H810.791L810.786 19.2351C809.85 19.278 808.914 19.321 807.919 19.321H807.899C807.275 19.3639 806.651 19.3639 805.989 19.3639H805.984H805.978C805.003 19.3639 804.048 19.3639 803.112 19.321C793.909 19.0628 787.129 17.5136 781.443 15.3621C776.945 13.6982 773.116 11.6782 769.284 9.6572C760.136 4.83129 750.977 0 732.674 0C714.371 0 705.217 4.8384 696.06 9.67809C686.899 14.5204 677.735 19.3639 659.403 19.3639C641.087 19.3639 631.928 14.5242 622.768 9.6839C613.606 4.84227 604.442 0 586.112 0C567.809 0 558.655 4.8384 549.498 9.67809C540.337 14.5204 531.173 19.3639 512.841 19.3639C494.535 19.3639 485.381 14.5242 476.226 9.6839C467.068 4.84228 457.909 0 439.589 0C421.256 0 412.093 4.84357 402.931 9.68584C393.775 14.5255 384.621 19.3639 366.318 19.3639C347.997 19.3639 338.838 14.5217 329.681 9.68003C320.525 4.83969 311.371 0 293.066 0C274.745 0 265.587 4.84228 256.429 9.6839C247.274 14.5242 238.12 19.3639 219.814 19.3639C201.484 19.3639 192.32 14.5217 183.158 9.68003C173.997 4.83969 164.838 0 146.523 0C128.22 0 119.066 4.8384 109.909 9.67809C100.748 14.5204 91.5843 19.3639 73.2518 19.3639C54.9462 19.3639 45.7921 14.5242 36.6369 9.6839C27.4792 4.84228 18.3203 0 0 0V778V1535.43V1556C0.644775 1556 1.27002 1556 1.89526 1555.96C3.20435 1555.96 4.45496 1555.91 5.66638 1555.83C6.74097 1555.78 7.79602 1555.7 8.7926 1555.57C10.981 1555.35 13.0326 1555.05 14.9279 1554.67C16.1198 1554.45 17.2725 1554.19 18.3666 1553.93C19.5977 1553.63 20.77 1553.29 21.8837 1552.9C22.7434 1552.64 23.5836 1552.39 24.3846 1552.04C25.4008 1551.7 26.3777 1551.31 27.3156 1550.88C27.8627 1550.66 28.3901 1550.45 28.9177 1550.19C29.0779 1550.11 29.238 1550.04 29.3962 1549.97C29.5189 1549.92 29.6404 1549.87 29.76 1549.81C29.825 1549.78 29.8895 1549.75 29.9532 1549.72C31.321 1549.07 32.6301 1548.43 33.9393 1547.74L33.9419 1547.74C34.0192 1547.69 34.0967 1547.65 34.1932 1547.61C34.4375 1547.48 34.6769 1547.35 34.9161 1547.22C35.1555 1547.09 35.3949 1546.96 35.6392 1546.83L35.6406 1546.83L35.6424 1546.83C36.208 1546.53 36.7737 1546.23 37.3586 1545.97C41.4032 1543.82 45.5259 1541.71 50.4692 1540.04C50.9186 1539.86 51.3876 1539.73 51.8566 1539.61H51.8761L51.9048 1539.58C51.9492 1539.55 51.9873 1539.52 52.052 1539.52C53.1853 1539.17 54.3575 1538.83 55.608 1538.53C55.866 1538.46 56.1296 1538.4 56.3993 1538.34L56.402 1538.34C56.6218 1538.29 56.8457 1538.24 57.0734 1538.19C58.1676 1537.97 59.3009 1537.75 60.4928 1537.54C60.849 1537.5 61.2092 1537.45 61.5754 1537.4C62.0127 1537.34 62.4584 1537.29 62.9156 1537.24C63.9707 1537.11 65.0454 1536.98 66.1786 1536.89V1536.81L66.2178 1536.89C66.9407 1536.85 67.6832 1536.81 68.4452 1536.77H68.4647L68.4698 1536.76C69.406 1536.72 70.3423 1536.68 71.337 1536.68H71.3566C71.9805 1536.64 72.6044 1536.64 73.2673 1536.64H73.2714H73.2776C74.2522 1536.64 75.2076 1536.64 76.1436 1536.68C85.3464 1536.94 92.1265 1538.49 97.8124 1540.64C102.311 1542.3 106.14 1544.32 109.972 1546.34C119.12 1551.17 128.279 1556 146.582 1556C164.885 1556 174.039 1551.16 183.195 1546.32C192.357 1541.48 201.521 1536.64 219.853 1536.64C238.168 1536.64 247.327 1541.48 256.487 1546.32C265.65 1551.16 274.814 1556 293.144 1556C311.447 1556 320.601 1551.16 329.758 1546.32C338.919 1541.48 348.083 1536.64 366.415 1536.64C384.721 1536.64 393.875 1541.48 403.03 1546.32C412.188 1551.16 421.347 1556 439.667 1556C457.999 1556 467.163 1551.16 476.325 1546.31C485.481 1541.47 494.635 1536.64 512.938 1536.64C531.259 1536.64 540.418 1541.48 549.575 1546.32C558.73 1551.16 567.884 1556 586.19 1556C604.51 1556 613.669 1551.16 622.827 1546.32C631.982 1541.48 641.136 1536.64 659.442 1536.64C677.772 1536.64 686.936 1541.48 696.098 1546.32C705.258 1551.16 714.417 1556 732.733 1556C751.036 1556 760.19 1551.16 769.346 1546.32C778.508 1541.48 787.672 1536.64 806.004 1536.64C824.31 1536.64 833.464 1541.48 842.619 1546.32C851.777 1551.16 860.935 1556 879.256 1556C879.658 1556 880.053 1556 880.445 1555.99C880.681 1555.98 880.916 1555.97 881.151 1555.96C882.46 1555.96 883.711 1555.91 884.922 1555.83C885.997 1555.78 887.052 1555.7 888.048 1555.57C890.237 1555.35 892.288 1555.05 894.184 1554.67C895.376 1554.45 896.528 1554.19 897.622 1553.93C898.853 1553.63 900.026 1553.29 901.14 1552.9C901.999 1552.64 902.839 1552.39 903.641 1552.04C904.657 1551.7 905.634 1551.31 906.571 1550.88C907.119 1550.66 907.646 1550.45 908.174 1550.19C908.33 1550.11 908.486 1550.05 908.641 1549.98L908.652 1549.97C908.733 1549.94 908.813 1549.9 908.893 1549.87C909 1549.82 909.105 1549.77 909.209 1549.72C910.577 1549.07 911.886 1548.43 913.195 1547.74L913.196 1547.74L913.199 1547.74C913.276 1547.69 913.353 1547.65 913.449 1547.61C913.693 1547.48 913.933 1547.35 914.172 1547.22C914.411 1547.09 914.651 1546.96 914.895 1546.83L914.897 1546.83C915.463 1546.53 916.029 1546.23 916.614 1545.97C920.659 1543.82 924.782 1541.71 929.725 1540.04C930.174 1539.86 930.643 1539.73 931.112 1539.61H931.132C931.141 1539.6 931.149 1539.59 931.158 1539.59L931.161 1539.58C931.205 1539.55 931.243 1539.52 931.308 1539.52C932.441 1539.17 933.613 1538.83 934.864 1538.53C935.121 1538.46 935.384 1538.4 935.653 1538.34L935.655 1538.34C935.876 1538.29 936.101 1538.24 936.329 1538.19C936.833 1538.09 937.345 1537.99 937.867 1537.89C938.479 1537.77 939.105 1537.66 939.749 1537.54C940.105 1537.5 940.465 1537.45 940.831 1537.4C941.269 1537.34 941.714 1537.29 942.171 1537.24C943.227 1537.11 944.301 1536.98 945.434 1536.89V1536.81L945.474 1536.89C946.197 1536.85 946.939 1536.81 947.701 1536.77H947.721L947.725 1536.77C948.662 1536.72 949.598 1536.68 950.593 1536.68H950.612C951.236 1536.64 951.86 1536.64 952.523 1536.64H952.527H952.533C953.508 1536.64 954.463 1536.64 955.399 1536.68C964.602 1536.94 971.382 1538.49 977.068 1540.64C981.567 1542.3 985.396 1544.32 989.227 1546.34C998.376 1551.17 1007.53 1556 1025.84 1556C1044.14 1556 1053.29 1551.16 1062.45 1546.32C1071.61 1541.48 1080.78 1536.64 1099.11 1536.64C1117.42 1536.64 1126.58 1541.48 1135.74 1546.32C1144.91 1551.16 1154.07 1556 1172.4 1556C1190.7 1556 1199.86 1551.16 1209.01 1546.32C1218.17 1541.48 1227.34 1536.64 1245.67 1536.64C1263.98 1536.64 1273.13 1541.48 1282.29 1546.32C1291.44 1551.16 1300.6 1556 1318.92 1556C1337.26 1556 1346.42 1551.16 1355.58 1546.31C1364.74 1541.47 1373.89 1536.64 1392.19 1536.64C1410.51 1536.64 1419.67 1541.48 1428.83 1546.32C1437.99 1551.16 1447.14 1556 1465.45 1556C1483.77 1556 1492.93 1551.16 1502.08 1546.32C1511.24 1541.48 1520.39 1536.64 1538.7 1536.64C1557.03 1536.64 1566.19 1541.48 1575.35 1546.32C1584.51 1551.16 1593.67 1556 1611.99 1556C1630.29 1556 1639.45 1551.16 1648.6 1546.32C1657.76 1541.48 1666.93 1536.64 1685.26 1536.64C1703.57 1536.64 1712.72 1541.48 1721.87 1546.32C1731.03 1551.16 1740.19 1556 1758.51 1556V778V20.5688V0C1757.87 0 1757.24 4.20213e-05 1756.62 0.043073C1755.31 0.043073 1754.06 0.0860987 1752.85 0.172161C1751.77 0.215192 1750.72 0.301243 1749.72 0.430336C1747.53 0.645491 1745.48 0.946671 1743.58 1.33395C1742.39 1.5491 1741.24 1.80735 1740.15 2.06553C1738.91 2.36675 1737.74 2.71096 1736.63 3.09823C1735.77 3.35642 1734.93 3.61466 1734.13 3.95891C1733.11 4.30315 1732.13 4.69039 1731.2 5.1207C1730.65 5.33585 1730.12 5.55102 1729.59 5.80921C1729.43 5.88715 1729.28 5.95625 1729.12 6.02451L1729.12 6.02563L1729.11 6.02614C1728.93 6.10809 1728.74 6.18892 1728.56 6.28248C1727.19 6.92795 1725.88 7.57351 1724.57 8.262C1724.49 8.30503 1724.42 8.34806 1724.32 8.39109C1724.07 8.52018 1723.83 8.64927 1723.6 8.77835C1723.36 8.90744 1723.12 9.03653 1722.87 9.16562L1722.87 9.16649C1722.3 9.46741 1721.74 9.76835 1721.15 10.0263C1717.11 12.1778 1712.99 14.2862 1708.04 15.9645C1707.59 16.1366 1707.12 16.2657 1706.66 16.3948H1706.64C1706.63 16.4022 1706.62 16.4095 1706.61 16.4167C1706.56 16.4513 1706.52 16.4809 1706.46 16.4809C1705.33 16.8252 1704.15 17.1693 1702.9 17.4706C1702.65 17.5415 1702.38 17.5995 1702.11 17.6588L1702.11 17.6591C1701.89 17.7076 1701.67 17.7569 1701.44 17.8149C1700.34 18.03 1699.21 18.2452 1698.02 18.4603C1697.66 18.4995 1697.3 18.5476 1696.94 18.5965L1696.94 18.5967C1696.5 18.6551 1696.05 18.7147 1695.6 18.7616C1694.54 18.8907 1693.47 19.0197 1692.33 19.1058V19.1918L1692.29 19.1058C1691.57 19.1488 1690.83 19.1918 1690.07 19.2348H1690.05L1690.04 19.2351C1689.11 19.278 1688.17 19.321 1687.17 19.321H1687.16C1686.53 19.3639 1685.91 19.3639 1685.24 19.3639H1685.24H1685.23C1684.26 19.3639 1683.3 19.3639 1682.37 19.321C1673.17 19.0628 1666.39 17.5136 1660.7 15.3621C1656.2 13.6982 1652.37 11.6782 1648.54 9.6572C1639.39 4.83129 1630.23 0 1611.93 0C1593.63 0 1584.47 4.83841 1575.32 9.67811C1566.15 14.5204 1556.99 19.3639 1538.66 19.3639C1520.34 19.3639 1511.18 14.5243 1502.02 9.68391C1492.86 4.84228 1483.7 0 1465.37 0C1447.06 0 1437.91 4.8384 1428.75 9.6781C1419.59 14.5204 1410.43 19.3639 1392.1 19.3639C1373.79 19.3639 1364.64 14.5242 1355.48 9.6839C1346.32 4.84228 1337.16 0 1318.84 0C1300.51 0 1291.35 4.84356 1282.19 9.68583C1273.03 14.5255 1263.88 19.3639 1245.57 19.3639C1227.25 19.3639 1218.09 14.5217 1208.94 9.68003C1199.78 4.83969 1190.63 0 1172.32 0C1154 0 1144.84 4.84227 1135.68 9.68389C1126.53 14.5242 1117.38 19.3639 1099.07 19.3639C1080.74 19.3639 1071.58 14.5217 1062.41 9.68003C1053.25 4.83969 1044.09 0 1025.78 0C1007.48 0 998.322 4.8384 989.165 9.6781C980.004 14.5204 970.84 19.3639 952.508 19.3639C934.202 19.3639 925.048 14.5242 915.893 9.68391C906.735 4.84228 897.576 0 879.256 0C878.611 0 877.986 4.20213e-05 877.361 0.043073Z" fill="url(#paint0_linear)"/>
<defs>
<linearGradient id="paint0_linear" x1="1318.88" y1="1556" x2="1318.88" y2="972.29" gradientUnits="userSpaceOnUse">
<stop stop-color="#051429"/>
<stop offset="1" stop-color="#007CD6"/>
</linearGradient>
</defs>
</svg>
