<svg width="1440" height="548" viewBox="0 0 1440 548" fill="none" xmlns="http://www.w3.org/2000/svg">
<path opacity="0.25" d="M1676.43 0.043073C1675.12 0.043073 1673.87 0.0860987 1672.66 0.172161C1671.59 0.215192 1670.53 0.301243 1669.53 0.430336C1667.35 0.645491 1665.29 0.946671 1663.4 1.33395C1662.21 1.5491 1661.05 1.80735 1659.96 2.06553C1658.73 2.36675 1657.56 2.71096 1656.44 3.09823C1655.58 3.35642 1654.74 3.61466 1653.94 3.95891C1652.93 4.30315 1651.95 4.69039 1651.01 5.1207C1650.46 5.33585 1649.94 5.55102 1649.41 5.80921C1649.06 5.98133 1648.71 6.11036 1648.37 6.28248C1647.01 6.92795 1645.7 7.57351 1644.39 8.262C1644.31 8.30503 1644.23 8.34806 1644.13 8.39109C1643.64 8.64928 1643.18 8.90743 1642.69 9.16562C1642.12 9.46683 1641.55 9.7681 1640.97 10.0263C1636.92 12.1778 1632.8 14.2862 1627.86 15.9645C1627.41 16.1366 1626.94 16.2657 1626.47 16.3948H1626.45C1626.39 16.4378 1626.35 16.4809 1626.27 16.4809C1625.14 16.8252 1623.97 17.1693 1622.72 17.4706C1622.25 17.5997 1621.76 17.6858 1621.25 17.8149C1620.16 18.03 1619.03 18.2452 1617.83 18.4603C1617.05 18.5464 1616.25 18.6755 1615.41 18.7616C1614.36 18.8907 1613.28 19.0197 1612.15 19.1058V19.1918C1612.13 19.1487 1612.13 19.1488 1612.11 19.1058C1611.39 19.1488 1610.64 19.1918 1609.88 19.2348H1609.86C1608.92 19.2779 1607.99 19.321 1606.99 19.321H1606.97C1606.34 19.364 1605.72 19.3639 1605.05 19.3639C1604.08 19.3639 1603.12 19.364 1602.18 19.321C1592.98 19.0628 1586.2 17.5136 1580.51 15.3621C1565.27 9.72503 1557.71 0 1531.74 0C1495.13 0 1495.13 19.3639 1458.47 19.3639C1421.84 19.3639 1421.84 0 1385.18 0C1348.57 0 1348.57 19.3639 1311.91 19.3639C1275.3 19.3639 1275.29 0 1238.66 0C1202 0 1202 19.3639 1165.39 19.3639C1128.75 19.3639 1128.75 0 1092.14 0C1055.5 0 1055.5 19.3639 1018.88 19.3639C982.229 19.3639 982.229 0 945.594 0C908.977 0 908.977 19.3639 872.322 19.3639C835.706 19.3639 835.706 0 799.07 0V778H1678.33V20.5688V0C1677.68 0 1677.06 4.20227e-05 1676.43 0.043073Z" fill="url(#paint0_linear)"/>
<path opacity="0.25" d="M797.175 0.043073C795.866 0.043073 794.616 0.0860987 793.404 0.172161C792.33 0.215192 791.274 0.301243 790.278 0.430336C788.09 0.645491 786.038 0.946671 784.143 1.33395C782.951 1.5491 781.798 1.80735 780.704 2.06553C779.473 2.36675 778.3 2.71096 777.187 3.09823C776.327 3.35642 775.487 3.61466 774.686 3.95891C773.67 4.30315 772.693 4.69039 771.755 5.1207C771.208 5.33585 770.68 5.55102 770.153 5.80921C769.801 5.98133 769.449 6.11036 769.117 6.28248C767.749 6.92795 766.44 7.57351 765.131 8.262C765.053 8.30503 764.975 8.34806 764.877 8.39109C764.389 8.64928 763.92 8.90743 763.431 9.16562C762.865 9.46683 762.298 9.7681 761.712 10.0263C757.667 12.1778 753.545 14.2862 748.601 15.9645C748.152 16.1366 747.683 16.2657 747.214 16.3948H747.194C747.136 16.4378 747.097 16.4809 747.018 16.4809C745.885 16.8252 744.713 17.1693 743.462 17.4706C742.994 17.5997 742.505 17.6858 741.997 17.8149C740.903 18.03 739.77 18.2452 738.578 18.4603C737.796 18.5464 736.995 18.6755 736.155 18.7616C735.1 18.8907 734.025 19.0197 732.892 19.1058V19.1918C732.872 19.1487 732.872 19.1488 732.853 19.1058C732.13 19.1488 731.387 19.1918 730.625 19.2348H730.606C729.668 19.2779 728.73 19.321 727.734 19.321H727.714C727.089 19.364 726.464 19.3639 725.799 19.3639C724.822 19.3639 723.865 19.364 722.927 19.321C713.724 19.0628 706.944 17.5136 701.258 15.3621C686.018 9.72503 678.456 0 652.489 0C615.873 0 615.873 19.3639 579.217 19.3639C542.582 19.3639 542.582 0 505.927 0C469.311 0 469.311 19.3639 432.655 19.3639C396.039 19.3639 396.039 0 359.404 0C322.748 0 322.748 19.3639 286.132 19.3639C249.497 19.3639 249.497 0 212.88 0C176.245 0 176.245 19.3639 139.629 19.3639C102.973 19.3639 102.973 0 66.3378 0C29.7217 0 29.7217 19.3639 -6.93353 19.3639C-43.5496 19.3639 -43.5496 0 -80.1853 0V778H799.07V20.5688V0C798.426 0 797.8 4.20227e-05 797.175 0.043073Z" fill="url(#paint1_linear)"/>
<defs>
<linearGradient id="paint0_linear" x1="1238.7" y1="0" x2="1238.7" y2="583.71" gradientUnits="userSpaceOnUse">
<stop stop-color="#007CD6"/>
<stop offset="1" stop-color="#051429"/>
</linearGradient>
<linearGradient id="paint1_linear" x1="359.443" y1="0" x2="359.443" y2="583.71" gradientUnits="userSpaceOnUse">
<stop stop-color="#007CD6"/>
<stop offset="1" stop-color="#051429"/>
</linearGradient>
</defs>
</svg>
