<svg width="1440" height="548" viewBox="0 0 1440 548" fill="none" xmlns="http://www.w3.org/2000/svg">
<path opacity="0.25" fill-rule="evenodd" clip-rule="evenodd" d="M793.404 0.172161C794.616 0.0860987 795.866 0.043073 797.175 0.043073C797.8 4.20227e-05 798.426 0 799.07 0C817.391 0 826.55 4.84228 835.707 9.68391C844.863 14.5242 854.017 19.3639 872.322 19.3639C890.655 19.3639 899.819 14.5204 908.98 9.6781C918.136 4.8384 927.29 0 945.594 0C963.909 0 973.068 4.83969 982.228 9.68003C991.391 14.5217 1000.55 19.3639 1018.88 19.3639C1037.19 19.3639 1046.34 14.5242 1055.5 9.6839C1064.66 4.84227 1073.82 0 1092.14 0C1110.44 0 1119.6 4.83969 1128.75 9.68003C1137.91 14.5217 1147.07 19.3639 1165.39 19.3639C1183.69 19.3639 1192.85 14.5255 1202 9.68583C1211.16 4.84356 1220.33 0 1238.66 0C1256.98 0 1266.14 4.84228 1275.3 9.6839C1284.45 14.5242 1293.61 19.3639 1311.91 19.3639C1330.24 19.3639 1339.41 14.5204 1348.57 9.67807C1357.73 4.83839 1366.88 0 1385.18 0C1403.51 0 1412.68 4.84228 1421.84 9.68391C1431 14.5243 1440.16 19.3639 1458.47 19.3639C1476.81 19.3639 1485.97 14.5204 1495.13 9.67811C1504.29 4.83841 1513.44 0 1531.74 0C1550.05 0 1559.21 4.83129 1568.35 9.6572C1572.19 11.6782 1576.02 13.6982 1580.51 15.3621C1586.2 17.5136 1592.98 19.0628 1602.18 19.321C1603.12 19.3639 1604.07 19.3639 1605.05 19.3639H1605.05H1605.06C1605.72 19.3639 1606.35 19.3639 1606.97 19.321H1606.99C1607.98 19.321 1608.92 19.278 1609.86 19.2351L1609.86 19.2348H1609.88C1610.64 19.1918 1611.39 19.1488 1612.11 19.1058L1612.15 19.1918V19.1058C1613.28 19.0197 1614.36 18.8907 1615.41 18.7616C1615.87 18.7147 1616.31 18.6552 1616.75 18.5967C1617.12 18.5477 1617.48 18.4995 1617.83 18.4603C1619.03 18.2452 1620.16 18.03 1621.25 17.8149C1621.48 17.7568 1621.71 17.7074 1621.93 17.6588C1622.2 17.5995 1622.46 17.5415 1622.72 17.4706C1623.97 17.1693 1625.14 16.8252 1626.27 16.4809C1626.34 16.4809 1626.38 16.4514 1626.42 16.4168C1626.43 16.4096 1626.44 16.4022 1626.45 16.3948H1626.47C1626.94 16.2657 1627.41 16.1366 1627.86 15.9645C1632.8 14.2862 1636.92 12.1778 1640.97 10.0263C1641.55 9.7681 1642.12 9.46683 1642.69 9.16562C1642.93 9.03652 1643.17 8.90744 1643.41 8.77835C1643.65 8.64927 1643.89 8.52018 1644.13 8.39109C1644.23 8.34806 1644.31 8.30503 1644.39 8.262C1645.7 7.57351 1647.01 6.92795 1648.37 6.28248C1648.55 6.18869 1648.74 6.10769 1648.93 6.02554C1649.09 5.95694 1649.25 5.88753 1649.41 5.80921C1649.94 5.55102 1650.46 5.33585 1651.01 5.1207C1651.95 4.69039 1652.93 4.30315 1653.94 3.95891C1654.74 3.61466 1655.58 3.35642 1656.44 3.09823C1657.56 2.71096 1658.73 2.36675 1659.96 2.06553C1661.05 1.80735 1662.21 1.5491 1663.4 1.33395C1665.29 0.946671 1667.35 0.645491 1669.53 0.430336C1670.53 0.301243 1671.59 0.215192 1672.66 0.172161C1673.87 0.0860987 1675.12 0.043073 1676.43 0.043073C1677.06 4.20227e-05 1677.68 0 1678.33 0V20.5688V778H799.07H-80.1853V0C-61.865 0 -52.7061 4.84228 -43.5484 9.6839C-34.3932 14.5242 -25.2391 19.3639 -6.93353 19.3639C11.399 19.3639 20.5628 14.5204 29.7241 9.67809C38.8806 4.8384 48.0346 0 66.3378 0C84.6532 0 93.8121 4.83969 102.972 9.68003C112.135 14.5217 121.299 19.3639 139.629 19.3639C157.934 19.3639 167.088 14.5242 176.244 9.6839C185.401 4.84228 194.56 0 212.88 0C231.186 0 240.34 4.83969 249.495 9.68003C258.653 14.5217 267.812 19.3639 286.132 19.3639C304.435 19.3639 313.589 14.5255 322.746 9.68584C331.907 4.84357 341.071 0 359.404 0C377.724 0 386.883 4.84228 396.04 9.6839C405.196 14.5242 414.35 19.3639 432.655 19.3639C450.988 19.3639 460.152 14.5204 469.313 9.67809C478.469 4.8384 487.623 0 505.927 0C524.257 0 533.421 4.84228 542.583 9.68391C551.743 14.5242 560.902 19.3639 579.217 19.3639C597.55 19.3639 606.714 14.5204 615.875 9.67809C625.032 4.8384 634.186 0 652.489 0C670.791 0 679.95 4.83128 689.099 9.65719C692.93 11.6782 696.76 13.6982 701.258 15.3621C706.944 17.5136 713.724 19.0628 722.927 19.321C723.863 19.3639 724.818 19.3639 725.793 19.3639H725.799H725.803C726.466 19.3639 727.09 19.3639 727.714 19.321H727.734C728.728 19.321 729.665 19.278 730.601 19.2351L730.606 19.2348H730.625C731.387 19.1918 732.13 19.1488 732.853 19.1058L732.892 19.1918V19.1058C734.025 19.0197 735.1 18.8907 736.155 18.7616C736.612 18.7147 737.058 18.6552 737.495 18.5967C737.861 18.5477 738.221 18.4996 738.578 18.4603C739.77 18.2452 740.903 18.03 741.997 17.8149C742.226 17.7568 742.45 17.7074 742.671 17.6589C742.941 17.5996 743.205 17.5416 743.462 17.4706C744.713 17.1693 745.885 16.8252 747.018 16.4809C747.083 16.4809 747.121 16.4514 747.166 16.4168C747.175 16.4096 747.184 16.4022 747.194 16.3948H747.214C747.683 16.2657 748.152 16.1366 748.601 15.9645C753.545 14.2862 757.667 12.1778 761.712 10.0263C762.298 9.7681 762.865 9.46683 763.431 9.16562C763.676 9.03652 763.915 8.90744 764.154 8.77835C764.394 8.64927 764.633 8.52018 764.877 8.39109C764.975 8.34806 765.053 8.30503 765.131 8.262C766.44 7.57351 767.749 6.92795 769.117 6.28248C769.298 6.18873 769.485 6.10776 769.674 6.02564C769.833 5.95701 769.993 5.88757 770.153 5.80921C770.68 5.55102 771.208 5.33585 771.755 5.1207C772.693 4.69039 773.67 4.30315 774.686 3.95891C775.487 3.61466 776.327 3.35642 777.187 3.09823C778.3 2.71096 779.473 2.36675 780.704 2.06553C781.798 1.80735 782.951 1.5491 784.143 1.33395C786.038 0.946671 788.09 0.645491 790.278 0.430336C791.274 0.301243 792.33 0.215192 793.404 0.172161Z" fill="url(#paint0_linear)"/>
<defs>
<linearGradient id="paint0_linear" x1="359.443" y1="0" x2="359.443" y2="583.71" gradientUnits="userSpaceOnUse">
<stop stop-color="#007CD6"/>
<stop offset="1" stop-color="#051429"/>
</linearGradient>
</defs>
</svg>
