<svg width="28" height="152" viewBox="0 0 28 152" fill="none" xmlns="http://www.w3.org/2000/svg">
<path opacity="0.3" d="M3.5029 31.6819C4.13969 29.8852 6.14102 28.93 7.93767 29.5895C9.73431 30.2491 10.6895 32.2277 10.03 34.0243C9.37043 35.8209 7.39184 36.7761 5.59519 36.1166C3.79855 35.4798 2.86612 33.5012 3.5029 31.6819Z" fill="white"/>
<g opacity="0.7">
<path opacity="0.7" d="M5.59515 35.0022C4.95837 34.4336 4.66273 33.5694 4.93564 32.7507C5.29952 31.6136 6.55033 30.9768 7.73292 31.3634C8.32422 31.5454 8.77906 31.932 9.05197 32.4095C8.87003 31.5453 8.23325 30.7949 7.32356 30.522C6.00451 30.1126 4.5945 30.7949 4.18514 32.0684C3.82127 33.2283 4.4353 34.4791 5.59515 35.0022Z" fill="white"/>
</g>
<path opacity="0.3" d="M0.273603 4.02724C1.13781 1.61655 3.79864 0.365692 6.20932 1.2299C8.61999 2.09411 9.8708 4.755 9.0066 7.16569C8.14239 9.57638 5.48157 10.8272 3.0709 9.96296C0.660227 9.09875 -0.590601 6.43793 0.273603 4.02724Z" fill="white"/>
<g opacity="0.7">
<path opacity="0.7" d="M3.07091 8.4393C2.22946 7.6888 1.84282 6.52889 2.18395 5.41451C2.66154 3.89077 4.34446 3.04935 5.93641 3.54969C6.70965 3.79985 7.32368 4.32292 7.7103 4.95971C7.48288 3.82258 6.61868 2.79918 5.39061 2.41256C3.61672 1.86674 1.72911 2.77638 1.20604 4.48206C0.705715 6.07404 1.54719 7.75702 3.07091 8.4393Z" fill="white"/>
</g>
<path opacity="0.3" d="M5.52699 72.9593C6.20926 71.0717 8.25605 70.0937 10.1436 70.776C12.0312 71.4583 13.0092 73.5051 12.3269 75.3927C11.6446 77.2803 9.59784 78.2582 7.71024 77.576C5.82264 76.9164 4.84473 74.8469 5.52699 72.9593Z" fill="white"/>
<g opacity="0.7">
<path opacity="0.7" d="M7.71021 76.3933C7.05068 75.802 6.75504 74.9151 7.02795 74.0508C7.39183 72.8682 8.71087 72.2087 9.93895 72.5953C10.553 72.7772 11.0306 73.1866 11.3035 73.687C11.1215 72.8 10.462 72.004 9.48411 71.7083C8.09684 71.2762 6.64134 72.004 6.23198 73.3231C5.84536 74.5739 6.50487 75.8702 7.71021 76.3933Z" fill="white"/>
</g>
<path opacity="0.3" d="M2.54787 144.666C3.54853 141.891 6.59601 140.458 9.37057 141.436C12.1451 142.437 13.5779 145.485 12.6 148.259C11.5993 151.034 8.55184 152.466 5.77728 151.489C3.00272 150.511 1.54721 147.44 2.54787 144.666Z" fill="white"/>
<g opacity="0.7">
<path opacity="0.7" d="M5.7545 149.76C4.77658 148.896 4.34448 147.554 4.7311 146.303C5.27692 144.552 7.21003 143.597 9.02942 144.166C9.91638 144.439 10.6214 145.053 11.0535 145.78C10.7806 144.461 9.80267 143.301 8.39264 142.869C6.34582 142.233 4.20802 143.301 3.59398 145.257C3.02542 147.054 4.00334 148.964 5.7545 149.76Z" fill="white"/>
</g>
<path opacity="0.3" d="M18.8995 115.124C19.6955 112.918 22.1062 111.78 24.3122 112.554C26.5182 113.35 27.6553 115.76 26.8821 117.966C26.0861 120.172 23.6754 121.309 21.4694 120.536C19.2634 119.74 18.1263 117.33 18.8995 115.124Z" fill="white"/>
<g opacity="0.7">
<path opacity="0.7" d="M21.4694 119.149C20.6962 118.467 20.3323 117.398 20.6507 116.397C21.0828 115.01 22.6293 114.237 24.0848 114.691C24.7898 114.919 25.3584 115.396 25.6995 115.988C25.4948 114.942 24.6988 114.032 23.5845 113.668C21.9698 113.168 20.2414 114.009 19.7638 115.556C19.2862 116.988 20.0594 118.535 21.4694 119.149Z" fill="white"/>
</g>
<path opacity="0.3" d="M2.29754 101.524C3.27546 98.7944 6.25472 97.3843 8.9838 98.3622C11.7129 99.3402 13.1229 102.319 12.145 105.049C11.1671 107.778 8.18781 109.188 5.45873 108.21C2.72964 107.232 1.31962 104.253 2.29754 101.524Z" fill="white"/>
<g opacity="0.7">
<path opacity="0.7" d="M5.436 106.504C4.48082 105.663 4.04873 104.344 4.43535 103.093C4.98116 101.364 6.86878 100.432 8.66542 101C9.55237 101.273 10.2346 101.865 10.644 102.592C10.3711 101.296 9.4159 100.159 8.02862 99.7269C6.0273 99.1128 3.91226 100.159 3.32096 102.069C2.77515 103.843 3.70758 105.731 5.436 106.504Z" fill="white"/>
</g>
</svg>
