<svg width="139" height="52" viewBox="0 0 139 52" fill="none" xmlns="http://www.w3.org/2000/svg">
<path opacity="0.3" d="M125.37 4.31863C124.799 5.90487 123.044 6.75087 121.458 6.17983C119.871 5.60878 119.025 3.8534 119.596 2.26716C120.167 0.680919 121.923 -0.165085 123.509 0.405961C125.116 0.955857 125.941 2.71124 125.37 4.31863Z" fill="white"/>
<g opacity="0.7">
<path opacity="0.7" d="M123.53 1.39989C124.08 1.88634 124.355 2.6689 124.122 3.38801C123.805 4.40321 122.705 4.95309 121.648 4.61469C121.14 4.44549 120.717 4.10708 120.485 3.68408C120.633 4.44548 121.204 5.10115 122.029 5.35495C123.213 5.71451 124.44 5.10117 124.799 3.98021C125.095 2.94385 124.545 1.84404 123.53 1.39989Z" fill="white"/>
</g>
<path opacity="0.3" d="M135.163 26.5898C134.275 29.1067 131.504 30.3968 129.008 29.5085C126.512 28.6202 125.201 25.8495 126.089 23.3537C126.978 20.858 129.748 19.5467 132.244 20.435C134.74 21.3233 136.051 24.0729 135.163 26.5898Z" fill="white"/>
<g opacity="0.7">
<path opacity="0.7" d="M132.244 22.0002C133.132 22.7828 133.534 23.9884 133.175 25.1305C132.667 26.7167 130.933 27.5838 129.283 27.055C128.479 26.8012 127.824 26.2514 127.443 25.5958C127.697 26.7802 128.564 27.8377 129.854 28.2395C131.694 28.8105 133.64 27.8588 134.211 26.0822C134.719 24.4536 133.852 22.6982 132.244 22.0002Z" fill="white"/>
</g>
<path opacity="0.3" d="M108.196 37.6722C107.625 39.2373 105.912 40.0621 104.326 39.4911C102.74 38.92 101.936 37.2069 102.507 35.6206C103.078 34.0344 104.791 33.2306 106.378 33.8017C107.943 34.3728 108.746 36.1071 108.196 37.6722Z" fill="white"/>
<g opacity="0.7">
<path opacity="0.7" d="M106.378 34.7958C106.927 35.2822 107.181 36.0437 106.949 36.7628C106.631 37.7568 105.553 38.3067 104.495 37.9683C103.987 37.7991 103.586 37.4607 103.353 37.0589C103.501 37.7991 104.051 38.4548 104.876 38.7086C106.039 39.0681 107.266 38.4548 107.604 37.355C107.922 36.3398 107.372 35.2399 106.378 34.7958Z" fill="white"/>
</g>
<path opacity="0.3" d="M138.758 49.3261C138.018 51.42 135.713 52.5198 133.619 51.7584C131.525 51.0181 130.425 48.7127 131.187 46.6189C131.927 44.525 134.232 43.4252 136.326 44.1866C138.42 44.9269 139.52 47.2323 138.758 49.3261Z" fill="white"/>
<g opacity="0.7">
<path opacity="0.7" d="M136.326 45.4979C137.066 46.1536 137.405 47.1477 137.088 48.1206C136.665 49.453 135.205 50.1721 133.83 49.728C133.154 49.5165 132.625 49.0723 132.308 48.5013C132.519 49.4953 133.259 50.3625 134.317 50.7009C135.861 51.1874 137.489 50.3837 137.955 48.9031C138.399 47.5495 137.68 46.0901 136.326 45.4979Z" fill="white"/>
</g>
<path opacity="0.3" d="M25.859 12.2921C25.0765 14.5128 22.623 15.6549 20.4234 14.8724C18.2026 14.0898 17.0605 11.6364 17.8431 9.43676C18.6256 7.21599 21.0791 6.07387 23.2787 6.85643C25.4783 7.63899 26.6416 10.0713 25.859 12.2921Z" fill="white"/>
<g opacity="0.7">
<path opacity="0.7" d="M23.2786 8.23121C24.0612 8.90801 24.4207 9.98667 24.1034 11.0019C23.6593 12.3978 22.1154 13.1592 20.656 12.715C19.9369 12.4824 19.387 12.0171 19.0486 11.4249C19.2601 12.4824 20.0426 13.3919 21.1848 13.7514C22.8133 14.259 24.5265 13.413 25.0129 11.8479C25.4571 10.4097 24.6957 8.86571 23.2786 8.23121Z" fill="white"/>
</g>
<path opacity="0.3" d="M28.7564 25.5111C28.2699 26.8647 26.7895 27.5626 25.457 27.0762C24.1034 26.5897 23.4055 25.1092 23.8919 23.7768C24.3784 22.4443 25.8589 21.7252 27.1913 22.2117C28.5238 22.6981 29.2428 24.1786 28.7564 25.5111Z" fill="white"/>
<g opacity="0.7">
<path opacity="0.7" d="M27.1914 23.0577C27.6567 23.4807 27.8893 24.1151 27.6778 24.7496C27.4028 25.5956 26.4722 26.0609 25.5839 25.786C25.1398 25.6591 24.8014 25.363 24.5898 25.0035C24.7168 25.638 25.2032 26.209 25.88 26.4205C26.8741 26.7377 27.9105 26.209 28.2066 25.2573C28.5238 24.369 28.0585 23.4384 27.1914 23.0577Z" fill="white"/>
</g>
<path opacity="0.3" d="M6.84486 24.1363C6.2738 25.7226 4.51838 26.5474 2.93211 25.9975C1.34584 25.4264 0.520965 23.671 1.07087 22.0848C1.64193 20.4985 3.39742 19.6737 4.98369 20.2236C6.56996 20.7735 7.41591 22.5501 6.84486 24.1363Z" fill="white"/>
<g opacity="0.7">
<path opacity="0.7" d="M5.00476 21.2387C5.55466 21.7251 5.82961 22.5077 5.59696 23.2268C5.27971 24.242 4.17994 24.792 3.12244 24.4536C2.61484 24.2844 2.19181 23.9459 1.95916 23.5229C2.10721 24.2844 2.67826 24.94 3.48196 25.1938C4.64521 25.5534 5.89305 24.94 6.2526 23.819C6.56985 22.7827 6.01996 21.6828 5.00476 21.2387Z" fill="white"/>
</g>
</svg>
