<svg width="58" height="126" viewBox="0 0 58 126" fill="none" xmlns="http://www.w3.org/2000/svg">
<path opacity="0.3" d="M6.66297 121.46C7.28182 119.752 9.16313 118.837 10.8959 119.455C12.6287 120.074 13.5198 121.956 12.901 123.688C12.2821 125.396 10.4008 126.312 8.66804 125.693C6.96002 125.075 6.04412 123.168 6.66297 121.46Z" fill="white"/>
<g opacity="0.7">
<path opacity="0.7" d="M8.66806 124.604C8.07396 124.06 7.77692 123.243 8.02446 122.451C8.37101 121.362 9.5592 120.767 10.6979 121.114C11.2672 121.287 11.688 121.659 11.9603 122.129C11.7871 121.312 11.193 120.594 10.3018 120.322C9.03937 119.926 7.70265 120.594 7.30659 121.807C6.96003 122.921 7.57888 124.109 8.66806 124.604Z" fill="white"/>
</g>
<path opacity="0.3" d="M46.6406 82.473C47.7298 79.4283 51.0716 77.844 54.1163 78.9332C57.1611 80.0224 58.7453 83.3641 57.6561 86.4089C56.567 89.4536 53.2252 91.0379 50.1804 89.9487C47.1604 88.8596 45.5762 85.493 46.6406 82.473Z" fill="white"/>
<g opacity="0.7">
<path opacity="0.7" d="M50.1804 88.0426C49.116 87.102 48.6209 85.6416 49.0665 84.2306C49.6606 82.2998 51.7894 81.2601 53.7945 81.8789C54.7847 82.176 55.552 82.8443 56.0224 83.6612C55.7253 82.2255 54.6609 80.9383 53.1014 80.4679C50.8735 79.7748 48.4971 80.9383 47.8288 83.0918C47.1852 85.0722 48.2496 87.1762 50.1804 88.0426Z" fill="white"/>
</g>
<path opacity="0.3" d="M12.0841 70.2693C12.8762 68.0167 15.3516 66.8532 17.6042 67.6453C19.8568 68.4375 21.0203 70.9129 20.2282 73.1655C19.436 75.4181 16.9606 76.5815 14.708 75.7646C12.4306 74.9725 11.2672 72.5219 12.0841 70.2693Z" fill="white"/>
<g opacity="0.7">
<path opacity="0.7" d="M14.6832 74.3785C13.8911 73.6854 13.5446 72.5962 13.8664 71.5565C14.3119 70.1455 15.8714 69.3534 17.3567 69.8237C18.0745 70.0465 18.6439 70.5416 18.9904 71.1357C18.7676 70.0713 17.9755 69.1306 16.8368 68.784C15.1783 68.2642 13.4455 69.1306 12.9505 70.7148C12.4554 72.1753 13.2475 73.7349 14.6832 74.3785Z" fill="white"/>
</g>
<path opacity="0.3" d="M1.01896 27.841C1.8606 25.5141 4.41026 24.3011 6.73714 25.1428C9.06401 25.9844 10.277 28.5341 9.43533 30.861C8.59369 33.1879 6.04403 34.4008 3.71715 33.5592C1.39027 32.7176 0.177328 30.1679 1.01896 27.841Z" fill="white"/>
<g opacity="0.7">
<path opacity="0.7" d="M3.71713 32.0988C2.90025 31.3809 2.52894 30.2669 2.85074 29.2025C3.32107 27.7421 4.93008 26.9252 6.46483 27.4202C7.20745 27.643 7.80154 28.1628 8.17285 28.7817C7.95007 27.6678 7.13319 26.7024 5.94499 26.3311C4.23697 25.7865 2.42993 26.7024 1.91009 28.3361C1.41501 29.8214 2.23189 31.4304 3.71713 32.0988Z" fill="white"/>
</g>
<path opacity="0.3" d="M36.1697 2.74028C36.8133 0.933231 38.8184 -0.00744215 40.6254 0.636166C42.4325 1.27977 43.3731 3.28491 42.7295 5.09196C42.0859 6.89901 40.0808 7.83961 38.2738 7.196C36.4668 6.55239 35.5261 4.54734 36.1697 2.74028Z" fill="white"/>
<g opacity="0.7">
<path opacity="0.7" d="M38.2738 6.05736C37.6302 5.48801 37.3579 4.6216 37.6054 3.80471C37.952 2.66602 39.2144 2.04717 40.4274 2.41848C41.0215 2.59176 41.4671 2.98781 41.7394 3.4829C41.5661 2.6165 40.9225 1.8739 40.0066 1.57685C38.6699 1.15602 37.2589 1.84916 36.8628 3.13638C36.4915 4.29982 37.1104 5.53752 38.2738 6.05736Z" fill="white"/>
</g>
</svg>
